G04 #@! TF.FileFunction,Soldermask,Top*
%FSLAX46Y46*%
G04 Gerber Fmt 4.6, Leading zero omitted, Abs format (unit mm)*
G04 Created by KiCad (PCBNEW 4.0.6) date Tuesday, July 11, 2017 'AMt' 12:39:54 AM*
%MOMM*%
%LPD*%
G01*
G04 APERTURE LIST*
%ADD10C,0.100000*%
%ADD11C,4.100000*%
%ADD12C,2.160000*%
%ADD13C,2.540000*%
%ADD14R,1.150000X1.600000*%
%ADD15R,1.900000X1.700000*%
%ADD16R,2.000000X0.950000*%
%ADD17R,0.950000X2.000000*%
%ADD18R,2.917400X0.877000*%
%ADD19R,2.100000X2.100000*%
%ADD20O,2.100000X2.100000*%
%ADD21R,2.350000X0.650000*%
%ADD22R,0.650000X2.350000*%
%ADD23R,1.600000X1.150000*%
%ADD24R,2.400000X4.900000*%
%ADD25C,3.660000*%
%ADD26R,2.000000X2.000000*%
%ADD27O,2.000000X2.000000*%
%ADD28C,1.900000*%
G04 APERTURE END LIST*
D10*
D11*
X78105000Y-75265000D03*
X78105000Y-100255000D03*
D12*
X80645000Y-92075000D03*
X80645000Y-89785000D03*
X80645000Y-87495000D03*
X80645000Y-85205000D03*
X80645000Y-82915000D03*
X78105000Y-93215000D03*
X78105000Y-90925000D03*
X78105000Y-88635000D03*
X78105000Y-86345000D03*
X78105000Y-84055000D03*
X75565000Y-92075000D03*
X75565000Y-89785000D03*
X75565000Y-87495000D03*
X75565000Y-85205000D03*
X75565000Y-82915000D03*
D13*
X134899400Y-112687100D03*
X72892920Y-104950260D03*
X84670900Y-44310300D03*
D14*
X89852500Y-80965000D03*
X89852500Y-82865000D03*
X94297500Y-86675000D03*
X94297500Y-84775000D03*
X85407500Y-77790000D03*
X85407500Y-79690000D03*
D10*
G36*
X85222723Y-70020450D02*
X84409550Y-70833623D01*
X83278179Y-69702252D01*
X84091352Y-68889079D01*
X85222723Y-70020450D01*
X85222723Y-70020450D01*
G37*
G36*
X83879221Y-68676948D02*
X83066048Y-69490121D01*
X81934677Y-68358750D01*
X82747850Y-67545577D01*
X83879221Y-68676948D01*
X83879221Y-68676948D01*
G37*
D15*
X88027500Y-91440000D03*
X85327500Y-91440000D03*
X88027500Y-88265000D03*
X85327500Y-88265000D03*
X88027500Y-85090000D03*
X85327500Y-85090000D03*
X83138000Y-110109000D03*
X80438000Y-110109000D03*
X117839500Y-108140500D03*
X120539500Y-108140500D03*
D16*
X94674000Y-112528000D03*
X94674000Y-111728000D03*
X94674000Y-110928000D03*
X94674000Y-110128000D03*
X94674000Y-109328000D03*
X94674000Y-108528000D03*
X94674000Y-107728000D03*
X94674000Y-106928000D03*
D17*
X93224000Y-105478000D03*
X92424000Y-105478000D03*
X91624000Y-105478000D03*
X90824000Y-105478000D03*
X90024000Y-105478000D03*
X89224000Y-105478000D03*
X88424000Y-105478000D03*
X87624000Y-105478000D03*
D16*
X86174000Y-106928000D03*
X86174000Y-107728000D03*
X86174000Y-108528000D03*
X86174000Y-109328000D03*
X86174000Y-110128000D03*
X86174000Y-110928000D03*
X86174000Y-111728000D03*
X86174000Y-112528000D03*
D17*
X87624000Y-113978000D03*
X88424000Y-113978000D03*
X89224000Y-113978000D03*
X90024000Y-113978000D03*
X90824000Y-113978000D03*
X91624000Y-113978000D03*
X92424000Y-113978000D03*
X93224000Y-113978000D03*
D18*
X144009000Y-110294000D03*
X144009000Y-109494000D03*
X144009000Y-108694000D03*
X144009000Y-107894000D03*
X144009000Y-107094000D03*
X144009000Y-106294000D03*
X144009000Y-105494000D03*
X144009000Y-104694000D03*
X144009000Y-103894000D03*
X144009000Y-103094000D03*
X144009000Y-102294000D03*
X144009000Y-101494000D03*
X144009000Y-100694000D03*
X144009000Y-99894000D03*
X144009000Y-99094000D03*
X144009000Y-98294000D03*
X144009000Y-97494000D03*
X144009000Y-96694000D03*
X144009000Y-95894000D03*
X144009000Y-95094000D03*
X144009000Y-94294000D03*
X144009000Y-93494000D03*
X131590920Y-93494000D03*
X131590920Y-94294000D03*
X131590920Y-95094000D03*
X131590920Y-95894000D03*
X131590920Y-96694000D03*
X131590920Y-97494000D03*
X131590920Y-98294000D03*
X131590920Y-99094000D03*
X131590920Y-99894000D03*
X131590920Y-100694000D03*
X131590920Y-101494000D03*
X131590920Y-102294000D03*
X131590920Y-103094000D03*
X131590920Y-103894000D03*
X131590920Y-104694000D03*
X131590920Y-105494000D03*
X131590920Y-106294000D03*
X131590920Y-107094000D03*
X131590920Y-107894000D03*
X131590920Y-108694000D03*
X131590920Y-109494000D03*
X131590920Y-110294000D03*
D19*
X142875000Y-53975000D03*
D20*
X145415000Y-53975000D03*
X142875000Y-56515000D03*
X145415000Y-56515000D03*
X142875000Y-59055000D03*
X145415000Y-59055000D03*
X142875000Y-61595000D03*
X145415000Y-61595000D03*
X142875000Y-64135000D03*
X145415000Y-64135000D03*
X142875000Y-66675000D03*
X145415000Y-66675000D03*
X142875000Y-69215000D03*
X145415000Y-69215000D03*
X142875000Y-71755000D03*
X145415000Y-71755000D03*
X142875000Y-74295000D03*
X145415000Y-74295000D03*
X142875000Y-76835000D03*
X145415000Y-76835000D03*
X142875000Y-79375000D03*
X145415000Y-79375000D03*
X142875000Y-81915000D03*
X145415000Y-81915000D03*
D19*
X74676000Y-108204000D03*
D20*
X77216000Y-108204000D03*
X74676000Y-110744000D03*
X77216000Y-110744000D03*
X74676000Y-113284000D03*
X77216000Y-113284000D03*
D19*
X135890000Y-115570000D03*
D20*
X133350000Y-115570000D03*
X130810000Y-115570000D03*
X128270000Y-115570000D03*
X125730000Y-115570000D03*
X123190000Y-115570000D03*
X120650000Y-115570000D03*
X118110000Y-115570000D03*
X115570000Y-115570000D03*
X113030000Y-115570000D03*
D21*
X114930000Y-68720000D03*
X114930000Y-69220000D03*
X114930000Y-69720000D03*
X114930000Y-70220000D03*
X114930000Y-70720000D03*
X114930000Y-71220000D03*
X114930000Y-71720000D03*
X114930000Y-72220000D03*
X114930000Y-72720000D03*
X114930000Y-73220000D03*
X114930000Y-73720000D03*
X114930000Y-74220000D03*
X114930000Y-74720000D03*
X114930000Y-75220000D03*
X114930000Y-75720000D03*
X114930000Y-76220000D03*
X114930000Y-76720000D03*
X114930000Y-77220000D03*
X114930000Y-77720000D03*
X114930000Y-78220000D03*
X114930000Y-78720000D03*
X114930000Y-79220000D03*
X114930000Y-79720000D03*
X114930000Y-80220000D03*
X114930000Y-80720000D03*
X114930000Y-81220000D03*
X114930000Y-81720000D03*
X114930000Y-82220000D03*
X114930000Y-82720000D03*
X114930000Y-83220000D03*
X114930000Y-83720000D03*
X114930000Y-84220000D03*
X114930000Y-84720000D03*
X114930000Y-85220000D03*
X114930000Y-85720000D03*
X114930000Y-86220000D03*
D22*
X116980000Y-88270000D03*
X117480000Y-88270000D03*
X117980000Y-88270000D03*
X118480000Y-88270000D03*
X118980000Y-88270000D03*
X119480000Y-88270000D03*
X119980000Y-88270000D03*
X120480000Y-88270000D03*
X120980000Y-88270000D03*
X121480000Y-88270000D03*
X121980000Y-88270000D03*
X122480000Y-88270000D03*
X122980000Y-88270000D03*
X123480000Y-88270000D03*
X123980000Y-88270000D03*
X124480000Y-88270000D03*
X124980000Y-88270000D03*
X125480000Y-88270000D03*
X125980000Y-88270000D03*
X126480000Y-88270000D03*
X126980000Y-88270000D03*
X127480000Y-88270000D03*
X127980000Y-88270000D03*
X128480000Y-88270000D03*
X128980000Y-88270000D03*
X129480000Y-88270000D03*
X129980000Y-88270000D03*
X130480000Y-88270000D03*
X130980000Y-88270000D03*
X131480000Y-88270000D03*
X131980000Y-88270000D03*
X132480000Y-88270000D03*
X132980000Y-88270000D03*
X133480000Y-88270000D03*
X133980000Y-88270000D03*
X134480000Y-88270000D03*
D21*
X136530000Y-86220000D03*
X136530000Y-85720000D03*
X136530000Y-85220000D03*
X136530000Y-84720000D03*
X136530000Y-84220000D03*
X136530000Y-83720000D03*
X136530000Y-83220000D03*
X136530000Y-82720000D03*
X136530000Y-82220000D03*
X136530000Y-81720000D03*
X136530000Y-81220000D03*
X136530000Y-80720000D03*
X136530000Y-80220000D03*
X136530000Y-79720000D03*
X136530000Y-79220000D03*
X136530000Y-78720000D03*
X136530000Y-78220000D03*
X136530000Y-77720000D03*
X136530000Y-77220000D03*
X136530000Y-76720000D03*
X136530000Y-76220000D03*
X136530000Y-75720000D03*
X136530000Y-75220000D03*
X136530000Y-74720000D03*
X136530000Y-74220000D03*
X136530000Y-73720000D03*
X136530000Y-73220000D03*
X136530000Y-72720000D03*
X136530000Y-72220000D03*
X136530000Y-71720000D03*
X136530000Y-71220000D03*
X136530000Y-70720000D03*
X136530000Y-70220000D03*
X136530000Y-69720000D03*
X136530000Y-69220000D03*
X136530000Y-68720000D03*
D22*
X134480000Y-66670000D03*
X133980000Y-66670000D03*
X133480000Y-66670000D03*
X132980000Y-66670000D03*
X132480000Y-66670000D03*
X131980000Y-66670000D03*
X131480000Y-66670000D03*
X130980000Y-66670000D03*
X130480000Y-66670000D03*
X129980000Y-66670000D03*
X129480000Y-66670000D03*
X128980000Y-66670000D03*
X128480000Y-66670000D03*
X127980000Y-66670000D03*
X127480000Y-66670000D03*
X126980000Y-66670000D03*
X126480000Y-66670000D03*
X125980000Y-66670000D03*
X125480000Y-66670000D03*
X124980000Y-66670000D03*
X124480000Y-66670000D03*
X123980000Y-66670000D03*
X123480000Y-66670000D03*
X122980000Y-66670000D03*
X122480000Y-66670000D03*
X121980000Y-66670000D03*
X121480000Y-66670000D03*
X120980000Y-66670000D03*
X120480000Y-66670000D03*
X119980000Y-66670000D03*
X119480000Y-66670000D03*
X118980000Y-66670000D03*
X118480000Y-66670000D03*
X117980000Y-66670000D03*
X117480000Y-66670000D03*
X116980000Y-66670000D03*
D23*
X110893900Y-81559400D03*
X108993900Y-81559400D03*
D10*
G36*
X89834077Y-62745350D02*
X90647250Y-61932177D01*
X91778621Y-63063548D01*
X90965448Y-63876721D01*
X89834077Y-62745350D01*
X89834077Y-62745350D01*
G37*
G36*
X91177579Y-64088852D02*
X91990752Y-63275679D01*
X93122123Y-64407050D01*
X92308950Y-65220223D01*
X91177579Y-64088852D01*
X91177579Y-64088852D01*
G37*
G36*
X87406750Y-65538977D02*
X88219923Y-66352150D01*
X87088552Y-67483521D01*
X86275379Y-66670348D01*
X87406750Y-65538977D01*
X87406750Y-65538977D01*
G37*
G36*
X86063248Y-66882479D02*
X86876421Y-67695652D01*
X85745050Y-68827023D01*
X84931877Y-68013850D01*
X86063248Y-66882479D01*
X86063248Y-66882479D01*
G37*
G36*
X92552250Y-61994423D02*
X91739077Y-61181250D01*
X92870448Y-60049879D01*
X93683621Y-60863052D01*
X92552250Y-61994423D01*
X92552250Y-61994423D01*
G37*
G36*
X93895752Y-60650921D02*
X93082579Y-59837748D01*
X94213950Y-58706377D01*
X95027123Y-59519550D01*
X93895752Y-60650921D01*
X93895752Y-60650921D01*
G37*
D14*
X84391500Y-75372000D03*
X84391500Y-73472000D03*
D10*
G36*
X86456250Y-72611623D02*
X85643077Y-71798450D01*
X86774448Y-70667079D01*
X87587621Y-71480252D01*
X86456250Y-72611623D01*
X86456250Y-72611623D01*
G37*
G36*
X87799752Y-71268121D02*
X86986579Y-70454948D01*
X88117950Y-69323577D01*
X88931123Y-70136750D01*
X87799752Y-71268121D01*
X87799752Y-71268121D01*
G37*
G36*
X89682050Y-69360423D02*
X88868877Y-68547250D01*
X90000248Y-67415879D01*
X90813421Y-68229052D01*
X89682050Y-69360423D01*
X89682050Y-69360423D01*
G37*
G36*
X91025552Y-68016921D02*
X90212379Y-67203748D01*
X91343750Y-66072377D01*
X92156923Y-66885550D01*
X91025552Y-68016921D01*
X91025552Y-68016921D01*
G37*
G36*
X104654977Y-81909650D02*
X105468150Y-81096477D01*
X106599521Y-82227848D01*
X105786348Y-83041021D01*
X104654977Y-81909650D01*
X104654977Y-81909650D01*
G37*
G36*
X105998479Y-83253152D02*
X106811652Y-82439979D01*
X107943023Y-83571350D01*
X107129850Y-84384523D01*
X105998479Y-83253152D01*
X105998479Y-83253152D01*
G37*
G36*
X112680123Y-78351650D02*
X111866950Y-79164823D01*
X110735579Y-78033452D01*
X111548752Y-77220279D01*
X112680123Y-78351650D01*
X112680123Y-78351650D01*
G37*
G36*
X111336621Y-77008148D02*
X110523448Y-77821321D01*
X109392077Y-76689950D01*
X110205250Y-75876777D01*
X111336621Y-77008148D01*
X111336621Y-77008148D01*
G37*
G36*
X104579150Y-89578823D02*
X103765977Y-88765650D01*
X104897348Y-87634279D01*
X105710521Y-88447452D01*
X104579150Y-89578823D01*
X104579150Y-89578823D01*
G37*
G36*
X105922652Y-88235321D02*
X105109479Y-87422148D01*
X106240850Y-86290777D01*
X107054023Y-87103950D01*
X105922652Y-88235321D01*
X105922652Y-88235321D01*
G37*
D23*
X98237000Y-89242900D03*
X100137000Y-89242900D03*
D10*
G36*
X98038650Y-61029223D02*
X97225477Y-60216050D01*
X98356848Y-59084679D01*
X99170021Y-59897852D01*
X98038650Y-61029223D01*
X98038650Y-61029223D01*
G37*
G36*
X99382152Y-59685721D02*
X98568979Y-58872548D01*
X99700350Y-57741177D01*
X100513523Y-58554350D01*
X99382152Y-59685721D01*
X99382152Y-59685721D01*
G37*
G36*
X96474550Y-60941577D02*
X97287723Y-61754750D01*
X96156352Y-62886121D01*
X95343179Y-62072948D01*
X96474550Y-60941577D01*
X96474550Y-60941577D01*
G37*
G36*
X95131048Y-62285079D02*
X95944221Y-63098252D01*
X94812850Y-64229623D01*
X93999677Y-63416450D01*
X95131048Y-62285079D01*
X95131048Y-62285079D01*
G37*
D19*
X113030000Y-113030000D03*
D20*
X115570000Y-113030000D03*
X118110000Y-113030000D03*
X120650000Y-113030000D03*
X123190000Y-113030000D03*
X125730000Y-113030000D03*
D23*
X110810000Y-107378500D03*
X112710000Y-107378500D03*
X110556000Y-99060000D03*
X112456000Y-99060000D03*
D24*
X105537000Y-106485000D03*
X105537000Y-97985000D03*
D19*
X145415000Y-115570000D03*
D20*
X142875000Y-115570000D03*
X140335000Y-115570000D03*
D23*
X145361700Y-50088800D03*
X143461700Y-50088800D03*
X120982700Y-103276400D03*
X122882700Y-103276400D03*
D19*
X72707500Y-55245000D03*
D20*
X72707500Y-52705000D03*
X72707500Y-50165000D03*
X72707500Y-47625000D03*
X72707500Y-45085000D03*
X72707500Y-42545000D03*
D25*
X143827500Y-86512400D03*
D19*
X106362500Y-43180000D03*
D20*
X106362500Y-45720000D03*
X108902500Y-43180000D03*
X108902500Y-45720000D03*
X111442500Y-43180000D03*
X111442500Y-45720000D03*
X113982500Y-43180000D03*
X113982500Y-45720000D03*
X116522500Y-43180000D03*
X116522500Y-45720000D03*
X119062500Y-43180000D03*
X119062500Y-45720000D03*
X121602500Y-43180000D03*
X121602500Y-45720000D03*
X124142500Y-43180000D03*
X124142500Y-45720000D03*
X126682500Y-43180000D03*
X126682500Y-45720000D03*
X129222500Y-43180000D03*
X129222500Y-45720000D03*
X131762500Y-43180000D03*
X131762500Y-45720000D03*
X134302500Y-43180000D03*
X134302500Y-45720000D03*
X136842500Y-43180000D03*
X136842500Y-45720000D03*
X139382500Y-43180000D03*
X139382500Y-45720000D03*
D25*
X143827500Y-44450000D03*
X79057500Y-44450000D03*
X103822500Y-114300000D03*
D10*
G36*
X114864523Y-92778850D02*
X114051350Y-93592023D01*
X112919979Y-92460652D01*
X113733152Y-91647479D01*
X114864523Y-92778850D01*
X114864523Y-92778850D01*
G37*
G36*
X113521021Y-91435348D02*
X112707848Y-92248521D01*
X111576477Y-91117150D01*
X112389650Y-90303977D01*
X113521021Y-91435348D01*
X113521021Y-91435348D01*
G37*
D26*
X95008700Y-101041200D03*
D27*
X87388700Y-95961200D03*
X95008700Y-98501200D03*
X87388700Y-98501200D03*
X95008700Y-95961200D03*
X87388700Y-101041200D03*
D28*
X120332500Y-100330000D03*
X120332500Y-92710000D03*
X120332500Y-95250000D03*
X120332500Y-97790000D03*
D13*
X112928400Y-64427100D03*
D10*
G36*
X109559838Y-72244390D02*
X110160879Y-72845431D01*
X108817376Y-74188934D01*
X108216335Y-73587893D01*
X109559838Y-72244390D01*
X109559838Y-72244390D01*
G37*
G36*
X109100218Y-71784771D02*
X109701259Y-72385812D01*
X108357756Y-73729315D01*
X107756715Y-73128274D01*
X109100218Y-71784771D01*
X109100218Y-71784771D01*
G37*
G36*
X108640599Y-71325151D02*
X109241640Y-71926192D01*
X107898137Y-73269695D01*
X107297096Y-72668654D01*
X108640599Y-71325151D01*
X108640599Y-71325151D01*
G37*
G36*
X108180979Y-70865532D02*
X108782020Y-71466573D01*
X107438517Y-72810076D01*
X106837476Y-72209035D01*
X108180979Y-70865532D01*
X108180979Y-70865532D01*
G37*
G36*
X107721360Y-70405913D02*
X108322401Y-71006954D01*
X106978898Y-72350457D01*
X106377857Y-71749416D01*
X107721360Y-70405913D01*
X107721360Y-70405913D01*
G37*
G36*
X107261741Y-69946293D02*
X107862782Y-70547334D01*
X106519279Y-71890837D01*
X105918238Y-71289796D01*
X107261741Y-69946293D01*
X107261741Y-69946293D01*
G37*
G36*
X106802121Y-69486674D02*
X107403162Y-70087715D01*
X106059659Y-71431218D01*
X105458618Y-70830177D01*
X106802121Y-69486674D01*
X106802121Y-69486674D01*
G37*
G36*
X106342502Y-69027054D02*
X106943543Y-69628095D01*
X105600040Y-70971598D01*
X104998999Y-70370557D01*
X106342502Y-69027054D01*
X106342502Y-69027054D01*
G37*
G36*
X105882882Y-68567435D02*
X106483923Y-69168476D01*
X105140420Y-70511979D01*
X104539379Y-69910938D01*
X105882882Y-68567435D01*
X105882882Y-68567435D01*
G37*
G36*
X105423263Y-68107815D02*
X106024304Y-68708856D01*
X104680801Y-70052359D01*
X104079760Y-69451318D01*
X105423263Y-68107815D01*
X105423263Y-68107815D01*
G37*
G36*
X104963644Y-67648196D02*
X105564685Y-68249237D01*
X104221182Y-69592740D01*
X103620141Y-68991699D01*
X104963644Y-67648196D01*
X104963644Y-67648196D01*
G37*
G36*
X104504024Y-67188577D02*
X105105065Y-67789618D01*
X103761562Y-69133121D01*
X103160521Y-68532080D01*
X104504024Y-67188577D01*
X104504024Y-67188577D01*
G37*
G36*
X104044405Y-66728957D02*
X104645446Y-67329998D01*
X103301943Y-68673501D01*
X102700902Y-68072460D01*
X104044405Y-66728957D01*
X104044405Y-66728957D01*
G37*
G36*
X103584785Y-66269338D02*
X104185826Y-66870379D01*
X102842323Y-68213882D01*
X102241282Y-67612841D01*
X103584785Y-66269338D01*
X103584785Y-66269338D01*
G37*
G36*
X103125166Y-65809718D02*
X103726207Y-66410759D01*
X102382704Y-67754262D01*
X101781663Y-67153221D01*
X103125166Y-65809718D01*
X103125166Y-65809718D01*
G37*
G36*
X102665546Y-65350099D02*
X103266587Y-65951140D01*
X101923084Y-67294643D01*
X101322043Y-66693602D01*
X102665546Y-65350099D01*
X102665546Y-65350099D01*
G37*
G36*
X102205927Y-64890480D02*
X102806968Y-65491521D01*
X101463465Y-66835024D01*
X100862424Y-66233983D01*
X102205927Y-64890480D01*
X102205927Y-64890480D01*
G37*
G36*
X101746308Y-64430860D02*
X102347349Y-65031901D01*
X101003846Y-66375404D01*
X100402805Y-65774363D01*
X101746308Y-64430860D01*
X101746308Y-64430860D01*
G37*
G36*
X101286688Y-63971241D02*
X101887729Y-64572282D01*
X100544226Y-65915785D01*
X99943185Y-65314744D01*
X101286688Y-63971241D01*
X101286688Y-63971241D01*
G37*
G36*
X100827069Y-63511621D02*
X101428110Y-64112662D01*
X100084607Y-65456165D01*
X99483566Y-64855124D01*
X100827069Y-63511621D01*
X100827069Y-63511621D01*
G37*
G36*
X97326890Y-64112662D02*
X97927931Y-63511621D01*
X99271434Y-64855124D01*
X98670393Y-65456165D01*
X97326890Y-64112662D01*
X97326890Y-64112662D01*
G37*
G36*
X96867271Y-64572282D02*
X97468312Y-63971241D01*
X98811815Y-65314744D01*
X98210774Y-65915785D01*
X96867271Y-64572282D01*
X96867271Y-64572282D01*
G37*
G36*
X96407651Y-65031901D02*
X97008692Y-64430860D01*
X98352195Y-65774363D01*
X97751154Y-66375404D01*
X96407651Y-65031901D01*
X96407651Y-65031901D01*
G37*
G36*
X95948032Y-65491521D02*
X96549073Y-64890480D01*
X97892576Y-66233983D01*
X97291535Y-66835024D01*
X95948032Y-65491521D01*
X95948032Y-65491521D01*
G37*
G36*
X95488413Y-65951140D02*
X96089454Y-65350099D01*
X97432957Y-66693602D01*
X96831916Y-67294643D01*
X95488413Y-65951140D01*
X95488413Y-65951140D01*
G37*
G36*
X95028793Y-66410759D02*
X95629834Y-65809718D01*
X96973337Y-67153221D01*
X96372296Y-67754262D01*
X95028793Y-66410759D01*
X95028793Y-66410759D01*
G37*
G36*
X94569174Y-66870379D02*
X95170215Y-66269338D01*
X96513718Y-67612841D01*
X95912677Y-68213882D01*
X94569174Y-66870379D01*
X94569174Y-66870379D01*
G37*
G36*
X94109554Y-67329998D02*
X94710595Y-66728957D01*
X96054098Y-68072460D01*
X95453057Y-68673501D01*
X94109554Y-67329998D01*
X94109554Y-67329998D01*
G37*
G36*
X93649935Y-67789618D02*
X94250976Y-67188577D01*
X95594479Y-68532080D01*
X94993438Y-69133121D01*
X93649935Y-67789618D01*
X93649935Y-67789618D01*
G37*
G36*
X93190315Y-68249237D02*
X93791356Y-67648196D01*
X95134859Y-68991699D01*
X94533818Y-69592740D01*
X93190315Y-68249237D01*
X93190315Y-68249237D01*
G37*
G36*
X92730696Y-68708856D02*
X93331737Y-68107815D01*
X94675240Y-69451318D01*
X94074199Y-70052359D01*
X92730696Y-68708856D01*
X92730696Y-68708856D01*
G37*
G36*
X92271077Y-69168476D02*
X92872118Y-68567435D01*
X94215621Y-69910938D01*
X93614580Y-70511979D01*
X92271077Y-69168476D01*
X92271077Y-69168476D01*
G37*
G36*
X91811457Y-69628095D02*
X92412498Y-69027054D01*
X93756001Y-70370557D01*
X93154960Y-70971598D01*
X91811457Y-69628095D01*
X91811457Y-69628095D01*
G37*
G36*
X91351838Y-70087715D02*
X91952879Y-69486674D01*
X93296382Y-70830177D01*
X92695341Y-71431218D01*
X91351838Y-70087715D01*
X91351838Y-70087715D01*
G37*
G36*
X90892218Y-70547334D02*
X91493259Y-69946293D01*
X92836762Y-71289796D01*
X92235721Y-71890837D01*
X90892218Y-70547334D01*
X90892218Y-70547334D01*
G37*
G36*
X90432599Y-71006954D02*
X91033640Y-70405913D01*
X92377143Y-71749416D01*
X91776102Y-72350457D01*
X90432599Y-71006954D01*
X90432599Y-71006954D01*
G37*
G36*
X89972980Y-71466573D02*
X90574021Y-70865532D01*
X91917524Y-72209035D01*
X91316483Y-72810076D01*
X89972980Y-71466573D01*
X89972980Y-71466573D01*
G37*
G36*
X89513360Y-71926192D02*
X90114401Y-71325151D01*
X91457904Y-72668654D01*
X90856863Y-73269695D01*
X89513360Y-71926192D01*
X89513360Y-71926192D01*
G37*
G36*
X89053741Y-72385812D02*
X89654782Y-71784771D01*
X90998285Y-73128274D01*
X90397244Y-73729315D01*
X89053741Y-72385812D01*
X89053741Y-72385812D01*
G37*
G36*
X88594121Y-72845431D02*
X89195162Y-72244390D01*
X90538665Y-73587893D01*
X89937624Y-74188934D01*
X88594121Y-72845431D01*
X88594121Y-72845431D01*
G37*
G36*
X89937624Y-74401066D02*
X90538665Y-75002107D01*
X89195162Y-76345610D01*
X88594121Y-75744569D01*
X89937624Y-74401066D01*
X89937624Y-74401066D01*
G37*
G36*
X90397244Y-74860685D02*
X90998285Y-75461726D01*
X89654782Y-76805229D01*
X89053741Y-76204188D01*
X90397244Y-74860685D01*
X90397244Y-74860685D01*
G37*
G36*
X90856863Y-75320305D02*
X91457904Y-75921346D01*
X90114401Y-77264849D01*
X89513360Y-76663808D01*
X90856863Y-75320305D01*
X90856863Y-75320305D01*
G37*
G36*
X91316483Y-75779924D02*
X91917524Y-76380965D01*
X90574021Y-77724468D01*
X89972980Y-77123427D01*
X91316483Y-75779924D01*
X91316483Y-75779924D01*
G37*
G36*
X91776102Y-76239543D02*
X92377143Y-76840584D01*
X91033640Y-78184087D01*
X90432599Y-77583046D01*
X91776102Y-76239543D01*
X91776102Y-76239543D01*
G37*
G36*
X92235721Y-76699163D02*
X92836762Y-77300204D01*
X91493259Y-78643707D01*
X90892218Y-78042666D01*
X92235721Y-76699163D01*
X92235721Y-76699163D01*
G37*
G36*
X92695341Y-77158782D02*
X93296382Y-77759823D01*
X91952879Y-79103326D01*
X91351838Y-78502285D01*
X92695341Y-77158782D01*
X92695341Y-77158782D01*
G37*
G36*
X93154960Y-77618402D02*
X93756001Y-78219443D01*
X92412498Y-79562946D01*
X91811457Y-78961905D01*
X93154960Y-77618402D01*
X93154960Y-77618402D01*
G37*
G36*
X93614580Y-78078021D02*
X94215621Y-78679062D01*
X92872118Y-80022565D01*
X92271077Y-79421524D01*
X93614580Y-78078021D01*
X93614580Y-78078021D01*
G37*
G36*
X94074199Y-78537641D02*
X94675240Y-79138682D01*
X93331737Y-80482185D01*
X92730696Y-79881144D01*
X94074199Y-78537641D01*
X94074199Y-78537641D01*
G37*
G36*
X94533818Y-78997260D02*
X95134859Y-79598301D01*
X93791356Y-80941804D01*
X93190315Y-80340763D01*
X94533818Y-78997260D01*
X94533818Y-78997260D01*
G37*
G36*
X94993438Y-79456879D02*
X95594479Y-80057920D01*
X94250976Y-81401423D01*
X93649935Y-80800382D01*
X94993438Y-79456879D01*
X94993438Y-79456879D01*
G37*
G36*
X95453057Y-79916499D02*
X96054098Y-80517540D01*
X94710595Y-81861043D01*
X94109554Y-81260002D01*
X95453057Y-79916499D01*
X95453057Y-79916499D01*
G37*
G36*
X95912677Y-80376118D02*
X96513718Y-80977159D01*
X95170215Y-82320662D01*
X94569174Y-81719621D01*
X95912677Y-80376118D01*
X95912677Y-80376118D01*
G37*
G36*
X96372296Y-80835738D02*
X96973337Y-81436779D01*
X95629834Y-82780282D01*
X95028793Y-82179241D01*
X96372296Y-80835738D01*
X96372296Y-80835738D01*
G37*
G36*
X96831916Y-81295357D02*
X97432957Y-81896398D01*
X96089454Y-83239901D01*
X95488413Y-82638860D01*
X96831916Y-81295357D01*
X96831916Y-81295357D01*
G37*
G36*
X97291535Y-81754976D02*
X97892576Y-82356017D01*
X96549073Y-83699520D01*
X95948032Y-83098479D01*
X97291535Y-81754976D01*
X97291535Y-81754976D01*
G37*
G36*
X97751154Y-82214596D02*
X98352195Y-82815637D01*
X97008692Y-84159140D01*
X96407651Y-83558099D01*
X97751154Y-82214596D01*
X97751154Y-82214596D01*
G37*
G36*
X98210774Y-82674215D02*
X98811815Y-83275256D01*
X97468312Y-84618759D01*
X96867271Y-84017718D01*
X98210774Y-82674215D01*
X98210774Y-82674215D01*
G37*
G36*
X98670393Y-83133835D02*
X99271434Y-83734876D01*
X97927931Y-85078379D01*
X97326890Y-84477338D01*
X98670393Y-83133835D01*
X98670393Y-83133835D01*
G37*
G36*
X99483566Y-83734876D02*
X100084607Y-83133835D01*
X101428110Y-84477338D01*
X100827069Y-85078379D01*
X99483566Y-83734876D01*
X99483566Y-83734876D01*
G37*
G36*
X99943185Y-83275256D02*
X100544226Y-82674215D01*
X101887729Y-84017718D01*
X101286688Y-84618759D01*
X99943185Y-83275256D01*
X99943185Y-83275256D01*
G37*
G36*
X100402805Y-82815637D02*
X101003846Y-82214596D01*
X102347349Y-83558099D01*
X101746308Y-84159140D01*
X100402805Y-82815637D01*
X100402805Y-82815637D01*
G37*
G36*
X100862424Y-82356017D02*
X101463465Y-81754976D01*
X102806968Y-83098479D01*
X102205927Y-83699520D01*
X100862424Y-82356017D01*
X100862424Y-82356017D01*
G37*
G36*
X101322043Y-81896398D02*
X101923084Y-81295357D01*
X103266587Y-82638860D01*
X102665546Y-83239901D01*
X101322043Y-81896398D01*
X101322043Y-81896398D01*
G37*
G36*
X101781663Y-81436779D02*
X102382704Y-80835738D01*
X103726207Y-82179241D01*
X103125166Y-82780282D01*
X101781663Y-81436779D01*
X101781663Y-81436779D01*
G37*
G36*
X102241282Y-80977159D02*
X102842323Y-80376118D01*
X104185826Y-81719621D01*
X103584785Y-82320662D01*
X102241282Y-80977159D01*
X102241282Y-80977159D01*
G37*
G36*
X102700902Y-80517540D02*
X103301943Y-79916499D01*
X104645446Y-81260002D01*
X104044405Y-81861043D01*
X102700902Y-80517540D01*
X102700902Y-80517540D01*
G37*
G36*
X103160521Y-80057920D02*
X103761562Y-79456879D01*
X105105065Y-80800382D01*
X104504024Y-81401423D01*
X103160521Y-80057920D01*
X103160521Y-80057920D01*
G37*
G36*
X103620141Y-79598301D02*
X104221182Y-78997260D01*
X105564685Y-80340763D01*
X104963644Y-80941804D01*
X103620141Y-79598301D01*
X103620141Y-79598301D01*
G37*
G36*
X104079760Y-79138682D02*
X104680801Y-78537641D01*
X106024304Y-79881144D01*
X105423263Y-80482185D01*
X104079760Y-79138682D01*
X104079760Y-79138682D01*
G37*
G36*
X104539379Y-78679062D02*
X105140420Y-78078021D01*
X106483923Y-79421524D01*
X105882882Y-80022565D01*
X104539379Y-78679062D01*
X104539379Y-78679062D01*
G37*
G36*
X104998999Y-78219443D02*
X105600040Y-77618402D01*
X106943543Y-78961905D01*
X106342502Y-79562946D01*
X104998999Y-78219443D01*
X104998999Y-78219443D01*
G37*
G36*
X105458618Y-77759823D02*
X106059659Y-77158782D01*
X107403162Y-78502285D01*
X106802121Y-79103326D01*
X105458618Y-77759823D01*
X105458618Y-77759823D01*
G37*
G36*
X105918238Y-77300204D02*
X106519279Y-76699163D01*
X107862782Y-78042666D01*
X107261741Y-78643707D01*
X105918238Y-77300204D01*
X105918238Y-77300204D01*
G37*
G36*
X106377857Y-76840584D02*
X106978898Y-76239543D01*
X108322401Y-77583046D01*
X107721360Y-78184087D01*
X106377857Y-76840584D01*
X106377857Y-76840584D01*
G37*
G36*
X106837476Y-76380965D02*
X107438517Y-75779924D01*
X108782020Y-77123427D01*
X108180979Y-77724468D01*
X106837476Y-76380965D01*
X106837476Y-76380965D01*
G37*
G36*
X107297096Y-75921346D02*
X107898137Y-75320305D01*
X109241640Y-76663808D01*
X108640599Y-77264849D01*
X107297096Y-75921346D01*
X107297096Y-75921346D01*
G37*
G36*
X107756715Y-75461726D02*
X108357756Y-74860685D01*
X109701259Y-76204188D01*
X109100218Y-76805229D01*
X107756715Y-75461726D01*
X107756715Y-75461726D01*
G37*
G36*
X108216335Y-75002107D02*
X108817376Y-74401066D01*
X110160879Y-75744569D01*
X109559838Y-76345610D01*
X108216335Y-75002107D01*
X108216335Y-75002107D01*
G37*
M02*
