G04 #@! TF.FileFunction,Legend,Bot*
%FSLAX46Y46*%
G04 Gerber Fmt 4.6, Leading zero omitted, Abs format (unit mm)*
G04 Created by KiCad (PCBNEW 4.0.6) date Tuesday, July 11, 2017 'AMt' 12:39:54 AM*
%MOMM*%
%LPD*%
G01*
G04 APERTURE LIST*
%ADD10C,0.100000*%
%ADD11C,0.300000*%
%ADD12C,0.120000*%
%ADD13C,0.010000*%
%ADD14C,0.150000*%
G04 APERTURE END LIST*
D10*
D11*
X139279357Y-110274571D02*
X139279357Y-108774571D01*
X139279357Y-109488857D02*
X138422214Y-109488857D01*
X138422214Y-110274571D02*
X138422214Y-108774571D01*
X137065071Y-110274571D02*
X137065071Y-109488857D01*
X137136500Y-109346000D01*
X137279357Y-109274571D01*
X137565071Y-109274571D01*
X137707928Y-109346000D01*
X137065071Y-110203143D02*
X137207928Y-110274571D01*
X137565071Y-110274571D01*
X137707928Y-110203143D01*
X137779357Y-110060286D01*
X137779357Y-109917429D01*
X137707928Y-109774571D01*
X137565071Y-109703143D01*
X137207928Y-109703143D01*
X137065071Y-109631714D01*
X135707928Y-110203143D02*
X135850785Y-110274571D01*
X136136499Y-110274571D01*
X136279357Y-110203143D01*
X136350785Y-110131714D01*
X136422214Y-109988857D01*
X136422214Y-109560286D01*
X136350785Y-109417429D01*
X136279357Y-109346000D01*
X136136499Y-109274571D01*
X135850785Y-109274571D01*
X135707928Y-109346000D01*
X135065071Y-110274571D02*
X135065071Y-108774571D01*
X134922214Y-109703143D02*
X134493643Y-110274571D01*
X134493643Y-109274571D02*
X135065071Y-109846000D01*
X133207928Y-110274571D02*
X133207928Y-109488857D01*
X133279357Y-109346000D01*
X133422214Y-109274571D01*
X133707928Y-109274571D01*
X133850785Y-109346000D01*
X133207928Y-110203143D02*
X133350785Y-110274571D01*
X133707928Y-110274571D01*
X133850785Y-110203143D01*
X133922214Y-110060286D01*
X133922214Y-109917429D01*
X133850785Y-109774571D01*
X133707928Y-109703143D01*
X133350785Y-109703143D01*
X133207928Y-109631714D01*
X131850785Y-110274571D02*
X131850785Y-108774571D01*
X131850785Y-110203143D02*
X131993642Y-110274571D01*
X132279356Y-110274571D01*
X132422214Y-110203143D01*
X132493642Y-110131714D01*
X132565071Y-109988857D01*
X132565071Y-109560286D01*
X132493642Y-109417429D01*
X132422214Y-109346000D01*
X132279356Y-109274571D01*
X131993642Y-109274571D01*
X131850785Y-109346000D01*
X130493642Y-110274571D02*
X130493642Y-109488857D01*
X130565071Y-109346000D01*
X130707928Y-109274571D01*
X130993642Y-109274571D01*
X131136499Y-109346000D01*
X130493642Y-110203143D02*
X130636499Y-110274571D01*
X130993642Y-110274571D01*
X131136499Y-110203143D01*
X131207928Y-110060286D01*
X131207928Y-109917429D01*
X131136499Y-109774571D01*
X130993642Y-109703143D01*
X130636499Y-109703143D01*
X130493642Y-109631714D01*
X129922213Y-109274571D02*
X129565070Y-110274571D01*
X129207928Y-109274571D02*
X129565070Y-110274571D01*
X129707928Y-110631714D01*
X129779356Y-110703143D01*
X129922213Y-110774571D01*
X139279357Y-112824571D02*
X139279357Y-111324571D01*
X138707929Y-111324571D01*
X138565071Y-111396000D01*
X138493643Y-111467429D01*
X138422214Y-111610286D01*
X138422214Y-111824571D01*
X138493643Y-111967429D01*
X138565071Y-112038857D01*
X138707929Y-112110286D01*
X139279357Y-112110286D01*
X137779357Y-112824571D02*
X137779357Y-111824571D01*
X137779357Y-112110286D02*
X137707929Y-111967429D01*
X137636500Y-111896000D01*
X137493643Y-111824571D01*
X137350786Y-111824571D01*
X136850786Y-112824571D02*
X136850786Y-111824571D01*
X136850786Y-111324571D02*
X136922215Y-111396000D01*
X136850786Y-111467429D01*
X136779358Y-111396000D01*
X136850786Y-111324571D01*
X136850786Y-111467429D01*
X136279357Y-111824571D02*
X135493643Y-111824571D01*
X136279357Y-112824571D01*
X135493643Y-112824571D01*
X134350786Y-112753143D02*
X134493643Y-112824571D01*
X134779357Y-112824571D01*
X134922214Y-112753143D01*
X134993643Y-112610286D01*
X134993643Y-112038857D01*
X134922214Y-111896000D01*
X134779357Y-111824571D01*
X134493643Y-111824571D01*
X134350786Y-111896000D01*
X134279357Y-112038857D01*
X134279357Y-112181714D01*
X134993643Y-112324571D01*
X132422215Y-111324571D02*
X132565072Y-111610286D01*
X130993643Y-112824571D02*
X131850786Y-112824571D01*
X131422214Y-112824571D02*
X131422214Y-111324571D01*
X131565071Y-111538857D01*
X131707929Y-111681714D01*
X131850786Y-111753143D01*
X130493643Y-111324571D02*
X129493643Y-111324571D01*
X130136500Y-112824571D01*
D12*
X88545749Y-66648577D02*
X89040723Y-67143551D01*
X89889251Y-66295023D02*
X89394277Y-65800049D01*
X83859123Y-63463249D02*
X83364149Y-63958223D01*
X84212677Y-64806751D02*
X84707651Y-64311777D01*
X94743349Y-86358977D02*
X95238323Y-86853951D01*
X96086851Y-86005423D02*
X95591877Y-85510449D01*
X87241418Y-68534410D02*
X86392890Y-67685882D01*
X85148382Y-68930390D02*
X85996910Y-69778918D01*
X86077500Y-92320000D02*
X87277500Y-92320000D01*
X87277500Y-90560000D02*
X86077500Y-90560000D01*
X86077500Y-89145000D02*
X87277500Y-89145000D01*
X87277500Y-87385000D02*
X86077500Y-87385000D01*
X86077500Y-85970000D02*
X87277500Y-85970000D01*
X87277500Y-84210000D02*
X86077500Y-84210000D01*
X82775500Y-108552500D02*
X82775500Y-109252500D01*
X83975500Y-109252500D02*
X83975500Y-108552500D01*
X98015500Y-110521000D02*
X98015500Y-111221000D01*
X99215500Y-111221000D02*
X99215500Y-110521000D01*
X107722749Y-67715377D02*
X108217723Y-68210351D01*
X109066251Y-67361823D02*
X108571277Y-66866849D01*
X97067449Y-78713577D02*
X97562423Y-79208551D01*
X98410951Y-78360023D02*
X97915977Y-77865049D01*
X93699251Y-74727823D02*
X93204277Y-74232849D01*
X92355749Y-75081377D02*
X92850723Y-75576351D01*
X91923623Y-82932349D02*
X91428649Y-83427323D01*
X92277177Y-84275851D02*
X92772151Y-83780877D01*
X105463900Y-74568800D02*
X105463900Y-73868800D01*
X104263900Y-73868800D02*
X104263900Y-74568800D01*
X127543000Y-101694500D02*
X127543000Y-102394500D01*
X128743000Y-102394500D02*
X128743000Y-101694500D01*
X139792000Y-102331000D02*
X139792000Y-101631000D01*
X138592000Y-101631000D02*
X138592000Y-102331000D01*
X90586000Y-111918000D02*
X90586000Y-112618000D01*
X91786000Y-112618000D02*
X91786000Y-111918000D01*
X118396500Y-62392000D02*
X117696500Y-62392000D01*
X117696500Y-63592000D02*
X118396500Y-63592000D01*
X126078500Y-63592000D02*
X126778500Y-63592000D01*
X126778500Y-62392000D02*
X126078500Y-62392000D01*
X126672860Y-70518580D02*
X127372860Y-70518580D01*
X127372860Y-69318580D02*
X126672860Y-69318580D01*
X132620500Y-62392000D02*
X131920500Y-62392000D01*
X131920500Y-63592000D02*
X132620500Y-63592000D01*
X133632500Y-71724000D02*
X133632500Y-71024000D01*
X132432500Y-71024000D02*
X132432500Y-71724000D01*
X132432500Y-75596000D02*
X132432500Y-76296000D01*
X133632500Y-76296000D02*
X133632500Y-75596000D01*
X133632500Y-80868000D02*
X133632500Y-80168000D01*
X132432500Y-80168000D02*
X132432500Y-80868000D01*
X129634500Y-86198000D02*
X130334500Y-86198000D01*
X130334500Y-84998000D02*
X129634500Y-84998000D01*
X126078500Y-92294000D02*
X126778500Y-92294000D01*
X126778500Y-91094000D02*
X126078500Y-91094000D01*
X123222500Y-83474000D02*
X122522500Y-83474000D01*
X122522500Y-84674000D02*
X123222500Y-84674000D01*
X88799749Y-80605877D02*
X89294723Y-81100851D01*
X90143251Y-80252323D02*
X89648277Y-79757349D01*
X120424500Y-77820000D02*
X120424500Y-77120000D01*
X119224500Y-77120000D02*
X119224500Y-77820000D01*
X115664500Y-71974000D02*
X116364500Y-71974000D01*
X116364500Y-70774000D02*
X115664500Y-70774000D01*
X83746900Y-100161200D02*
X82546900Y-100161200D01*
X82546900Y-101921200D02*
X83746900Y-101921200D01*
X83696100Y-97722800D02*
X82496100Y-97722800D01*
X82496100Y-99482800D02*
X83696100Y-99482800D01*
X83670700Y-95335200D02*
X82470700Y-95335200D01*
X82470700Y-97095200D02*
X83670700Y-97095200D01*
X125098100Y-104809400D02*
X123898100Y-104809400D01*
X123898100Y-106569400D02*
X125098100Y-106569400D01*
D13*
G36*
X145000854Y-111534587D02*
X144993781Y-111549745D01*
X144992591Y-111552691D01*
X144923250Y-111707858D01*
X144840616Y-111856927D01*
X144745558Y-111998547D01*
X144638951Y-112131371D01*
X144570931Y-112205123D01*
X144548053Y-112229159D01*
X144529670Y-112249387D01*
X144517940Y-112263374D01*
X144514794Y-112268425D01*
X144520225Y-112274322D01*
X144535796Y-112289098D01*
X144560420Y-112311773D01*
X144593011Y-112341366D01*
X144632484Y-112376895D01*
X144677753Y-112417381D01*
X144727732Y-112461841D01*
X144781335Y-112509295D01*
X144783565Y-112511265D01*
X144845582Y-112566086D01*
X144897266Y-112611949D01*
X144939527Y-112649741D01*
X144973273Y-112680344D01*
X144999414Y-112704645D01*
X145018859Y-112723526D01*
X145032517Y-112737874D01*
X145041298Y-112748571D01*
X145046111Y-112756503D01*
X145047866Y-112762554D01*
X145047471Y-112767609D01*
X145047398Y-112767904D01*
X145044018Y-112791273D01*
X145042279Y-112825786D01*
X145042068Y-112867753D01*
X145043272Y-112913480D01*
X145045777Y-112959275D01*
X145049471Y-113001446D01*
X145054240Y-113036300D01*
X145055898Y-113044941D01*
X145085065Y-113151665D01*
X145126208Y-113250130D01*
X145179994Y-113341528D01*
X145247089Y-113427051D01*
X145300879Y-113482670D01*
X145350499Y-113527541D01*
X145397701Y-113563925D01*
X145448203Y-113595863D01*
X145500619Y-113623855D01*
X145563895Y-113653374D01*
X145622346Y-113675212D01*
X145680394Y-113690427D01*
X145742462Y-113700079D01*
X145812969Y-113705228D01*
X145844558Y-113706265D01*
X145885712Y-113707015D01*
X145922439Y-113707244D01*
X145951745Y-113706968D01*
X145970637Y-113706201D01*
X145975294Y-113705626D01*
X145989374Y-113702641D01*
X146013565Y-113697727D01*
X146043312Y-113691806D01*
X146052152Y-113690066D01*
X146079931Y-113683986D01*
X146100716Y-113678226D01*
X146111268Y-113673738D01*
X146111917Y-113672554D01*
X146106064Y-113666663D01*
X146090119Y-113651854D01*
X146065177Y-113629113D01*
X146032333Y-113599426D01*
X145992681Y-113563779D01*
X145947316Y-113523159D01*
X145897331Y-113478552D01*
X145843823Y-113430944D01*
X145842337Y-113429625D01*
X145574911Y-113192058D01*
X145596464Y-113168926D01*
X145605717Y-113158795D01*
X145623868Y-113138737D01*
X145649840Y-113109951D01*
X145682555Y-113073632D01*
X145720936Y-113030978D01*
X145763905Y-112983187D01*
X145810384Y-112931454D01*
X145859297Y-112876977D01*
X145859408Y-112876853D01*
X145908393Y-112822310D01*
X145955013Y-112770467D01*
X145998181Y-112722527D01*
X146036809Y-112679695D01*
X146069810Y-112643176D01*
X146096096Y-112614173D01*
X146114582Y-112593891D01*
X146124164Y-112583550D01*
X146147530Y-112559189D01*
X146412530Y-112794501D01*
X146465895Y-112841807D01*
X146515857Y-112885940D01*
X146561307Y-112925931D01*
X146601137Y-112960815D01*
X146634239Y-112989621D01*
X146659505Y-113011384D01*
X146675827Y-113025135D01*
X146682091Y-113029906D01*
X146686131Y-113022883D01*
X146689728Y-113003078D01*
X146692696Y-112972650D01*
X146694848Y-112933758D01*
X146695999Y-112888558D01*
X146696141Y-112866821D01*
X146688972Y-112757927D01*
X146667764Y-112652617D01*
X146633213Y-112552016D01*
X146586018Y-112457251D01*
X146526875Y-112369447D01*
X146456482Y-112289730D01*
X146375537Y-112219227D01*
X146284738Y-112159064D01*
X146244235Y-112137352D01*
X146156265Y-112098424D01*
X146069531Y-112071210D01*
X145978544Y-112054079D01*
X145953787Y-112051106D01*
X145874144Y-112047216D01*
X145789404Y-112051315D01*
X145706782Y-112062925D01*
X145676758Y-112069371D01*
X145632222Y-112080008D01*
X145605787Y-112056830D01*
X145595081Y-112047395D01*
X145574371Y-112029099D01*
X145544839Y-112002988D01*
X145507668Y-111970107D01*
X145464038Y-111931503D01*
X145415132Y-111888220D01*
X145362132Y-111841304D01*
X145306219Y-111791800D01*
X145294057Y-111781032D01*
X145238647Y-111732023D01*
X145186660Y-111686149D01*
X145139159Y-111644340D01*
X145097207Y-111607526D01*
X145061866Y-111576638D01*
X145034200Y-111552606D01*
X145015271Y-111536360D01*
X145006142Y-111528832D01*
X145005478Y-111528412D01*
X145000854Y-111534587D01*
X145000854Y-111534587D01*
G37*
X145000854Y-111534587D02*
X144993781Y-111549745D01*
X144992591Y-111552691D01*
X144923250Y-111707858D01*
X144840616Y-111856927D01*
X144745558Y-111998547D01*
X144638951Y-112131371D01*
X144570931Y-112205123D01*
X144548053Y-112229159D01*
X144529670Y-112249387D01*
X144517940Y-112263374D01*
X144514794Y-112268425D01*
X144520225Y-112274322D01*
X144535796Y-112289098D01*
X144560420Y-112311773D01*
X144593011Y-112341366D01*
X144632484Y-112376895D01*
X144677753Y-112417381D01*
X144727732Y-112461841D01*
X144781335Y-112509295D01*
X144783565Y-112511265D01*
X144845582Y-112566086D01*
X144897266Y-112611949D01*
X144939527Y-112649741D01*
X144973273Y-112680344D01*
X144999414Y-112704645D01*
X145018859Y-112723526D01*
X145032517Y-112737874D01*
X145041298Y-112748571D01*
X145046111Y-112756503D01*
X145047866Y-112762554D01*
X145047471Y-112767609D01*
X145047398Y-112767904D01*
X145044018Y-112791273D01*
X145042279Y-112825786D01*
X145042068Y-112867753D01*
X145043272Y-112913480D01*
X145045777Y-112959275D01*
X145049471Y-113001446D01*
X145054240Y-113036300D01*
X145055898Y-113044941D01*
X145085065Y-113151665D01*
X145126208Y-113250130D01*
X145179994Y-113341528D01*
X145247089Y-113427051D01*
X145300879Y-113482670D01*
X145350499Y-113527541D01*
X145397701Y-113563925D01*
X145448203Y-113595863D01*
X145500619Y-113623855D01*
X145563895Y-113653374D01*
X145622346Y-113675212D01*
X145680394Y-113690427D01*
X145742462Y-113700079D01*
X145812969Y-113705228D01*
X145844558Y-113706265D01*
X145885712Y-113707015D01*
X145922439Y-113707244D01*
X145951745Y-113706968D01*
X145970637Y-113706201D01*
X145975294Y-113705626D01*
X145989374Y-113702641D01*
X146013565Y-113697727D01*
X146043312Y-113691806D01*
X146052152Y-113690066D01*
X146079931Y-113683986D01*
X146100716Y-113678226D01*
X146111268Y-113673738D01*
X146111917Y-113672554D01*
X146106064Y-113666663D01*
X146090119Y-113651854D01*
X146065177Y-113629113D01*
X146032333Y-113599426D01*
X145992681Y-113563779D01*
X145947316Y-113523159D01*
X145897331Y-113478552D01*
X145843823Y-113430944D01*
X145842337Y-113429625D01*
X145574911Y-113192058D01*
X145596464Y-113168926D01*
X145605717Y-113158795D01*
X145623868Y-113138737D01*
X145649840Y-113109951D01*
X145682555Y-113073632D01*
X145720936Y-113030978D01*
X145763905Y-112983187D01*
X145810384Y-112931454D01*
X145859297Y-112876977D01*
X145859408Y-112876853D01*
X145908393Y-112822310D01*
X145955013Y-112770467D01*
X145998181Y-112722527D01*
X146036809Y-112679695D01*
X146069810Y-112643176D01*
X146096096Y-112614173D01*
X146114582Y-112593891D01*
X146124164Y-112583550D01*
X146147530Y-112559189D01*
X146412530Y-112794501D01*
X146465895Y-112841807D01*
X146515857Y-112885940D01*
X146561307Y-112925931D01*
X146601137Y-112960815D01*
X146634239Y-112989621D01*
X146659505Y-113011384D01*
X146675827Y-113025135D01*
X146682091Y-113029906D01*
X146686131Y-113022883D01*
X146689728Y-113003078D01*
X146692696Y-112972650D01*
X146694848Y-112933758D01*
X146695999Y-112888558D01*
X146696141Y-112866821D01*
X146688972Y-112757927D01*
X146667764Y-112652617D01*
X146633213Y-112552016D01*
X146586018Y-112457251D01*
X146526875Y-112369447D01*
X146456482Y-112289730D01*
X146375537Y-112219227D01*
X146284738Y-112159064D01*
X146244235Y-112137352D01*
X146156265Y-112098424D01*
X146069531Y-112071210D01*
X145978544Y-112054079D01*
X145953787Y-112051106D01*
X145874144Y-112047216D01*
X145789404Y-112051315D01*
X145706782Y-112062925D01*
X145676758Y-112069371D01*
X145632222Y-112080008D01*
X145605787Y-112056830D01*
X145595081Y-112047395D01*
X145574371Y-112029099D01*
X145544839Y-112002988D01*
X145507668Y-111970107D01*
X145464038Y-111931503D01*
X145415132Y-111888220D01*
X145362132Y-111841304D01*
X145306219Y-111791800D01*
X145294057Y-111781032D01*
X145238647Y-111732023D01*
X145186660Y-111686149D01*
X145139159Y-111644340D01*
X145097207Y-111607526D01*
X145061866Y-111576638D01*
X145034200Y-111552606D01*
X145015271Y-111536360D01*
X145006142Y-111528832D01*
X145005478Y-111528412D01*
X145000854Y-111534587D01*
G36*
X141886539Y-111537471D02*
X141869997Y-111550257D01*
X141844361Y-111571245D01*
X141810659Y-111599561D01*
X141769915Y-111634333D01*
X141723156Y-111674686D01*
X141671409Y-111719747D01*
X141615699Y-111768643D01*
X141579240Y-111800835D01*
X141521380Y-111851888D01*
X141466703Y-111899833D01*
X141416257Y-111943773D01*
X141371090Y-111982809D01*
X141332248Y-112016043D01*
X141300779Y-112042577D01*
X141277730Y-112061513D01*
X141264149Y-112071952D01*
X141260963Y-112073765D01*
X141249097Y-112072046D01*
X141227428Y-112067535D01*
X141200610Y-112061203D01*
X141200184Y-112061097D01*
X141164627Y-112054910D01*
X141118269Y-112050695D01*
X141065119Y-112048457D01*
X141009187Y-112048197D01*
X140954481Y-112049917D01*
X140905012Y-112053620D01*
X140864788Y-112059308D01*
X140857245Y-112060902D01*
X140758213Y-112090101D01*
X140662072Y-112130942D01*
X140572668Y-112181602D01*
X140514294Y-112223398D01*
X140435338Y-112295072D01*
X140366569Y-112376204D01*
X140308683Y-112465182D01*
X140262374Y-112560390D01*
X140228339Y-112660217D01*
X140207274Y-112763046D01*
X140199873Y-112867266D01*
X140203577Y-112944071D01*
X140207104Y-112977091D01*
X140210373Y-113004117D01*
X140212980Y-113021996D01*
X140214338Y-113027623D01*
X140220273Y-113023353D01*
X140236262Y-113010100D01*
X140261205Y-112988819D01*
X140293999Y-112960467D01*
X140333543Y-112926000D01*
X140378737Y-112886373D01*
X140428480Y-112842544D01*
X140480322Y-112796663D01*
X140533575Y-112749489D01*
X140583439Y-112705420D01*
X140628799Y-112665436D01*
X140668537Y-112630517D01*
X140701535Y-112601643D01*
X140726677Y-112579794D01*
X140742845Y-112565949D01*
X140748891Y-112561098D01*
X140754609Y-112566115D01*
X140769190Y-112581073D01*
X140791543Y-112604768D01*
X140820580Y-112635996D01*
X140855210Y-112673555D01*
X140894345Y-112716239D01*
X140936895Y-112762846D01*
X140981771Y-112812172D01*
X141027883Y-112863014D01*
X141074143Y-112914167D01*
X141119460Y-112964429D01*
X141162746Y-113012596D01*
X141202910Y-113057464D01*
X141238865Y-113097830D01*
X141269519Y-113132490D01*
X141293785Y-113160240D01*
X141310572Y-113179877D01*
X141318791Y-113190198D01*
X141319433Y-113191454D01*
X141313681Y-113196932D01*
X141297848Y-113211348D01*
X141273028Y-113233723D01*
X141240316Y-113263075D01*
X141200804Y-113298426D01*
X141155586Y-113338795D01*
X141105758Y-113383203D01*
X141052411Y-113430670D01*
X141052009Y-113431027D01*
X140998863Y-113478502D01*
X140949506Y-113523027D01*
X140904995Y-113563616D01*
X140866391Y-113599283D01*
X140834751Y-113629042D01*
X140811134Y-113651906D01*
X140796599Y-113666890D01*
X140792203Y-113673007D01*
X140792223Y-113673029D01*
X140805759Y-113679576D01*
X140831336Y-113686281D01*
X140866066Y-113692699D01*
X140907060Y-113698384D01*
X140951431Y-113702892D01*
X140996290Y-113705777D01*
X141007353Y-113706196D01*
X141085195Y-113706260D01*
X141149665Y-113701014D01*
X141166556Y-113698389D01*
X141273371Y-113672231D01*
X141374555Y-113632806D01*
X141469066Y-113581068D01*
X141555863Y-113517968D01*
X141633903Y-113444459D01*
X141702145Y-113361493D01*
X141759548Y-113270023D01*
X141805070Y-113171001D01*
X141831249Y-113090653D01*
X141838341Y-113063032D01*
X141843533Y-113038201D01*
X141847148Y-113012867D01*
X141849508Y-112983741D01*
X141850937Y-112947531D01*
X141851757Y-112900946D01*
X141851980Y-112879405D01*
X141853261Y-112740015D01*
X142117601Y-112506571D01*
X142170929Y-112459480D01*
X142220778Y-112415470D01*
X142266040Y-112375518D01*
X142305609Y-112340600D01*
X142338378Y-112311693D01*
X142363240Y-112289774D01*
X142379088Y-112275818D01*
X142384805Y-112270812D01*
X142380994Y-112264893D01*
X142368567Y-112250218D01*
X142349289Y-112228775D01*
X142324923Y-112202555D01*
X142315317Y-112192405D01*
X142202262Y-112064158D01*
X142103437Y-111932088D01*
X142018506Y-111795689D01*
X141947131Y-111654454D01*
X141929677Y-111614324D01*
X141916395Y-111583307D01*
X141904841Y-111557428D01*
X141896436Y-111539799D01*
X141892960Y-111533762D01*
X141886539Y-111537471D01*
X141886539Y-111537471D01*
G37*
X141886539Y-111537471D02*
X141869997Y-111550257D01*
X141844361Y-111571245D01*
X141810659Y-111599561D01*
X141769915Y-111634333D01*
X141723156Y-111674686D01*
X141671409Y-111719747D01*
X141615699Y-111768643D01*
X141579240Y-111800835D01*
X141521380Y-111851888D01*
X141466703Y-111899833D01*
X141416257Y-111943773D01*
X141371090Y-111982809D01*
X141332248Y-112016043D01*
X141300779Y-112042577D01*
X141277730Y-112061513D01*
X141264149Y-112071952D01*
X141260963Y-112073765D01*
X141249097Y-112072046D01*
X141227428Y-112067535D01*
X141200610Y-112061203D01*
X141200184Y-112061097D01*
X141164627Y-112054910D01*
X141118269Y-112050695D01*
X141065119Y-112048457D01*
X141009187Y-112048197D01*
X140954481Y-112049917D01*
X140905012Y-112053620D01*
X140864788Y-112059308D01*
X140857245Y-112060902D01*
X140758213Y-112090101D01*
X140662072Y-112130942D01*
X140572668Y-112181602D01*
X140514294Y-112223398D01*
X140435338Y-112295072D01*
X140366569Y-112376204D01*
X140308683Y-112465182D01*
X140262374Y-112560390D01*
X140228339Y-112660217D01*
X140207274Y-112763046D01*
X140199873Y-112867266D01*
X140203577Y-112944071D01*
X140207104Y-112977091D01*
X140210373Y-113004117D01*
X140212980Y-113021996D01*
X140214338Y-113027623D01*
X140220273Y-113023353D01*
X140236262Y-113010100D01*
X140261205Y-112988819D01*
X140293999Y-112960467D01*
X140333543Y-112926000D01*
X140378737Y-112886373D01*
X140428480Y-112842544D01*
X140480322Y-112796663D01*
X140533575Y-112749489D01*
X140583439Y-112705420D01*
X140628799Y-112665436D01*
X140668537Y-112630517D01*
X140701535Y-112601643D01*
X140726677Y-112579794D01*
X140742845Y-112565949D01*
X140748891Y-112561098D01*
X140754609Y-112566115D01*
X140769190Y-112581073D01*
X140791543Y-112604768D01*
X140820580Y-112635996D01*
X140855210Y-112673555D01*
X140894345Y-112716239D01*
X140936895Y-112762846D01*
X140981771Y-112812172D01*
X141027883Y-112863014D01*
X141074143Y-112914167D01*
X141119460Y-112964429D01*
X141162746Y-113012596D01*
X141202910Y-113057464D01*
X141238865Y-113097830D01*
X141269519Y-113132490D01*
X141293785Y-113160240D01*
X141310572Y-113179877D01*
X141318791Y-113190198D01*
X141319433Y-113191454D01*
X141313681Y-113196932D01*
X141297848Y-113211348D01*
X141273028Y-113233723D01*
X141240316Y-113263075D01*
X141200804Y-113298426D01*
X141155586Y-113338795D01*
X141105758Y-113383203D01*
X141052411Y-113430670D01*
X141052009Y-113431027D01*
X140998863Y-113478502D01*
X140949506Y-113523027D01*
X140904995Y-113563616D01*
X140866391Y-113599283D01*
X140834751Y-113629042D01*
X140811134Y-113651906D01*
X140796599Y-113666890D01*
X140792203Y-113673007D01*
X140792223Y-113673029D01*
X140805759Y-113679576D01*
X140831336Y-113686281D01*
X140866066Y-113692699D01*
X140907060Y-113698384D01*
X140951431Y-113702892D01*
X140996290Y-113705777D01*
X141007353Y-113706196D01*
X141085195Y-113706260D01*
X141149665Y-113701014D01*
X141166556Y-113698389D01*
X141273371Y-113672231D01*
X141374555Y-113632806D01*
X141469066Y-113581068D01*
X141555863Y-113517968D01*
X141633903Y-113444459D01*
X141702145Y-113361493D01*
X141759548Y-113270023D01*
X141805070Y-113171001D01*
X141831249Y-113090653D01*
X141838341Y-113063032D01*
X141843533Y-113038201D01*
X141847148Y-113012867D01*
X141849508Y-112983741D01*
X141850937Y-112947531D01*
X141851757Y-112900946D01*
X141851980Y-112879405D01*
X141853261Y-112740015D01*
X142117601Y-112506571D01*
X142170929Y-112459480D01*
X142220778Y-112415470D01*
X142266040Y-112375518D01*
X142305609Y-112340600D01*
X142338378Y-112311693D01*
X142363240Y-112289774D01*
X142379088Y-112275818D01*
X142384805Y-112270812D01*
X142380994Y-112264893D01*
X142368567Y-112250218D01*
X142349289Y-112228775D01*
X142324923Y-112202555D01*
X142315317Y-112192405D01*
X142202262Y-112064158D01*
X142103437Y-111932088D01*
X142018506Y-111795689D01*
X141947131Y-111654454D01*
X141929677Y-111614324D01*
X141916395Y-111583307D01*
X141904841Y-111557428D01*
X141896436Y-111539799D01*
X141892960Y-111533762D01*
X141886539Y-111537471D01*
G36*
X143324655Y-109123068D02*
X143180617Y-109143441D01*
X143084176Y-109165296D01*
X142948121Y-109208428D01*
X142817382Y-109265005D01*
X142692617Y-109334278D01*
X142574482Y-109415495D01*
X142463635Y-109507907D01*
X142360732Y-109610763D01*
X142266431Y-109723313D01*
X142181389Y-109844805D01*
X142106263Y-109974490D01*
X142041710Y-110111617D01*
X141988387Y-110255436D01*
X141946951Y-110405197D01*
X141930810Y-110482529D01*
X141910012Y-110628614D01*
X141900609Y-110779836D01*
X141902504Y-110932740D01*
X141915599Y-111083871D01*
X141939800Y-111229774D01*
X141953388Y-111289211D01*
X141999805Y-111445759D01*
X142059303Y-111595467D01*
X142131547Y-111737802D01*
X142216199Y-111872230D01*
X142312925Y-111998218D01*
X142421389Y-112115235D01*
X142541254Y-112222746D01*
X142542512Y-112223774D01*
X142575280Y-112250519D01*
X142559289Y-112284538D01*
X142538205Y-112345490D01*
X142530850Y-112406909D01*
X142536283Y-112467032D01*
X142553558Y-112524093D01*
X142581732Y-112576327D01*
X142619861Y-112621970D01*
X142667003Y-112659256D01*
X142722212Y-112686420D01*
X142782183Y-112701374D01*
X142847406Y-112703636D01*
X142909073Y-112692475D01*
X142965622Y-112669159D01*
X143015488Y-112634956D01*
X143057108Y-112591133D01*
X143088916Y-112538959D01*
X143109350Y-112479702D01*
X143116322Y-112430485D01*
X143118350Y-112401328D01*
X143120911Y-112384036D01*
X143125067Y-112375542D01*
X143131877Y-112372779D01*
X143136352Y-112372588D01*
X143145061Y-112373846D01*
X143150526Y-112379721D01*
X143153970Y-112393368D01*
X143156613Y-112417942D01*
X143157340Y-112426750D01*
X143165180Y-112482519D01*
X143179869Y-112529042D01*
X143203089Y-112571095D01*
X143213184Y-112585167D01*
X143258761Y-112634530D01*
X143310754Y-112670420D01*
X143369445Y-112692977D01*
X143435116Y-112702342D01*
X143450235Y-112702645D01*
X143517451Y-112696110D01*
X143577625Y-112676413D01*
X143631039Y-112643412D01*
X143677977Y-112596969D01*
X143687286Y-112585167D01*
X143713777Y-112543546D01*
X143731166Y-112499071D01*
X143741137Y-112446968D01*
X143743130Y-112426750D01*
X143746031Y-112398074D01*
X143749621Y-112381439D01*
X143754823Y-112373949D01*
X143760366Y-112372588D01*
X143767823Y-112375150D01*
X143771993Y-112384980D01*
X143773900Y-112405302D01*
X143774240Y-112416260D01*
X143782248Y-112480978D01*
X143803518Y-112539668D01*
X143838529Y-112593357D01*
X143875816Y-112632537D01*
X143925756Y-112668441D01*
X143983055Y-112693070D01*
X144044440Y-112705647D01*
X144106639Y-112705395D01*
X144148554Y-112697269D01*
X144200803Y-112677662D01*
X144246117Y-112649006D01*
X144285853Y-112612037D01*
X144325596Y-112559235D01*
X144352861Y-112500391D01*
X144367241Y-112437810D01*
X144368329Y-112373797D01*
X144355719Y-112310656D01*
X144344366Y-112280621D01*
X144329673Y-112247405D01*
X144366729Y-112219146D01*
X144394895Y-112195745D01*
X144429890Y-112163753D01*
X144468906Y-112125998D01*
X144509134Y-112085305D01*
X144547768Y-112044503D01*
X144581998Y-112006418D01*
X144603904Y-111980333D01*
X144687422Y-111866026D01*
X144763328Y-111741089D01*
X144768042Y-111731741D01*
X143593654Y-111731741D01*
X143588343Y-111777770D01*
X143581407Y-111801088D01*
X143574739Y-111815726D01*
X143569477Y-111817910D01*
X143561967Y-111809315D01*
X143553656Y-111794100D01*
X143544026Y-111771046D01*
X143539080Y-111757021D01*
X143520830Y-111709388D01*
X143500375Y-111669993D01*
X143478917Y-111640545D01*
X143457659Y-111622752D01*
X143441400Y-111618059D01*
X143424739Y-111625212D01*
X143407553Y-111645572D01*
X143390899Y-111677488D01*
X143375829Y-111719307D01*
X143375020Y-111722019D01*
X143361828Y-111765557D01*
X143351506Y-111795619D01*
X143343170Y-111813191D01*
X143335937Y-111819259D01*
X143328921Y-111814807D01*
X143321240Y-111800823D01*
X143315843Y-111788015D01*
X143306583Y-111750696D01*
X143303395Y-111702914D01*
X143305686Y-111647578D01*
X143312862Y-111587596D01*
X143324327Y-111525877D01*
X143339488Y-111465330D01*
X143357750Y-111408861D01*
X143378519Y-111359381D01*
X143401200Y-111319796D01*
X143415082Y-111302427D01*
X143429972Y-111288972D01*
X143442004Y-111282108D01*
X143443580Y-111281882D01*
X143456782Y-111288376D01*
X143473507Y-111306006D01*
X143491832Y-111331995D01*
X143509835Y-111363566D01*
X143525592Y-111397942D01*
X143527752Y-111403454D01*
X143552256Y-111474760D01*
X143571399Y-111545472D01*
X143584880Y-111613361D01*
X143592399Y-111676194D01*
X143593654Y-111731741D01*
X144768042Y-111731741D01*
X144830208Y-111608486D01*
X144886651Y-111471181D01*
X144931242Y-111332138D01*
X144951087Y-111252000D01*
X144974434Y-111123014D01*
X144989413Y-110988712D01*
X144995862Y-110853151D01*
X144995680Y-110842364D01*
X144565085Y-110842364D01*
X144564680Y-110907938D01*
X144558280Y-110975921D01*
X144546390Y-111040918D01*
X144529849Y-111096640D01*
X144507450Y-111141024D01*
X144474221Y-111186764D01*
X144433303Y-111229915D01*
X144403815Y-111254904D01*
X144367630Y-111281036D01*
X144339512Y-111296938D01*
X144317360Y-111303326D01*
X144299073Y-111300917D01*
X144287663Y-111294540D01*
X144278639Y-111281775D01*
X144272027Y-111257434D01*
X144268559Y-111232908D01*
X144258654Y-111182014D01*
X144241688Y-111138087D01*
X144218991Y-111104097D01*
X144205127Y-111091153D01*
X144182630Y-111076731D01*
X144149100Y-111058778D01*
X144107596Y-111038733D01*
X144061177Y-111018037D01*
X144012899Y-110998129D01*
X143984480Y-110987225D01*
X143910628Y-110955315D01*
X143846262Y-110918390D01*
X143792618Y-110877450D01*
X143750929Y-110833498D01*
X143722430Y-110787536D01*
X143714871Y-110768422D01*
X143710507Y-110745794D01*
X143708827Y-110716695D01*
X143709353Y-110700061D01*
X143712087Y-110687463D01*
X143189853Y-110687463D01*
X143188972Y-110728131D01*
X143177015Y-110772755D01*
X143155327Y-110816984D01*
X143145142Y-110832325D01*
X143122087Y-110857511D01*
X143088193Y-110885566D01*
X143046709Y-110914383D01*
X143000886Y-110941856D01*
X142953972Y-110965878D01*
X142912353Y-110983225D01*
X142875835Y-110997407D01*
X142835625Y-111014635D01*
X142794537Y-111033521D01*
X142755388Y-111052677D01*
X142720992Y-111070716D01*
X142694165Y-111086248D01*
X142677722Y-111097888D01*
X142675695Y-111099879D01*
X142658382Y-111126519D01*
X142643709Y-111163054D01*
X142633453Y-111204464D01*
X142630295Y-111228000D01*
X142626697Y-111254496D01*
X142621591Y-111275842D01*
X142617033Y-111285897D01*
X142599510Y-111295926D01*
X142574231Y-111294832D01*
X142543050Y-111282932D01*
X142520047Y-111269252D01*
X142465106Y-111226293D01*
X142419207Y-111178137D01*
X142385011Y-111127663D01*
X142379804Y-111117529D01*
X142360563Y-111067271D01*
X142346343Y-111008285D01*
X142337362Y-110944338D01*
X142333837Y-110879196D01*
X142335987Y-110816627D01*
X142344029Y-110760397D01*
X142356700Y-110717790D01*
X142390733Y-110650304D01*
X142437269Y-110584911D01*
X142489878Y-110527353D01*
X142535127Y-110486100D01*
X142577665Y-110455915D01*
X142621409Y-110434478D01*
X142670278Y-110419468D01*
X142673198Y-110418781D01*
X142748898Y-110407585D01*
X142824765Y-110408296D01*
X142898403Y-110420312D01*
X142967417Y-110443029D01*
X143029412Y-110475844D01*
X143081993Y-110518152D01*
X143086731Y-110522975D01*
X143127229Y-110569160D01*
X143158810Y-110613604D01*
X143180182Y-110654246D01*
X143189853Y-110687463D01*
X143712087Y-110687463D01*
X143718082Y-110659845D01*
X143738982Y-110617080D01*
X143772639Y-110570804D01*
X143818749Y-110520942D01*
X143875006Y-110475334D01*
X143939149Y-110441064D01*
X144008986Y-110418439D01*
X144082323Y-110407768D01*
X144156969Y-110409358D01*
X144230729Y-110423517D01*
X144301412Y-110450553D01*
X144305527Y-110452602D01*
X144357719Y-110485508D01*
X144408584Y-110529626D01*
X144455817Y-110581935D01*
X144497112Y-110639414D01*
X144530160Y-110699042D01*
X144552657Y-110757798D01*
X144558991Y-110784593D01*
X144565085Y-110842364D01*
X144995680Y-110842364D01*
X144993619Y-110720388D01*
X144982523Y-110594480D01*
X144978531Y-110565785D01*
X144946974Y-110401315D01*
X144902722Y-110243562D01*
X144846039Y-110093071D01*
X144777186Y-109950385D01*
X144696426Y-109816047D01*
X144604020Y-109690603D01*
X144501447Y-109575832D01*
X144389010Y-109471209D01*
X144270498Y-109379732D01*
X144146552Y-109301586D01*
X144017813Y-109236957D01*
X143884922Y-109186031D01*
X143748519Y-109148994D01*
X143609247Y-109126030D01*
X143467745Y-109117327D01*
X143324655Y-109123068D01*
X143324655Y-109123068D01*
G37*
X143324655Y-109123068D02*
X143180617Y-109143441D01*
X143084176Y-109165296D01*
X142948121Y-109208428D01*
X142817382Y-109265005D01*
X142692617Y-109334278D01*
X142574482Y-109415495D01*
X142463635Y-109507907D01*
X142360732Y-109610763D01*
X142266431Y-109723313D01*
X142181389Y-109844805D01*
X142106263Y-109974490D01*
X142041710Y-110111617D01*
X141988387Y-110255436D01*
X141946951Y-110405197D01*
X141930810Y-110482529D01*
X141910012Y-110628614D01*
X141900609Y-110779836D01*
X141902504Y-110932740D01*
X141915599Y-111083871D01*
X141939800Y-111229774D01*
X141953388Y-111289211D01*
X141999805Y-111445759D01*
X142059303Y-111595467D01*
X142131547Y-111737802D01*
X142216199Y-111872230D01*
X142312925Y-111998218D01*
X142421389Y-112115235D01*
X142541254Y-112222746D01*
X142542512Y-112223774D01*
X142575280Y-112250519D01*
X142559289Y-112284538D01*
X142538205Y-112345490D01*
X142530850Y-112406909D01*
X142536283Y-112467032D01*
X142553558Y-112524093D01*
X142581732Y-112576327D01*
X142619861Y-112621970D01*
X142667003Y-112659256D01*
X142722212Y-112686420D01*
X142782183Y-112701374D01*
X142847406Y-112703636D01*
X142909073Y-112692475D01*
X142965622Y-112669159D01*
X143015488Y-112634956D01*
X143057108Y-112591133D01*
X143088916Y-112538959D01*
X143109350Y-112479702D01*
X143116322Y-112430485D01*
X143118350Y-112401328D01*
X143120911Y-112384036D01*
X143125067Y-112375542D01*
X143131877Y-112372779D01*
X143136352Y-112372588D01*
X143145061Y-112373846D01*
X143150526Y-112379721D01*
X143153970Y-112393368D01*
X143156613Y-112417942D01*
X143157340Y-112426750D01*
X143165180Y-112482519D01*
X143179869Y-112529042D01*
X143203089Y-112571095D01*
X143213184Y-112585167D01*
X143258761Y-112634530D01*
X143310754Y-112670420D01*
X143369445Y-112692977D01*
X143435116Y-112702342D01*
X143450235Y-112702645D01*
X143517451Y-112696110D01*
X143577625Y-112676413D01*
X143631039Y-112643412D01*
X143677977Y-112596969D01*
X143687286Y-112585167D01*
X143713777Y-112543546D01*
X143731166Y-112499071D01*
X143741137Y-112446968D01*
X143743130Y-112426750D01*
X143746031Y-112398074D01*
X143749621Y-112381439D01*
X143754823Y-112373949D01*
X143760366Y-112372588D01*
X143767823Y-112375150D01*
X143771993Y-112384980D01*
X143773900Y-112405302D01*
X143774240Y-112416260D01*
X143782248Y-112480978D01*
X143803518Y-112539668D01*
X143838529Y-112593357D01*
X143875816Y-112632537D01*
X143925756Y-112668441D01*
X143983055Y-112693070D01*
X144044440Y-112705647D01*
X144106639Y-112705395D01*
X144148554Y-112697269D01*
X144200803Y-112677662D01*
X144246117Y-112649006D01*
X144285853Y-112612037D01*
X144325596Y-112559235D01*
X144352861Y-112500391D01*
X144367241Y-112437810D01*
X144368329Y-112373797D01*
X144355719Y-112310656D01*
X144344366Y-112280621D01*
X144329673Y-112247405D01*
X144366729Y-112219146D01*
X144394895Y-112195745D01*
X144429890Y-112163753D01*
X144468906Y-112125998D01*
X144509134Y-112085305D01*
X144547768Y-112044503D01*
X144581998Y-112006418D01*
X144603904Y-111980333D01*
X144687422Y-111866026D01*
X144763328Y-111741089D01*
X144768042Y-111731741D01*
X143593654Y-111731741D01*
X143588343Y-111777770D01*
X143581407Y-111801088D01*
X143574739Y-111815726D01*
X143569477Y-111817910D01*
X143561967Y-111809315D01*
X143553656Y-111794100D01*
X143544026Y-111771046D01*
X143539080Y-111757021D01*
X143520830Y-111709388D01*
X143500375Y-111669993D01*
X143478917Y-111640545D01*
X143457659Y-111622752D01*
X143441400Y-111618059D01*
X143424739Y-111625212D01*
X143407553Y-111645572D01*
X143390899Y-111677488D01*
X143375829Y-111719307D01*
X143375020Y-111722019D01*
X143361828Y-111765557D01*
X143351506Y-111795619D01*
X143343170Y-111813191D01*
X143335937Y-111819259D01*
X143328921Y-111814807D01*
X143321240Y-111800823D01*
X143315843Y-111788015D01*
X143306583Y-111750696D01*
X143303395Y-111702914D01*
X143305686Y-111647578D01*
X143312862Y-111587596D01*
X143324327Y-111525877D01*
X143339488Y-111465330D01*
X143357750Y-111408861D01*
X143378519Y-111359381D01*
X143401200Y-111319796D01*
X143415082Y-111302427D01*
X143429972Y-111288972D01*
X143442004Y-111282108D01*
X143443580Y-111281882D01*
X143456782Y-111288376D01*
X143473507Y-111306006D01*
X143491832Y-111331995D01*
X143509835Y-111363566D01*
X143525592Y-111397942D01*
X143527752Y-111403454D01*
X143552256Y-111474760D01*
X143571399Y-111545472D01*
X143584880Y-111613361D01*
X143592399Y-111676194D01*
X143593654Y-111731741D01*
X144768042Y-111731741D01*
X144830208Y-111608486D01*
X144886651Y-111471181D01*
X144931242Y-111332138D01*
X144951087Y-111252000D01*
X144974434Y-111123014D01*
X144989413Y-110988712D01*
X144995862Y-110853151D01*
X144995680Y-110842364D01*
X144565085Y-110842364D01*
X144564680Y-110907938D01*
X144558280Y-110975921D01*
X144546390Y-111040918D01*
X144529849Y-111096640D01*
X144507450Y-111141024D01*
X144474221Y-111186764D01*
X144433303Y-111229915D01*
X144403815Y-111254904D01*
X144367630Y-111281036D01*
X144339512Y-111296938D01*
X144317360Y-111303326D01*
X144299073Y-111300917D01*
X144287663Y-111294540D01*
X144278639Y-111281775D01*
X144272027Y-111257434D01*
X144268559Y-111232908D01*
X144258654Y-111182014D01*
X144241688Y-111138087D01*
X144218991Y-111104097D01*
X144205127Y-111091153D01*
X144182630Y-111076731D01*
X144149100Y-111058778D01*
X144107596Y-111038733D01*
X144061177Y-111018037D01*
X144012899Y-110998129D01*
X143984480Y-110987225D01*
X143910628Y-110955315D01*
X143846262Y-110918390D01*
X143792618Y-110877450D01*
X143750929Y-110833498D01*
X143722430Y-110787536D01*
X143714871Y-110768422D01*
X143710507Y-110745794D01*
X143708827Y-110716695D01*
X143709353Y-110700061D01*
X143712087Y-110687463D01*
X143189853Y-110687463D01*
X143188972Y-110728131D01*
X143177015Y-110772755D01*
X143155327Y-110816984D01*
X143145142Y-110832325D01*
X143122087Y-110857511D01*
X143088193Y-110885566D01*
X143046709Y-110914383D01*
X143000886Y-110941856D01*
X142953972Y-110965878D01*
X142912353Y-110983225D01*
X142875835Y-110997407D01*
X142835625Y-111014635D01*
X142794537Y-111033521D01*
X142755388Y-111052677D01*
X142720992Y-111070716D01*
X142694165Y-111086248D01*
X142677722Y-111097888D01*
X142675695Y-111099879D01*
X142658382Y-111126519D01*
X142643709Y-111163054D01*
X142633453Y-111204464D01*
X142630295Y-111228000D01*
X142626697Y-111254496D01*
X142621591Y-111275842D01*
X142617033Y-111285897D01*
X142599510Y-111295926D01*
X142574231Y-111294832D01*
X142543050Y-111282932D01*
X142520047Y-111269252D01*
X142465106Y-111226293D01*
X142419207Y-111178137D01*
X142385011Y-111127663D01*
X142379804Y-111117529D01*
X142360563Y-111067271D01*
X142346343Y-111008285D01*
X142337362Y-110944338D01*
X142333837Y-110879196D01*
X142335987Y-110816627D01*
X142344029Y-110760397D01*
X142356700Y-110717790D01*
X142390733Y-110650304D01*
X142437269Y-110584911D01*
X142489878Y-110527353D01*
X142535127Y-110486100D01*
X142577665Y-110455915D01*
X142621409Y-110434478D01*
X142670278Y-110419468D01*
X142673198Y-110418781D01*
X142748898Y-110407585D01*
X142824765Y-110408296D01*
X142898403Y-110420312D01*
X142967417Y-110443029D01*
X143029412Y-110475844D01*
X143081993Y-110518152D01*
X143086731Y-110522975D01*
X143127229Y-110569160D01*
X143158810Y-110613604D01*
X143180182Y-110654246D01*
X143189853Y-110687463D01*
X143712087Y-110687463D01*
X143718082Y-110659845D01*
X143738982Y-110617080D01*
X143772639Y-110570804D01*
X143818749Y-110520942D01*
X143875006Y-110475334D01*
X143939149Y-110441064D01*
X144008986Y-110418439D01*
X144082323Y-110407768D01*
X144156969Y-110409358D01*
X144230729Y-110423517D01*
X144301412Y-110450553D01*
X144305527Y-110452602D01*
X144357719Y-110485508D01*
X144408584Y-110529626D01*
X144455817Y-110581935D01*
X144497112Y-110639414D01*
X144530160Y-110699042D01*
X144552657Y-110757798D01*
X144558991Y-110784593D01*
X144565085Y-110842364D01*
X144995680Y-110842364D01*
X144993619Y-110720388D01*
X144982523Y-110594480D01*
X144978531Y-110565785D01*
X144946974Y-110401315D01*
X144902722Y-110243562D01*
X144846039Y-110093071D01*
X144777186Y-109950385D01*
X144696426Y-109816047D01*
X144604020Y-109690603D01*
X144501447Y-109575832D01*
X144389010Y-109471209D01*
X144270498Y-109379732D01*
X144146552Y-109301586D01*
X144017813Y-109236957D01*
X143884922Y-109186031D01*
X143748519Y-109148994D01*
X143609247Y-109126030D01*
X143467745Y-109117327D01*
X143324655Y-109123068D01*
G36*
X145719863Y-107795507D02*
X145614500Y-107822517D01*
X145511333Y-107864043D01*
X145503534Y-107867823D01*
X145405781Y-107923730D01*
X145318404Y-107990289D01*
X145241736Y-108067090D01*
X145176107Y-108153726D01*
X145121848Y-108249787D01*
X145079291Y-108354865D01*
X145061978Y-108412625D01*
X145054568Y-108442336D01*
X145049257Y-108469462D01*
X145045664Y-108497696D01*
X145043409Y-108530735D01*
X145042110Y-108572271D01*
X145041538Y-108610839D01*
X145040151Y-108737531D01*
X144723833Y-109017986D01*
X144665399Y-109069894D01*
X144610398Y-109118948D01*
X144559835Y-109164236D01*
X144514715Y-109204848D01*
X144476045Y-109239875D01*
X144444831Y-109268406D01*
X144422078Y-109289531D01*
X144408791Y-109302341D01*
X144405649Y-109305912D01*
X144410310Y-109313495D01*
X144424365Y-109327770D01*
X144445340Y-109346349D01*
X144459766Y-109358206D01*
X144537766Y-109426759D01*
X144616250Y-109507210D01*
X144693023Y-109596760D01*
X144765888Y-109692606D01*
X144832648Y-109791950D01*
X144891107Y-109891990D01*
X144915381Y-109939044D01*
X144928746Y-109965106D01*
X144939998Y-109985081D01*
X144947356Y-109995881D01*
X144948814Y-109996941D01*
X144955153Y-109992119D01*
X144971636Y-109978243D01*
X144997250Y-109956198D01*
X145030985Y-109926868D01*
X145071829Y-109891138D01*
X145118768Y-109849892D01*
X145170791Y-109804016D01*
X145226887Y-109754395D01*
X145270279Y-109715912D01*
X145329177Y-109663616D01*
X145385060Y-109613984D01*
X145436868Y-109567959D01*
X145483542Y-109526482D01*
X145524021Y-109490497D01*
X145557244Y-109460945D01*
X145582153Y-109438769D01*
X145597686Y-109424912D01*
X145602407Y-109420673D01*
X145610313Y-109414141D01*
X145618479Y-109410878D01*
X145630323Y-109410989D01*
X145649261Y-109414584D01*
X145678711Y-109421767D01*
X145684583Y-109423245D01*
X145713385Y-109429906D01*
X145740574Y-109434556D01*
X145769854Y-109437513D01*
X145804933Y-109439097D01*
X145849518Y-109439627D01*
X145874441Y-109439604D01*
X145923377Y-109439168D01*
X145961142Y-109437989D01*
X145991502Y-109435687D01*
X146018223Y-109431881D01*
X146045070Y-109426190D01*
X146069784Y-109419860D01*
X146177150Y-109383707D01*
X146276958Y-109335230D01*
X146368374Y-109275254D01*
X146450562Y-109204602D01*
X146522690Y-109124100D01*
X146583921Y-109034570D01*
X146633422Y-108936836D01*
X146670357Y-108831724D01*
X146672225Y-108824947D01*
X146679163Y-108798154D01*
X146684250Y-108774387D01*
X146687778Y-108750485D01*
X146690039Y-108723286D01*
X146691323Y-108689629D01*
X146691923Y-108646352D01*
X146692090Y-108609653D01*
X146691796Y-108549937D01*
X146690555Y-108505066D01*
X146688363Y-108474973D01*
X146685217Y-108459592D01*
X146684151Y-108457898D01*
X146678800Y-108458704D01*
X146666862Y-108465990D01*
X146647717Y-108480270D01*
X146620745Y-108502058D01*
X146585327Y-108531866D01*
X146540843Y-108570210D01*
X146486673Y-108617601D01*
X146422198Y-108674554D01*
X146415210Y-108680751D01*
X146362278Y-108727519D01*
X146312702Y-108770972D01*
X146267604Y-108810150D01*
X146228107Y-108844094D01*
X146195333Y-108871846D01*
X146170407Y-108892446D01*
X146154450Y-108904934D01*
X146148646Y-108908429D01*
X146142045Y-108902007D01*
X146126702Y-108885747D01*
X146103710Y-108860864D01*
X146074160Y-108828573D01*
X146039144Y-108790089D01*
X145999754Y-108746629D01*
X145957081Y-108699407D01*
X145912217Y-108649639D01*
X145866255Y-108598540D01*
X145820285Y-108547325D01*
X145775400Y-108497211D01*
X145732692Y-108449411D01*
X145693252Y-108405142D01*
X145658172Y-108365618D01*
X145628544Y-108332056D01*
X145605459Y-108305670D01*
X145590010Y-108287676D01*
X145583289Y-108279289D01*
X145583088Y-108278871D01*
X145588494Y-108272827D01*
X145603971Y-108257889D01*
X145628409Y-108235073D01*
X145660697Y-108205396D01*
X145699724Y-108169873D01*
X145744381Y-108129521D01*
X145793557Y-108085356D01*
X145837088Y-108046460D01*
X145889164Y-107999930D01*
X145937647Y-107956407D01*
X145981426Y-107916902D01*
X146019392Y-107882427D01*
X146050436Y-107853992D01*
X146073447Y-107832608D01*
X146087315Y-107819286D01*
X146091088Y-107815072D01*
X146084084Y-107810422D01*
X146064815Y-107804917D01*
X146035897Y-107799048D01*
X145999947Y-107793307D01*
X145959579Y-107788185D01*
X145934205Y-107785602D01*
X145826678Y-107783155D01*
X145719863Y-107795507D01*
X145719863Y-107795507D01*
G37*
X145719863Y-107795507D02*
X145614500Y-107822517D01*
X145511333Y-107864043D01*
X145503534Y-107867823D01*
X145405781Y-107923730D01*
X145318404Y-107990289D01*
X145241736Y-108067090D01*
X145176107Y-108153726D01*
X145121848Y-108249787D01*
X145079291Y-108354865D01*
X145061978Y-108412625D01*
X145054568Y-108442336D01*
X145049257Y-108469462D01*
X145045664Y-108497696D01*
X145043409Y-108530735D01*
X145042110Y-108572271D01*
X145041538Y-108610839D01*
X145040151Y-108737531D01*
X144723833Y-109017986D01*
X144665399Y-109069894D01*
X144610398Y-109118948D01*
X144559835Y-109164236D01*
X144514715Y-109204848D01*
X144476045Y-109239875D01*
X144444831Y-109268406D01*
X144422078Y-109289531D01*
X144408791Y-109302341D01*
X144405649Y-109305912D01*
X144410310Y-109313495D01*
X144424365Y-109327770D01*
X144445340Y-109346349D01*
X144459766Y-109358206D01*
X144537766Y-109426759D01*
X144616250Y-109507210D01*
X144693023Y-109596760D01*
X144765888Y-109692606D01*
X144832648Y-109791950D01*
X144891107Y-109891990D01*
X144915381Y-109939044D01*
X144928746Y-109965106D01*
X144939998Y-109985081D01*
X144947356Y-109995881D01*
X144948814Y-109996941D01*
X144955153Y-109992119D01*
X144971636Y-109978243D01*
X144997250Y-109956198D01*
X145030985Y-109926868D01*
X145071829Y-109891138D01*
X145118768Y-109849892D01*
X145170791Y-109804016D01*
X145226887Y-109754395D01*
X145270279Y-109715912D01*
X145329177Y-109663616D01*
X145385060Y-109613984D01*
X145436868Y-109567959D01*
X145483542Y-109526482D01*
X145524021Y-109490497D01*
X145557244Y-109460945D01*
X145582153Y-109438769D01*
X145597686Y-109424912D01*
X145602407Y-109420673D01*
X145610313Y-109414141D01*
X145618479Y-109410878D01*
X145630323Y-109410989D01*
X145649261Y-109414584D01*
X145678711Y-109421767D01*
X145684583Y-109423245D01*
X145713385Y-109429906D01*
X145740574Y-109434556D01*
X145769854Y-109437513D01*
X145804933Y-109439097D01*
X145849518Y-109439627D01*
X145874441Y-109439604D01*
X145923377Y-109439168D01*
X145961142Y-109437989D01*
X145991502Y-109435687D01*
X146018223Y-109431881D01*
X146045070Y-109426190D01*
X146069784Y-109419860D01*
X146177150Y-109383707D01*
X146276958Y-109335230D01*
X146368374Y-109275254D01*
X146450562Y-109204602D01*
X146522690Y-109124100D01*
X146583921Y-109034570D01*
X146633422Y-108936836D01*
X146670357Y-108831724D01*
X146672225Y-108824947D01*
X146679163Y-108798154D01*
X146684250Y-108774387D01*
X146687778Y-108750485D01*
X146690039Y-108723286D01*
X146691323Y-108689629D01*
X146691923Y-108646352D01*
X146692090Y-108609653D01*
X146691796Y-108549937D01*
X146690555Y-108505066D01*
X146688363Y-108474973D01*
X146685217Y-108459592D01*
X146684151Y-108457898D01*
X146678800Y-108458704D01*
X146666862Y-108465990D01*
X146647717Y-108480270D01*
X146620745Y-108502058D01*
X146585327Y-108531866D01*
X146540843Y-108570210D01*
X146486673Y-108617601D01*
X146422198Y-108674554D01*
X146415210Y-108680751D01*
X146362278Y-108727519D01*
X146312702Y-108770972D01*
X146267604Y-108810150D01*
X146228107Y-108844094D01*
X146195333Y-108871846D01*
X146170407Y-108892446D01*
X146154450Y-108904934D01*
X146148646Y-108908429D01*
X146142045Y-108902007D01*
X146126702Y-108885747D01*
X146103710Y-108860864D01*
X146074160Y-108828573D01*
X146039144Y-108790089D01*
X145999754Y-108746629D01*
X145957081Y-108699407D01*
X145912217Y-108649639D01*
X145866255Y-108598540D01*
X145820285Y-108547325D01*
X145775400Y-108497211D01*
X145732692Y-108449411D01*
X145693252Y-108405142D01*
X145658172Y-108365618D01*
X145628544Y-108332056D01*
X145605459Y-108305670D01*
X145590010Y-108287676D01*
X145583289Y-108279289D01*
X145583088Y-108278871D01*
X145588494Y-108272827D01*
X145603971Y-108257889D01*
X145628409Y-108235073D01*
X145660697Y-108205396D01*
X145699724Y-108169873D01*
X145744381Y-108129521D01*
X145793557Y-108085356D01*
X145837088Y-108046460D01*
X145889164Y-107999930D01*
X145937647Y-107956407D01*
X145981426Y-107916902D01*
X146019392Y-107882427D01*
X146050436Y-107853992D01*
X146073447Y-107832608D01*
X146087315Y-107819286D01*
X146091088Y-107815072D01*
X146084084Y-107810422D01*
X146064815Y-107804917D01*
X146035897Y-107799048D01*
X145999947Y-107793307D01*
X145959579Y-107788185D01*
X145934205Y-107785602D01*
X145826678Y-107783155D01*
X145719863Y-107795507D01*
G36*
X140958147Y-107785451D02*
X140914964Y-107790007D01*
X140875704Y-107795484D01*
X140842742Y-107801418D01*
X140818455Y-107807342D01*
X140805220Y-107812793D01*
X140803598Y-107815711D01*
X140809256Y-107821207D01*
X140824752Y-107835450D01*
X140848760Y-107857254D01*
X140879957Y-107885432D01*
X140917018Y-107918798D01*
X140958620Y-107956168D01*
X141003436Y-107996353D01*
X141050144Y-108038170D01*
X141097418Y-108080431D01*
X141143935Y-108121950D01*
X141188370Y-108161543D01*
X141229399Y-108198022D01*
X141265697Y-108230201D01*
X141295940Y-108256895D01*
X141311673Y-108270700D01*
X141307706Y-108276824D01*
X141294704Y-108292920D01*
X141273653Y-108317875D01*
X141245536Y-108350575D01*
X141211338Y-108389908D01*
X141172043Y-108434761D01*
X141128636Y-108484021D01*
X141082100Y-108536575D01*
X141033421Y-108591310D01*
X140983583Y-108647114D01*
X140933569Y-108702872D01*
X140884365Y-108757473D01*
X140836954Y-108809803D01*
X140792322Y-108858749D01*
X140770944Y-108882053D01*
X140741660Y-108913900D01*
X140479341Y-108681358D01*
X140417731Y-108626827D01*
X140366299Y-108581537D01*
X140324119Y-108544735D01*
X140290263Y-108515667D01*
X140263804Y-108493581D01*
X140243814Y-108477723D01*
X140229366Y-108467341D01*
X140219532Y-108461681D01*
X140213385Y-108459989D01*
X140209997Y-108461513D01*
X140209509Y-108462242D01*
X140204994Y-108478221D01*
X140201588Y-108506011D01*
X140199319Y-108542522D01*
X140198212Y-108584664D01*
X140198297Y-108629345D01*
X140199599Y-108673475D01*
X140202146Y-108713965D01*
X140205965Y-108747722D01*
X140206949Y-108753769D01*
X140233164Y-108862203D01*
X140272438Y-108964139D01*
X140324007Y-109058751D01*
X140387107Y-109145214D01*
X140460975Y-109222702D01*
X140544847Y-109290390D01*
X140637960Y-109347453D01*
X140739550Y-109393065D01*
X140823215Y-109419903D01*
X140852833Y-109427414D01*
X140879146Y-109432726D01*
X140905906Y-109436215D01*
X140936865Y-109438258D01*
X140975775Y-109439232D01*
X141018558Y-109439501D01*
X141069207Y-109439258D01*
X141108650Y-109438096D01*
X141140613Y-109435692D01*
X141168817Y-109431725D01*
X141196988Y-109425874D01*
X141208416Y-109423100D01*
X141239884Y-109415406D01*
X141260302Y-109411307D01*
X141273093Y-109410690D01*
X141281683Y-109413446D01*
X141289495Y-109419464D01*
X141290593Y-109420445D01*
X141310989Y-109438647D01*
X141339601Y-109464038D01*
X141375239Y-109495574D01*
X141416714Y-109532207D01*
X141462835Y-109572892D01*
X141512413Y-109616583D01*
X141564257Y-109662232D01*
X141617178Y-109708795D01*
X141669985Y-109755226D01*
X141721489Y-109800477D01*
X141770500Y-109843503D01*
X141815828Y-109883258D01*
X141856282Y-109918695D01*
X141890674Y-109948769D01*
X141917812Y-109972434D01*
X141936508Y-109988643D01*
X141945570Y-109996350D01*
X141946242Y-109996849D01*
X141950377Y-109990581D01*
X141959875Y-109973569D01*
X141973332Y-109948394D01*
X141989347Y-109917635D01*
X141989735Y-109916881D01*
X142056721Y-109796934D01*
X142130364Y-109685448D01*
X142212403Y-109580322D01*
X142304576Y-109479457D01*
X142408619Y-109380752D01*
X142492482Y-109309331D01*
X142488142Y-109303640D01*
X142473542Y-109288976D01*
X142449649Y-109266226D01*
X142417428Y-109236275D01*
X142377847Y-109200011D01*
X142331871Y-109158320D01*
X142280468Y-109112088D01*
X142224604Y-109062201D01*
X142175429Y-109018556D01*
X141852422Y-108732648D01*
X141854237Y-108627074D01*
X141853440Y-108551181D01*
X141847757Y-108484698D01*
X141836490Y-108422691D01*
X141818944Y-108360229D01*
X141814823Y-108347842D01*
X141772672Y-108246069D01*
X141718789Y-108152442D01*
X141654267Y-108067680D01*
X141580201Y-107992502D01*
X141497687Y-107927626D01*
X141407817Y-107873771D01*
X141311688Y-107831655D01*
X141210394Y-107801997D01*
X141105029Y-107785516D01*
X140996687Y-107782930D01*
X140958147Y-107785451D01*
X140958147Y-107785451D01*
G37*
X140958147Y-107785451D02*
X140914964Y-107790007D01*
X140875704Y-107795484D01*
X140842742Y-107801418D01*
X140818455Y-107807342D01*
X140805220Y-107812793D01*
X140803598Y-107815711D01*
X140809256Y-107821207D01*
X140824752Y-107835450D01*
X140848760Y-107857254D01*
X140879957Y-107885432D01*
X140917018Y-107918798D01*
X140958620Y-107956168D01*
X141003436Y-107996353D01*
X141050144Y-108038170D01*
X141097418Y-108080431D01*
X141143935Y-108121950D01*
X141188370Y-108161543D01*
X141229399Y-108198022D01*
X141265697Y-108230201D01*
X141295940Y-108256895D01*
X141311673Y-108270700D01*
X141307706Y-108276824D01*
X141294704Y-108292920D01*
X141273653Y-108317875D01*
X141245536Y-108350575D01*
X141211338Y-108389908D01*
X141172043Y-108434761D01*
X141128636Y-108484021D01*
X141082100Y-108536575D01*
X141033421Y-108591310D01*
X140983583Y-108647114D01*
X140933569Y-108702872D01*
X140884365Y-108757473D01*
X140836954Y-108809803D01*
X140792322Y-108858749D01*
X140770944Y-108882053D01*
X140741660Y-108913900D01*
X140479341Y-108681358D01*
X140417731Y-108626827D01*
X140366299Y-108581537D01*
X140324119Y-108544735D01*
X140290263Y-108515667D01*
X140263804Y-108493581D01*
X140243814Y-108477723D01*
X140229366Y-108467341D01*
X140219532Y-108461681D01*
X140213385Y-108459989D01*
X140209997Y-108461513D01*
X140209509Y-108462242D01*
X140204994Y-108478221D01*
X140201588Y-108506011D01*
X140199319Y-108542522D01*
X140198212Y-108584664D01*
X140198297Y-108629345D01*
X140199599Y-108673475D01*
X140202146Y-108713965D01*
X140205965Y-108747722D01*
X140206949Y-108753769D01*
X140233164Y-108862203D01*
X140272438Y-108964139D01*
X140324007Y-109058751D01*
X140387107Y-109145214D01*
X140460975Y-109222702D01*
X140544847Y-109290390D01*
X140637960Y-109347453D01*
X140739550Y-109393065D01*
X140823215Y-109419903D01*
X140852833Y-109427414D01*
X140879146Y-109432726D01*
X140905906Y-109436215D01*
X140936865Y-109438258D01*
X140975775Y-109439232D01*
X141018558Y-109439501D01*
X141069207Y-109439258D01*
X141108650Y-109438096D01*
X141140613Y-109435692D01*
X141168817Y-109431725D01*
X141196988Y-109425874D01*
X141208416Y-109423100D01*
X141239884Y-109415406D01*
X141260302Y-109411307D01*
X141273093Y-109410690D01*
X141281683Y-109413446D01*
X141289495Y-109419464D01*
X141290593Y-109420445D01*
X141310989Y-109438647D01*
X141339601Y-109464038D01*
X141375239Y-109495574D01*
X141416714Y-109532207D01*
X141462835Y-109572892D01*
X141512413Y-109616583D01*
X141564257Y-109662232D01*
X141617178Y-109708795D01*
X141669985Y-109755226D01*
X141721489Y-109800477D01*
X141770500Y-109843503D01*
X141815828Y-109883258D01*
X141856282Y-109918695D01*
X141890674Y-109948769D01*
X141917812Y-109972434D01*
X141936508Y-109988643D01*
X141945570Y-109996350D01*
X141946242Y-109996849D01*
X141950377Y-109990581D01*
X141959875Y-109973569D01*
X141973332Y-109948394D01*
X141989347Y-109917635D01*
X141989735Y-109916881D01*
X142056721Y-109796934D01*
X142130364Y-109685448D01*
X142212403Y-109580322D01*
X142304576Y-109479457D01*
X142408619Y-109380752D01*
X142492482Y-109309331D01*
X142488142Y-109303640D01*
X142473542Y-109288976D01*
X142449649Y-109266226D01*
X142417428Y-109236275D01*
X142377847Y-109200011D01*
X142331871Y-109158320D01*
X142280468Y-109112088D01*
X142224604Y-109062201D01*
X142175429Y-109018556D01*
X141852422Y-108732648D01*
X141854237Y-108627074D01*
X141853440Y-108551181D01*
X141847757Y-108484698D01*
X141836490Y-108422691D01*
X141818944Y-108360229D01*
X141814823Y-108347842D01*
X141772672Y-108246069D01*
X141718789Y-108152442D01*
X141654267Y-108067680D01*
X141580201Y-107992502D01*
X141497687Y-107927626D01*
X141407817Y-107873771D01*
X141311688Y-107831655D01*
X141210394Y-107801997D01*
X141105029Y-107785516D01*
X140996687Y-107782930D01*
X140958147Y-107785451D01*
D14*
X88198929Y-67726072D02*
X88198929Y-67793415D01*
X88266273Y-67928102D01*
X88333616Y-67995446D01*
X88468304Y-68062790D01*
X88602991Y-68062790D01*
X88704006Y-68029118D01*
X88872364Y-67928103D01*
X88973380Y-67827087D01*
X89074395Y-67658728D01*
X89108067Y-67557713D01*
X89108067Y-67423026D01*
X89040723Y-67288339D01*
X88973380Y-67220995D01*
X88838693Y-67153652D01*
X88771349Y-67153652D01*
X87458151Y-67119980D02*
X87862212Y-67524042D01*
X87660182Y-67322011D02*
X88367289Y-66614905D01*
X88333617Y-66783263D01*
X88333617Y-66917950D01*
X88367289Y-67018965D01*
X83522406Y-63385805D02*
X83589749Y-63385805D01*
X83724436Y-63318461D01*
X83791780Y-63251118D01*
X83859124Y-63116430D01*
X83859124Y-62981743D01*
X83825452Y-62880728D01*
X83724437Y-62712370D01*
X83623421Y-62611354D01*
X83455062Y-62510339D01*
X83354047Y-62476667D01*
X83219360Y-62476667D01*
X83084673Y-62544011D01*
X83017329Y-62611354D01*
X82949986Y-62746041D01*
X82949986Y-62813385D01*
X82680612Y-63082758D02*
X82613269Y-63082758D01*
X82512254Y-63116430D01*
X82343894Y-63284789D01*
X82310223Y-63385805D01*
X82310223Y-63453148D01*
X82343894Y-63554163D01*
X82411238Y-63621507D01*
X82545925Y-63688850D01*
X83354047Y-63688850D01*
X82916314Y-64126583D01*
X94454912Y-87492389D02*
X94454912Y-87559732D01*
X94522256Y-87694419D01*
X94589599Y-87761763D01*
X94724287Y-87829107D01*
X94858974Y-87829107D01*
X94959989Y-87795435D01*
X95128347Y-87694420D01*
X95229363Y-87593404D01*
X95330378Y-87425045D01*
X95364050Y-87324030D01*
X95364050Y-87189343D01*
X95296706Y-87054656D01*
X95229363Y-86987312D01*
X95094676Y-86919969D01*
X95027332Y-86919969D01*
X94488584Y-86246534D02*
X94623272Y-86381222D01*
X94656943Y-86482237D01*
X94656943Y-86549580D01*
X94623272Y-86717939D01*
X94522257Y-86886297D01*
X94252882Y-87155672D01*
X94151867Y-87189343D01*
X94084524Y-87189343D01*
X93983508Y-87155672D01*
X93848821Y-87020984D01*
X93815149Y-86919969D01*
X93815149Y-86852626D01*
X93848821Y-86751610D01*
X94017179Y-86583252D01*
X94118195Y-86549579D01*
X94185539Y-86549579D01*
X94286554Y-86583251D01*
X94421241Y-86717939D01*
X94454913Y-86818954D01*
X94454913Y-86886297D01*
X94421241Y-86987313D01*
X84790787Y-70372214D02*
X85363208Y-70271199D01*
X85194848Y-70776276D02*
X85901955Y-70069169D01*
X85632581Y-69799794D01*
X85531565Y-69766123D01*
X85464222Y-69766123D01*
X85363207Y-69799794D01*
X85262192Y-69900810D01*
X85228520Y-70001825D01*
X85228520Y-70069168D01*
X85262192Y-70170183D01*
X85531566Y-70439558D01*
X85161177Y-69463077D02*
X85161177Y-69395734D01*
X85127505Y-69294719D01*
X84959146Y-69126359D01*
X84858130Y-69092688D01*
X84790787Y-69092688D01*
X84689772Y-69126359D01*
X84622428Y-69193703D01*
X84555085Y-69328390D01*
X84555085Y-70136512D01*
X84117352Y-69698779D01*
X86844166Y-90192381D02*
X87177500Y-89716190D01*
X87415595Y-90192381D02*
X87415595Y-89192381D01*
X87034642Y-89192381D01*
X86939404Y-89240000D01*
X86891785Y-89287619D01*
X86844166Y-89382857D01*
X86844166Y-89525714D01*
X86891785Y-89620952D01*
X86939404Y-89668571D01*
X87034642Y-89716190D01*
X87415595Y-89716190D01*
X86510833Y-89192381D02*
X85891785Y-89192381D01*
X86225119Y-89573333D01*
X86082261Y-89573333D01*
X85987023Y-89620952D01*
X85939404Y-89668571D01*
X85891785Y-89763810D01*
X85891785Y-90001905D01*
X85939404Y-90097143D01*
X85987023Y-90144762D01*
X86082261Y-90192381D01*
X86367976Y-90192381D01*
X86463214Y-90144762D01*
X86510833Y-90097143D01*
X86844166Y-87017381D02*
X87177500Y-86541190D01*
X87415595Y-87017381D02*
X87415595Y-86017381D01*
X87034642Y-86017381D01*
X86939404Y-86065000D01*
X86891785Y-86112619D01*
X86844166Y-86207857D01*
X86844166Y-86350714D01*
X86891785Y-86445952D01*
X86939404Y-86493571D01*
X87034642Y-86541190D01*
X87415595Y-86541190D01*
X85987023Y-86350714D02*
X85987023Y-87017381D01*
X86225119Y-85969762D02*
X86463214Y-86684048D01*
X85844166Y-86684048D01*
X86844166Y-83842381D02*
X87177500Y-83366190D01*
X87415595Y-83842381D02*
X87415595Y-82842381D01*
X87034642Y-82842381D01*
X86939404Y-82890000D01*
X86891785Y-82937619D01*
X86844166Y-83032857D01*
X86844166Y-83175714D01*
X86891785Y-83270952D01*
X86939404Y-83318571D01*
X87034642Y-83366190D01*
X87415595Y-83366190D01*
X85939404Y-82842381D02*
X86415595Y-82842381D01*
X86463214Y-83318571D01*
X86415595Y-83270952D01*
X86320357Y-83223333D01*
X86082261Y-83223333D01*
X85987023Y-83270952D01*
X85939404Y-83318571D01*
X85891785Y-83413810D01*
X85891785Y-83651905D01*
X85939404Y-83747143D01*
X85987023Y-83794762D01*
X86082261Y-83842381D01*
X86320357Y-83842381D01*
X86415595Y-83794762D01*
X86463214Y-83747143D01*
X82482643Y-108735834D02*
X82530262Y-108688215D01*
X82577881Y-108545358D01*
X82577881Y-108450120D01*
X82530262Y-108307262D01*
X82435024Y-108212024D01*
X82339786Y-108164405D01*
X82149310Y-108116786D01*
X82006452Y-108116786D01*
X81815976Y-108164405D01*
X81720738Y-108212024D01*
X81625500Y-108307262D01*
X81577881Y-108450120D01*
X81577881Y-108545358D01*
X81625500Y-108688215D01*
X81673119Y-108735834D01*
X82006452Y-109307262D02*
X81958833Y-109212024D01*
X81911214Y-109164405D01*
X81815976Y-109116786D01*
X81768357Y-109116786D01*
X81673119Y-109164405D01*
X81625500Y-109212024D01*
X81577881Y-109307262D01*
X81577881Y-109497739D01*
X81625500Y-109592977D01*
X81673119Y-109640596D01*
X81768357Y-109688215D01*
X81815976Y-109688215D01*
X81911214Y-109640596D01*
X81958833Y-109592977D01*
X82006452Y-109497739D01*
X82006452Y-109307262D01*
X82054071Y-109212024D01*
X82101690Y-109164405D01*
X82196929Y-109116786D01*
X82387405Y-109116786D01*
X82482643Y-109164405D01*
X82530262Y-109212024D01*
X82577881Y-109307262D01*
X82577881Y-109497739D01*
X82530262Y-109592977D01*
X82482643Y-109640596D01*
X82387405Y-109688215D01*
X82196929Y-109688215D01*
X82101690Y-109640596D01*
X82054071Y-109592977D01*
X82006452Y-109497739D01*
X97722643Y-110704334D02*
X97770262Y-110656715D01*
X97817881Y-110513858D01*
X97817881Y-110418620D01*
X97770262Y-110275762D01*
X97675024Y-110180524D01*
X97579786Y-110132905D01*
X97389310Y-110085286D01*
X97246452Y-110085286D01*
X97055976Y-110132905D01*
X96960738Y-110180524D01*
X96865500Y-110275762D01*
X96817881Y-110418620D01*
X96817881Y-110513858D01*
X96865500Y-110656715D01*
X96913119Y-110704334D01*
X97817881Y-111180524D02*
X97817881Y-111371000D01*
X97770262Y-111466239D01*
X97722643Y-111513858D01*
X97579786Y-111609096D01*
X97389310Y-111656715D01*
X97008357Y-111656715D01*
X96913119Y-111609096D01*
X96865500Y-111561477D01*
X96817881Y-111466239D01*
X96817881Y-111275762D01*
X96865500Y-111180524D01*
X96913119Y-111132905D01*
X97008357Y-111085286D01*
X97246452Y-111085286D01*
X97341690Y-111132905D01*
X97389310Y-111180524D01*
X97436929Y-111275762D01*
X97436929Y-111466239D01*
X97389310Y-111561477D01*
X97341690Y-111609096D01*
X97246452Y-111656715D01*
X107712647Y-69129590D02*
X107712647Y-69196933D01*
X107779991Y-69331620D01*
X107847334Y-69398964D01*
X107982022Y-69466308D01*
X108116709Y-69466308D01*
X108217724Y-69432636D01*
X108386082Y-69331621D01*
X108487098Y-69230605D01*
X108588113Y-69062246D01*
X108621785Y-68961231D01*
X108621785Y-68826544D01*
X108554441Y-68691857D01*
X108487098Y-68624513D01*
X108352411Y-68557170D01*
X108285067Y-68557170D01*
X106971869Y-68523498D02*
X107375930Y-68927559D01*
X107173900Y-68725529D02*
X107881007Y-68018422D01*
X107847335Y-68186781D01*
X107847335Y-68321468D01*
X107881007Y-68422483D01*
X106298434Y-67850063D02*
X106702495Y-68254124D01*
X106500465Y-68052094D02*
X107207572Y-67344987D01*
X107173900Y-67513346D01*
X107173900Y-67648033D01*
X107207572Y-67749048D01*
X97057347Y-80127790D02*
X97057347Y-80195133D01*
X97124691Y-80329820D01*
X97192034Y-80397164D01*
X97326722Y-80464508D01*
X97461409Y-80464508D01*
X97562424Y-80430836D01*
X97730782Y-80329821D01*
X97831798Y-80228805D01*
X97932813Y-80060446D01*
X97966485Y-79959431D01*
X97966485Y-79824744D01*
X97899141Y-79690057D01*
X97831798Y-79622713D01*
X97697111Y-79555370D01*
X97629767Y-79555370D01*
X96316569Y-79521698D02*
X96720630Y-79925759D01*
X96518600Y-79723729D02*
X97225707Y-79016622D01*
X97192035Y-79184981D01*
X97192035Y-79319668D01*
X97225707Y-79420683D01*
X96383912Y-78174828D02*
X96720630Y-78511546D01*
X96417585Y-78881935D01*
X96417585Y-78814591D01*
X96383913Y-78713576D01*
X96215554Y-78545217D01*
X96114539Y-78511545D01*
X96047195Y-78511545D01*
X95946179Y-78545218D01*
X95777821Y-78713576D01*
X95744149Y-78814591D01*
X95744149Y-78881935D01*
X95777821Y-78982950D01*
X95946180Y-79151309D01*
X96047195Y-79184981D01*
X96114539Y-79184981D01*
X94113413Y-74727824D02*
X94113413Y-74795167D01*
X94180757Y-74929854D01*
X94248100Y-74997198D01*
X94382788Y-75064542D01*
X94517475Y-75064542D01*
X94618490Y-75030870D01*
X94786848Y-74929855D01*
X94887864Y-74828839D01*
X94988879Y-74660480D01*
X95022551Y-74559465D01*
X95022551Y-74424778D01*
X94955207Y-74290091D01*
X94887864Y-74222747D01*
X94753177Y-74155404D01*
X94685833Y-74155404D01*
X93372635Y-74121732D02*
X93776696Y-74525793D01*
X93574666Y-74323763D02*
X94281773Y-73616656D01*
X94248101Y-73785015D01*
X94248101Y-73919702D01*
X94281773Y-74020717D01*
X93844040Y-73178923D02*
X93372635Y-72707519D01*
X92968574Y-73717672D01*
X94014007Y-84367270D02*
X94081350Y-84367270D01*
X94216037Y-84299926D01*
X94283381Y-84232583D01*
X94350725Y-84097895D01*
X94350725Y-83963208D01*
X94317053Y-83862193D01*
X94216038Y-83693835D01*
X94115022Y-83592819D01*
X93946663Y-83491804D01*
X93845648Y-83458132D01*
X93710961Y-83458132D01*
X93576274Y-83525476D01*
X93508930Y-83592819D01*
X93441587Y-83727506D01*
X93441587Y-83794850D01*
X93172213Y-84064224D02*
X93104870Y-84064224D01*
X93003855Y-84097895D01*
X92835495Y-84266255D01*
X92801824Y-84367270D01*
X92801824Y-84434613D01*
X92835495Y-84535628D01*
X92902839Y-84602972D01*
X93037526Y-84670315D01*
X93845648Y-84670315D01*
X93407915Y-85108048D01*
X92465106Y-84636643D02*
X92027373Y-85074376D01*
X92532450Y-85108047D01*
X92431434Y-85209063D01*
X92397762Y-85310078D01*
X92397762Y-85377422D01*
X92431435Y-85478438D01*
X92599793Y-85646796D01*
X92700808Y-85680468D01*
X92768152Y-85680468D01*
X92869167Y-85646796D01*
X93071198Y-85444765D01*
X93104870Y-85343750D01*
X93104870Y-85276407D01*
X106471043Y-73575943D02*
X106518662Y-73528324D01*
X106566281Y-73385467D01*
X106566281Y-73290229D01*
X106518662Y-73147371D01*
X106423424Y-73052133D01*
X106328186Y-73004514D01*
X106137710Y-72956895D01*
X105994852Y-72956895D01*
X105804376Y-73004514D01*
X105709138Y-73052133D01*
X105613900Y-73147371D01*
X105566281Y-73290229D01*
X105566281Y-73385467D01*
X105613900Y-73528324D01*
X105661519Y-73575943D01*
X105661519Y-73956895D02*
X105613900Y-74004514D01*
X105566281Y-74099752D01*
X105566281Y-74337848D01*
X105613900Y-74433086D01*
X105661519Y-74480705D01*
X105756757Y-74528324D01*
X105851995Y-74528324D01*
X105994852Y-74480705D01*
X106566281Y-73909276D01*
X106566281Y-74528324D01*
X105899614Y-75385467D02*
X106566281Y-75385467D01*
X105518662Y-75147371D02*
X106232948Y-74909276D01*
X106232948Y-75528324D01*
X127250143Y-101401643D02*
X127297762Y-101354024D01*
X127345381Y-101211167D01*
X127345381Y-101115929D01*
X127297762Y-100973071D01*
X127202524Y-100877833D01*
X127107286Y-100830214D01*
X126916810Y-100782595D01*
X126773952Y-100782595D01*
X126583476Y-100830214D01*
X126488238Y-100877833D01*
X126393000Y-100973071D01*
X126345381Y-101115929D01*
X126345381Y-101211167D01*
X126393000Y-101354024D01*
X126440619Y-101401643D01*
X126345381Y-101734976D02*
X126345381Y-102354024D01*
X126726333Y-102020690D01*
X126726333Y-102163548D01*
X126773952Y-102258786D01*
X126821571Y-102306405D01*
X126916810Y-102354024D01*
X127154905Y-102354024D01*
X127250143Y-102306405D01*
X127297762Y-102258786D01*
X127345381Y-102163548D01*
X127345381Y-101877833D01*
X127297762Y-101782595D01*
X127250143Y-101734976D01*
X126345381Y-102973071D02*
X126345381Y-103068310D01*
X126393000Y-103163548D01*
X126440619Y-103211167D01*
X126535857Y-103258786D01*
X126726333Y-103306405D01*
X126964429Y-103306405D01*
X127154905Y-103258786D01*
X127250143Y-103211167D01*
X127297762Y-103163548D01*
X127345381Y-103068310D01*
X127345381Y-102973071D01*
X127297762Y-102877833D01*
X127250143Y-102830214D01*
X127154905Y-102782595D01*
X126964429Y-102734976D01*
X126726333Y-102734976D01*
X126535857Y-102782595D01*
X126440619Y-102830214D01*
X126393000Y-102877833D01*
X126345381Y-102973071D01*
X140799143Y-101338143D02*
X140846762Y-101290524D01*
X140894381Y-101147667D01*
X140894381Y-101052429D01*
X140846762Y-100909571D01*
X140751524Y-100814333D01*
X140656286Y-100766714D01*
X140465810Y-100719095D01*
X140322952Y-100719095D01*
X140132476Y-100766714D01*
X140037238Y-100814333D01*
X139942000Y-100909571D01*
X139894381Y-101052429D01*
X139894381Y-101147667D01*
X139942000Y-101290524D01*
X139989619Y-101338143D01*
X139894381Y-101671476D02*
X139894381Y-102290524D01*
X140275333Y-101957190D01*
X140275333Y-102100048D01*
X140322952Y-102195286D01*
X140370571Y-102242905D01*
X140465810Y-102290524D01*
X140703905Y-102290524D01*
X140799143Y-102242905D01*
X140846762Y-102195286D01*
X140894381Y-102100048D01*
X140894381Y-101814333D01*
X140846762Y-101719095D01*
X140799143Y-101671476D01*
X140894381Y-103242905D02*
X140894381Y-102671476D01*
X140894381Y-102957190D02*
X139894381Y-102957190D01*
X140037238Y-102861952D01*
X140132476Y-102766714D01*
X140180095Y-102671476D01*
X90293143Y-111625143D02*
X90340762Y-111577524D01*
X90388381Y-111434667D01*
X90388381Y-111339429D01*
X90340762Y-111196571D01*
X90245524Y-111101333D01*
X90150286Y-111053714D01*
X89959810Y-111006095D01*
X89816952Y-111006095D01*
X89626476Y-111053714D01*
X89531238Y-111101333D01*
X89436000Y-111196571D01*
X89388381Y-111339429D01*
X89388381Y-111434667D01*
X89436000Y-111577524D01*
X89483619Y-111625143D01*
X89388381Y-111958476D02*
X89388381Y-112577524D01*
X89769333Y-112244190D01*
X89769333Y-112387048D01*
X89816952Y-112482286D01*
X89864571Y-112529905D01*
X89959810Y-112577524D01*
X90197905Y-112577524D01*
X90293143Y-112529905D01*
X90340762Y-112482286D01*
X90388381Y-112387048D01*
X90388381Y-112101333D01*
X90340762Y-112006095D01*
X90293143Y-111958476D01*
X89483619Y-112958476D02*
X89436000Y-113006095D01*
X89388381Y-113101333D01*
X89388381Y-113339429D01*
X89436000Y-113434667D01*
X89483619Y-113482286D01*
X89578857Y-113529905D01*
X89674095Y-113529905D01*
X89816952Y-113482286D01*
X90388381Y-112910857D01*
X90388381Y-113529905D01*
X118689357Y-62099143D02*
X118736976Y-62146762D01*
X118879833Y-62194381D01*
X118975071Y-62194381D01*
X119117929Y-62146762D01*
X119213167Y-62051524D01*
X119260786Y-61956286D01*
X119308405Y-61765810D01*
X119308405Y-61622952D01*
X119260786Y-61432476D01*
X119213167Y-61337238D01*
X119117929Y-61242000D01*
X118975071Y-61194381D01*
X118879833Y-61194381D01*
X118736976Y-61242000D01*
X118689357Y-61289619D01*
X118356024Y-61194381D02*
X117736976Y-61194381D01*
X118070310Y-61575333D01*
X117927452Y-61575333D01*
X117832214Y-61622952D01*
X117784595Y-61670571D01*
X117736976Y-61765810D01*
X117736976Y-62003905D01*
X117784595Y-62099143D01*
X117832214Y-62146762D01*
X117927452Y-62194381D01*
X118213167Y-62194381D01*
X118308405Y-62146762D01*
X118356024Y-62099143D01*
X116832214Y-61194381D02*
X117308405Y-61194381D01*
X117356024Y-61670571D01*
X117308405Y-61622952D01*
X117213167Y-61575333D01*
X116975071Y-61575333D01*
X116879833Y-61622952D01*
X116832214Y-61670571D01*
X116784595Y-61765810D01*
X116784595Y-62003905D01*
X116832214Y-62099143D01*
X116879833Y-62146762D01*
X116975071Y-62194381D01*
X117213167Y-62194381D01*
X117308405Y-62146762D01*
X117356024Y-62099143D01*
X127071357Y-64599143D02*
X127118976Y-64646762D01*
X127261833Y-64694381D01*
X127357071Y-64694381D01*
X127499929Y-64646762D01*
X127595167Y-64551524D01*
X127642786Y-64456286D01*
X127690405Y-64265810D01*
X127690405Y-64122952D01*
X127642786Y-63932476D01*
X127595167Y-63837238D01*
X127499929Y-63742000D01*
X127357071Y-63694381D01*
X127261833Y-63694381D01*
X127118976Y-63742000D01*
X127071357Y-63789619D01*
X126738024Y-63694381D02*
X126118976Y-63694381D01*
X126452310Y-64075333D01*
X126309452Y-64075333D01*
X126214214Y-64122952D01*
X126166595Y-64170571D01*
X126118976Y-64265810D01*
X126118976Y-64503905D01*
X126166595Y-64599143D01*
X126214214Y-64646762D01*
X126309452Y-64694381D01*
X126595167Y-64694381D01*
X126690405Y-64646762D01*
X126738024Y-64599143D01*
X125261833Y-63694381D02*
X125452310Y-63694381D01*
X125547548Y-63742000D01*
X125595167Y-63789619D01*
X125690405Y-63932476D01*
X125738024Y-64122952D01*
X125738024Y-64503905D01*
X125690405Y-64599143D01*
X125642786Y-64646762D01*
X125547548Y-64694381D01*
X125357071Y-64694381D01*
X125261833Y-64646762D01*
X125214214Y-64599143D01*
X125166595Y-64503905D01*
X125166595Y-64265810D01*
X125214214Y-64170571D01*
X125261833Y-64122952D01*
X125357071Y-64075333D01*
X125547548Y-64075333D01*
X125642786Y-64122952D01*
X125690405Y-64170571D01*
X125738024Y-64265810D01*
X127665717Y-71525723D02*
X127713336Y-71573342D01*
X127856193Y-71620961D01*
X127951431Y-71620961D01*
X128094289Y-71573342D01*
X128189527Y-71478104D01*
X128237146Y-71382866D01*
X128284765Y-71192390D01*
X128284765Y-71049532D01*
X128237146Y-70859056D01*
X128189527Y-70763818D01*
X128094289Y-70668580D01*
X127951431Y-70620961D01*
X127856193Y-70620961D01*
X127713336Y-70668580D01*
X127665717Y-70716199D01*
X127332384Y-70620961D02*
X126713336Y-70620961D01*
X127046670Y-71001913D01*
X126903812Y-71001913D01*
X126808574Y-71049532D01*
X126760955Y-71097151D01*
X126713336Y-71192390D01*
X126713336Y-71430485D01*
X126760955Y-71525723D01*
X126808574Y-71573342D01*
X126903812Y-71620961D01*
X127189527Y-71620961D01*
X127284765Y-71573342D01*
X127332384Y-71525723D01*
X126380003Y-70620961D02*
X125713336Y-70620961D01*
X126141908Y-71620961D01*
X132913357Y-62099143D02*
X132960976Y-62146762D01*
X133103833Y-62194381D01*
X133199071Y-62194381D01*
X133341929Y-62146762D01*
X133437167Y-62051524D01*
X133484786Y-61956286D01*
X133532405Y-61765810D01*
X133532405Y-61622952D01*
X133484786Y-61432476D01*
X133437167Y-61337238D01*
X133341929Y-61242000D01*
X133199071Y-61194381D01*
X133103833Y-61194381D01*
X132960976Y-61242000D01*
X132913357Y-61289619D01*
X132580024Y-61194381D02*
X131960976Y-61194381D01*
X132294310Y-61575333D01*
X132151452Y-61575333D01*
X132056214Y-61622952D01*
X132008595Y-61670571D01*
X131960976Y-61765810D01*
X131960976Y-62003905D01*
X132008595Y-62099143D01*
X132056214Y-62146762D01*
X132151452Y-62194381D01*
X132437167Y-62194381D01*
X132532405Y-62146762D01*
X132580024Y-62099143D01*
X131389548Y-61622952D02*
X131484786Y-61575333D01*
X131532405Y-61527714D01*
X131580024Y-61432476D01*
X131580024Y-61384857D01*
X131532405Y-61289619D01*
X131484786Y-61242000D01*
X131389548Y-61194381D01*
X131199071Y-61194381D01*
X131103833Y-61242000D01*
X131056214Y-61289619D01*
X131008595Y-61384857D01*
X131008595Y-61432476D01*
X131056214Y-61527714D01*
X131103833Y-61575333D01*
X131199071Y-61622952D01*
X131389548Y-61622952D01*
X131484786Y-61670571D01*
X131532405Y-61718190D01*
X131580024Y-61813429D01*
X131580024Y-62003905D01*
X131532405Y-62099143D01*
X131484786Y-62146762D01*
X131389548Y-62194381D01*
X131199071Y-62194381D01*
X131103833Y-62146762D01*
X131056214Y-62099143D01*
X131008595Y-62003905D01*
X131008595Y-61813429D01*
X131056214Y-61718190D01*
X131103833Y-61670571D01*
X131199071Y-61622952D01*
X134639643Y-70731143D02*
X134687262Y-70683524D01*
X134734881Y-70540667D01*
X134734881Y-70445429D01*
X134687262Y-70302571D01*
X134592024Y-70207333D01*
X134496786Y-70159714D01*
X134306310Y-70112095D01*
X134163452Y-70112095D01*
X133972976Y-70159714D01*
X133877738Y-70207333D01*
X133782500Y-70302571D01*
X133734881Y-70445429D01*
X133734881Y-70540667D01*
X133782500Y-70683524D01*
X133830119Y-70731143D01*
X133734881Y-71064476D02*
X133734881Y-71683524D01*
X134115833Y-71350190D01*
X134115833Y-71493048D01*
X134163452Y-71588286D01*
X134211071Y-71635905D01*
X134306310Y-71683524D01*
X134544405Y-71683524D01*
X134639643Y-71635905D01*
X134687262Y-71588286D01*
X134734881Y-71493048D01*
X134734881Y-71207333D01*
X134687262Y-71112095D01*
X134639643Y-71064476D01*
X134734881Y-72159714D02*
X134734881Y-72350190D01*
X134687262Y-72445429D01*
X134639643Y-72493048D01*
X134496786Y-72588286D01*
X134306310Y-72635905D01*
X133925357Y-72635905D01*
X133830119Y-72588286D01*
X133782500Y-72540667D01*
X133734881Y-72445429D01*
X133734881Y-72254952D01*
X133782500Y-72159714D01*
X133830119Y-72112095D01*
X133925357Y-72064476D01*
X134163452Y-72064476D01*
X134258690Y-72112095D01*
X134306310Y-72159714D01*
X134353929Y-72254952D01*
X134353929Y-72445429D01*
X134306310Y-72540667D01*
X134258690Y-72588286D01*
X134163452Y-72635905D01*
X132139643Y-75303143D02*
X132187262Y-75255524D01*
X132234881Y-75112667D01*
X132234881Y-75017429D01*
X132187262Y-74874571D01*
X132092024Y-74779333D01*
X131996786Y-74731714D01*
X131806310Y-74684095D01*
X131663452Y-74684095D01*
X131472976Y-74731714D01*
X131377738Y-74779333D01*
X131282500Y-74874571D01*
X131234881Y-75017429D01*
X131234881Y-75112667D01*
X131282500Y-75255524D01*
X131330119Y-75303143D01*
X131568214Y-76160286D02*
X132234881Y-76160286D01*
X131187262Y-75922190D02*
X131901548Y-75684095D01*
X131901548Y-76303143D01*
X131234881Y-76874571D02*
X131234881Y-76969810D01*
X131282500Y-77065048D01*
X131330119Y-77112667D01*
X131425357Y-77160286D01*
X131615833Y-77207905D01*
X131853929Y-77207905D01*
X132044405Y-77160286D01*
X132139643Y-77112667D01*
X132187262Y-77065048D01*
X132234881Y-76969810D01*
X132234881Y-76874571D01*
X132187262Y-76779333D01*
X132139643Y-76731714D01*
X132044405Y-76684095D01*
X131853929Y-76636476D01*
X131615833Y-76636476D01*
X131425357Y-76684095D01*
X131330119Y-76731714D01*
X131282500Y-76779333D01*
X131234881Y-76874571D01*
X134639643Y-79875143D02*
X134687262Y-79827524D01*
X134734881Y-79684667D01*
X134734881Y-79589429D01*
X134687262Y-79446571D01*
X134592024Y-79351333D01*
X134496786Y-79303714D01*
X134306310Y-79256095D01*
X134163452Y-79256095D01*
X133972976Y-79303714D01*
X133877738Y-79351333D01*
X133782500Y-79446571D01*
X133734881Y-79589429D01*
X133734881Y-79684667D01*
X133782500Y-79827524D01*
X133830119Y-79875143D01*
X134068214Y-80732286D02*
X134734881Y-80732286D01*
X133687262Y-80494190D02*
X134401548Y-80256095D01*
X134401548Y-80875143D01*
X134734881Y-81779905D02*
X134734881Y-81208476D01*
X134734881Y-81494190D02*
X133734881Y-81494190D01*
X133877738Y-81398952D01*
X133972976Y-81303714D01*
X134020595Y-81208476D01*
X130627357Y-87205143D02*
X130674976Y-87252762D01*
X130817833Y-87300381D01*
X130913071Y-87300381D01*
X131055929Y-87252762D01*
X131151167Y-87157524D01*
X131198786Y-87062286D01*
X131246405Y-86871810D01*
X131246405Y-86728952D01*
X131198786Y-86538476D01*
X131151167Y-86443238D01*
X131055929Y-86348000D01*
X130913071Y-86300381D01*
X130817833Y-86300381D01*
X130674976Y-86348000D01*
X130627357Y-86395619D01*
X129770214Y-86633714D02*
X129770214Y-87300381D01*
X130008310Y-86252762D02*
X130246405Y-86967048D01*
X129627357Y-86967048D01*
X129294024Y-86395619D02*
X129246405Y-86348000D01*
X129151167Y-86300381D01*
X128913071Y-86300381D01*
X128817833Y-86348000D01*
X128770214Y-86395619D01*
X128722595Y-86490857D01*
X128722595Y-86586095D01*
X128770214Y-86728952D01*
X129341643Y-87300381D01*
X128722595Y-87300381D01*
X127071357Y-93301143D02*
X127118976Y-93348762D01*
X127261833Y-93396381D01*
X127357071Y-93396381D01*
X127499929Y-93348762D01*
X127595167Y-93253524D01*
X127642786Y-93158286D01*
X127690405Y-92967810D01*
X127690405Y-92824952D01*
X127642786Y-92634476D01*
X127595167Y-92539238D01*
X127499929Y-92444000D01*
X127357071Y-92396381D01*
X127261833Y-92396381D01*
X127118976Y-92444000D01*
X127071357Y-92491619D01*
X126214214Y-92729714D02*
X126214214Y-93396381D01*
X126452310Y-92348762D02*
X126690405Y-93063048D01*
X126071357Y-93063048D01*
X125785643Y-92396381D02*
X125166595Y-92396381D01*
X125499929Y-92777333D01*
X125357071Y-92777333D01*
X125261833Y-92824952D01*
X125214214Y-92872571D01*
X125166595Y-92967810D01*
X125166595Y-93205905D01*
X125214214Y-93301143D01*
X125261833Y-93348762D01*
X125357071Y-93396381D01*
X125642786Y-93396381D01*
X125738024Y-93348762D01*
X125785643Y-93301143D01*
X123515357Y-83181143D02*
X123562976Y-83228762D01*
X123705833Y-83276381D01*
X123801071Y-83276381D01*
X123943929Y-83228762D01*
X124039167Y-83133524D01*
X124086786Y-83038286D01*
X124134405Y-82847810D01*
X124134405Y-82704952D01*
X124086786Y-82514476D01*
X124039167Y-82419238D01*
X123943929Y-82324000D01*
X123801071Y-82276381D01*
X123705833Y-82276381D01*
X123562976Y-82324000D01*
X123515357Y-82371619D01*
X122658214Y-82609714D02*
X122658214Y-83276381D01*
X122896310Y-82228762D02*
X123134405Y-82943048D01*
X122515357Y-82943048D01*
X121705833Y-82609714D02*
X121705833Y-83276381D01*
X121943929Y-82228762D02*
X122182024Y-82943048D01*
X121562976Y-82943048D01*
X88789647Y-82020090D02*
X88789647Y-82087433D01*
X88856991Y-82222120D01*
X88924334Y-82289464D01*
X89059022Y-82356808D01*
X89193709Y-82356808D01*
X89294724Y-82323136D01*
X89463082Y-82222121D01*
X89564098Y-82121105D01*
X89665113Y-81952746D01*
X89698785Y-81851731D01*
X89698785Y-81717044D01*
X89631441Y-81582357D01*
X89564098Y-81515013D01*
X89429411Y-81447670D01*
X89362067Y-81447670D01*
X88587617Y-81009937D02*
X88116212Y-81481342D01*
X89025350Y-80908922D02*
X88688632Y-81582357D01*
X88250899Y-81144624D01*
X88149884Y-80100800D02*
X88284572Y-80235487D01*
X88318243Y-80336502D01*
X88318243Y-80403846D01*
X88284572Y-80572205D01*
X88183556Y-80740563D01*
X87914182Y-81009938D01*
X87813167Y-81043609D01*
X87745823Y-81043609D01*
X87644808Y-81009938D01*
X87510121Y-80875250D01*
X87476449Y-80774235D01*
X87476449Y-80706891D01*
X87510121Y-80605876D01*
X87678479Y-80437518D01*
X87779495Y-80403845D01*
X87846839Y-80403845D01*
X87947854Y-80437517D01*
X88082541Y-80572205D01*
X88116213Y-80673220D01*
X88116213Y-80740563D01*
X88082541Y-80841579D01*
X121431643Y-76827143D02*
X121479262Y-76779524D01*
X121526881Y-76636667D01*
X121526881Y-76541429D01*
X121479262Y-76398571D01*
X121384024Y-76303333D01*
X121288786Y-76255714D01*
X121098310Y-76208095D01*
X120955452Y-76208095D01*
X120764976Y-76255714D01*
X120669738Y-76303333D01*
X120574500Y-76398571D01*
X120526881Y-76541429D01*
X120526881Y-76636667D01*
X120574500Y-76779524D01*
X120622119Y-76827143D01*
X120860214Y-77684286D02*
X121526881Y-77684286D01*
X120479262Y-77446190D02*
X121193548Y-77208095D01*
X121193548Y-77827143D01*
X120526881Y-78112857D02*
X120526881Y-78779524D01*
X121526881Y-78350952D01*
X116657357Y-72981143D02*
X116704976Y-73028762D01*
X116847833Y-73076381D01*
X116943071Y-73076381D01*
X117085929Y-73028762D01*
X117181167Y-72933524D01*
X117228786Y-72838286D01*
X117276405Y-72647810D01*
X117276405Y-72504952D01*
X117228786Y-72314476D01*
X117181167Y-72219238D01*
X117085929Y-72124000D01*
X116943071Y-72076381D01*
X116847833Y-72076381D01*
X116704976Y-72124000D01*
X116657357Y-72171619D01*
X115800214Y-72409714D02*
X115800214Y-73076381D01*
X116038310Y-72028762D02*
X116276405Y-72743048D01*
X115657357Y-72743048D01*
X115133548Y-72504952D02*
X115228786Y-72457333D01*
X115276405Y-72409714D01*
X115324024Y-72314476D01*
X115324024Y-72266857D01*
X115276405Y-72171619D01*
X115228786Y-72124000D01*
X115133548Y-72076381D01*
X114943071Y-72076381D01*
X114847833Y-72124000D01*
X114800214Y-72171619D01*
X114752595Y-72266857D01*
X114752595Y-72314476D01*
X114800214Y-72409714D01*
X114847833Y-72457333D01*
X114943071Y-72504952D01*
X115133548Y-72504952D01*
X115228786Y-72552571D01*
X115276405Y-72600190D01*
X115324024Y-72695429D01*
X115324024Y-72885905D01*
X115276405Y-72981143D01*
X115228786Y-73028762D01*
X115133548Y-73076381D01*
X114943071Y-73076381D01*
X114847833Y-73028762D01*
X114800214Y-72981143D01*
X114752595Y-72885905D01*
X114752595Y-72695429D01*
X114800214Y-72600190D01*
X114847833Y-72552571D01*
X114943071Y-72504952D01*
X82170566Y-103576381D02*
X82503900Y-103100190D01*
X82741995Y-103576381D02*
X82741995Y-102576381D01*
X82361042Y-102576381D01*
X82265804Y-102624000D01*
X82218185Y-102671619D01*
X82170566Y-102766857D01*
X82170566Y-102909714D01*
X82218185Y-103004952D01*
X82265804Y-103052571D01*
X82361042Y-103100190D01*
X82741995Y-103100190D01*
X81837233Y-102576381D02*
X81170566Y-102576381D01*
X81599138Y-103576381D01*
X79846466Y-98128081D02*
X80179800Y-97651890D01*
X80417895Y-98128081D02*
X80417895Y-97128081D01*
X80036942Y-97128081D01*
X79941704Y-97175700D01*
X79894085Y-97223319D01*
X79846466Y-97318557D01*
X79846466Y-97461414D01*
X79894085Y-97556652D01*
X79941704Y-97604271D01*
X80036942Y-97651890D01*
X80417895Y-97651890D01*
X79275038Y-97556652D02*
X79370276Y-97509033D01*
X79417895Y-97461414D01*
X79465514Y-97366176D01*
X79465514Y-97318557D01*
X79417895Y-97223319D01*
X79370276Y-97175700D01*
X79275038Y-97128081D01*
X79084561Y-97128081D01*
X78989323Y-97175700D01*
X78941704Y-97223319D01*
X78894085Y-97318557D01*
X78894085Y-97366176D01*
X78941704Y-97461414D01*
X78989323Y-97509033D01*
X79084561Y-97556652D01*
X79275038Y-97556652D01*
X79370276Y-97604271D01*
X79417895Y-97651890D01*
X79465514Y-97747129D01*
X79465514Y-97937605D01*
X79417895Y-98032843D01*
X79370276Y-98080462D01*
X79275038Y-98128081D01*
X79084561Y-98128081D01*
X78989323Y-98080462D01*
X78941704Y-98032843D01*
X78894085Y-97937605D01*
X78894085Y-97747129D01*
X78941704Y-97651890D01*
X78989323Y-97604271D01*
X79084561Y-97556652D01*
X81726066Y-95003881D02*
X82059400Y-94527690D01*
X82297495Y-95003881D02*
X82297495Y-94003881D01*
X81916542Y-94003881D01*
X81821304Y-94051500D01*
X81773685Y-94099119D01*
X81726066Y-94194357D01*
X81726066Y-94337214D01*
X81773685Y-94432452D01*
X81821304Y-94480071D01*
X81916542Y-94527690D01*
X82297495Y-94527690D01*
X81249876Y-95003881D02*
X81059400Y-95003881D01*
X80964161Y-94956262D01*
X80916542Y-94908643D01*
X80821304Y-94765786D01*
X80773685Y-94575310D01*
X80773685Y-94194357D01*
X80821304Y-94099119D01*
X80868923Y-94051500D01*
X80964161Y-94003881D01*
X81154638Y-94003881D01*
X81249876Y-94051500D01*
X81297495Y-94099119D01*
X81345114Y-94194357D01*
X81345114Y-94432452D01*
X81297495Y-94527690D01*
X81249876Y-94575310D01*
X81154638Y-94622929D01*
X80964161Y-94622929D01*
X80868923Y-94575310D01*
X80821304Y-94527690D01*
X80773685Y-94432452D01*
X125140957Y-107841782D02*
X125474291Y-107365591D01*
X125712386Y-107841782D02*
X125712386Y-106841782D01*
X125331433Y-106841782D01*
X125236195Y-106889401D01*
X125188576Y-106937020D01*
X125140957Y-107032258D01*
X125140957Y-107175115D01*
X125188576Y-107270353D01*
X125236195Y-107317972D01*
X125331433Y-107365591D01*
X125712386Y-107365591D01*
X124188576Y-107841782D02*
X124760005Y-107841782D01*
X124474291Y-107841782D02*
X124474291Y-106841782D01*
X124569529Y-106984639D01*
X124664767Y-107079877D01*
X124760005Y-107127496D01*
X123569529Y-106841782D02*
X123474290Y-106841782D01*
X123379052Y-106889401D01*
X123331433Y-106937020D01*
X123283814Y-107032258D01*
X123236195Y-107222734D01*
X123236195Y-107460830D01*
X123283814Y-107651306D01*
X123331433Y-107746544D01*
X123379052Y-107794163D01*
X123474290Y-107841782D01*
X123569529Y-107841782D01*
X123664767Y-107794163D01*
X123712386Y-107746544D01*
X123760005Y-107651306D01*
X123807624Y-107460830D01*
X123807624Y-107222734D01*
X123760005Y-107032258D01*
X123712386Y-106937020D01*
X123664767Y-106889401D01*
X123569529Y-106841782D01*
M02*
