M48
;DRILL file {KiCad 4.0.6} date Tuesday, July 11, 2017 'AMt' 12:40:34 AM
;FORMAT={-:-/ absolute / inch / decimal}
FMAT,2
INCH,TZ
T1C0.013
T2C0.031
T3C0.039
T4C0.051
T5C0.130
T6C0.128
%
G90
G05
M72
T1
X3.065Y-3.7455
X3.1575Y-4.2325
X3.195Y-4.235
X3.2945Y-4.41
X3.325Y-4.2425
X3.3275Y-4.432
X3.3295Y-4.062
X3.3305Y-4.289
X3.3375Y-4.335
X3.401Y-4.5275
X3.4025Y-3.292
X3.4075Y-3.416
X3.4075Y-3.542
X3.4825Y-4.355
X3.5015Y-4.3255
X3.525Y-3.105
X3.554Y-3.725
X3.561Y-3.1405
X3.5745Y-4.3375
X3.5925Y-2.697
X3.5955Y-3.261
X3.61Y-2.9575
X3.613Y-3.6235
X3.627Y-3.2315
X3.6325Y-4.375
X3.643Y-2.9845
X3.6475Y-4.3025
X3.65Y-4.42
X3.6755Y-3.5935
X3.7375Y-3.284
X3.746Y-3.32
X3.7685Y-3.339
X3.795Y-4.3725
X3.8065Y-3.1105
X3.82Y-4.335
X3.835Y-3.149
X3.842Y-4.517
X3.8545Y-3.219
X3.8585Y-3.394
X3.9115Y-3.2775
X4.0145Y-2.6905
X4.05Y-2.8765
X4.0675Y-1.8225
X4.1675Y-2.8275
X4.1755Y-2.657
X4.1855Y-2.885
X4.1865Y-2.965
X4.2175Y-2.693
X4.219Y-2.945
X4.388Y-2.9245
X4.4425Y-4.3
X4.459Y-2.995
X4.5075Y-4.17
X4.5115Y-4.292
X4.5385Y-4.17
X4.5625Y-3.595
X4.5882Y-2.8526
X4.601Y-3.13
X4.615Y-3.6475
X4.6344Y-2.976
X4.6533Y-2.8116
X4.6725Y-2.8825
X4.6854Y-3.0893
X4.6863Y-3.0038
X4.7024Y-2.9232
X4.7456Y-2.852
X4.7625Y-4.125
X4.766Y-2.4404
X4.7664Y-2.534
X4.776Y-2.832
X4.7979Y-3.2715
X4.8279Y-2.794
X4.8295Y-4.272
X4.839Y-2.8935
X4.8623Y-3.2738
X4.875Y-4.361
X4.8873Y-2.8567
X4.9Y-3.9275
X4.9025Y-3.7225
X4.9065Y-4.063
X4.9109Y-3.5717
X4.9158Y-2.5308
X4.953Y-3.342
X4.9644Y-2.7162
X4.972Y-2.368
X4.9935Y-4.007
X5.0106Y-2.9142
X5.0229Y-3.4124
X5.0286Y-2.4228
X5.0368Y-3.3704
X5.0382Y-2.7185
X5.0616Y-3.6135
X5.0875Y-3.985
X5.0964Y-3.075
X5.0975Y-4.0325
X5.1Y-2.7775
X5.1084Y-2.7252
X5.1129Y-2.5539
X5.1176Y-3.1768
X5.1348Y-2.5182
X5.1615Y-3.4041
X5.1704Y-3.3112
X5.1954Y-3.1284
X5.2008Y-2.8488
X5.2014Y-2.9523
X5.2016Y-3.033
X5.2023Y-3.2106
X5.215Y-2.6945
X5.2555Y-3.399
X5.2615Y-3.9655
X5.2675Y-4.0325
X5.2735Y-3.6845
X5.2763Y-2.777
X5.5206Y-2.8524
X5.555Y-3.9875
X5.5575Y-4.035
X5.577Y-2.7768
X5.5835Y-2.033
T2
X3.4405Y-3.778
X3.4405Y-3.878
X3.4405Y-3.978
X3.7405Y-3.778
X3.7405Y-3.878
X3.7405Y-3.978
T3
X2.8625Y-1.675
X2.8625Y-1.775
X2.8625Y-1.875
X2.8625Y-1.975
X2.8625Y-2.075
X2.8625Y-2.175
X2.94Y-4.26
X2.94Y-4.36
X2.94Y-4.46
X3.04Y-4.26
X3.04Y-4.36
X3.04Y-4.46
X4.1875Y-1.7
X4.1875Y-1.8
X4.2875Y-1.7
X4.2875Y-1.8
X4.3875Y-1.7
X4.3875Y-1.8
X4.45Y-4.45
X4.45Y-4.55
X4.4875Y-1.7
X4.4875Y-1.8
X4.55Y-4.45
X4.55Y-4.55
X4.5875Y-1.7
X4.5875Y-1.8
X4.65Y-4.45
X4.65Y-4.55
X4.6875Y-1.7
X4.6875Y-1.8
X4.75Y-4.45
X4.75Y-4.55
X4.7875Y-1.7
X4.7875Y-1.8
X4.85Y-4.45
X4.85Y-4.55
X4.8875Y-1.7
X4.8875Y-1.8
X4.95Y-4.45
X4.95Y-4.55
X4.9875Y-1.7
X4.9875Y-1.8
X5.05Y-4.55
X5.0875Y-1.7
X5.0875Y-1.8
X5.15Y-4.55
X5.1875Y-1.7
X5.1875Y-1.8
X5.25Y-4.55
X5.2875Y-1.7
X5.2875Y-1.8
X5.35Y-4.55
X5.3875Y-1.7
X5.3875Y-1.8
X5.4875Y-1.7
X5.4875Y-1.8
X5.525Y-4.55
X5.625Y-2.125
X5.625Y-2.225
X5.625Y-2.325
X5.625Y-2.425
X5.625Y-2.525
X5.625Y-2.625
X5.625Y-2.725
X5.625Y-2.825
X5.625Y-2.925
X5.625Y-3.025
X5.625Y-3.125
X5.625Y-3.225
X5.625Y-4.55
X5.725Y-2.125
X5.725Y-2.225
X5.725Y-2.325
X5.725Y-2.425
X5.725Y-2.525
X5.725Y-2.625
X5.725Y-2.725
X5.725Y-2.825
X5.725Y-2.925
X5.725Y-3.025
X5.725Y-3.125
X5.725Y-3.225
X5.725Y-4.55
T4
X2.975Y-3.2644
X2.975Y-3.3545
X2.975Y-3.4447
X2.975Y-3.5348
X2.975Y-3.625
X3.075Y-3.3093
X3.075Y-3.3994
X3.075Y-3.4896
X3.075Y-3.5797
X3.075Y-3.6699
X3.175Y-3.2644
X3.175Y-3.3545
X3.175Y-3.4447
X3.175Y-3.5348
X3.175Y-3.625
T5
X3.075Y-2.9632
X3.075Y-3.947
T6
X3.1125Y-1.75
X4.0875Y-4.5
X5.6625Y-1.75
X5.6625Y-3.406
T0
M30
