G04 #@! TF.FileFunction,Soldermask,Bot*
%FSLAX46Y46*%
G04 Gerber Fmt 4.6, Leading zero omitted, Abs format (unit mm)*
G04 Created by KiCad (PCBNEW 4.0.6) date Tuesday, July 11, 2017 'AMt' 12:39:54 AM*
%MOMM*%
%LPD*%
G01*
G04 APERTURE LIST*
%ADD10C,0.100000*%
%ADD11C,0.150000*%
%ADD12C,4.100000*%
%ADD13C,2.160000*%
%ADD14C,2.540000*%
%ADD15R,1.900000X1.700000*%
%ADD16R,2.100000X2.100000*%
%ADD17O,2.100000X2.100000*%
%ADD18R,1.150000X1.600000*%
%ADD19C,3.660000*%
%ADD20R,1.600000X1.150000*%
%ADD21R,2.000000X2.000000*%
%ADD22O,2.000000X2.000000*%
G04 APERTURE END LIST*
D10*
D11*
X104441643Y-42677667D02*
X104441643Y-41977667D01*
X104213071Y-41977667D01*
X104155929Y-42011000D01*
X104127357Y-42044333D01*
X104098786Y-42111000D01*
X104098786Y-42211000D01*
X104127357Y-42277667D01*
X104155929Y-42311000D01*
X104213071Y-42344333D01*
X104441643Y-42344333D01*
X103584500Y-42677667D02*
X103584500Y-42311000D01*
X103613071Y-42244333D01*
X103670214Y-42211000D01*
X103784500Y-42211000D01*
X103841643Y-42244333D01*
X103584500Y-42644333D02*
X103641643Y-42677667D01*
X103784500Y-42677667D01*
X103841643Y-42644333D01*
X103870214Y-42577667D01*
X103870214Y-42511000D01*
X103841643Y-42444333D01*
X103784500Y-42411000D01*
X103641643Y-42411000D01*
X103584500Y-42377667D01*
X103298786Y-42211000D02*
X103298786Y-42911000D01*
X103298786Y-42244333D02*
X103241643Y-42211000D01*
X103127357Y-42211000D01*
X103070214Y-42244333D01*
X103041643Y-42277667D01*
X103013072Y-42344333D01*
X103013072Y-42544333D01*
X103041643Y-42611000D01*
X103070214Y-42644333D01*
X103127357Y-42677667D01*
X103241643Y-42677667D01*
X103298786Y-42644333D01*
X102527357Y-42644333D02*
X102584500Y-42677667D01*
X102698786Y-42677667D01*
X102755929Y-42644333D01*
X102784500Y-42577667D01*
X102784500Y-42311000D01*
X102755929Y-42244333D01*
X102698786Y-42211000D01*
X102584500Y-42211000D01*
X102527357Y-42244333D01*
X102498786Y-42311000D01*
X102498786Y-42377667D01*
X102784500Y-42444333D01*
X102241643Y-42677667D02*
X102241643Y-42211000D01*
X102241643Y-42344333D02*
X102213071Y-42277667D01*
X102184500Y-42244333D01*
X102127357Y-42211000D01*
X102070214Y-42211000D01*
X101870214Y-42677667D02*
X101870214Y-41977667D01*
X101870214Y-42244333D02*
X101813071Y-42211000D01*
X101698785Y-42211000D01*
X101641642Y-42244333D01*
X101613071Y-42277667D01*
X101584500Y-42344333D01*
X101584500Y-42544333D01*
X101613071Y-42611000D01*
X101641642Y-42644333D01*
X101698785Y-42677667D01*
X101813071Y-42677667D01*
X101870214Y-42644333D01*
X101070214Y-42677667D02*
X101070214Y-42311000D01*
X101098785Y-42244333D01*
X101155928Y-42211000D01*
X101270214Y-42211000D01*
X101327357Y-42244333D01*
X101070214Y-42644333D02*
X101127357Y-42677667D01*
X101270214Y-42677667D01*
X101327357Y-42644333D01*
X101355928Y-42577667D01*
X101355928Y-42511000D01*
X101327357Y-42444333D01*
X101270214Y-42411000D01*
X101127357Y-42411000D01*
X101070214Y-42377667D01*
X100527357Y-42644333D02*
X100584500Y-42677667D01*
X100698786Y-42677667D01*
X100755928Y-42644333D01*
X100784500Y-42611000D01*
X100813071Y-42544333D01*
X100813071Y-42344333D01*
X100784500Y-42277667D01*
X100755928Y-42244333D01*
X100698786Y-42211000D01*
X100584500Y-42211000D01*
X100527357Y-42244333D01*
X100270214Y-42677667D02*
X100270214Y-41977667D01*
X100213071Y-42411000D02*
X100041642Y-42677667D01*
X100041642Y-42211000D02*
X100270214Y-42477667D01*
X99384500Y-42211000D02*
X99241643Y-42677667D01*
X99098785Y-42211000D01*
X98870214Y-42611000D02*
X98841642Y-42644333D01*
X98870214Y-42677667D01*
X98898785Y-42644333D01*
X98870214Y-42611000D01*
X98870214Y-42677667D01*
X98270214Y-42677667D02*
X98613071Y-42677667D01*
X98441643Y-42677667D02*
X98441643Y-41977667D01*
X98498786Y-42077667D01*
X98555928Y-42144333D01*
X98613071Y-42177667D01*
X97213071Y-42611000D02*
X97241642Y-42644333D01*
X97327356Y-42677667D01*
X97384499Y-42677667D01*
X97470214Y-42644333D01*
X97527356Y-42577667D01*
X97555928Y-42511000D01*
X97584499Y-42377667D01*
X97584499Y-42277667D01*
X97555928Y-42144333D01*
X97527356Y-42077667D01*
X97470214Y-42011000D01*
X97384499Y-41977667D01*
X97327356Y-41977667D01*
X97241642Y-42011000D01*
X97213071Y-42044333D01*
X96870214Y-42677667D02*
X96927356Y-42644333D01*
X96955928Y-42611000D01*
X96984499Y-42544333D01*
X96984499Y-42344333D01*
X96955928Y-42277667D01*
X96927356Y-42244333D01*
X96870214Y-42211000D01*
X96784499Y-42211000D01*
X96727356Y-42244333D01*
X96698785Y-42277667D01*
X96670214Y-42344333D01*
X96670214Y-42544333D01*
X96698785Y-42611000D01*
X96727356Y-42644333D01*
X96784499Y-42677667D01*
X96870214Y-42677667D01*
X96413071Y-42211000D02*
X96413071Y-42677667D01*
X96413071Y-42277667D02*
X96384499Y-42244333D01*
X96327357Y-42211000D01*
X96241642Y-42211000D01*
X96184499Y-42244333D01*
X96155928Y-42311000D01*
X96155928Y-42677667D01*
X95927357Y-42211000D02*
X95784500Y-42677667D01*
X95641642Y-42211000D01*
X95184499Y-42644333D02*
X95241642Y-42677667D01*
X95355928Y-42677667D01*
X95413071Y-42644333D01*
X95441642Y-42577667D01*
X95441642Y-42311000D01*
X95413071Y-42244333D01*
X95355928Y-42211000D01*
X95241642Y-42211000D01*
X95184499Y-42244333D01*
X95155928Y-42311000D01*
X95155928Y-42377667D01*
X95441642Y-42444333D01*
X94898785Y-42677667D02*
X94898785Y-42211000D01*
X94898785Y-42344333D02*
X94870213Y-42277667D01*
X94841642Y-42244333D01*
X94784499Y-42211000D01*
X94727356Y-42211000D01*
X94555927Y-42644333D02*
X94498784Y-42677667D01*
X94384499Y-42677667D01*
X94327356Y-42644333D01*
X94298784Y-42577667D01*
X94298784Y-42544333D01*
X94327356Y-42477667D01*
X94384499Y-42444333D01*
X94470213Y-42444333D01*
X94527356Y-42411000D01*
X94555927Y-42344333D01*
X94555927Y-42311000D01*
X94527356Y-42244333D01*
X94470213Y-42211000D01*
X94384499Y-42211000D01*
X94327356Y-42244333D01*
X94041642Y-42677667D02*
X94041642Y-42211000D01*
X94041642Y-41977667D02*
X94070213Y-42011000D01*
X94041642Y-42044333D01*
X94013070Y-42011000D01*
X94041642Y-41977667D01*
X94041642Y-42044333D01*
X93670214Y-42677667D02*
X93727356Y-42644333D01*
X93755928Y-42611000D01*
X93784499Y-42544333D01*
X93784499Y-42344333D01*
X93755928Y-42277667D01*
X93727356Y-42244333D01*
X93670214Y-42211000D01*
X93584499Y-42211000D01*
X93527356Y-42244333D01*
X93498785Y-42277667D01*
X93470214Y-42344333D01*
X93470214Y-42544333D01*
X93498785Y-42611000D01*
X93527356Y-42644333D01*
X93584499Y-42677667D01*
X93670214Y-42677667D01*
X93213071Y-42211000D02*
X93213071Y-42677667D01*
X93213071Y-42277667D02*
X93184499Y-42244333D01*
X93127357Y-42211000D01*
X93041642Y-42211000D01*
X92984499Y-42244333D01*
X92955928Y-42311000D01*
X92955928Y-42677667D01*
X91784499Y-41944333D02*
X92298785Y-42844333D01*
X90927357Y-42311000D02*
X91127357Y-42311000D01*
X91127357Y-42677667D02*
X91127357Y-41977667D01*
X90841643Y-41977667D01*
X90613071Y-42677667D02*
X90613071Y-42211000D01*
X90613071Y-42344333D02*
X90584499Y-42277667D01*
X90555928Y-42244333D01*
X90498785Y-42211000D01*
X90441642Y-42211000D01*
X89984499Y-42677667D02*
X89984499Y-42311000D01*
X90013070Y-42244333D01*
X90070213Y-42211000D01*
X90184499Y-42211000D01*
X90241642Y-42244333D01*
X89984499Y-42644333D02*
X90041642Y-42677667D01*
X90184499Y-42677667D01*
X90241642Y-42644333D01*
X90270213Y-42577667D01*
X90270213Y-42511000D01*
X90241642Y-42444333D01*
X90184499Y-42411000D01*
X90041642Y-42411000D01*
X89984499Y-42377667D01*
X89698785Y-42677667D02*
X89698785Y-42211000D01*
X89698785Y-42277667D02*
X89670213Y-42244333D01*
X89613071Y-42211000D01*
X89527356Y-42211000D01*
X89470213Y-42244333D01*
X89441642Y-42311000D01*
X89441642Y-42677667D01*
X89441642Y-42311000D02*
X89413071Y-42244333D01*
X89355928Y-42211000D01*
X89270213Y-42211000D01*
X89213071Y-42244333D01*
X89184499Y-42311000D01*
X89184499Y-42677667D01*
X88670213Y-42644333D02*
X88727356Y-42677667D01*
X88841642Y-42677667D01*
X88898785Y-42644333D01*
X88927356Y-42577667D01*
X88927356Y-42311000D01*
X88898785Y-42244333D01*
X88841642Y-42211000D01*
X88727356Y-42211000D01*
X88670213Y-42244333D01*
X88641642Y-42311000D01*
X88641642Y-42377667D01*
X88927356Y-42444333D01*
X88127356Y-42211000D02*
X88127356Y-42777667D01*
X88155927Y-42844333D01*
X88184499Y-42877667D01*
X88241642Y-42911000D01*
X88327356Y-42911000D01*
X88384499Y-42877667D01*
X88127356Y-42644333D02*
X88184499Y-42677667D01*
X88298785Y-42677667D01*
X88355927Y-42644333D01*
X88384499Y-42611000D01*
X88413070Y-42544333D01*
X88413070Y-42344333D01*
X88384499Y-42277667D01*
X88355927Y-42244333D01*
X88298785Y-42211000D01*
X88184499Y-42211000D01*
X88127356Y-42244333D01*
X87841642Y-42677667D02*
X87841642Y-42211000D01*
X87841642Y-42344333D02*
X87813070Y-42277667D01*
X87784499Y-42244333D01*
X87727356Y-42211000D01*
X87670213Y-42211000D01*
X87213070Y-42677667D02*
X87213070Y-42311000D01*
X87241641Y-42244333D01*
X87298784Y-42211000D01*
X87413070Y-42211000D01*
X87470213Y-42244333D01*
X87213070Y-42644333D02*
X87270213Y-42677667D01*
X87413070Y-42677667D01*
X87470213Y-42644333D01*
X87498784Y-42577667D01*
X87498784Y-42511000D01*
X87470213Y-42444333D01*
X87413070Y-42411000D01*
X87270213Y-42411000D01*
X87213070Y-42377667D01*
X86927356Y-42677667D02*
X86927356Y-41977667D01*
X86927356Y-42244333D02*
X86870213Y-42211000D01*
X86755927Y-42211000D01*
X86698784Y-42244333D01*
X86670213Y-42277667D01*
X86641642Y-42344333D01*
X86641642Y-42544333D01*
X86670213Y-42611000D01*
X86698784Y-42644333D01*
X86755927Y-42677667D01*
X86870213Y-42677667D01*
X86927356Y-42644333D01*
X86384499Y-42677667D02*
X86384499Y-41977667D01*
X86384499Y-42244333D02*
X86327356Y-42211000D01*
X86213070Y-42211000D01*
X86155927Y-42244333D01*
X86127356Y-42277667D01*
X86098785Y-42344333D01*
X86098785Y-42544333D01*
X86127356Y-42611000D01*
X86155927Y-42644333D01*
X86213070Y-42677667D01*
X86327356Y-42677667D01*
X86384499Y-42644333D01*
X85613070Y-42644333D02*
X85670213Y-42677667D01*
X85784499Y-42677667D01*
X85841642Y-42644333D01*
X85870213Y-42577667D01*
X85870213Y-42311000D01*
X85841642Y-42244333D01*
X85784499Y-42211000D01*
X85670213Y-42211000D01*
X85613070Y-42244333D01*
X85584499Y-42311000D01*
X85584499Y-42377667D01*
X85870213Y-42444333D01*
X85327356Y-42677667D02*
X85327356Y-42211000D01*
X85327356Y-42344333D02*
X85298784Y-42277667D01*
X85270213Y-42244333D01*
X85213070Y-42211000D01*
X85155927Y-42211000D01*
X84298784Y-42311000D02*
X84213070Y-42344333D01*
X84184498Y-42377667D01*
X84155927Y-42444333D01*
X84155927Y-42544333D01*
X84184498Y-42611000D01*
X84213070Y-42644333D01*
X84270212Y-42677667D01*
X84498784Y-42677667D01*
X84498784Y-41977667D01*
X84298784Y-41977667D01*
X84241641Y-42011000D01*
X84213070Y-42044333D01*
X84184498Y-42111000D01*
X84184498Y-42177667D01*
X84213070Y-42244333D01*
X84241641Y-42277667D01*
X84298784Y-42311000D01*
X84498784Y-42311000D01*
X83813070Y-42677667D02*
X83870212Y-42644333D01*
X83898784Y-42611000D01*
X83927355Y-42544333D01*
X83927355Y-42344333D01*
X83898784Y-42277667D01*
X83870212Y-42244333D01*
X83813070Y-42211000D01*
X83727355Y-42211000D01*
X83670212Y-42244333D01*
X83641641Y-42277667D01*
X83613070Y-42344333D01*
X83613070Y-42544333D01*
X83641641Y-42611000D01*
X83670212Y-42644333D01*
X83727355Y-42677667D01*
X83813070Y-42677667D01*
X83098784Y-42677667D02*
X83098784Y-42311000D01*
X83127355Y-42244333D01*
X83184498Y-42211000D01*
X83298784Y-42211000D01*
X83355927Y-42244333D01*
X83098784Y-42644333D02*
X83155927Y-42677667D01*
X83298784Y-42677667D01*
X83355927Y-42644333D01*
X83384498Y-42577667D01*
X83384498Y-42511000D01*
X83355927Y-42444333D01*
X83298784Y-42411000D01*
X83155927Y-42411000D01*
X83098784Y-42377667D01*
X82813070Y-42677667D02*
X82813070Y-42211000D01*
X82813070Y-42344333D02*
X82784498Y-42277667D01*
X82755927Y-42244333D01*
X82698784Y-42211000D01*
X82641641Y-42211000D01*
X82184498Y-42677667D02*
X82184498Y-41977667D01*
X82184498Y-42644333D02*
X82241641Y-42677667D01*
X82355927Y-42677667D01*
X82413069Y-42644333D01*
X82441641Y-42611000D01*
X82470212Y-42544333D01*
X82470212Y-42344333D01*
X82441641Y-42277667D01*
X82413069Y-42244333D01*
X82355927Y-42211000D01*
X82241641Y-42211000D01*
X82184498Y-42244333D01*
X104441643Y-43877667D02*
X104441643Y-43177667D01*
X104213071Y-43177667D01*
X104155929Y-43211000D01*
X104127357Y-43244333D01*
X104098786Y-43311000D01*
X104098786Y-43411000D01*
X104127357Y-43477667D01*
X104155929Y-43511000D01*
X104213071Y-43544333D01*
X104441643Y-43544333D01*
X103841643Y-43877667D02*
X103841643Y-43177667D01*
X103498786Y-43877667D02*
X103755929Y-43477667D01*
X103498786Y-43177667D02*
X103841643Y-43577667D01*
X102670214Y-43177667D02*
X102613071Y-43177667D01*
X102555928Y-43211000D01*
X102527357Y-43244333D01*
X102498786Y-43311000D01*
X102470214Y-43444333D01*
X102470214Y-43611000D01*
X102498786Y-43744333D01*
X102527357Y-43811000D01*
X102555928Y-43844333D01*
X102613071Y-43877667D01*
X102670214Y-43877667D01*
X102727357Y-43844333D01*
X102755928Y-43811000D01*
X102784500Y-43744333D01*
X102813071Y-43611000D01*
X102813071Y-43444333D01*
X102784500Y-43311000D01*
X102755928Y-43244333D01*
X102727357Y-43211000D01*
X102670214Y-43177667D01*
X102270214Y-43177667D02*
X101870214Y-43177667D01*
X102127357Y-43877667D01*
X101641642Y-43611000D02*
X101184499Y-43611000D01*
X100584499Y-43877667D02*
X100927356Y-43877667D01*
X100755928Y-43877667D02*
X100755928Y-43177667D01*
X100813071Y-43277667D01*
X100870213Y-43344333D01*
X100927356Y-43377667D01*
X100384499Y-43177667D02*
X99984499Y-43177667D01*
X100241642Y-43877667D01*
X104184500Y-45077667D02*
X104184500Y-44377667D01*
X104184500Y-45044333D02*
X104241643Y-45077667D01*
X104355929Y-45077667D01*
X104413071Y-45044333D01*
X104441643Y-45011000D01*
X104470214Y-44944333D01*
X104470214Y-44744333D01*
X104441643Y-44677667D01*
X104413071Y-44644333D01*
X104355929Y-44611000D01*
X104241643Y-44611000D01*
X104184500Y-44644333D01*
X103641643Y-44611000D02*
X103641643Y-45311000D01*
X103641643Y-45044333D02*
X103698786Y-45077667D01*
X103813072Y-45077667D01*
X103870214Y-45044333D01*
X103898786Y-45011000D01*
X103927357Y-44944333D01*
X103927357Y-44744333D01*
X103898786Y-44677667D01*
X103870214Y-44644333D01*
X103813072Y-44611000D01*
X103698786Y-44611000D01*
X103641643Y-44644333D01*
X103413072Y-44611000D02*
X103270215Y-45077667D01*
X103127357Y-44611000D02*
X103270215Y-45077667D01*
X103327357Y-45244333D01*
X103355929Y-45277667D01*
X103413072Y-45311000D01*
X102641643Y-45077667D02*
X102641643Y-44377667D01*
X102641643Y-45044333D02*
X102698786Y-45077667D01*
X102813072Y-45077667D01*
X102870214Y-45044333D01*
X102898786Y-45011000D01*
X102927357Y-44944333D01*
X102927357Y-44744333D01*
X102898786Y-44677667D01*
X102870214Y-44644333D01*
X102813072Y-44611000D01*
X102698786Y-44611000D01*
X102641643Y-44644333D01*
X102355929Y-44611000D02*
X102355929Y-45211000D01*
X102384500Y-45277667D01*
X102441643Y-45311000D01*
X102470215Y-45311000D01*
X102355929Y-44377667D02*
X102384500Y-44411000D01*
X102355929Y-44444333D01*
X102327357Y-44411000D01*
X102355929Y-44377667D01*
X102355929Y-44444333D01*
X102070215Y-45011000D02*
X102041643Y-45044333D01*
X102070215Y-45077667D01*
X102098786Y-45044333D01*
X102070215Y-45011000D01*
X102070215Y-45077667D01*
X101527358Y-45044333D02*
X101584501Y-45077667D01*
X101698787Y-45077667D01*
X101755929Y-45044333D01*
X101784501Y-45011000D01*
X101813072Y-44944333D01*
X101813072Y-44744333D01*
X101784501Y-44677667D01*
X101755929Y-44644333D01*
X101698787Y-44611000D01*
X101584501Y-44611000D01*
X101527358Y-44644333D01*
X101184501Y-45077667D02*
X101241643Y-45044333D01*
X101270215Y-45011000D01*
X101298786Y-44944333D01*
X101298786Y-44744333D01*
X101270215Y-44677667D01*
X101241643Y-44644333D01*
X101184501Y-44611000D01*
X101098786Y-44611000D01*
X101041643Y-44644333D01*
X101013072Y-44677667D01*
X100984501Y-44744333D01*
X100984501Y-44944333D01*
X101013072Y-45011000D01*
X101041643Y-45044333D01*
X101098786Y-45077667D01*
X101184501Y-45077667D01*
X100727358Y-45077667D02*
X100727358Y-44611000D01*
X100727358Y-44677667D02*
X100698786Y-44644333D01*
X100641644Y-44611000D01*
X100555929Y-44611000D01*
X100498786Y-44644333D01*
X100470215Y-44711000D01*
X100470215Y-45077667D01*
X100470215Y-44711000D02*
X100441644Y-44644333D01*
X100384501Y-44611000D01*
X100298786Y-44611000D01*
X100241644Y-44644333D01*
X100213072Y-44711000D01*
X100213072Y-45077667D01*
D12*
X78105000Y-75265000D03*
X78105000Y-100255000D03*
D13*
X80645000Y-92075000D03*
X80645000Y-89785000D03*
X80645000Y-87495000D03*
X80645000Y-85205000D03*
X80645000Y-82915000D03*
X78105000Y-93215000D03*
X78105000Y-90925000D03*
X78105000Y-88635000D03*
X78105000Y-86345000D03*
X78105000Y-84055000D03*
X75565000Y-92075000D03*
X75565000Y-89785000D03*
X75565000Y-87495000D03*
X75565000Y-85205000D03*
X75565000Y-82915000D03*
D14*
X72707500Y-115570000D03*
X138112500Y-51435000D03*
D10*
G36*
X87573477Y-65640950D02*
X88386650Y-64827777D01*
X89518021Y-65959148D01*
X88704848Y-66772321D01*
X87573477Y-65640950D01*
X87573477Y-65640950D01*
G37*
G36*
X88916979Y-66984452D02*
X89730152Y-66171279D01*
X90861523Y-67302650D01*
X90048350Y-68115823D01*
X88916979Y-66984452D01*
X88916979Y-66984452D01*
G37*
G36*
X84866750Y-62490977D02*
X85679923Y-63304150D01*
X84548552Y-64435521D01*
X83735379Y-63622348D01*
X84866750Y-62490977D01*
X84866750Y-62490977D01*
G37*
G36*
X83523248Y-63834479D02*
X84336421Y-64647652D01*
X83205050Y-65779023D01*
X82391877Y-64965850D01*
X83523248Y-63834479D01*
X83523248Y-63834479D01*
G37*
G36*
X93771077Y-85351350D02*
X94584250Y-84538177D01*
X95715621Y-85669548D01*
X94902448Y-86482721D01*
X93771077Y-85351350D01*
X93771077Y-85351350D01*
G37*
G36*
X95114579Y-86694852D02*
X95927752Y-85881679D01*
X97059123Y-87013050D01*
X96245950Y-87826223D01*
X95114579Y-86694852D01*
X95114579Y-86694852D01*
G37*
G36*
X83967514Y-67707095D02*
X85169595Y-66505014D01*
X86513098Y-67848517D01*
X85311017Y-69050598D01*
X83967514Y-67707095D01*
X83967514Y-67707095D01*
G37*
G36*
X85876702Y-69616283D02*
X87078783Y-68414202D01*
X88422286Y-69757705D01*
X87220205Y-70959786D01*
X85876702Y-69616283D01*
X85876702Y-69616283D01*
G37*
D15*
X88027500Y-91440000D03*
X85327500Y-91440000D03*
X88027500Y-88265000D03*
X85327500Y-88265000D03*
X88027500Y-85090000D03*
X85327500Y-85090000D03*
D16*
X142875000Y-53975000D03*
D17*
X145415000Y-53975000D03*
X142875000Y-56515000D03*
X145415000Y-56515000D03*
X142875000Y-59055000D03*
X145415000Y-59055000D03*
X142875000Y-61595000D03*
X145415000Y-61595000D03*
X142875000Y-64135000D03*
X145415000Y-64135000D03*
X142875000Y-66675000D03*
X145415000Y-66675000D03*
X142875000Y-69215000D03*
X145415000Y-69215000D03*
X142875000Y-71755000D03*
X145415000Y-71755000D03*
X142875000Y-74295000D03*
X145415000Y-74295000D03*
X142875000Y-76835000D03*
X145415000Y-76835000D03*
X142875000Y-79375000D03*
X145415000Y-79375000D03*
X142875000Y-81915000D03*
X145415000Y-81915000D03*
D16*
X74676000Y-108204000D03*
D17*
X77216000Y-108204000D03*
X74676000Y-110744000D03*
X77216000Y-110744000D03*
X74676000Y-113284000D03*
X77216000Y-113284000D03*
D16*
X135890000Y-115570000D03*
D17*
X133350000Y-115570000D03*
X130810000Y-115570000D03*
X128270000Y-115570000D03*
X125730000Y-115570000D03*
X123190000Y-115570000D03*
X120650000Y-115570000D03*
X118110000Y-115570000D03*
X115570000Y-115570000D03*
X113030000Y-115570000D03*
D18*
X83375500Y-107952500D03*
X83375500Y-109852500D03*
X98615500Y-109921000D03*
X98615500Y-111821000D03*
D10*
G36*
X106750477Y-66707750D02*
X107563650Y-65894577D01*
X108695021Y-67025948D01*
X107881848Y-67839121D01*
X106750477Y-66707750D01*
X106750477Y-66707750D01*
G37*
G36*
X108093979Y-68051252D02*
X108907152Y-67238079D01*
X110038523Y-68369450D01*
X109225350Y-69182623D01*
X108093979Y-68051252D01*
X108093979Y-68051252D01*
G37*
G36*
X96095177Y-77705950D02*
X96908350Y-76892777D01*
X98039721Y-78024148D01*
X97226548Y-78837321D01*
X96095177Y-77705950D01*
X96095177Y-77705950D01*
G37*
G36*
X97438679Y-79049452D02*
X98251852Y-78236279D01*
X99383223Y-79367650D01*
X98570050Y-80180823D01*
X97438679Y-79049452D01*
X97438679Y-79049452D01*
G37*
G36*
X94671523Y-75735450D02*
X93858350Y-76548623D01*
X92726979Y-75417252D01*
X93540152Y-74604079D01*
X94671523Y-75735450D01*
X94671523Y-75735450D01*
G37*
G36*
X93328021Y-74391948D02*
X92514848Y-75205121D01*
X91383477Y-74073750D01*
X92196650Y-73260577D01*
X93328021Y-74391948D01*
X93328021Y-74391948D01*
G37*
G36*
X92931250Y-81960077D02*
X93744423Y-82773250D01*
X92613052Y-83904621D01*
X91799879Y-83091448D01*
X92931250Y-81960077D01*
X92931250Y-81960077D01*
G37*
G36*
X91587748Y-83303579D02*
X92400921Y-84116752D01*
X91269550Y-85248123D01*
X90456377Y-84434950D01*
X91587748Y-83303579D01*
X91587748Y-83303579D01*
G37*
D18*
X104863900Y-75168800D03*
X104863900Y-73268800D03*
D16*
X113030000Y-113030000D03*
D17*
X115570000Y-113030000D03*
X118110000Y-113030000D03*
X120650000Y-113030000D03*
X123190000Y-113030000D03*
X125730000Y-113030000D03*
D18*
X128143000Y-101094500D03*
X128143000Y-102994500D03*
X139192000Y-102931000D03*
X139192000Y-101031000D03*
X91186000Y-111318000D03*
X91186000Y-113218000D03*
D16*
X145415000Y-115570000D03*
D17*
X142875000Y-115570000D03*
X140335000Y-115570000D03*
D16*
X72707500Y-55245000D03*
D17*
X72707500Y-52705000D03*
X72707500Y-50165000D03*
X72707500Y-47625000D03*
X72707500Y-45085000D03*
X72707500Y-42545000D03*
D19*
X143827500Y-86512400D03*
D16*
X106362500Y-43180000D03*
D17*
X106362500Y-45720000D03*
X108902500Y-43180000D03*
X108902500Y-45720000D03*
X111442500Y-43180000D03*
X111442500Y-45720000D03*
X113982500Y-43180000D03*
X113982500Y-45720000D03*
X116522500Y-43180000D03*
X116522500Y-45720000D03*
X119062500Y-43180000D03*
X119062500Y-45720000D03*
X121602500Y-43180000D03*
X121602500Y-45720000D03*
X124142500Y-43180000D03*
X124142500Y-45720000D03*
X126682500Y-43180000D03*
X126682500Y-45720000D03*
X129222500Y-43180000D03*
X129222500Y-45720000D03*
X131762500Y-43180000D03*
X131762500Y-45720000D03*
X134302500Y-43180000D03*
X134302500Y-45720000D03*
X136842500Y-43180000D03*
X136842500Y-45720000D03*
X139382500Y-43180000D03*
X139382500Y-45720000D03*
D19*
X143827500Y-44450000D03*
X79057500Y-44450000D03*
X103822500Y-114300000D03*
D20*
X118996500Y-62992000D03*
X117096500Y-62992000D03*
X125478500Y-62992000D03*
X127378500Y-62992000D03*
X126072860Y-69918580D03*
X127972860Y-69918580D03*
X133220500Y-62992000D03*
X131320500Y-62992000D03*
D18*
X133032500Y-72324000D03*
X133032500Y-70424000D03*
X133032500Y-74996000D03*
X133032500Y-76896000D03*
X133032500Y-81468000D03*
X133032500Y-79568000D03*
D20*
X129034500Y-85598000D03*
X130934500Y-85598000D03*
X125478500Y-91694000D03*
X127378500Y-91694000D03*
X123822500Y-84074000D03*
X121922500Y-84074000D03*
D10*
G36*
X87827477Y-79598250D02*
X88640650Y-78785077D01*
X89772021Y-79916448D01*
X88958848Y-80729621D01*
X87827477Y-79598250D01*
X87827477Y-79598250D01*
G37*
G36*
X89170979Y-80941752D02*
X89984152Y-80128579D01*
X91115523Y-81259950D01*
X90302350Y-82073123D01*
X89170979Y-80941752D01*
X89170979Y-80941752D01*
G37*
D18*
X119824500Y-78420000D03*
X119824500Y-76520000D03*
D20*
X115064500Y-71374000D03*
X116964500Y-71374000D03*
D15*
X81796900Y-101041200D03*
X84496900Y-101041200D03*
X81746100Y-98602800D03*
X84446100Y-98602800D03*
X81720700Y-96215200D03*
X84420700Y-96215200D03*
D21*
X95008700Y-101041200D03*
D22*
X87388700Y-95961200D03*
X95008700Y-98501200D03*
X87388700Y-98501200D03*
X95008700Y-95961200D03*
X87388700Y-101041200D03*
D14*
X76517500Y-59055000D03*
D15*
X123148100Y-105689400D03*
X125848100Y-105689400D03*
M02*
