G04 #@! TF.FileFunction,Copper,L2,Bot,Signal*
%FSLAX46Y46*%
G04 Gerber Fmt 4.6, Leading zero omitted, Abs format (unit mm)*
G04 Created by KiCad (PCBNEW 4.0.6) date Sunday, June 18, 2017 'PMt' 11:18:17 PM*
%MOMM*%
%LPD*%
G01*
G04 APERTURE LIST*
%ADD10C,0.100000*%
%ADD11R,1.700000X1.700000*%
%ADD12O,1.700000X1.700000*%
%ADD13R,1.800000X1.800000*%
%ADD14C,1.800000*%
%ADD15R,1.600000X1.600000*%
%ADD16O,1.600000X1.600000*%
%ADD17R,0.750000X1.200000*%
%ADD18R,1.500000X1.300000*%
%ADD19R,1.300000X1.500000*%
%ADD20C,2.100000*%
%ADD21C,4.450000*%
%ADD22C,4.500000*%
%ADD23C,4.860000*%
%ADD24C,1.000000*%
%ADD25C,1.350000*%
%ADD26C,0.685800*%
%ADD27C,0.152400*%
%ADD28C,0.355600*%
%ADD29C,0.203200*%
%ADD30C,0.304800*%
%ADD31C,1.066800*%
%ADD32C,0.711200*%
%ADD33C,0.406400*%
%ADD34C,0.254000*%
%ADD35C,0.508000*%
G04 APERTURE END LIST*
D10*
D11*
X50165000Y-85725000D03*
D12*
X52705000Y-85725000D03*
X50165000Y-88265000D03*
X52705000Y-88265000D03*
X50165000Y-90805000D03*
X52705000Y-90805000D03*
X50165000Y-93345000D03*
X52705000Y-93345000D03*
X50165000Y-95885000D03*
X52705000Y-95885000D03*
X50165000Y-98425000D03*
X52705000Y-98425000D03*
X50165000Y-100965000D03*
X52705000Y-100965000D03*
X50165000Y-103505000D03*
X52705000Y-103505000D03*
X50165000Y-106045000D03*
X52705000Y-106045000D03*
X50165000Y-108585000D03*
X52705000Y-108585000D03*
X50165000Y-111125000D03*
X52705000Y-111125000D03*
X50165000Y-113665000D03*
X52705000Y-113665000D03*
D11*
X57785000Y-74930000D03*
D12*
X57785000Y-77470000D03*
D13*
X106045000Y-108585000D03*
D14*
X103505000Y-108585000D03*
X100965000Y-108585000D03*
X98425000Y-108585000D03*
X95885000Y-108585000D03*
X93345000Y-108585000D03*
X90805000Y-108585000D03*
X88265000Y-108585000D03*
X85725000Y-108585000D03*
X83185000Y-108585000D03*
X80645000Y-108585000D03*
X78105000Y-108585000D03*
X75565000Y-108585000D03*
X73025000Y-108585000D03*
X70485000Y-108585000D03*
X67945000Y-108585000D03*
X65405000Y-108585000D03*
X62865000Y-108585000D03*
X60325000Y-108585000D03*
X60325000Y-133985000D03*
X62865000Y-133985000D03*
X65405000Y-133985000D03*
X67945000Y-133985000D03*
X70485000Y-133985000D03*
X73025000Y-133985000D03*
X75565000Y-133985000D03*
X78105000Y-133985000D03*
X80645000Y-133985000D03*
X83185000Y-133985000D03*
X85725000Y-133985000D03*
X88265000Y-133985000D03*
X90805000Y-133985000D03*
X93345000Y-133985000D03*
X95885000Y-133985000D03*
X98425000Y-133985000D03*
X100965000Y-133985000D03*
X103505000Y-133985000D03*
X106045000Y-133985000D03*
D15*
X75970000Y-145400000D03*
D16*
X83590000Y-137780000D03*
X78510000Y-145400000D03*
X81050000Y-137780000D03*
X81050000Y-145400000D03*
X78510000Y-137780000D03*
X83590000Y-145400000D03*
X75970000Y-137780000D03*
D17*
X63500000Y-101915000D03*
X63500000Y-100015000D03*
X51308000Y-123886000D03*
X51308000Y-121986000D03*
X58420000Y-121854000D03*
X58420000Y-119954000D03*
X51435000Y-75250000D03*
X51435000Y-77150000D03*
D11*
X92750000Y-83300000D03*
D12*
X95290000Y-83300000D03*
D11*
X106680000Y-102235000D03*
D12*
X106680000Y-99695000D03*
X106680000Y-97155000D03*
D11*
X78740000Y-100330000D03*
D12*
X78740000Y-102870000D03*
D18*
X89640400Y-103835200D03*
X86940400Y-103835200D03*
D19*
X51300000Y-82620000D03*
X51300000Y-79920000D03*
X66040000Y-99775000D03*
X66040000Y-97075000D03*
D18*
X95500000Y-144850000D03*
X92800000Y-144850000D03*
X98000000Y-74900000D03*
X100700000Y-74900000D03*
D20*
X89530000Y-141700000D03*
X99530000Y-139200000D03*
X99530000Y-144200000D03*
D21*
X101185000Y-84100000D03*
D22*
X104225000Y-88650000D03*
D23*
X98270000Y-88650000D03*
D24*
X51435000Y-143510000D03*
X106045000Y-82550000D03*
X101600000Y-128270000D03*
D25*
X54360000Y-77785000D03*
X54360000Y-75785000D03*
D11*
X83820000Y-93345000D03*
D12*
X86360000Y-93345000D03*
X88900000Y-93345000D03*
D11*
X104140000Y-97155000D03*
D12*
X104140000Y-99695000D03*
X104140000Y-102235000D03*
D26*
X57414160Y-102676960D03*
X59390280Y-102814120D03*
X50840640Y-131206240D03*
X65326260Y-145153380D03*
X57401460Y-117901720D03*
X63235840Y-103235760D03*
X51356260Y-126108460D03*
X71040000Y-100950000D03*
X68981320Y-89062560D03*
X66728340Y-89829640D03*
X66090800Y-94945200D03*
X83759040Y-100126800D03*
X69303900Y-125806200D03*
X71628000Y-123444000D03*
X92773500Y-123253500D03*
X98374200Y-125691900D03*
X69532500Y-120396000D03*
X92468700Y-117614700D03*
X98298000Y-117614700D03*
X70827900Y-121843800D03*
X92925900Y-121081800D03*
X98602800Y-121691400D03*
X66133980Y-144589500D03*
X54462680Y-136667240D03*
X60675520Y-144800320D03*
X71107300Y-85966300D03*
X69311520Y-86045040D03*
X78102460Y-82925920D03*
X59801760Y-147048220D03*
X57749440Y-146994880D03*
X87528400Y-81686400D03*
X58064400Y-123444000D03*
X51308000Y-118364000D03*
X55727600Y-126136400D03*
X54457600Y-127609600D03*
X61925200Y-98755200D03*
X54610000Y-85153500D03*
X54864000Y-89408000D03*
X68783200Y-94386400D03*
X60430000Y-89400000D03*
X61330000Y-90620000D03*
X57180000Y-83590000D03*
X89440000Y-106130000D03*
X94110000Y-78670000D03*
X64074040Y-132242560D03*
X65557400Y-141452600D03*
X67017900Y-105839260D03*
X58237120Y-98849180D03*
X59080400Y-118262400D03*
X53238400Y-83921600D03*
X58440000Y-80140000D03*
X81390000Y-87680000D03*
X72684640Y-84145120D03*
X57420000Y-144000000D03*
X80111600Y-90017600D03*
X91998800Y-109778800D03*
X94488000Y-136144000D03*
X69850000Y-145846800D03*
X68980000Y-144250000D03*
X67080000Y-140620000D03*
X58166000Y-137668000D03*
X58166000Y-136245600D03*
X57972960Y-140467080D03*
X72359520Y-143352520D03*
X89611200Y-77419200D03*
X96570000Y-78230000D03*
X101770000Y-76430000D03*
X96774000Y-77025500D03*
X91694000Y-76327000D03*
X96393000Y-101031040D03*
X77622400Y-124968000D03*
X71780400Y-125831600D03*
X59780000Y-141350000D03*
X83916520Y-128145540D03*
X73710800Y-137718800D03*
X77216000Y-125831600D03*
X72796400Y-125984000D03*
X60640000Y-141430000D03*
X80518000Y-125679200D03*
X91440000Y-125831600D03*
X82250000Y-132120000D03*
X79610000Y-139410000D03*
X94386400Y-129133600D03*
X77304900Y-126964440D03*
X91546680Y-126857760D03*
X86883240Y-136771380D03*
X69113400Y-141099540D03*
X70911720Y-141015720D03*
X95250000Y-132181600D03*
X92354400Y-125628400D03*
X81432400Y-125374400D03*
X73507600Y-130606800D03*
X62640000Y-140530000D03*
X61976000Y-94488000D03*
X88250000Y-105220000D03*
X72660000Y-98300000D03*
X63030000Y-141310000D03*
X69502020Y-102412800D03*
X64648080Y-101003100D03*
X63398400Y-94437200D03*
X63810000Y-140510000D03*
X64950000Y-137020000D03*
X82110000Y-136830000D03*
X65080000Y-140720000D03*
X74550000Y-137350000D03*
X53543200Y-79908400D03*
X75483720Y-115199160D03*
X90251280Y-114218720D03*
X74935080Y-114452400D03*
D27*
X80565000Y-112395000D02*
X80755000Y-112395000D01*
D28*
X57414160Y-102676960D02*
X57551320Y-102814120D01*
X57551320Y-102814120D02*
X59390280Y-102814120D01*
D27*
X51630580Y-131996180D02*
X50840640Y-131206240D01*
X51630580Y-137378440D02*
X51630580Y-131996180D01*
X59791600Y-145539460D02*
X51630580Y-137378440D01*
X64940180Y-145539460D02*
X59791600Y-145539460D01*
X65326260Y-145153380D02*
X64940180Y-145539460D01*
D29*
X63500000Y-101915000D02*
X63500000Y-102971600D01*
X57401460Y-117901720D02*
X51417180Y-123886000D01*
X63500000Y-102971600D02*
X63235840Y-103235760D01*
X51417180Y-123886000D02*
X51308000Y-123886000D01*
X51308000Y-123886000D02*
X51308000Y-126060200D01*
X51308000Y-126060200D02*
X51356260Y-126108460D01*
X63500000Y-101915000D02*
X64848700Y-101915000D01*
X66040000Y-100723700D02*
X66040000Y-99775000D01*
X64848700Y-101915000D02*
X66040000Y-100723700D01*
D30*
X66040000Y-99775000D02*
X69865000Y-99775000D01*
X69865000Y-99775000D02*
X71040000Y-100950000D01*
D29*
X63500000Y-100015000D02*
X63500000Y-99615000D01*
X63500000Y-99615000D02*
X66040000Y-97075000D01*
D27*
X67495420Y-89062560D02*
X68981320Y-89062560D01*
X66728340Y-89829640D02*
X67495420Y-89062560D01*
X66090800Y-94945200D02*
X66040000Y-94996000D01*
X66040000Y-94996000D02*
X66040000Y-97075000D01*
D28*
X65845000Y-97075000D02*
X66040000Y-97075000D01*
D30*
X83759040Y-100126800D02*
X86940400Y-103308160D01*
X86940400Y-103308160D02*
X86940400Y-103835200D01*
D31*
X69303900Y-125768100D02*
X69303900Y-125806200D01*
X71628000Y-123444000D02*
X69303900Y-125768100D01*
X95935800Y-123253500D02*
X92773500Y-123253500D01*
X98374200Y-125691900D02*
X95935800Y-123253500D01*
X67589400Y-122339100D02*
X67513200Y-122339100D01*
X69532500Y-120396000D02*
X67589400Y-122339100D01*
X98298000Y-117614700D02*
X92468700Y-117614700D01*
X68846700Y-123825000D02*
X68846700Y-123901200D01*
X70827900Y-121843800D02*
X68846700Y-123825000D01*
X97993200Y-121081800D02*
X92925900Y-121081800D01*
X98602800Y-121691400D02*
X97993200Y-121081800D01*
D27*
X61074300Y-145199100D02*
X60675520Y-144800320D01*
X64373760Y-145199100D02*
X61074300Y-145199100D01*
X65021460Y-144551400D02*
X64373760Y-145199100D01*
X66095880Y-144551400D02*
X65021460Y-144551400D01*
X66133980Y-144589500D02*
X66095880Y-144551400D01*
X54462680Y-136667240D02*
X54660800Y-136865360D01*
X54660800Y-136865360D02*
X54660800Y-139811760D01*
X54660800Y-139811760D02*
X59649360Y-144800320D01*
X59649360Y-144800320D02*
X60675520Y-144800320D01*
X69390260Y-85966300D02*
X71107300Y-85966300D01*
X69311520Y-86045040D02*
X69390260Y-85966300D01*
D30*
X87528400Y-81686400D02*
X79341980Y-81686400D01*
X79341980Y-81686400D02*
X78102460Y-82925920D01*
D27*
X59801760Y-147048220D02*
X59743340Y-146989800D01*
X59743340Y-146989800D02*
X57800240Y-146989800D01*
X57800240Y-146989800D02*
X57795160Y-146994880D01*
X57795160Y-146994880D02*
X57749440Y-146994880D01*
D28*
X94110000Y-78670000D02*
X92424400Y-78670000D01*
X89408000Y-81686400D02*
X87528400Y-81686400D01*
X92424400Y-78670000D02*
X89408000Y-81686400D01*
D29*
X58420000Y-121854000D02*
X58420000Y-123088400D01*
X58420000Y-123088400D02*
X58064400Y-123444000D01*
X51308000Y-121986000D02*
X51308000Y-118364000D01*
D28*
X55727600Y-126339600D02*
X55727600Y-126136400D01*
X54457600Y-127609600D02*
X55727600Y-126339600D01*
D32*
X99530000Y-144200000D02*
X100275000Y-144200000D01*
X100275000Y-144200000D02*
X106045000Y-138430000D01*
X106045000Y-138430000D02*
X106045000Y-136525000D01*
D28*
X61925200Y-98755200D02*
X64871600Y-95808800D01*
X64871600Y-95808800D02*
X64871600Y-94386400D01*
D33*
X55181500Y-84582000D02*
X56188000Y-84582000D01*
X56188000Y-84582000D02*
X57180000Y-83590000D01*
X55181500Y-78606500D02*
X54360000Y-77785000D01*
X55181500Y-84582000D02*
X55181500Y-78606500D01*
X54610000Y-85153500D02*
X55181500Y-84582000D01*
X60041000Y-89789000D02*
X60430000Y-89400000D01*
X55245000Y-89789000D02*
X60041000Y-89789000D01*
X54864000Y-89408000D02*
X55245000Y-89789000D01*
D28*
X62578400Y-90620000D02*
X62578400Y-92093200D01*
X62578400Y-92093200D02*
X64871600Y-94386400D01*
X61330000Y-90620000D02*
X62578400Y-90620000D01*
X65430400Y-93472000D02*
X65786000Y-93472000D01*
X62578400Y-90620000D02*
X65430400Y-93472000D01*
X64871600Y-94386400D02*
X65786000Y-93472000D01*
X65786000Y-93472000D02*
X67868800Y-93472000D01*
X67868800Y-93472000D02*
X68783200Y-94386400D01*
D31*
X85394800Y-106130000D02*
X85394800Y-105380800D01*
X85394800Y-105380800D02*
X86940400Y-103835200D01*
D32*
X90805000Y-133985000D02*
X90805000Y-135559800D01*
X106045000Y-136525000D02*
X106045000Y-133985000D01*
X105105200Y-137464800D02*
X106045000Y-136525000D01*
X92710000Y-137464800D02*
X105105200Y-137464800D01*
X90805000Y-135559800D02*
X92710000Y-137464800D01*
D30*
X60430000Y-89720000D02*
X60430000Y-89400000D01*
X61330000Y-90620000D02*
X60430000Y-89720000D01*
D31*
X54360000Y-77785000D02*
X55145000Y-77785000D01*
X57180000Y-79820000D02*
X57180000Y-83590000D01*
X55145000Y-77785000D02*
X57180000Y-79820000D01*
D32*
X85394800Y-106130000D02*
X89440000Y-106130000D01*
D30*
X51435000Y-77150000D02*
X53725000Y-77150000D01*
X53725000Y-77150000D02*
X54360000Y-77785000D01*
X95290000Y-79850000D02*
X95290000Y-83300000D01*
X94110000Y-78670000D02*
X95290000Y-79850000D01*
D32*
X95290000Y-83300000D02*
X100385000Y-83300000D01*
X100385000Y-83300000D02*
X101185000Y-84100000D01*
X101185000Y-85610000D02*
X104225000Y-88650000D01*
D27*
X64084200Y-132252720D02*
X64074040Y-132242560D01*
X64084200Y-134607300D02*
X64084200Y-132252720D01*
X63543180Y-135148320D02*
X64084200Y-134607300D01*
X62544960Y-135148320D02*
X63543180Y-135148320D01*
X60289440Y-137403840D02*
X62544960Y-135148320D01*
X60289440Y-139829540D02*
X60289440Y-137403840D01*
X58968640Y-141150340D02*
X60289440Y-139829540D01*
X58968640Y-141571980D02*
X58968640Y-141150340D01*
X59677300Y-142280640D02*
X58968640Y-141571980D01*
X60947300Y-142280640D02*
X59677300Y-142280640D01*
X61302900Y-141925040D02*
X60947300Y-142280640D01*
X65084960Y-141925040D02*
X61302900Y-141925040D01*
X65557400Y-141452600D02*
X65084960Y-141925040D01*
D29*
X66357500Y-105839260D02*
X67017900Y-105839260D01*
X66004440Y-106192320D02*
X66357500Y-105839260D01*
X63296804Y-106192320D02*
X66004440Y-106192320D01*
X62611002Y-105506518D02*
X63296804Y-106192320D01*
X62611002Y-101737162D02*
X62611002Y-105506518D01*
X59977020Y-99103180D02*
X62611002Y-101737162D01*
X58491120Y-99103180D02*
X59977020Y-99103180D01*
X58237120Y-98849180D02*
X58491120Y-99103180D01*
X58420000Y-118922800D02*
X58420000Y-119954000D01*
X59080400Y-118262400D02*
X58420000Y-118922800D01*
D28*
X53238400Y-83921600D02*
X51936800Y-82620000D01*
X51936800Y-82620000D02*
X51300000Y-82620000D01*
D30*
X58440000Y-80140000D02*
X59290000Y-79290000D01*
X59290000Y-79290000D02*
X70850000Y-79290000D01*
X70850000Y-79290000D02*
X74990000Y-83430000D01*
X74990000Y-83430000D02*
X74990000Y-86170000D01*
X74990000Y-86170000D02*
X76500000Y-87680000D01*
X76500000Y-87680000D02*
X81390000Y-87680000D01*
X50165000Y-85725000D02*
X50520600Y-85725000D01*
X50520600Y-85725000D02*
X51694080Y-86898480D01*
X51694080Y-86898480D02*
X64640460Y-86898480D01*
X64640460Y-86898480D02*
X68084700Y-83454240D01*
X68084700Y-83454240D02*
X71993760Y-83454240D01*
X71993760Y-83454240D02*
X72684640Y-84145120D01*
D27*
X59266800Y-145846800D02*
X69850000Y-145846800D01*
X57420000Y-144000000D02*
X59266800Y-145846800D01*
X69850000Y-145846800D02*
X71678800Y-145846800D01*
X71678800Y-145846800D02*
X71729600Y-145796000D01*
D28*
X80111600Y-90017600D02*
X80568800Y-90474800D01*
X80568800Y-90474800D02*
X80568800Y-94132400D01*
X80568800Y-94132400D02*
X88442800Y-102006400D01*
X88442800Y-102006400D02*
X90271600Y-102006400D01*
X90271600Y-102006400D02*
X92049600Y-103784400D01*
X92049600Y-103784400D02*
X92049600Y-109728000D01*
X92049600Y-109728000D02*
X91998800Y-109778800D01*
X94488000Y-136144000D02*
X94160135Y-136471865D01*
X94160135Y-136471865D02*
X93342665Y-136471865D01*
X93342665Y-136471865D02*
X92049600Y-135178800D01*
X92049600Y-135178800D02*
X92049600Y-133350000D01*
X92049600Y-133350000D02*
X91389200Y-132689600D01*
X91389200Y-132689600D02*
X90068400Y-132689600D01*
X90068400Y-132689600D02*
X89560400Y-133197600D01*
X89560400Y-133197600D02*
X89560400Y-136702800D01*
X89560400Y-136702800D02*
X84277200Y-141986000D01*
X84277200Y-141986000D02*
X75539600Y-141986000D01*
X75539600Y-141986000D02*
X71729600Y-145796000D01*
D27*
X68980000Y-143890000D02*
X68980000Y-144250000D01*
X67880000Y-142790000D02*
X68980000Y-143890000D01*
X67880000Y-141310000D02*
X67880000Y-142790000D01*
X67590000Y-141020000D02*
X67880000Y-141310000D01*
X67480000Y-141020000D02*
X67590000Y-141020000D01*
X67080000Y-140620000D02*
X67480000Y-141020000D01*
X58166000Y-137668000D02*
X58166000Y-136245600D01*
X92800000Y-144850000D02*
X84140000Y-144850000D01*
X84140000Y-144850000D02*
X83590000Y-145400000D01*
X57942480Y-140497560D02*
X57972960Y-140467080D01*
X57942480Y-142189200D02*
X57942480Y-140497560D01*
X59207400Y-143454120D02*
X57942480Y-142189200D01*
X67238880Y-143454120D02*
X59207400Y-143454120D01*
X68834000Y-145049240D02*
X67238880Y-143454120D01*
X70662800Y-145049240D02*
X68834000Y-145049240D01*
X72359520Y-143352520D02*
X70662800Y-145049240D01*
D33*
X54360000Y-75785000D02*
X55385000Y-75785000D01*
X88248402Y-78781998D02*
X89611200Y-77419200D01*
X60901998Y-78781998D02*
X88248402Y-78781998D01*
X58360000Y-76240000D02*
X60901998Y-78781998D01*
X55840000Y-76240000D02*
X58360000Y-76240000D01*
X55385000Y-75785000D02*
X55840000Y-76240000D01*
D30*
X98000000Y-74900000D02*
X91114400Y-74900000D01*
X91114400Y-74900000D02*
X89611200Y-76403200D01*
X89611200Y-76403200D02*
X89611200Y-77419200D01*
X54360000Y-75785000D02*
X53495000Y-75785000D01*
X52960000Y-75250000D02*
X51435000Y-75250000D01*
X53495000Y-75785000D02*
X52960000Y-75250000D01*
D27*
X98000000Y-74900000D02*
X98000000Y-76800000D01*
X98000000Y-76800000D02*
X96570000Y-78230000D01*
X101770000Y-76430000D02*
X100700000Y-75360000D01*
X100700000Y-75360000D02*
X100700000Y-74900000D01*
D34*
X96266000Y-76517500D02*
X96774000Y-77025500D01*
X91884500Y-76517500D02*
X96266000Y-76517500D01*
X91694000Y-76327000D02*
X91884500Y-76517500D01*
D32*
X52705000Y-85725000D02*
X53784500Y-85725000D01*
X54165500Y-86106000D02*
X64452500Y-86106000D01*
X53784500Y-85725000D02*
X54165500Y-86106000D01*
X92750000Y-83300000D02*
X92750000Y-83780000D01*
X92750000Y-83780000D02*
X89217500Y-87312500D01*
X89217500Y-87312500D02*
X83185000Y-87312500D01*
X83185000Y-87312500D02*
X81724500Y-88773000D01*
X81724500Y-88773000D02*
X76009500Y-88773000D01*
X76009500Y-88773000D02*
X73850500Y-86614000D01*
X73850500Y-86614000D02*
X73850500Y-83820000D01*
X73850500Y-83820000D02*
X72707500Y-82677000D01*
X72707500Y-82677000D02*
X67881500Y-82677000D01*
X67881500Y-82677000D02*
X64452500Y-86106000D01*
X64452500Y-86106000D02*
X53086000Y-86106000D01*
X53086000Y-86106000D02*
X52705000Y-85725000D01*
D30*
X93440000Y-82610000D02*
X92750000Y-83300000D01*
D27*
X93345000Y-110525000D02*
X93345000Y-108585000D01*
X95550000Y-112730000D02*
X93345000Y-110525000D01*
X99950000Y-112730000D02*
X95550000Y-112730000D01*
X102280000Y-110400000D02*
X99950000Y-112730000D01*
X102280000Y-108200000D02*
X102280000Y-110400000D01*
X103130000Y-107350000D02*
X102280000Y-108200000D01*
X105235198Y-105434802D02*
X103320000Y-107350000D01*
X103320000Y-107350000D02*
X103130000Y-107350000D01*
X105235198Y-101125198D02*
X105235198Y-105434802D01*
X104140000Y-99695000D02*
X104140000Y-100030000D01*
X104140000Y-100030000D02*
X105235198Y-101125198D01*
D30*
X95885000Y-101539040D02*
X95885000Y-108585000D01*
X96393000Y-101031040D02*
X95885000Y-101539040D01*
D27*
X103130000Y-106500000D02*
X104140000Y-105490000D01*
X104140000Y-105490000D02*
X104140000Y-102235000D01*
X95885000Y-108585000D02*
X95885000Y-111125000D01*
X95885000Y-111125000D02*
X96800000Y-112040000D01*
X96800000Y-112040000D02*
X98360000Y-112040000D01*
X98360000Y-112040000D02*
X99820000Y-110580000D01*
X99820000Y-110580000D02*
X99820000Y-107990000D01*
X99820000Y-107990000D02*
X101310000Y-106500000D01*
X101310000Y-106500000D02*
X103130000Y-106500000D01*
X103610000Y-112510000D02*
X103610000Y-112070000D01*
X107270000Y-104900000D02*
X106680000Y-104310000D01*
X107270000Y-109500000D02*
X107270000Y-104900000D01*
X106350000Y-110420000D02*
X107270000Y-109500000D01*
X105260000Y-110420000D02*
X106350000Y-110420000D01*
X103610000Y-112070000D02*
X105260000Y-110420000D01*
X98425000Y-133985000D02*
X98695000Y-133985000D01*
X98695000Y-133985000D02*
X103610000Y-129070000D01*
X103610000Y-129070000D02*
X103610000Y-112510000D01*
X106680000Y-104310000D02*
X106680000Y-102235000D01*
X105540000Y-106720000D02*
X104890000Y-107370000D01*
X104890000Y-107370000D02*
X104890000Y-110358944D01*
X104890000Y-110358944D02*
X103305198Y-111943746D01*
X103305198Y-111943746D02*
X103305198Y-128924802D01*
X103305198Y-128924802D02*
X100690000Y-131540000D01*
X100690000Y-131540000D02*
X98090000Y-131540000D01*
X105540000Y-101330000D02*
X105540000Y-106720000D01*
X106680000Y-99695000D02*
X106680000Y-100190000D01*
X106680000Y-100190000D02*
X105540000Y-101330000D01*
X98090000Y-131540000D02*
X95885000Y-133745000D01*
X95885000Y-133745000D02*
X95885000Y-133985000D01*
X95885000Y-133985000D02*
X95885000Y-133175000D01*
X52705000Y-103505000D02*
X52705000Y-103860600D01*
X52705000Y-103860600D02*
X57200800Y-108356400D01*
X57200800Y-108356400D02*
X57200800Y-113080800D01*
X57200800Y-113080800D02*
X57505600Y-113385600D01*
X57505600Y-113385600D02*
X72085200Y-113385600D01*
X72085200Y-113385600D02*
X77622400Y-118922800D01*
X77622400Y-118922800D02*
X77622400Y-124968000D01*
X71780400Y-125831600D02*
X67945000Y-129667000D01*
X67945000Y-129667000D02*
X67945000Y-133985000D01*
X66540000Y-135570000D02*
X62750000Y-135570000D01*
X62750000Y-135570000D02*
X60880000Y-137440000D01*
X66540000Y-135570000D02*
X67945000Y-134165000D01*
X60880000Y-140250000D02*
X60880000Y-137440000D01*
X59780000Y-141350000D02*
X60880000Y-140250000D01*
X67945000Y-133985000D02*
X67945000Y-134165000D01*
X67945000Y-133985000D02*
X67945000Y-134835000D01*
X52705000Y-90805000D02*
X53771800Y-90805000D01*
X83916520Y-116850160D02*
X83916520Y-128145540D01*
X81899760Y-114833400D02*
X83916520Y-116850160D01*
X81899760Y-107984816D02*
X81899760Y-114833400D01*
X80645742Y-106730798D02*
X81899760Y-107984816D01*
X67109342Y-106730798D02*
X80645742Y-106730798D01*
X66626740Y-107213400D02*
X67109342Y-106730798D01*
X62842140Y-107213400D02*
X66626740Y-107213400D01*
X61826140Y-106197400D02*
X62842140Y-107213400D01*
X61826140Y-101933484D02*
X61826140Y-106197400D01*
X59714654Y-99821998D02*
X61826140Y-101933484D01*
X56784240Y-99821998D02*
X59714654Y-99821998D01*
X54259108Y-97296866D02*
X56784240Y-99821998D01*
X54259108Y-91292308D02*
X54259108Y-97296866D01*
X53771800Y-90805000D02*
X54259108Y-91292308D01*
X73025000Y-133985000D02*
X73025000Y-137033000D01*
X73025000Y-137033000D02*
X73710800Y-137718800D01*
X52705000Y-98425000D02*
X52857400Y-98425000D01*
X52857400Y-98425000D02*
X54508400Y-100076000D01*
X54508400Y-100076000D02*
X54508400Y-101650800D01*
X54508400Y-101650800D02*
X58826402Y-105968802D01*
X58826402Y-105968802D02*
X58826402Y-111302802D01*
X58826402Y-111302802D02*
X59334400Y-111810800D01*
X59334400Y-111810800D02*
X68986400Y-111810800D01*
X68986400Y-111810800D02*
X70485000Y-110312200D01*
X70485000Y-110312200D02*
X70485000Y-108585000D01*
X50165000Y-103505000D02*
X50165000Y-103860600D01*
X50165000Y-103860600D02*
X51206400Y-104902000D01*
X51206400Y-104902000D02*
X53136800Y-104902000D01*
X53136800Y-104902000D02*
X56794402Y-108559602D01*
X56794402Y-108559602D02*
X56794402Y-113233200D01*
X56794402Y-113233200D02*
X57404002Y-113842800D01*
X57404002Y-113842800D02*
X71932800Y-113842800D01*
X71932800Y-113842800D02*
X77012800Y-118922800D01*
X77012800Y-118922800D02*
X77012800Y-125628400D01*
X77012800Y-125628400D02*
X77216000Y-125831600D01*
X72796400Y-125984000D02*
X70485000Y-128295400D01*
X70485000Y-128295400D02*
X70485000Y-133985000D01*
X68130000Y-135950000D02*
X70095000Y-133985000D01*
X62850000Y-135950000D02*
X68130000Y-135950000D01*
X61280000Y-137520000D02*
X62850000Y-135950000D01*
X61280000Y-140790000D02*
X61280000Y-137520000D01*
X60640000Y-141430000D02*
X61280000Y-140790000D01*
X70095000Y-133985000D02*
X70485000Y-133985000D01*
X59131204Y-105750360D02*
X59131204Y-105658924D01*
X52705000Y-96832420D02*
X52705000Y-95885000D01*
X54924960Y-99052380D02*
X52705000Y-96832420D01*
X54924960Y-101452680D02*
X54924960Y-99052380D01*
X59131204Y-105658924D02*
X54924960Y-101452680D01*
X52705000Y-95885000D02*
X52705000Y-96799400D01*
X59131204Y-105714804D02*
X59131204Y-105750360D01*
X59131204Y-105750360D02*
X59131204Y-111048804D01*
X59131204Y-111048804D02*
X59385200Y-111302800D01*
X59385200Y-111302800D02*
X67818000Y-111302800D01*
X67818000Y-111302800D02*
X69342000Y-109778800D01*
X69342000Y-109778800D02*
X69342000Y-107797600D01*
X69342000Y-107797600D02*
X69748400Y-107391200D01*
X69748400Y-107391200D02*
X71120000Y-107391200D01*
X71120000Y-107391200D02*
X71678800Y-107950000D01*
X71678800Y-107950000D02*
X71678800Y-110363744D01*
X71678800Y-110363744D02*
X79400400Y-118085344D01*
X79400400Y-118085344D02*
X79400400Y-124561600D01*
X79400400Y-124561600D02*
X80518000Y-125679200D01*
X91440000Y-125831600D02*
X94538800Y-128930400D01*
X80560000Y-132120000D02*
X82250000Y-132120000D01*
X79260000Y-133420000D02*
X80560000Y-132120000D01*
X79260000Y-134860000D02*
X79260000Y-133420000D01*
X79560000Y-135160000D02*
X79260000Y-134860000D01*
X79560000Y-139360000D02*
X79560000Y-135160000D01*
X79610000Y-139410000D02*
X79560000Y-139360000D01*
X94386400Y-129133600D02*
X94538800Y-128981200D01*
X94538800Y-128981200D02*
X94538800Y-128930400D01*
X100965000Y-135661400D02*
X100965000Y-133985000D01*
X94538800Y-128930400D02*
X94538800Y-135077200D01*
X94538800Y-135077200D02*
X95961200Y-136499600D01*
X95961200Y-136499600D02*
X100126800Y-136499600D01*
X100126800Y-136499600D02*
X100965000Y-135661400D01*
X50165000Y-100965000D02*
X50165000Y-101737160D01*
X50165000Y-101737160D02*
X50850800Y-102422960D01*
X50850800Y-102422960D02*
X53164740Y-102422960D01*
X53164740Y-102422960D02*
X54620160Y-103878380D01*
X54620160Y-103878380D02*
X54620160Y-105247440D01*
X54620160Y-105247440D02*
X57553860Y-108181140D01*
X57553860Y-108181140D02*
X57553860Y-112715040D01*
X57553860Y-112715040D02*
X57904380Y-113065560D01*
X57904380Y-113065560D02*
X72252840Y-113065560D01*
X72252840Y-113065560D02*
X78069440Y-118882160D01*
X78069440Y-118882160D02*
X78069440Y-124383800D01*
X78069440Y-124383800D02*
X78272640Y-124587000D01*
X78272640Y-124587000D02*
X78272640Y-125996700D01*
X78272640Y-125996700D02*
X77304900Y-126964440D01*
X91546680Y-126857760D02*
X93619320Y-128930400D01*
X93619320Y-128930400D02*
X93619320Y-133710680D01*
X93619320Y-133710680D02*
X93345000Y-133985000D01*
X70911720Y-141015720D02*
X74447400Y-141015720D01*
X86723220Y-136611360D02*
X86883240Y-136771380D01*
X83187540Y-136611360D02*
X86723220Y-136611360D01*
X82414802Y-137384098D02*
X83187540Y-136611360D01*
X82414802Y-138930958D02*
X82414802Y-137384098D01*
X80619600Y-140726160D02*
X82414802Y-138930958D01*
X74736960Y-140726160D02*
X80619600Y-140726160D01*
X74447400Y-141015720D02*
X74736960Y-140726160D01*
X70827900Y-141099540D02*
X69113400Y-141099540D01*
X70911720Y-141015720D02*
X70827900Y-141099540D01*
X95275400Y-132156200D02*
X95250000Y-132181600D01*
X95275400Y-128549400D02*
X95275400Y-132156200D01*
X52705000Y-93345000D02*
X52705000Y-94259400D01*
X92354400Y-125628400D02*
X95275400Y-128549400D01*
X95275400Y-128549400D02*
X95300800Y-128574800D01*
X79806800Y-123748800D02*
X81432400Y-125374400D01*
X79806800Y-117856000D02*
X79806800Y-123748800D01*
X74269600Y-112318800D02*
X79806800Y-117856000D01*
X74269600Y-108051600D02*
X74269600Y-112318800D01*
X73253600Y-107035600D02*
X74269600Y-108051600D01*
X67564000Y-107035600D02*
X73253600Y-107035600D01*
X66751200Y-107848400D02*
X67564000Y-107035600D01*
X66751200Y-110388400D02*
X66751200Y-107848400D01*
X66192400Y-110947200D02*
X66751200Y-110388400D01*
X62484000Y-110947200D02*
X66192400Y-110947200D01*
X61468000Y-109931200D02*
X62484000Y-110947200D01*
X61468000Y-102006400D02*
X61468000Y-109931200D01*
X59588400Y-100126800D02*
X61468000Y-102006400D01*
X56591200Y-100126800D02*
X59588400Y-100126800D01*
X53848000Y-97383600D02*
X56591200Y-100126800D01*
X53848000Y-95402400D02*
X53848000Y-97383600D01*
X52705000Y-94259400D02*
X53848000Y-95402400D01*
X50165000Y-113665000D02*
X50520600Y-113665000D01*
X50520600Y-113665000D02*
X54051200Y-117195600D01*
X73507600Y-120497600D02*
X73507600Y-130606800D01*
X70205600Y-117195600D02*
X73507600Y-120497600D01*
X54051200Y-117195600D02*
X70205600Y-117195600D01*
D32*
X50165000Y-113805000D02*
X50165000Y-113665000D01*
D27*
X75415800Y-131695800D02*
X75415800Y-131651400D01*
X75415800Y-131651400D02*
X74117200Y-130352800D01*
X72840000Y-131660000D02*
X73470400Y-131660000D01*
X73470400Y-131660000D02*
X74117200Y-131013200D01*
X74117200Y-131013200D02*
X74117200Y-130352800D01*
X52705000Y-115036600D02*
X52705000Y-113665000D01*
X74117200Y-130352800D02*
X74117200Y-120599200D01*
X74117200Y-120599200D02*
X70307200Y-116789200D01*
X70307200Y-116789200D02*
X54457600Y-116789200D01*
X54457600Y-116789200D02*
X52705000Y-115036600D01*
X78105000Y-133985000D02*
X77705000Y-133985000D01*
X77705000Y-133985000D02*
X75415800Y-131695800D01*
X75415800Y-131695800D02*
X75380000Y-131660000D01*
X62640000Y-137030000D02*
X62640000Y-140530000D01*
X63380000Y-136290000D02*
X62640000Y-137030000D01*
X69800000Y-136290000D02*
X63380000Y-136290000D01*
X71620000Y-134470000D02*
X69800000Y-136290000D01*
X71620000Y-132880000D02*
X71620000Y-134470000D01*
X72840000Y-131660000D02*
X71620000Y-132880000D01*
X75380000Y-131660000D02*
X72840000Y-131660000D01*
X78105000Y-134145000D02*
X78105000Y-133985000D01*
X50165000Y-106045000D02*
X50165000Y-106248200D01*
X50165000Y-106248200D02*
X51409600Y-107492800D01*
X51409600Y-107492800D02*
X53238400Y-107492800D01*
X53238400Y-107492800D02*
X55880000Y-110134400D01*
X55880000Y-110134400D02*
X55880000Y-113690400D01*
X55880000Y-113690400D02*
X56794400Y-114604800D01*
X56794400Y-114604800D02*
X71323200Y-114604800D01*
X71323200Y-114604800D02*
X75996800Y-119278400D01*
X75996800Y-119278400D02*
X75996800Y-129082800D01*
X75996800Y-129082800D02*
X76657200Y-129743200D01*
X76657200Y-129743200D02*
X81940400Y-129743200D01*
X81940400Y-129743200D02*
X83108800Y-128574800D01*
X83108800Y-128574800D02*
X83108800Y-116738400D01*
X83108800Y-116738400D02*
X80314800Y-113944400D01*
X80314800Y-113944400D02*
X79502000Y-113944400D01*
X79502000Y-113944400D02*
X78105000Y-112547400D01*
X78105000Y-112547400D02*
X78105000Y-108585000D01*
X52705000Y-88265000D02*
X52908200Y-88265000D01*
X52908200Y-88265000D02*
X55422800Y-90779600D01*
X55422800Y-90779600D02*
X55422800Y-95859600D01*
X55422800Y-95859600D02*
X56997600Y-97434400D01*
X56997600Y-97434400D02*
X61214000Y-97434400D01*
X61214000Y-97434400D02*
X62179200Y-96469200D01*
X62179200Y-96469200D02*
X62179200Y-94691200D01*
X62179200Y-94691200D02*
X61976000Y-94488000D01*
X88265000Y-108585000D02*
X88265000Y-108127800D01*
X88265000Y-108127800D02*
X89560400Y-106832400D01*
X90728800Y-104923600D02*
X89640400Y-103835200D01*
X90728800Y-106324400D02*
X90728800Y-104923600D01*
X90220800Y-106832400D02*
X90728800Y-106324400D01*
X89560400Y-106832400D02*
X90220800Y-106832400D01*
X88250000Y-102970000D02*
X88250000Y-105220000D01*
X84060000Y-98780000D02*
X88250000Y-102970000D01*
X73140000Y-98780000D02*
X84060000Y-98780000D01*
X72660000Y-98300000D02*
X73140000Y-98780000D01*
X80645000Y-133985000D02*
X81203800Y-133985000D01*
X81203800Y-133985000D02*
X82905600Y-132283200D01*
X50165000Y-112039400D02*
X50165000Y-111125000D01*
X50647600Y-112522000D02*
X50165000Y-112039400D01*
X53187600Y-112522000D02*
X50647600Y-112522000D01*
X54051200Y-113385600D02*
X53187600Y-112522000D01*
X54051200Y-114350800D02*
X54051200Y-113385600D01*
X56134000Y-116433600D02*
X54051200Y-114350800D01*
X70459600Y-116433600D02*
X56134000Y-116433600D01*
X74472800Y-120446800D02*
X70459600Y-116433600D01*
X74472800Y-129692400D02*
X74472800Y-120446800D01*
X76098400Y-131318000D02*
X74472800Y-129692400D01*
X82499200Y-131318000D02*
X76098400Y-131318000D01*
X82905600Y-131724400D02*
X82499200Y-131318000D01*
X82905600Y-132283200D02*
X82905600Y-131724400D01*
X80645000Y-133985000D02*
X80645000Y-134805000D01*
X80645000Y-134805000D02*
X79864802Y-135585198D01*
X79864802Y-135585198D02*
X79864802Y-138814802D01*
X79864802Y-138814802D02*
X80210000Y-139160000D01*
X80210000Y-139160000D02*
X80210000Y-139840000D01*
X80210000Y-139840000D02*
X80020000Y-140030000D01*
X80020000Y-140030000D02*
X75120000Y-140030000D01*
X75120000Y-140030000D02*
X71840000Y-136750000D01*
X71840000Y-136750000D02*
X66310000Y-136750000D01*
X66310000Y-136750000D02*
X64470000Y-138590000D01*
X64470000Y-138590000D02*
X64470000Y-140880000D01*
X64470000Y-140880000D02*
X64040000Y-141310000D01*
X64040000Y-141310000D02*
X63030000Y-141310000D01*
X61315600Y-98247200D02*
X61315600Y-99659440D01*
X84612480Y-107472480D02*
X85725000Y-108585000D01*
X84460080Y-107472480D02*
X84612480Y-107472480D01*
X83108794Y-106121194D02*
X84460080Y-107472480D01*
X73210414Y-106121194D02*
X83108794Y-106121194D01*
X69502020Y-102412800D02*
X73210414Y-106121194D01*
X62659260Y-101003100D02*
X64648080Y-101003100D01*
X61315600Y-99659440D02*
X62659260Y-101003100D01*
X50165000Y-88265000D02*
X50165000Y-88569800D01*
X50165000Y-88569800D02*
X50952400Y-89357200D01*
X50952400Y-89357200D02*
X53340000Y-89357200D01*
X53340000Y-89357200D02*
X55016400Y-91033600D01*
X55016400Y-91033600D02*
X55016400Y-96215200D01*
X55016400Y-96215200D02*
X57048400Y-98247200D01*
X57048400Y-98247200D02*
X61315600Y-98247200D01*
X61315600Y-98247200D02*
X63398400Y-96164400D01*
X63398400Y-96164400D02*
X63398400Y-94437200D01*
X80645000Y-108585000D02*
X80441800Y-108585000D01*
X80441800Y-108585000D02*
X79248000Y-107391200D01*
X56489600Y-109829600D02*
X52705000Y-106045000D01*
X56489600Y-113868944D02*
X56489600Y-109829600D01*
X56869856Y-114249200D02*
X56489600Y-113868944D01*
X71678800Y-114249200D02*
X56869856Y-114249200D01*
X76504800Y-119075200D02*
X71678800Y-114249200D01*
X76504800Y-128727200D02*
X76504800Y-119075200D01*
X76911200Y-129133600D02*
X76504800Y-128727200D01*
X82092800Y-129133600D02*
X76911200Y-129133600D01*
X82651600Y-128574800D02*
X82092800Y-129133600D01*
X82651600Y-116840000D02*
X82651600Y-128574800D01*
X80111600Y-114300000D02*
X82651600Y-116840000D01*
X79248000Y-114300000D02*
X80111600Y-114300000D01*
X77724000Y-112776000D02*
X79248000Y-114300000D01*
X77724000Y-110185200D02*
X77724000Y-112776000D01*
X76911200Y-109372400D02*
X77724000Y-110185200D01*
X76911200Y-108051600D02*
X76911200Y-109372400D01*
X77571600Y-107391200D02*
X76911200Y-108051600D01*
X79248000Y-107391200D02*
X77571600Y-107391200D01*
X66497202Y-106578398D02*
X62915054Y-106578398D01*
X66649604Y-106425996D02*
X66497202Y-106578398D01*
X80771996Y-106425996D02*
X66649604Y-106425996D01*
X82931000Y-108585000D02*
X80771996Y-106425996D01*
X51130200Y-90805000D02*
X50165000Y-90805000D01*
X52222400Y-89712800D02*
X51130200Y-90805000D01*
X53187600Y-89712800D02*
X52222400Y-89712800D01*
X54610000Y-91135200D02*
X53187600Y-89712800D01*
X54610000Y-97078800D02*
X54610000Y-91135200D01*
X56997598Y-99466398D02*
X54610000Y-97078800D01*
X59842398Y-99466398D02*
X56997598Y-99466398D01*
X62280800Y-101904800D02*
X59842398Y-99466398D01*
X62280800Y-105944144D02*
X62280800Y-101904800D01*
X62915054Y-106578398D02*
X62280800Y-105944144D01*
X83185000Y-108585000D02*
X82931000Y-108585000D01*
X52705000Y-111125000D02*
X52705000Y-111429800D01*
X52705000Y-111429800D02*
X54356002Y-113080802D01*
X54356002Y-113080802D02*
X54356002Y-114096802D01*
X54356002Y-114096802D02*
X56387998Y-116128798D01*
X56387998Y-116128798D02*
X70713598Y-116128798D01*
X70713598Y-116128798D02*
X74777602Y-120192802D01*
X74777602Y-120192802D02*
X74777602Y-129489202D01*
X74777602Y-129489202D02*
X76200000Y-130911600D01*
X76200000Y-130911600D02*
X82804000Y-130911600D01*
X82804000Y-130911600D02*
X83566000Y-131673600D01*
X83566000Y-131673600D02*
X83566000Y-133604000D01*
X83566000Y-133604000D02*
X83185000Y-133985000D01*
X83185000Y-133985000D02*
X82685000Y-133985000D01*
X63810000Y-138160000D02*
X63810000Y-140510000D01*
X64950000Y-137020000D02*
X63810000Y-138160000D01*
X85725000Y-133985000D02*
X85725000Y-133223000D01*
X85725000Y-133223000D02*
X83007200Y-130505200D01*
X50952400Y-109931200D02*
X50165000Y-109143800D01*
X53187600Y-109931200D02*
X50952400Y-109931200D01*
X54762400Y-111506000D02*
X53187600Y-109931200D01*
X54762400Y-113842800D02*
X54762400Y-111506000D01*
X56540400Y-115620800D02*
X54762400Y-113842800D01*
X70764400Y-115620800D02*
X56540400Y-115620800D01*
X75133200Y-119989600D02*
X70764400Y-115620800D01*
X75133200Y-129413744D02*
X75133200Y-119989600D01*
X76224656Y-130505200D02*
X75133200Y-129413744D01*
X83007200Y-130505200D02*
X76224656Y-130505200D01*
X50165000Y-109143800D02*
X50165000Y-108585000D01*
X88265000Y-133985000D02*
X88265000Y-133680200D01*
X88265000Y-133680200D02*
X84785198Y-130200398D01*
X55372000Y-111404400D02*
X52705000Y-108737400D01*
X55372000Y-113639600D02*
X55372000Y-111404400D01*
X56896000Y-115163600D02*
X55372000Y-113639600D01*
X70866000Y-115163600D02*
X56896000Y-115163600D01*
X75539600Y-119837200D02*
X70866000Y-115163600D01*
X75539600Y-129286000D02*
X75539600Y-119837200D01*
X76453998Y-130200398D02*
X75539600Y-129286000D01*
X84785198Y-130200398D02*
X76453998Y-130200398D01*
X52705000Y-108737400D02*
X52705000Y-108585000D01*
X82110000Y-138690000D02*
X82110000Y-136830000D01*
X80410000Y-140390000D02*
X82110000Y-138690000D01*
X74710000Y-140390000D02*
X80410000Y-140390000D01*
X71465528Y-137145528D02*
X74710000Y-140390000D01*
X66694472Y-137145528D02*
X71465528Y-137145528D01*
X65170000Y-138670000D02*
X66694472Y-137145528D01*
X65170000Y-140630000D02*
X65170000Y-138670000D01*
X65080000Y-140720000D02*
X65170000Y-140630000D01*
X77680000Y-136570000D02*
X78510000Y-137400000D01*
X75330000Y-136570000D02*
X77680000Y-136570000D01*
X74550000Y-137350000D02*
X75330000Y-136570000D01*
X78510000Y-137400000D02*
X78510000Y-137780000D01*
D35*
X51300000Y-79920000D02*
X53531600Y-79920000D01*
X53531600Y-79920000D02*
X53543200Y-79908400D01*
D27*
X95500000Y-144850000D02*
X95500000Y-143290000D01*
X95500000Y-143290000D02*
X99530000Y-139260000D01*
X99530000Y-139260000D02*
X99530000Y-139200000D01*
X50165000Y-99314000D02*
X51262280Y-100411280D01*
X51262280Y-100411280D02*
X51262280Y-101757480D01*
X51262280Y-101757480D02*
X51622958Y-102118158D01*
X51622958Y-102118158D02*
X53290994Y-102118158D01*
X53290994Y-102118158D02*
X55094768Y-103921932D01*
X55094768Y-103921932D02*
X55094768Y-105021008D01*
X55094768Y-105021008D02*
X57858662Y-107784902D01*
X57858662Y-107784902D02*
X57858662Y-112067342D01*
X57858662Y-112067342D02*
X58552078Y-112760758D01*
X58552078Y-112760758D02*
X72425558Y-112760758D01*
X72425558Y-112760758D02*
X74863960Y-115199160D01*
X74863960Y-115199160D02*
X75483720Y-115199160D01*
X50165000Y-99314000D02*
X50165000Y-98425000D01*
X50165000Y-98425000D02*
X50419000Y-98425000D01*
X52705000Y-100965000D02*
X52837080Y-100965000D01*
X52837080Y-100965000D02*
X58216800Y-106344720D01*
X90805000Y-113665000D02*
X90805000Y-108585000D01*
X90251280Y-114218720D02*
X90805000Y-113665000D01*
X72689720Y-112207040D02*
X74935080Y-114452400D01*
X58813700Y-112207040D02*
X72689720Y-112207040D01*
X58216800Y-111610140D02*
X58813700Y-112207040D01*
X58216800Y-106344720D02*
X58216800Y-111610140D01*
X52705000Y-100965000D02*
X52705000Y-101473000D01*
D34*
G36*
X53548305Y-117698494D02*
X53612736Y-117741545D01*
X53779036Y-117852663D01*
X54051200Y-117906800D01*
X56354670Y-117906800D01*
X52318000Y-121943470D01*
X52318000Y-121858998D01*
X52159252Y-121858998D01*
X52318000Y-121700250D01*
X52318000Y-121259691D01*
X52221327Y-121026302D01*
X52042699Y-120847673D01*
X51809310Y-120751000D01*
X51593750Y-120751000D01*
X51435000Y-120909750D01*
X51435000Y-121859000D01*
X51455000Y-121859000D01*
X51455000Y-122113000D01*
X51435000Y-122113000D01*
X51435000Y-122133000D01*
X51181000Y-122133000D01*
X51181000Y-122113000D01*
X50456750Y-122113000D01*
X50298000Y-122271750D01*
X50298000Y-122712309D01*
X50394673Y-122945698D01*
X50396043Y-122947068D01*
X50336569Y-123034110D01*
X50285560Y-123286000D01*
X50285560Y-124486000D01*
X50329838Y-124721317D01*
X50468910Y-124937441D01*
X50571400Y-125007469D01*
X50571400Y-125510197D01*
X50527720Y-125553801D01*
X50378530Y-125913090D01*
X50378191Y-126302123D01*
X50526753Y-126661672D01*
X50801601Y-126937000D01*
X51160890Y-127086190D01*
X51549923Y-127086529D01*
X51909472Y-126937967D01*
X52184800Y-126663119D01*
X52333990Y-126303830D01*
X52334329Y-125914797D01*
X52185767Y-125555248D01*
X52044600Y-125413834D01*
X52044600Y-125007901D01*
X52134441Y-124950090D01*
X52279431Y-124737890D01*
X52330440Y-124486000D01*
X52330440Y-124014450D01*
X54205140Y-122139750D01*
X57410000Y-122139750D01*
X57410000Y-122580309D01*
X57506673Y-122813698D01*
X57685301Y-122992327D01*
X57918690Y-123089000D01*
X58134250Y-123089000D01*
X58293000Y-122930250D01*
X58293000Y-121981000D01*
X58547000Y-121981000D01*
X58547000Y-122930250D01*
X58705750Y-123089000D01*
X58921310Y-123089000D01*
X59154699Y-122992327D01*
X59333327Y-122813698D01*
X59430000Y-122580309D01*
X59430000Y-122139750D01*
X59271250Y-121981000D01*
X58547000Y-121981000D01*
X58293000Y-121981000D01*
X57568750Y-121981000D01*
X57410000Y-122139750D01*
X54205140Y-122139750D01*
X57465214Y-118879676D01*
X57595123Y-118879789D01*
X57634701Y-118863436D01*
X57593559Y-118889910D01*
X57448569Y-119102110D01*
X57397560Y-119354000D01*
X57397560Y-120554000D01*
X57441838Y-120789317D01*
X57508329Y-120892646D01*
X57506673Y-120894302D01*
X57410000Y-121127691D01*
X57410000Y-121568250D01*
X57568750Y-121727000D01*
X58293000Y-121727000D01*
X58293000Y-121707000D01*
X58547000Y-121707000D01*
X58547000Y-121727000D01*
X59271250Y-121727000D01*
X59430000Y-121568250D01*
X59430000Y-121127691D01*
X59333327Y-120894302D01*
X59331957Y-120892932D01*
X59391431Y-120805890D01*
X59442440Y-120554000D01*
X59442440Y-119354000D01*
X59410472Y-119184106D01*
X59633612Y-119091907D01*
X59908940Y-118817059D01*
X60058130Y-118457770D01*
X60058469Y-118068737D01*
X59991558Y-117906800D01*
X69911012Y-117906800D01*
X72796400Y-120792188D01*
X72796400Y-125006100D01*
X72602737Y-125005931D01*
X72415255Y-125083396D01*
X72335059Y-125003060D01*
X71975770Y-124853870D01*
X71586737Y-124853531D01*
X71227188Y-125002093D01*
X70951860Y-125276941D01*
X70802670Y-125636230D01*
X70802524Y-125803687D01*
X67442106Y-129164106D01*
X67287937Y-129394835D01*
X67273980Y-129465000D01*
X67233800Y-129667000D01*
X67233800Y-132617990D01*
X67076629Y-132682932D01*
X66674677Y-133084182D01*
X66275643Y-132684449D01*
X65711670Y-132450267D01*
X65101009Y-132449735D01*
X65035655Y-132476739D01*
X65051770Y-132437930D01*
X65052109Y-132048897D01*
X64903547Y-131689348D01*
X64628699Y-131414020D01*
X64269410Y-131264830D01*
X63880377Y-131264491D01*
X63520828Y-131413053D01*
X63245500Y-131687901D01*
X63096310Y-132047190D01*
X63095971Y-132436223D01*
X63101749Y-132450206D01*
X62561009Y-132449735D01*
X61996629Y-132682932D01*
X61594677Y-133084182D01*
X61195643Y-132684449D01*
X60631670Y-132450267D01*
X60021009Y-132449735D01*
X59456629Y-132682932D01*
X59024449Y-133114357D01*
X58790267Y-133678330D01*
X58789735Y-134288991D01*
X59022932Y-134853371D01*
X59454357Y-135285551D01*
X60018330Y-135519733D01*
X60628991Y-135520265D01*
X61193371Y-135287068D01*
X61595323Y-134885818D01*
X61698408Y-134989084D01*
X59786546Y-136900946D01*
X59632377Y-137131675D01*
X59602635Y-137281200D01*
X59578240Y-137403840D01*
X59578240Y-139534951D01*
X58918500Y-140194691D01*
X58802467Y-139913868D01*
X58527619Y-139638540D01*
X58168330Y-139489350D01*
X57779297Y-139489011D01*
X57419748Y-139637573D01*
X57144420Y-139912421D01*
X56995230Y-140271710D01*
X56994891Y-140660743D01*
X57143453Y-141020292D01*
X57231280Y-141108272D01*
X57231280Y-141973352D01*
X52341780Y-137083852D01*
X52341780Y-136439263D01*
X57187931Y-136439263D01*
X57336493Y-136798812D01*
X57454800Y-136917326D01*
X57454800Y-136996206D01*
X57337460Y-137113341D01*
X57188270Y-137472630D01*
X57187931Y-137861663D01*
X57336493Y-138221212D01*
X57611341Y-138496540D01*
X57970630Y-138645730D01*
X58359663Y-138646069D01*
X58719212Y-138497507D01*
X58994540Y-138222659D01*
X59143730Y-137863370D01*
X59144069Y-137474337D01*
X58995507Y-137114788D01*
X58877200Y-136996274D01*
X58877200Y-136917394D01*
X58994540Y-136800259D01*
X59143730Y-136440970D01*
X59144069Y-136051937D01*
X58995507Y-135692388D01*
X58720659Y-135417060D01*
X58361370Y-135267870D01*
X57972337Y-135267531D01*
X57612788Y-135416093D01*
X57337460Y-135690941D01*
X57188270Y-136050230D01*
X57187931Y-136439263D01*
X52341780Y-136439263D01*
X52341780Y-131996180D01*
X52318034Y-131876800D01*
X52287643Y-131724015D01*
X52133474Y-131493286D01*
X51818565Y-131178377D01*
X51818709Y-131012577D01*
X51670147Y-130653028D01*
X51395299Y-130377700D01*
X51036010Y-130228510D01*
X50646977Y-130228171D01*
X50287428Y-130376733D01*
X50012100Y-130651581D01*
X49862910Y-131010870D01*
X49862571Y-131399903D01*
X50011133Y-131759452D01*
X50285981Y-132034780D01*
X50645270Y-132183970D01*
X50812728Y-132184116D01*
X50919380Y-132290768D01*
X50919380Y-137378440D01*
X50973517Y-137650605D01*
X51127686Y-137881334D01*
X56641620Y-143395268D01*
X56591460Y-143445341D01*
X56442270Y-143804630D01*
X56441931Y-144193663D01*
X56590493Y-144553212D01*
X56865341Y-144828540D01*
X57224630Y-144977730D01*
X57392088Y-144977876D01*
X58763906Y-146349695D01*
X58994636Y-146503863D01*
X59266800Y-146558000D01*
X69178206Y-146558000D01*
X69295341Y-146675340D01*
X69654630Y-146824530D01*
X70043663Y-146824869D01*
X70403212Y-146676307D01*
X70521726Y-146558000D01*
X71474213Y-146558000D01*
X71729600Y-146608799D01*
X72040645Y-146546929D01*
X72304336Y-146370736D01*
X74075072Y-144600000D01*
X74522560Y-144600000D01*
X74522560Y-146200000D01*
X74566838Y-146435317D01*
X74705910Y-146651441D01*
X74918110Y-146796431D01*
X75170000Y-146847440D01*
X76770000Y-146847440D01*
X77005317Y-146803162D01*
X77221441Y-146664090D01*
X77366431Y-146451890D01*
X77397815Y-146296911D01*
X77495302Y-146442811D01*
X77960849Y-146753880D01*
X78510000Y-146863113D01*
X79059151Y-146753880D01*
X79524698Y-146442811D01*
X79780000Y-146060725D01*
X80035302Y-146442811D01*
X80500849Y-146753880D01*
X81050000Y-146863113D01*
X81599151Y-146753880D01*
X82064698Y-146442811D01*
X82320000Y-146060725D01*
X82575302Y-146442811D01*
X83040849Y-146753880D01*
X83590000Y-146863113D01*
X84139151Y-146753880D01*
X84604698Y-146442811D01*
X84915767Y-145977264D01*
X84998527Y-145561200D01*
X91414076Y-145561200D01*
X91446838Y-145735317D01*
X91585910Y-145951441D01*
X91798110Y-146096431D01*
X92050000Y-146147440D01*
X93550000Y-146147440D01*
X93785317Y-146103162D01*
X94001441Y-145964090D01*
X94146431Y-145751890D01*
X94149081Y-145738803D01*
X94285910Y-145951441D01*
X94498110Y-146096431D01*
X94750000Y-146147440D01*
X96250000Y-146147440D01*
X96485317Y-146103162D01*
X96701441Y-145964090D01*
X96846431Y-145751890D01*
X96897440Y-145500000D01*
X96897440Y-145388703D01*
X98520902Y-145388703D01*
X98625687Y-145660745D01*
X99253526Y-145895619D01*
X99923456Y-145872349D01*
X100434313Y-145660745D01*
X100539098Y-145388703D01*
X99530000Y-144379605D01*
X98520902Y-145388703D01*
X96897440Y-145388703D01*
X96897440Y-144200000D01*
X96853162Y-143964683D01*
X96826679Y-143923526D01*
X97834381Y-143923526D01*
X97857651Y-144593456D01*
X98069255Y-145104313D01*
X98341297Y-145209098D01*
X99350395Y-144200000D01*
X99709605Y-144200000D01*
X100718703Y-145209098D01*
X100990745Y-145104313D01*
X101225619Y-144476474D01*
X101202349Y-143806544D01*
X100990745Y-143295687D01*
X100718703Y-143190902D01*
X99709605Y-144200000D01*
X99350395Y-144200000D01*
X98341297Y-143190902D01*
X98069255Y-143295687D01*
X97834381Y-143923526D01*
X96826679Y-143923526D01*
X96714090Y-143748559D01*
X96501890Y-143603569D01*
X96250000Y-143552560D01*
X96243228Y-143552560D01*
X96784491Y-143011297D01*
X98520902Y-143011297D01*
X99530000Y-144020395D01*
X100539098Y-143011297D01*
X100434313Y-142739255D01*
X99806474Y-142504381D01*
X99136544Y-142527651D01*
X98625687Y-142739255D01*
X98520902Y-143011297D01*
X96784491Y-143011297D01*
X98993904Y-140801885D01*
X99193362Y-140884707D01*
X99863697Y-140885292D01*
X100483229Y-140629306D01*
X100957640Y-140155722D01*
X101214707Y-139536638D01*
X101215292Y-138866303D01*
X100959306Y-138246771D01*
X100485722Y-137772360D01*
X99866638Y-137515293D01*
X99196303Y-137514708D01*
X98576771Y-137770694D01*
X98102360Y-138244278D01*
X97845293Y-138863362D01*
X97844708Y-139533697D01*
X97963359Y-139820853D01*
X94997106Y-142787106D01*
X94842937Y-143017835D01*
X94810291Y-143181956D01*
X94788800Y-143290000D01*
X94788800Y-143552560D01*
X94750000Y-143552560D01*
X94514683Y-143596838D01*
X94298559Y-143735910D01*
X94153569Y-143948110D01*
X94150919Y-143961197D01*
X94014090Y-143748559D01*
X93801890Y-143603569D01*
X93550000Y-143552560D01*
X92050000Y-143552560D01*
X91814683Y-143596838D01*
X91598559Y-143735910D01*
X91453569Y-143948110D01*
X91414953Y-144138800D01*
X84277856Y-144138800D01*
X84139151Y-144046120D01*
X83590000Y-143936887D01*
X83040849Y-144046120D01*
X82575302Y-144357189D01*
X82320000Y-144739275D01*
X82064698Y-144357189D01*
X81599151Y-144046120D01*
X81050000Y-143936887D01*
X80500849Y-144046120D01*
X80035302Y-144357189D01*
X79780000Y-144739275D01*
X79524698Y-144357189D01*
X79059151Y-144046120D01*
X78510000Y-143936887D01*
X77960849Y-144046120D01*
X77495302Y-144357189D01*
X77398899Y-144501465D01*
X77373162Y-144364683D01*
X77234090Y-144148559D01*
X77021890Y-144003569D01*
X76770000Y-143952560D01*
X75170000Y-143952560D01*
X74934683Y-143996838D01*
X74718559Y-144135910D01*
X74573569Y-144348110D01*
X74522560Y-144600000D01*
X74075072Y-144600000D01*
X75876273Y-142798800D01*
X84277200Y-142798800D01*
X84588245Y-142736929D01*
X84851936Y-142560736D01*
X85378975Y-142033697D01*
X87844708Y-142033697D01*
X88100694Y-142653229D01*
X88574278Y-143127640D01*
X89193362Y-143384707D01*
X89863697Y-143385292D01*
X90483229Y-143129306D01*
X90957640Y-142655722D01*
X91214707Y-142036638D01*
X91215292Y-141366303D01*
X90959306Y-140746771D01*
X90485722Y-140272360D01*
X89866638Y-140015293D01*
X89196303Y-140014708D01*
X88576771Y-140270694D01*
X88102360Y-140744278D01*
X87845293Y-141363362D01*
X87844708Y-142033697D01*
X85378975Y-142033697D01*
X90135136Y-137277536D01*
X90311329Y-137013845D01*
X90334550Y-136897105D01*
X90373200Y-136702800D01*
X90373200Y-135461529D01*
X90564336Y-135531458D01*
X91174460Y-135505839D01*
X91292155Y-135457088D01*
X91298671Y-135489845D01*
X91474864Y-135753536D01*
X92767929Y-137046601D01*
X93031620Y-137222794D01*
X93342665Y-137284665D01*
X94160135Y-137284665D01*
X94471180Y-137222794D01*
X94622003Y-137122017D01*
X94681663Y-137122069D01*
X95041212Y-136973507D01*
X95235434Y-136779623D01*
X95458305Y-137002494D01*
X95612474Y-137105506D01*
X95689036Y-137156663D01*
X95961200Y-137210800D01*
X100126800Y-137210800D01*
X100398965Y-137156663D01*
X100629694Y-137002494D01*
X101467894Y-136164294D01*
X101622063Y-135933565D01*
X101676200Y-135661400D01*
X101676200Y-135352010D01*
X101833371Y-135287068D01*
X102235323Y-134885818D01*
X102634357Y-135285551D01*
X103198330Y-135519733D01*
X103808991Y-135520265D01*
X104373371Y-135287068D01*
X104595668Y-135065159D01*
X105144446Y-135065159D01*
X105230852Y-135321643D01*
X105804336Y-135531458D01*
X106414460Y-135505839D01*
X106859148Y-135321643D01*
X106945554Y-135065159D01*
X106045000Y-134164605D01*
X105144446Y-135065159D01*
X104595668Y-135065159D01*
X104805551Y-134855643D01*
X104814203Y-134834806D01*
X104964841Y-134885554D01*
X105865395Y-133985000D01*
X104964841Y-133084446D01*
X104814673Y-133135035D01*
X104807068Y-133116629D01*
X104595650Y-132904841D01*
X105144446Y-132904841D01*
X106045000Y-133805395D01*
X106945554Y-132904841D01*
X106859148Y-132648357D01*
X106285664Y-132438542D01*
X105675540Y-132464161D01*
X105230852Y-132648357D01*
X105144446Y-132904841D01*
X104595650Y-132904841D01*
X104375643Y-132684449D01*
X103811670Y-132450267D01*
X103201009Y-132449735D01*
X102636629Y-132682932D01*
X102234677Y-133084182D01*
X101835643Y-132684449D01*
X101271670Y-132450267D01*
X101235553Y-132450236D01*
X103443404Y-130242385D01*
X103484046Y-130446705D01*
X103637954Y-130677046D01*
X103868295Y-130830954D01*
X104140000Y-130885000D01*
X107240000Y-130885000D01*
X107240000Y-133123134D01*
X107125159Y-133084446D01*
X106224605Y-133985000D01*
X107125159Y-134885554D01*
X107240000Y-134846866D01*
X107240000Y-149150000D01*
X52807796Y-149150000D01*
X53354054Y-148604695D01*
X53699606Y-147772513D01*
X53700392Y-146871440D01*
X53356293Y-146038657D01*
X52719695Y-145400946D01*
X51887513Y-145055394D01*
X50986440Y-145054608D01*
X50153657Y-145398707D01*
X49605000Y-145946406D01*
X49605000Y-143786661D01*
X50037758Y-143786661D01*
X50249990Y-144300303D01*
X50642630Y-144693629D01*
X51155900Y-144906757D01*
X51711661Y-144907242D01*
X52225303Y-144695010D01*
X52618629Y-144302370D01*
X52831757Y-143789100D01*
X52832242Y-143233339D01*
X52620010Y-142719697D01*
X52227370Y-142326371D01*
X51714100Y-142113243D01*
X51158339Y-142112758D01*
X50644697Y-142324990D01*
X50251371Y-142717630D01*
X50038243Y-143230900D01*
X50037758Y-143786661D01*
X49605000Y-143786661D01*
X49605000Y-121259691D01*
X50298000Y-121259691D01*
X50298000Y-121700250D01*
X50456750Y-121859000D01*
X51181000Y-121859000D01*
X51181000Y-120909750D01*
X51022250Y-120751000D01*
X50806690Y-120751000D01*
X50573301Y-120847673D01*
X50394673Y-121026302D01*
X50298000Y-121259691D01*
X49605000Y-121259691D01*
X49605000Y-115044396D01*
X50135907Y-115150000D01*
X50194093Y-115150000D01*
X50762378Y-115036961D01*
X50836947Y-114987136D01*
X53548305Y-117698494D01*
X53548305Y-117698494D01*
G37*
X53548305Y-117698494D02*
X53612736Y-117741545D01*
X53779036Y-117852663D01*
X54051200Y-117906800D01*
X56354670Y-117906800D01*
X52318000Y-121943470D01*
X52318000Y-121858998D01*
X52159252Y-121858998D01*
X52318000Y-121700250D01*
X52318000Y-121259691D01*
X52221327Y-121026302D01*
X52042699Y-120847673D01*
X51809310Y-120751000D01*
X51593750Y-120751000D01*
X51435000Y-120909750D01*
X51435000Y-121859000D01*
X51455000Y-121859000D01*
X51455000Y-122113000D01*
X51435000Y-122113000D01*
X51435000Y-122133000D01*
X51181000Y-122133000D01*
X51181000Y-122113000D01*
X50456750Y-122113000D01*
X50298000Y-122271750D01*
X50298000Y-122712309D01*
X50394673Y-122945698D01*
X50396043Y-122947068D01*
X50336569Y-123034110D01*
X50285560Y-123286000D01*
X50285560Y-124486000D01*
X50329838Y-124721317D01*
X50468910Y-124937441D01*
X50571400Y-125007469D01*
X50571400Y-125510197D01*
X50527720Y-125553801D01*
X50378530Y-125913090D01*
X50378191Y-126302123D01*
X50526753Y-126661672D01*
X50801601Y-126937000D01*
X51160890Y-127086190D01*
X51549923Y-127086529D01*
X51909472Y-126937967D01*
X52184800Y-126663119D01*
X52333990Y-126303830D01*
X52334329Y-125914797D01*
X52185767Y-125555248D01*
X52044600Y-125413834D01*
X52044600Y-125007901D01*
X52134441Y-124950090D01*
X52279431Y-124737890D01*
X52330440Y-124486000D01*
X52330440Y-124014450D01*
X54205140Y-122139750D01*
X57410000Y-122139750D01*
X57410000Y-122580309D01*
X57506673Y-122813698D01*
X57685301Y-122992327D01*
X57918690Y-123089000D01*
X58134250Y-123089000D01*
X58293000Y-122930250D01*
X58293000Y-121981000D01*
X58547000Y-121981000D01*
X58547000Y-122930250D01*
X58705750Y-123089000D01*
X58921310Y-123089000D01*
X59154699Y-122992327D01*
X59333327Y-122813698D01*
X59430000Y-122580309D01*
X59430000Y-122139750D01*
X59271250Y-121981000D01*
X58547000Y-121981000D01*
X58293000Y-121981000D01*
X57568750Y-121981000D01*
X57410000Y-122139750D01*
X54205140Y-122139750D01*
X57465214Y-118879676D01*
X57595123Y-118879789D01*
X57634701Y-118863436D01*
X57593559Y-118889910D01*
X57448569Y-119102110D01*
X57397560Y-119354000D01*
X57397560Y-120554000D01*
X57441838Y-120789317D01*
X57508329Y-120892646D01*
X57506673Y-120894302D01*
X57410000Y-121127691D01*
X57410000Y-121568250D01*
X57568750Y-121727000D01*
X58293000Y-121727000D01*
X58293000Y-121707000D01*
X58547000Y-121707000D01*
X58547000Y-121727000D01*
X59271250Y-121727000D01*
X59430000Y-121568250D01*
X59430000Y-121127691D01*
X59333327Y-120894302D01*
X59331957Y-120892932D01*
X59391431Y-120805890D01*
X59442440Y-120554000D01*
X59442440Y-119354000D01*
X59410472Y-119184106D01*
X59633612Y-119091907D01*
X59908940Y-118817059D01*
X60058130Y-118457770D01*
X60058469Y-118068737D01*
X59991558Y-117906800D01*
X69911012Y-117906800D01*
X72796400Y-120792188D01*
X72796400Y-125006100D01*
X72602737Y-125005931D01*
X72415255Y-125083396D01*
X72335059Y-125003060D01*
X71975770Y-124853870D01*
X71586737Y-124853531D01*
X71227188Y-125002093D01*
X70951860Y-125276941D01*
X70802670Y-125636230D01*
X70802524Y-125803687D01*
X67442106Y-129164106D01*
X67287937Y-129394835D01*
X67273980Y-129465000D01*
X67233800Y-129667000D01*
X67233800Y-132617990D01*
X67076629Y-132682932D01*
X66674677Y-133084182D01*
X66275643Y-132684449D01*
X65711670Y-132450267D01*
X65101009Y-132449735D01*
X65035655Y-132476739D01*
X65051770Y-132437930D01*
X65052109Y-132048897D01*
X64903547Y-131689348D01*
X64628699Y-131414020D01*
X64269410Y-131264830D01*
X63880377Y-131264491D01*
X63520828Y-131413053D01*
X63245500Y-131687901D01*
X63096310Y-132047190D01*
X63095971Y-132436223D01*
X63101749Y-132450206D01*
X62561009Y-132449735D01*
X61996629Y-132682932D01*
X61594677Y-133084182D01*
X61195643Y-132684449D01*
X60631670Y-132450267D01*
X60021009Y-132449735D01*
X59456629Y-132682932D01*
X59024449Y-133114357D01*
X58790267Y-133678330D01*
X58789735Y-134288991D01*
X59022932Y-134853371D01*
X59454357Y-135285551D01*
X60018330Y-135519733D01*
X60628991Y-135520265D01*
X61193371Y-135287068D01*
X61595323Y-134885818D01*
X61698408Y-134989084D01*
X59786546Y-136900946D01*
X59632377Y-137131675D01*
X59602635Y-137281200D01*
X59578240Y-137403840D01*
X59578240Y-139534951D01*
X58918500Y-140194691D01*
X58802467Y-139913868D01*
X58527619Y-139638540D01*
X58168330Y-139489350D01*
X57779297Y-139489011D01*
X57419748Y-139637573D01*
X57144420Y-139912421D01*
X56995230Y-140271710D01*
X56994891Y-140660743D01*
X57143453Y-141020292D01*
X57231280Y-141108272D01*
X57231280Y-141973352D01*
X52341780Y-137083852D01*
X52341780Y-136439263D01*
X57187931Y-136439263D01*
X57336493Y-136798812D01*
X57454800Y-136917326D01*
X57454800Y-136996206D01*
X57337460Y-137113341D01*
X57188270Y-137472630D01*
X57187931Y-137861663D01*
X57336493Y-138221212D01*
X57611341Y-138496540D01*
X57970630Y-138645730D01*
X58359663Y-138646069D01*
X58719212Y-138497507D01*
X58994540Y-138222659D01*
X59143730Y-137863370D01*
X59144069Y-137474337D01*
X58995507Y-137114788D01*
X58877200Y-136996274D01*
X58877200Y-136917394D01*
X58994540Y-136800259D01*
X59143730Y-136440970D01*
X59144069Y-136051937D01*
X58995507Y-135692388D01*
X58720659Y-135417060D01*
X58361370Y-135267870D01*
X57972337Y-135267531D01*
X57612788Y-135416093D01*
X57337460Y-135690941D01*
X57188270Y-136050230D01*
X57187931Y-136439263D01*
X52341780Y-136439263D01*
X52341780Y-131996180D01*
X52318034Y-131876800D01*
X52287643Y-131724015D01*
X52133474Y-131493286D01*
X51818565Y-131178377D01*
X51818709Y-131012577D01*
X51670147Y-130653028D01*
X51395299Y-130377700D01*
X51036010Y-130228510D01*
X50646977Y-130228171D01*
X50287428Y-130376733D01*
X50012100Y-130651581D01*
X49862910Y-131010870D01*
X49862571Y-131399903D01*
X50011133Y-131759452D01*
X50285981Y-132034780D01*
X50645270Y-132183970D01*
X50812728Y-132184116D01*
X50919380Y-132290768D01*
X50919380Y-137378440D01*
X50973517Y-137650605D01*
X51127686Y-137881334D01*
X56641620Y-143395268D01*
X56591460Y-143445341D01*
X56442270Y-143804630D01*
X56441931Y-144193663D01*
X56590493Y-144553212D01*
X56865341Y-144828540D01*
X57224630Y-144977730D01*
X57392088Y-144977876D01*
X58763906Y-146349695D01*
X58994636Y-146503863D01*
X59266800Y-146558000D01*
X69178206Y-146558000D01*
X69295341Y-146675340D01*
X69654630Y-146824530D01*
X70043663Y-146824869D01*
X70403212Y-146676307D01*
X70521726Y-146558000D01*
X71474213Y-146558000D01*
X71729600Y-146608799D01*
X72040645Y-146546929D01*
X72304336Y-146370736D01*
X74075072Y-144600000D01*
X74522560Y-144600000D01*
X74522560Y-146200000D01*
X74566838Y-146435317D01*
X74705910Y-146651441D01*
X74918110Y-146796431D01*
X75170000Y-146847440D01*
X76770000Y-146847440D01*
X77005317Y-146803162D01*
X77221441Y-146664090D01*
X77366431Y-146451890D01*
X77397815Y-146296911D01*
X77495302Y-146442811D01*
X77960849Y-146753880D01*
X78510000Y-146863113D01*
X79059151Y-146753880D01*
X79524698Y-146442811D01*
X79780000Y-146060725D01*
X80035302Y-146442811D01*
X80500849Y-146753880D01*
X81050000Y-146863113D01*
X81599151Y-146753880D01*
X82064698Y-146442811D01*
X82320000Y-146060725D01*
X82575302Y-146442811D01*
X83040849Y-146753880D01*
X83590000Y-146863113D01*
X84139151Y-146753880D01*
X84604698Y-146442811D01*
X84915767Y-145977264D01*
X84998527Y-145561200D01*
X91414076Y-145561200D01*
X91446838Y-145735317D01*
X91585910Y-145951441D01*
X91798110Y-146096431D01*
X92050000Y-146147440D01*
X93550000Y-146147440D01*
X93785317Y-146103162D01*
X94001441Y-145964090D01*
X94146431Y-145751890D01*
X94149081Y-145738803D01*
X94285910Y-145951441D01*
X94498110Y-146096431D01*
X94750000Y-146147440D01*
X96250000Y-146147440D01*
X96485317Y-146103162D01*
X96701441Y-145964090D01*
X96846431Y-145751890D01*
X96897440Y-145500000D01*
X96897440Y-145388703D01*
X98520902Y-145388703D01*
X98625687Y-145660745D01*
X99253526Y-145895619D01*
X99923456Y-145872349D01*
X100434313Y-145660745D01*
X100539098Y-145388703D01*
X99530000Y-144379605D01*
X98520902Y-145388703D01*
X96897440Y-145388703D01*
X96897440Y-144200000D01*
X96853162Y-143964683D01*
X96826679Y-143923526D01*
X97834381Y-143923526D01*
X97857651Y-144593456D01*
X98069255Y-145104313D01*
X98341297Y-145209098D01*
X99350395Y-144200000D01*
X99709605Y-144200000D01*
X100718703Y-145209098D01*
X100990745Y-145104313D01*
X101225619Y-144476474D01*
X101202349Y-143806544D01*
X100990745Y-143295687D01*
X100718703Y-143190902D01*
X99709605Y-144200000D01*
X99350395Y-144200000D01*
X98341297Y-143190902D01*
X98069255Y-143295687D01*
X97834381Y-143923526D01*
X96826679Y-143923526D01*
X96714090Y-143748559D01*
X96501890Y-143603569D01*
X96250000Y-143552560D01*
X96243228Y-143552560D01*
X96784491Y-143011297D01*
X98520902Y-143011297D01*
X99530000Y-144020395D01*
X100539098Y-143011297D01*
X100434313Y-142739255D01*
X99806474Y-142504381D01*
X99136544Y-142527651D01*
X98625687Y-142739255D01*
X98520902Y-143011297D01*
X96784491Y-143011297D01*
X98993904Y-140801885D01*
X99193362Y-140884707D01*
X99863697Y-140885292D01*
X100483229Y-140629306D01*
X100957640Y-140155722D01*
X101214707Y-139536638D01*
X101215292Y-138866303D01*
X100959306Y-138246771D01*
X100485722Y-137772360D01*
X99866638Y-137515293D01*
X99196303Y-137514708D01*
X98576771Y-137770694D01*
X98102360Y-138244278D01*
X97845293Y-138863362D01*
X97844708Y-139533697D01*
X97963359Y-139820853D01*
X94997106Y-142787106D01*
X94842937Y-143017835D01*
X94810291Y-143181956D01*
X94788800Y-143290000D01*
X94788800Y-143552560D01*
X94750000Y-143552560D01*
X94514683Y-143596838D01*
X94298559Y-143735910D01*
X94153569Y-143948110D01*
X94150919Y-143961197D01*
X94014090Y-143748559D01*
X93801890Y-143603569D01*
X93550000Y-143552560D01*
X92050000Y-143552560D01*
X91814683Y-143596838D01*
X91598559Y-143735910D01*
X91453569Y-143948110D01*
X91414953Y-144138800D01*
X84277856Y-144138800D01*
X84139151Y-144046120D01*
X83590000Y-143936887D01*
X83040849Y-144046120D01*
X82575302Y-144357189D01*
X82320000Y-144739275D01*
X82064698Y-144357189D01*
X81599151Y-144046120D01*
X81050000Y-143936887D01*
X80500849Y-144046120D01*
X80035302Y-144357189D01*
X79780000Y-144739275D01*
X79524698Y-144357189D01*
X79059151Y-144046120D01*
X78510000Y-143936887D01*
X77960849Y-144046120D01*
X77495302Y-144357189D01*
X77398899Y-144501465D01*
X77373162Y-144364683D01*
X77234090Y-144148559D01*
X77021890Y-144003569D01*
X76770000Y-143952560D01*
X75170000Y-143952560D01*
X74934683Y-143996838D01*
X74718559Y-144135910D01*
X74573569Y-144348110D01*
X74522560Y-144600000D01*
X74075072Y-144600000D01*
X75876273Y-142798800D01*
X84277200Y-142798800D01*
X84588245Y-142736929D01*
X84851936Y-142560736D01*
X85378975Y-142033697D01*
X87844708Y-142033697D01*
X88100694Y-142653229D01*
X88574278Y-143127640D01*
X89193362Y-143384707D01*
X89863697Y-143385292D01*
X90483229Y-143129306D01*
X90957640Y-142655722D01*
X91214707Y-142036638D01*
X91215292Y-141366303D01*
X90959306Y-140746771D01*
X90485722Y-140272360D01*
X89866638Y-140015293D01*
X89196303Y-140014708D01*
X88576771Y-140270694D01*
X88102360Y-140744278D01*
X87845293Y-141363362D01*
X87844708Y-142033697D01*
X85378975Y-142033697D01*
X90135136Y-137277536D01*
X90311329Y-137013845D01*
X90334550Y-136897105D01*
X90373200Y-136702800D01*
X90373200Y-135461529D01*
X90564336Y-135531458D01*
X91174460Y-135505839D01*
X91292155Y-135457088D01*
X91298671Y-135489845D01*
X91474864Y-135753536D01*
X92767929Y-137046601D01*
X93031620Y-137222794D01*
X93342665Y-137284665D01*
X94160135Y-137284665D01*
X94471180Y-137222794D01*
X94622003Y-137122017D01*
X94681663Y-137122069D01*
X95041212Y-136973507D01*
X95235434Y-136779623D01*
X95458305Y-137002494D01*
X95612474Y-137105506D01*
X95689036Y-137156663D01*
X95961200Y-137210800D01*
X100126800Y-137210800D01*
X100398965Y-137156663D01*
X100629694Y-137002494D01*
X101467894Y-136164294D01*
X101622063Y-135933565D01*
X101676200Y-135661400D01*
X101676200Y-135352010D01*
X101833371Y-135287068D01*
X102235323Y-134885818D01*
X102634357Y-135285551D01*
X103198330Y-135519733D01*
X103808991Y-135520265D01*
X104373371Y-135287068D01*
X104595668Y-135065159D01*
X105144446Y-135065159D01*
X105230852Y-135321643D01*
X105804336Y-135531458D01*
X106414460Y-135505839D01*
X106859148Y-135321643D01*
X106945554Y-135065159D01*
X106045000Y-134164605D01*
X105144446Y-135065159D01*
X104595668Y-135065159D01*
X104805551Y-134855643D01*
X104814203Y-134834806D01*
X104964841Y-134885554D01*
X105865395Y-133985000D01*
X104964841Y-133084446D01*
X104814673Y-133135035D01*
X104807068Y-133116629D01*
X104595650Y-132904841D01*
X105144446Y-132904841D01*
X106045000Y-133805395D01*
X106945554Y-132904841D01*
X106859148Y-132648357D01*
X106285664Y-132438542D01*
X105675540Y-132464161D01*
X105230852Y-132648357D01*
X105144446Y-132904841D01*
X104595650Y-132904841D01*
X104375643Y-132684449D01*
X103811670Y-132450267D01*
X103201009Y-132449735D01*
X102636629Y-132682932D01*
X102234677Y-133084182D01*
X101835643Y-132684449D01*
X101271670Y-132450267D01*
X101235553Y-132450236D01*
X103443404Y-130242385D01*
X103484046Y-130446705D01*
X103637954Y-130677046D01*
X103868295Y-130830954D01*
X104140000Y-130885000D01*
X107240000Y-130885000D01*
X107240000Y-133123134D01*
X107125159Y-133084446D01*
X106224605Y-133985000D01*
X107125159Y-134885554D01*
X107240000Y-134846866D01*
X107240000Y-149150000D01*
X52807796Y-149150000D01*
X53354054Y-148604695D01*
X53699606Y-147772513D01*
X53700392Y-146871440D01*
X53356293Y-146038657D01*
X52719695Y-145400946D01*
X51887513Y-145055394D01*
X50986440Y-145054608D01*
X50153657Y-145398707D01*
X49605000Y-145946406D01*
X49605000Y-143786661D01*
X50037758Y-143786661D01*
X50249990Y-144300303D01*
X50642630Y-144693629D01*
X51155900Y-144906757D01*
X51711661Y-144907242D01*
X52225303Y-144695010D01*
X52618629Y-144302370D01*
X52831757Y-143789100D01*
X52832242Y-143233339D01*
X52620010Y-142719697D01*
X52227370Y-142326371D01*
X51714100Y-142113243D01*
X51158339Y-142112758D01*
X50644697Y-142324990D01*
X50251371Y-142717630D01*
X50038243Y-143230900D01*
X50037758Y-143786661D01*
X49605000Y-143786661D01*
X49605000Y-121259691D01*
X50298000Y-121259691D01*
X50298000Y-121700250D01*
X50456750Y-121859000D01*
X51181000Y-121859000D01*
X51181000Y-120909750D01*
X51022250Y-120751000D01*
X50806690Y-120751000D01*
X50573301Y-120847673D01*
X50394673Y-121026302D01*
X50298000Y-121259691D01*
X49605000Y-121259691D01*
X49605000Y-115044396D01*
X50135907Y-115150000D01*
X50194093Y-115150000D01*
X50762378Y-115036961D01*
X50836947Y-114987136D01*
X53548305Y-117698494D01*
G36*
X67914571Y-145135600D02*
X66304176Y-145135600D01*
X66304329Y-144959717D01*
X66155767Y-144600168D01*
X65880919Y-144324840D01*
X65521630Y-144175650D01*
X65132597Y-144175311D01*
X64773048Y-144323873D01*
X64497720Y-144598721D01*
X64402407Y-144828260D01*
X60086188Y-144828260D01*
X59423248Y-144165320D01*
X66944292Y-144165320D01*
X67914571Y-145135600D01*
X67914571Y-145135600D01*
G37*
X67914571Y-145135600D02*
X66304176Y-145135600D01*
X66304329Y-144959717D01*
X66155767Y-144600168D01*
X65880919Y-144324840D01*
X65521630Y-144175650D01*
X65132597Y-144175311D01*
X64773048Y-144323873D01*
X64497720Y-144598721D01*
X64402407Y-144828260D01*
X60086188Y-144828260D01*
X59423248Y-144165320D01*
X66944292Y-144165320D01*
X67914571Y-145135600D01*
G36*
X90998748Y-133970858D02*
X90984605Y-133985000D01*
X90998748Y-133999143D01*
X90819143Y-134178748D01*
X90805000Y-134164605D01*
X90790858Y-134178748D01*
X90611253Y-133999143D01*
X90625395Y-133985000D01*
X90611253Y-133970858D01*
X90790858Y-133791253D01*
X90805000Y-133805395D01*
X90819143Y-133791253D01*
X90998748Y-133970858D01*
X90998748Y-133970858D01*
G37*
X90998748Y-133970858D02*
X90984605Y-133985000D01*
X90998748Y-133999143D01*
X90819143Y-134178748D01*
X90805000Y-134164605D01*
X90790858Y-134178748D01*
X90611253Y-133999143D01*
X90625395Y-133985000D01*
X90611253Y-133970858D01*
X90790858Y-133791253D01*
X90805000Y-133805395D01*
X90819143Y-133791253D01*
X90998748Y-133970858D01*
G36*
X89934357Y-109885551D02*
X90093800Y-109951758D01*
X90093800Y-113240683D01*
X90057617Y-113240651D01*
X89698068Y-113389213D01*
X89422740Y-113664061D01*
X89273550Y-114023350D01*
X89273211Y-114412383D01*
X89421773Y-114771932D01*
X89696621Y-115047260D01*
X90055910Y-115196450D01*
X90444943Y-115196789D01*
X90804492Y-115048227D01*
X91079820Y-114773379D01*
X91229010Y-114414090D01*
X91229156Y-114246633D01*
X91307894Y-114167895D01*
X91435422Y-113977035D01*
X91462063Y-113937164D01*
X91516200Y-113665000D01*
X91516200Y-110637262D01*
X91803430Y-110756530D01*
X92192463Y-110756869D01*
X92552012Y-110608307D01*
X92634076Y-110526386D01*
X92687937Y-110797165D01*
X92842106Y-111027894D01*
X95047106Y-113232894D01*
X95277835Y-113387063D01*
X95550000Y-113441200D01*
X99950000Y-113441200D01*
X100222165Y-113387063D01*
X100452894Y-113232894D01*
X102782895Y-110902894D01*
X102937063Y-110672164D01*
X102991200Y-110400000D01*
X102991200Y-110033725D01*
X103198330Y-110119733D01*
X103808991Y-110120265D01*
X104178800Y-109967463D01*
X104178800Y-110064355D01*
X102802304Y-111440852D01*
X102648135Y-111671581D01*
X102630547Y-111760004D01*
X102593998Y-111943746D01*
X102593998Y-127288351D01*
X102392370Y-127086371D01*
X101879100Y-126873243D01*
X101323339Y-126872758D01*
X100809697Y-127084990D01*
X100416371Y-127477630D01*
X100203243Y-127990900D01*
X100202758Y-128546661D01*
X100414990Y-129060303D01*
X100807630Y-129453629D01*
X101320900Y-129666757D01*
X101557248Y-129666963D01*
X100395412Y-130828800D01*
X98090000Y-130828800D01*
X97817835Y-130882937D01*
X97587106Y-131037106D01*
X96213875Y-132410337D01*
X96227730Y-132376970D01*
X96228069Y-131987937D01*
X96079507Y-131628388D01*
X95986600Y-131535319D01*
X95986600Y-128702492D01*
X96011999Y-128574800D01*
X95957863Y-128302635D01*
X95803694Y-128071906D01*
X93332325Y-125600537D01*
X93332469Y-125434737D01*
X93183907Y-125075188D01*
X92909059Y-124799860D01*
X92549770Y-124650670D01*
X92160737Y-124650331D01*
X91801188Y-124798893D01*
X91713582Y-124886346D01*
X91635370Y-124853870D01*
X91246337Y-124853531D01*
X90886788Y-125002093D01*
X90611460Y-125276941D01*
X90462270Y-125636230D01*
X90461931Y-126025263D01*
X90610493Y-126384812D01*
X90662555Y-126436965D01*
X90568950Y-126662390D01*
X90568611Y-127051423D01*
X90717173Y-127410972D01*
X90992021Y-127686300D01*
X91351310Y-127835490D01*
X91518768Y-127835636D01*
X92908120Y-129224989D01*
X92908120Y-132504644D01*
X92515814Y-132666741D01*
X91963936Y-132114864D01*
X91700245Y-131938671D01*
X91667532Y-131932164D01*
X91389200Y-131876800D01*
X90068400Y-131876800D01*
X89790068Y-131932164D01*
X89757355Y-131938671D01*
X89493663Y-132114864D01*
X88986153Y-132622375D01*
X88571670Y-132450267D01*
X88040392Y-132449804D01*
X85288092Y-129697504D01*
X85057363Y-129543335D01*
X84785198Y-129489198D01*
X83200190Y-129489198D01*
X83611605Y-129077783D01*
X83721150Y-129123270D01*
X84110183Y-129123609D01*
X84469732Y-128975047D01*
X84745060Y-128700199D01*
X84894250Y-128340910D01*
X84894589Y-127951877D01*
X84746027Y-127592328D01*
X84627720Y-127473814D01*
X84627720Y-116850160D01*
X84573583Y-116577996D01*
X84477101Y-116433600D01*
X84419414Y-116347265D01*
X82610960Y-114538812D01*
X82610960Y-110008711D01*
X82878330Y-110119733D01*
X83488991Y-110120265D01*
X84053371Y-109887068D01*
X84455323Y-109485818D01*
X84854357Y-109885551D01*
X85418330Y-110119733D01*
X86028991Y-110120265D01*
X86593371Y-109887068D01*
X86995323Y-109485818D01*
X87394357Y-109885551D01*
X87958330Y-110119733D01*
X88568991Y-110120265D01*
X89133371Y-109887068D01*
X89535323Y-109485818D01*
X89934357Y-109885551D01*
X89934357Y-109885551D01*
G37*
X89934357Y-109885551D02*
X90093800Y-109951758D01*
X90093800Y-113240683D01*
X90057617Y-113240651D01*
X89698068Y-113389213D01*
X89422740Y-113664061D01*
X89273550Y-114023350D01*
X89273211Y-114412383D01*
X89421773Y-114771932D01*
X89696621Y-115047260D01*
X90055910Y-115196450D01*
X90444943Y-115196789D01*
X90804492Y-115048227D01*
X91079820Y-114773379D01*
X91229010Y-114414090D01*
X91229156Y-114246633D01*
X91307894Y-114167895D01*
X91435422Y-113977035D01*
X91462063Y-113937164D01*
X91516200Y-113665000D01*
X91516200Y-110637262D01*
X91803430Y-110756530D01*
X92192463Y-110756869D01*
X92552012Y-110608307D01*
X92634076Y-110526386D01*
X92687937Y-110797165D01*
X92842106Y-111027894D01*
X95047106Y-113232894D01*
X95277835Y-113387063D01*
X95550000Y-113441200D01*
X99950000Y-113441200D01*
X100222165Y-113387063D01*
X100452894Y-113232894D01*
X102782895Y-110902894D01*
X102937063Y-110672164D01*
X102991200Y-110400000D01*
X102991200Y-110033725D01*
X103198330Y-110119733D01*
X103808991Y-110120265D01*
X104178800Y-109967463D01*
X104178800Y-110064355D01*
X102802304Y-111440852D01*
X102648135Y-111671581D01*
X102630547Y-111760004D01*
X102593998Y-111943746D01*
X102593998Y-127288351D01*
X102392370Y-127086371D01*
X101879100Y-126873243D01*
X101323339Y-126872758D01*
X100809697Y-127084990D01*
X100416371Y-127477630D01*
X100203243Y-127990900D01*
X100202758Y-128546661D01*
X100414990Y-129060303D01*
X100807630Y-129453629D01*
X101320900Y-129666757D01*
X101557248Y-129666963D01*
X100395412Y-130828800D01*
X98090000Y-130828800D01*
X97817835Y-130882937D01*
X97587106Y-131037106D01*
X96213875Y-132410337D01*
X96227730Y-132376970D01*
X96228069Y-131987937D01*
X96079507Y-131628388D01*
X95986600Y-131535319D01*
X95986600Y-128702492D01*
X96011999Y-128574800D01*
X95957863Y-128302635D01*
X95803694Y-128071906D01*
X93332325Y-125600537D01*
X93332469Y-125434737D01*
X93183907Y-125075188D01*
X92909059Y-124799860D01*
X92549770Y-124650670D01*
X92160737Y-124650331D01*
X91801188Y-124798893D01*
X91713582Y-124886346D01*
X91635370Y-124853870D01*
X91246337Y-124853531D01*
X90886788Y-125002093D01*
X90611460Y-125276941D01*
X90462270Y-125636230D01*
X90461931Y-126025263D01*
X90610493Y-126384812D01*
X90662555Y-126436965D01*
X90568950Y-126662390D01*
X90568611Y-127051423D01*
X90717173Y-127410972D01*
X90992021Y-127686300D01*
X91351310Y-127835490D01*
X91518768Y-127835636D01*
X92908120Y-129224989D01*
X92908120Y-132504644D01*
X92515814Y-132666741D01*
X91963936Y-132114864D01*
X91700245Y-131938671D01*
X91667532Y-131932164D01*
X91389200Y-131876800D01*
X90068400Y-131876800D01*
X89790068Y-131932164D01*
X89757355Y-131938671D01*
X89493663Y-132114864D01*
X88986153Y-132622375D01*
X88571670Y-132450267D01*
X88040392Y-132449804D01*
X85288092Y-129697504D01*
X85057363Y-129543335D01*
X84785198Y-129489198D01*
X83200190Y-129489198D01*
X83611605Y-129077783D01*
X83721150Y-129123270D01*
X84110183Y-129123609D01*
X84469732Y-128975047D01*
X84745060Y-128700199D01*
X84894250Y-128340910D01*
X84894589Y-127951877D01*
X84746027Y-127592328D01*
X84627720Y-127473814D01*
X84627720Y-116850160D01*
X84573583Y-116577996D01*
X84477101Y-116433600D01*
X84419414Y-116347265D01*
X82610960Y-114538812D01*
X82610960Y-110008711D01*
X82878330Y-110119733D01*
X83488991Y-110120265D01*
X84053371Y-109887068D01*
X84455323Y-109485818D01*
X84854357Y-109885551D01*
X85418330Y-110119733D01*
X86028991Y-110120265D01*
X86593371Y-109887068D01*
X86995323Y-109485818D01*
X87394357Y-109885551D01*
X87958330Y-110119733D01*
X88568991Y-110120265D01*
X89133371Y-109887068D01*
X89535323Y-109485818D01*
X89934357Y-109885551D01*
G36*
X73218748Y-108570858D02*
X73204605Y-108585000D01*
X73218748Y-108599143D01*
X73039143Y-108778748D01*
X73025000Y-108764605D01*
X73010858Y-108778748D01*
X72831253Y-108599143D01*
X72845395Y-108585000D01*
X72831253Y-108570858D01*
X73010858Y-108391253D01*
X73025000Y-108405395D01*
X73039143Y-108391253D01*
X73218748Y-108570858D01*
X73218748Y-108570858D01*
G37*
X73218748Y-108570858D02*
X73204605Y-108585000D01*
X73218748Y-108599143D01*
X73039143Y-108778748D01*
X73025000Y-108764605D01*
X73010858Y-108778748D01*
X72831253Y-108599143D01*
X72845395Y-108585000D01*
X72831253Y-108570858D01*
X73010858Y-108391253D01*
X73025000Y-108405395D01*
X73039143Y-108391253D01*
X73218748Y-108570858D01*
G36*
X107240000Y-81783875D02*
X107230010Y-81759697D01*
X106837370Y-81366371D01*
X106324100Y-81153243D01*
X105768339Y-81152758D01*
X105254697Y-81364990D01*
X104861371Y-81757630D01*
X104648243Y-82270900D01*
X104647758Y-82826661D01*
X104859990Y-83340303D01*
X105252630Y-83733629D01*
X105765900Y-83946757D01*
X106321661Y-83947242D01*
X106835303Y-83735010D01*
X107228629Y-83342370D01*
X107240000Y-83314986D01*
X107240000Y-95808899D01*
X107036892Y-95713514D01*
X106807000Y-95834181D01*
X106807000Y-97028000D01*
X106827000Y-97028000D01*
X106827000Y-97282000D01*
X106807000Y-97282000D01*
X106807000Y-97302000D01*
X106553000Y-97302000D01*
X106553000Y-97282000D01*
X104267000Y-97282000D01*
X104267000Y-97302000D01*
X104013000Y-97302000D01*
X104013000Y-97282000D01*
X102813750Y-97282000D01*
X102655000Y-97440750D01*
X102655000Y-98131310D01*
X102751673Y-98364699D01*
X102930302Y-98543327D01*
X103104777Y-98615597D01*
X103060853Y-98644946D01*
X102738946Y-99126715D01*
X102625907Y-99695000D01*
X102738946Y-100263285D01*
X103060853Y-100745054D01*
X103390026Y-100965000D01*
X103060853Y-101184946D01*
X102738946Y-101666715D01*
X102625907Y-102235000D01*
X102738946Y-102803285D01*
X103060853Y-103285054D01*
X103428800Y-103530908D01*
X103428800Y-105195411D01*
X102835412Y-105788800D01*
X101310000Y-105788800D01*
X101082990Y-105833955D01*
X101037835Y-105842937D01*
X100807106Y-105997106D01*
X99407605Y-107396607D01*
X99295643Y-107284449D01*
X98731670Y-107050267D01*
X98121009Y-107049735D01*
X97556629Y-107282932D01*
X97154677Y-107684182D01*
X96755643Y-107284449D01*
X96672400Y-107249883D01*
X96672400Y-101973683D01*
X96946212Y-101860547D01*
X97221540Y-101585699D01*
X97370730Y-101226410D01*
X97371069Y-100837377D01*
X97222507Y-100477828D01*
X96947659Y-100202500D01*
X96588370Y-100053310D01*
X96199337Y-100052971D01*
X95839788Y-100201533D01*
X95564460Y-100476381D01*
X95415270Y-100835670D01*
X95415218Y-100895270D01*
X95328224Y-100982264D01*
X95157537Y-101237715D01*
X95097600Y-101539040D01*
X95097600Y-107249475D01*
X95016629Y-107282932D01*
X94614677Y-107684182D01*
X94215643Y-107284449D01*
X93651670Y-107050267D01*
X93041009Y-107049735D01*
X92862400Y-107123535D01*
X92862400Y-103784400D01*
X92800529Y-103473355D01*
X92771175Y-103429423D01*
X92624337Y-103209664D01*
X90846336Y-101431664D01*
X90582645Y-101255471D01*
X90578196Y-101254586D01*
X90271600Y-101193600D01*
X88779473Y-101193600D01*
X83764563Y-96178690D01*
X102655000Y-96178690D01*
X102655000Y-96869250D01*
X102813750Y-97028000D01*
X104013000Y-97028000D01*
X104013000Y-95828750D01*
X104267000Y-95828750D01*
X104267000Y-97028000D01*
X106553000Y-97028000D01*
X106553000Y-95834181D01*
X106323108Y-95713514D01*
X105798642Y-95959817D01*
X105616930Y-96159208D01*
X105528327Y-95945301D01*
X105349698Y-95766673D01*
X105116309Y-95670000D01*
X104425750Y-95670000D01*
X104267000Y-95828750D01*
X104013000Y-95828750D01*
X103854250Y-95670000D01*
X103163691Y-95670000D01*
X102930302Y-95766673D01*
X102751673Y-95945301D01*
X102655000Y-96178690D01*
X83764563Y-96178690D01*
X81381600Y-93795728D01*
X81381600Y-92495000D01*
X82322560Y-92495000D01*
X82322560Y-94195000D01*
X82366838Y-94430317D01*
X82505910Y-94646441D01*
X82718110Y-94791431D01*
X82970000Y-94842440D01*
X84670000Y-94842440D01*
X84905317Y-94798162D01*
X85121441Y-94659090D01*
X85266431Y-94446890D01*
X85280086Y-94379459D01*
X85309946Y-94424147D01*
X85791715Y-94746054D01*
X86360000Y-94859093D01*
X86928285Y-94746054D01*
X87410054Y-94424147D01*
X87630000Y-94094974D01*
X87849946Y-94424147D01*
X88331715Y-94746054D01*
X88900000Y-94859093D01*
X89468285Y-94746054D01*
X89950054Y-94424147D01*
X90271961Y-93942378D01*
X90385000Y-93374093D01*
X90385000Y-93315907D01*
X90271961Y-92747622D01*
X89950054Y-92265853D01*
X89468285Y-91943946D01*
X88900000Y-91830907D01*
X88331715Y-91943946D01*
X87849946Y-92265853D01*
X87630000Y-92595026D01*
X87410054Y-92265853D01*
X86928285Y-91943946D01*
X86360000Y-91830907D01*
X85791715Y-91943946D01*
X85309946Y-92265853D01*
X85282150Y-92307452D01*
X85273162Y-92259683D01*
X85134090Y-92043559D01*
X84921890Y-91898569D01*
X84670000Y-91847560D01*
X82970000Y-91847560D01*
X82734683Y-91891838D01*
X82518559Y-92030910D01*
X82373569Y-92243110D01*
X82322560Y-92495000D01*
X81381600Y-92495000D01*
X81381600Y-90474800D01*
X81319729Y-90163755D01*
X81278335Y-90101805D01*
X81143536Y-89900063D01*
X81089650Y-89846177D01*
X81089669Y-89823937D01*
X81064738Y-89763600D01*
X81724500Y-89763600D01*
X82103586Y-89688195D01*
X82424960Y-89473460D01*
X82641429Y-89256991D01*
X95204469Y-89256991D01*
X95670104Y-90383915D01*
X96531550Y-91246866D01*
X97657659Y-91714467D01*
X98876991Y-91715531D01*
X100003915Y-91249896D01*
X100549295Y-90705467D01*
X102349138Y-90705467D01*
X102600375Y-91102169D01*
X103662446Y-91537227D01*
X104810162Y-91532730D01*
X105849625Y-91102169D01*
X106100862Y-90705467D01*
X104225000Y-88829605D01*
X102349138Y-90705467D01*
X100549295Y-90705467D01*
X100866866Y-90388450D01*
X101334467Y-89262341D01*
X101335531Y-88043009D01*
X100888579Y-86961300D01*
X101766170Y-86957530D01*
X102095075Y-86821293D01*
X101772831Y-87025375D01*
X101337773Y-88087446D01*
X101342270Y-89235162D01*
X101772831Y-90274625D01*
X102169533Y-90525862D01*
X104045395Y-88650000D01*
X104404605Y-88650000D01*
X106280467Y-90525862D01*
X106677169Y-90274625D01*
X107112227Y-89212554D01*
X107107730Y-88064838D01*
X106677169Y-87025375D01*
X106280467Y-86774138D01*
X104404605Y-88650000D01*
X104045395Y-88650000D01*
X104031253Y-88635858D01*
X104210858Y-88456253D01*
X104225000Y-88470395D01*
X106100862Y-86594533D01*
X105849625Y-86197831D01*
X104787554Y-85762773D01*
X103639838Y-85767270D01*
X103304323Y-85906245D01*
X103616529Y-85709629D01*
X104047418Y-84656598D01*
X104042530Y-83518830D01*
X103616529Y-82490371D01*
X103222426Y-82242179D01*
X101364605Y-84100000D01*
X101378748Y-84114143D01*
X101199143Y-84293748D01*
X101185000Y-84279605D01*
X101170858Y-84293748D01*
X100991253Y-84114143D01*
X101005395Y-84100000D01*
X99147574Y-82242179D01*
X98753471Y-82490371D01*
X98322582Y-83543402D01*
X98327470Y-84681170D01*
X98702004Y-85585376D01*
X97663009Y-85584469D01*
X96536085Y-86050104D01*
X95673134Y-86911550D01*
X95205533Y-88037659D01*
X95204469Y-89256991D01*
X82641429Y-89256991D01*
X83595320Y-88303100D01*
X89217500Y-88303100D01*
X89596586Y-88227695D01*
X89917960Y-88012960D01*
X93133480Y-84797440D01*
X93600000Y-84797440D01*
X93835317Y-84753162D01*
X94051441Y-84614090D01*
X94196431Y-84401890D01*
X94218301Y-84293893D01*
X94523076Y-84571645D01*
X94933110Y-84741476D01*
X95163000Y-84620155D01*
X95163000Y-83427000D01*
X95417000Y-83427000D01*
X95417000Y-84620155D01*
X95646890Y-84741476D01*
X96056924Y-84571645D01*
X96485183Y-84181358D01*
X96731486Y-83656892D01*
X96610819Y-83427000D01*
X95417000Y-83427000D01*
X95163000Y-83427000D01*
X95143000Y-83427000D01*
X95143000Y-83173000D01*
X95163000Y-83173000D01*
X95163000Y-81979845D01*
X95417000Y-81979845D01*
X95417000Y-83173000D01*
X96610819Y-83173000D01*
X96731486Y-82943108D01*
X96485183Y-82418642D01*
X96094473Y-82062574D01*
X99327179Y-82062574D01*
X101185000Y-83920395D01*
X103042821Y-82062574D01*
X102794629Y-81668471D01*
X101741598Y-81237582D01*
X100603830Y-81242470D01*
X99575371Y-81668471D01*
X99327179Y-82062574D01*
X96094473Y-82062574D01*
X96056924Y-82028355D01*
X95646890Y-81858524D01*
X95417000Y-81979845D01*
X95163000Y-81979845D01*
X94933110Y-81858524D01*
X94523076Y-82028355D01*
X94220063Y-82304501D01*
X94203162Y-82214683D01*
X94064090Y-81998559D01*
X93851890Y-81853569D01*
X93600000Y-81802560D01*
X91900000Y-81802560D01*
X91664683Y-81846838D01*
X91448559Y-81985910D01*
X91303569Y-82198110D01*
X91252560Y-82450000D01*
X91252560Y-83876520D01*
X88807180Y-86321900D01*
X83185000Y-86321900D01*
X82805914Y-86397305D01*
X82484540Y-86612040D01*
X82094758Y-87001822D01*
X81944659Y-86851460D01*
X81585370Y-86702270D01*
X81196337Y-86701931D01*
X80836788Y-86850493D01*
X80794607Y-86892600D01*
X76826152Y-86892600D01*
X75777400Y-85843848D01*
X75777400Y-83430000D01*
X75717463Y-83128675D01*
X75546776Y-82873224D01*
X72293750Y-79620198D01*
X88248402Y-79620198D01*
X88569168Y-79556394D01*
X88841099Y-79374695D01*
X89828145Y-78387649D01*
X90164412Y-78248707D01*
X90439740Y-77973859D01*
X90588930Y-77614570D01*
X90589269Y-77225537D01*
X90440707Y-76865988D01*
X90398600Y-76823807D01*
X90398600Y-76729352D01*
X90716026Y-76411926D01*
X90715931Y-76520663D01*
X90864493Y-76880212D01*
X91139341Y-77155540D01*
X91498630Y-77304730D01*
X91887663Y-77305069D01*
X91949545Y-77279500D01*
X95820862Y-77279500D01*
X95913470Y-77503631D01*
X95741460Y-77675341D01*
X95592270Y-78034630D01*
X95591931Y-78423663D01*
X95740493Y-78783212D01*
X96015341Y-79058540D01*
X96374630Y-79207730D01*
X96763663Y-79208069D01*
X97123212Y-79059507D01*
X97398540Y-78784659D01*
X97547730Y-78425370D01*
X97547876Y-78257912D01*
X98502894Y-77302895D01*
X98657062Y-77072165D01*
X98657063Y-77072164D01*
X98711200Y-76800000D01*
X98711200Y-76197440D01*
X98750000Y-76197440D01*
X98985317Y-76153162D01*
X99201441Y-76014090D01*
X99346431Y-75801890D01*
X99349081Y-75788803D01*
X99485910Y-76001441D01*
X99698110Y-76146431D01*
X99950000Y-76197440D01*
X100531652Y-76197440D01*
X100792075Y-76457864D01*
X100791931Y-76623663D01*
X100940493Y-76983212D01*
X101215341Y-77258540D01*
X101574630Y-77407730D01*
X101963663Y-77408069D01*
X102323212Y-77259507D01*
X102598540Y-76984659D01*
X102747730Y-76625370D01*
X102748069Y-76236337D01*
X102599507Y-75876788D01*
X102324659Y-75601460D01*
X102097440Y-75507110D01*
X102097440Y-74370000D01*
X107240000Y-74370000D01*
X107240000Y-81783875D01*
X107240000Y-81783875D01*
G37*
X107240000Y-81783875D02*
X107230010Y-81759697D01*
X106837370Y-81366371D01*
X106324100Y-81153243D01*
X105768339Y-81152758D01*
X105254697Y-81364990D01*
X104861371Y-81757630D01*
X104648243Y-82270900D01*
X104647758Y-82826661D01*
X104859990Y-83340303D01*
X105252630Y-83733629D01*
X105765900Y-83946757D01*
X106321661Y-83947242D01*
X106835303Y-83735010D01*
X107228629Y-83342370D01*
X107240000Y-83314986D01*
X107240000Y-95808899D01*
X107036892Y-95713514D01*
X106807000Y-95834181D01*
X106807000Y-97028000D01*
X106827000Y-97028000D01*
X106827000Y-97282000D01*
X106807000Y-97282000D01*
X106807000Y-97302000D01*
X106553000Y-97302000D01*
X106553000Y-97282000D01*
X104267000Y-97282000D01*
X104267000Y-97302000D01*
X104013000Y-97302000D01*
X104013000Y-97282000D01*
X102813750Y-97282000D01*
X102655000Y-97440750D01*
X102655000Y-98131310D01*
X102751673Y-98364699D01*
X102930302Y-98543327D01*
X103104777Y-98615597D01*
X103060853Y-98644946D01*
X102738946Y-99126715D01*
X102625907Y-99695000D01*
X102738946Y-100263285D01*
X103060853Y-100745054D01*
X103390026Y-100965000D01*
X103060853Y-101184946D01*
X102738946Y-101666715D01*
X102625907Y-102235000D01*
X102738946Y-102803285D01*
X103060853Y-103285054D01*
X103428800Y-103530908D01*
X103428800Y-105195411D01*
X102835412Y-105788800D01*
X101310000Y-105788800D01*
X101082990Y-105833955D01*
X101037835Y-105842937D01*
X100807106Y-105997106D01*
X99407605Y-107396607D01*
X99295643Y-107284449D01*
X98731670Y-107050267D01*
X98121009Y-107049735D01*
X97556629Y-107282932D01*
X97154677Y-107684182D01*
X96755643Y-107284449D01*
X96672400Y-107249883D01*
X96672400Y-101973683D01*
X96946212Y-101860547D01*
X97221540Y-101585699D01*
X97370730Y-101226410D01*
X97371069Y-100837377D01*
X97222507Y-100477828D01*
X96947659Y-100202500D01*
X96588370Y-100053310D01*
X96199337Y-100052971D01*
X95839788Y-100201533D01*
X95564460Y-100476381D01*
X95415270Y-100835670D01*
X95415218Y-100895270D01*
X95328224Y-100982264D01*
X95157537Y-101237715D01*
X95097600Y-101539040D01*
X95097600Y-107249475D01*
X95016629Y-107282932D01*
X94614677Y-107684182D01*
X94215643Y-107284449D01*
X93651670Y-107050267D01*
X93041009Y-107049735D01*
X92862400Y-107123535D01*
X92862400Y-103784400D01*
X92800529Y-103473355D01*
X92771175Y-103429423D01*
X92624337Y-103209664D01*
X90846336Y-101431664D01*
X90582645Y-101255471D01*
X90578196Y-101254586D01*
X90271600Y-101193600D01*
X88779473Y-101193600D01*
X83764563Y-96178690D01*
X102655000Y-96178690D01*
X102655000Y-96869250D01*
X102813750Y-97028000D01*
X104013000Y-97028000D01*
X104013000Y-95828750D01*
X104267000Y-95828750D01*
X104267000Y-97028000D01*
X106553000Y-97028000D01*
X106553000Y-95834181D01*
X106323108Y-95713514D01*
X105798642Y-95959817D01*
X105616930Y-96159208D01*
X105528327Y-95945301D01*
X105349698Y-95766673D01*
X105116309Y-95670000D01*
X104425750Y-95670000D01*
X104267000Y-95828750D01*
X104013000Y-95828750D01*
X103854250Y-95670000D01*
X103163691Y-95670000D01*
X102930302Y-95766673D01*
X102751673Y-95945301D01*
X102655000Y-96178690D01*
X83764563Y-96178690D01*
X81381600Y-93795728D01*
X81381600Y-92495000D01*
X82322560Y-92495000D01*
X82322560Y-94195000D01*
X82366838Y-94430317D01*
X82505910Y-94646441D01*
X82718110Y-94791431D01*
X82970000Y-94842440D01*
X84670000Y-94842440D01*
X84905317Y-94798162D01*
X85121441Y-94659090D01*
X85266431Y-94446890D01*
X85280086Y-94379459D01*
X85309946Y-94424147D01*
X85791715Y-94746054D01*
X86360000Y-94859093D01*
X86928285Y-94746054D01*
X87410054Y-94424147D01*
X87630000Y-94094974D01*
X87849946Y-94424147D01*
X88331715Y-94746054D01*
X88900000Y-94859093D01*
X89468285Y-94746054D01*
X89950054Y-94424147D01*
X90271961Y-93942378D01*
X90385000Y-93374093D01*
X90385000Y-93315907D01*
X90271961Y-92747622D01*
X89950054Y-92265853D01*
X89468285Y-91943946D01*
X88900000Y-91830907D01*
X88331715Y-91943946D01*
X87849946Y-92265853D01*
X87630000Y-92595026D01*
X87410054Y-92265853D01*
X86928285Y-91943946D01*
X86360000Y-91830907D01*
X85791715Y-91943946D01*
X85309946Y-92265853D01*
X85282150Y-92307452D01*
X85273162Y-92259683D01*
X85134090Y-92043559D01*
X84921890Y-91898569D01*
X84670000Y-91847560D01*
X82970000Y-91847560D01*
X82734683Y-91891838D01*
X82518559Y-92030910D01*
X82373569Y-92243110D01*
X82322560Y-92495000D01*
X81381600Y-92495000D01*
X81381600Y-90474800D01*
X81319729Y-90163755D01*
X81278335Y-90101805D01*
X81143536Y-89900063D01*
X81089650Y-89846177D01*
X81089669Y-89823937D01*
X81064738Y-89763600D01*
X81724500Y-89763600D01*
X82103586Y-89688195D01*
X82424960Y-89473460D01*
X82641429Y-89256991D01*
X95204469Y-89256991D01*
X95670104Y-90383915D01*
X96531550Y-91246866D01*
X97657659Y-91714467D01*
X98876991Y-91715531D01*
X100003915Y-91249896D01*
X100549295Y-90705467D01*
X102349138Y-90705467D01*
X102600375Y-91102169D01*
X103662446Y-91537227D01*
X104810162Y-91532730D01*
X105849625Y-91102169D01*
X106100862Y-90705467D01*
X104225000Y-88829605D01*
X102349138Y-90705467D01*
X100549295Y-90705467D01*
X100866866Y-90388450D01*
X101334467Y-89262341D01*
X101335531Y-88043009D01*
X100888579Y-86961300D01*
X101766170Y-86957530D01*
X102095075Y-86821293D01*
X101772831Y-87025375D01*
X101337773Y-88087446D01*
X101342270Y-89235162D01*
X101772831Y-90274625D01*
X102169533Y-90525862D01*
X104045395Y-88650000D01*
X104404605Y-88650000D01*
X106280467Y-90525862D01*
X106677169Y-90274625D01*
X107112227Y-89212554D01*
X107107730Y-88064838D01*
X106677169Y-87025375D01*
X106280467Y-86774138D01*
X104404605Y-88650000D01*
X104045395Y-88650000D01*
X104031253Y-88635858D01*
X104210858Y-88456253D01*
X104225000Y-88470395D01*
X106100862Y-86594533D01*
X105849625Y-86197831D01*
X104787554Y-85762773D01*
X103639838Y-85767270D01*
X103304323Y-85906245D01*
X103616529Y-85709629D01*
X104047418Y-84656598D01*
X104042530Y-83518830D01*
X103616529Y-82490371D01*
X103222426Y-82242179D01*
X101364605Y-84100000D01*
X101378748Y-84114143D01*
X101199143Y-84293748D01*
X101185000Y-84279605D01*
X101170858Y-84293748D01*
X100991253Y-84114143D01*
X101005395Y-84100000D01*
X99147574Y-82242179D01*
X98753471Y-82490371D01*
X98322582Y-83543402D01*
X98327470Y-84681170D01*
X98702004Y-85585376D01*
X97663009Y-85584469D01*
X96536085Y-86050104D01*
X95673134Y-86911550D01*
X95205533Y-88037659D01*
X95204469Y-89256991D01*
X82641429Y-89256991D01*
X83595320Y-88303100D01*
X89217500Y-88303100D01*
X89596586Y-88227695D01*
X89917960Y-88012960D01*
X93133480Y-84797440D01*
X93600000Y-84797440D01*
X93835317Y-84753162D01*
X94051441Y-84614090D01*
X94196431Y-84401890D01*
X94218301Y-84293893D01*
X94523076Y-84571645D01*
X94933110Y-84741476D01*
X95163000Y-84620155D01*
X95163000Y-83427000D01*
X95417000Y-83427000D01*
X95417000Y-84620155D01*
X95646890Y-84741476D01*
X96056924Y-84571645D01*
X96485183Y-84181358D01*
X96731486Y-83656892D01*
X96610819Y-83427000D01*
X95417000Y-83427000D01*
X95163000Y-83427000D01*
X95143000Y-83427000D01*
X95143000Y-83173000D01*
X95163000Y-83173000D01*
X95163000Y-81979845D01*
X95417000Y-81979845D01*
X95417000Y-83173000D01*
X96610819Y-83173000D01*
X96731486Y-82943108D01*
X96485183Y-82418642D01*
X96094473Y-82062574D01*
X99327179Y-82062574D01*
X101185000Y-83920395D01*
X103042821Y-82062574D01*
X102794629Y-81668471D01*
X101741598Y-81237582D01*
X100603830Y-81242470D01*
X99575371Y-81668471D01*
X99327179Y-82062574D01*
X96094473Y-82062574D01*
X96056924Y-82028355D01*
X95646890Y-81858524D01*
X95417000Y-81979845D01*
X95163000Y-81979845D01*
X94933110Y-81858524D01*
X94523076Y-82028355D01*
X94220063Y-82304501D01*
X94203162Y-82214683D01*
X94064090Y-81998559D01*
X93851890Y-81853569D01*
X93600000Y-81802560D01*
X91900000Y-81802560D01*
X91664683Y-81846838D01*
X91448559Y-81985910D01*
X91303569Y-82198110D01*
X91252560Y-82450000D01*
X91252560Y-83876520D01*
X88807180Y-86321900D01*
X83185000Y-86321900D01*
X82805914Y-86397305D01*
X82484540Y-86612040D01*
X82094758Y-87001822D01*
X81944659Y-86851460D01*
X81585370Y-86702270D01*
X81196337Y-86701931D01*
X80836788Y-86850493D01*
X80794607Y-86892600D01*
X76826152Y-86892600D01*
X75777400Y-85843848D01*
X75777400Y-83430000D01*
X75717463Y-83128675D01*
X75546776Y-82873224D01*
X72293750Y-79620198D01*
X88248402Y-79620198D01*
X88569168Y-79556394D01*
X88841099Y-79374695D01*
X89828145Y-78387649D01*
X90164412Y-78248707D01*
X90439740Y-77973859D01*
X90588930Y-77614570D01*
X90589269Y-77225537D01*
X90440707Y-76865988D01*
X90398600Y-76823807D01*
X90398600Y-76729352D01*
X90716026Y-76411926D01*
X90715931Y-76520663D01*
X90864493Y-76880212D01*
X91139341Y-77155540D01*
X91498630Y-77304730D01*
X91887663Y-77305069D01*
X91949545Y-77279500D01*
X95820862Y-77279500D01*
X95913470Y-77503631D01*
X95741460Y-77675341D01*
X95592270Y-78034630D01*
X95591931Y-78423663D01*
X95740493Y-78783212D01*
X96015341Y-79058540D01*
X96374630Y-79207730D01*
X96763663Y-79208069D01*
X97123212Y-79059507D01*
X97398540Y-78784659D01*
X97547730Y-78425370D01*
X97547876Y-78257912D01*
X98502894Y-77302895D01*
X98657062Y-77072165D01*
X98657063Y-77072164D01*
X98711200Y-76800000D01*
X98711200Y-76197440D01*
X98750000Y-76197440D01*
X98985317Y-76153162D01*
X99201441Y-76014090D01*
X99346431Y-75801890D01*
X99349081Y-75788803D01*
X99485910Y-76001441D01*
X99698110Y-76146431D01*
X99950000Y-76197440D01*
X100531652Y-76197440D01*
X100792075Y-76457864D01*
X100791931Y-76623663D01*
X100940493Y-76983212D01*
X101215341Y-77258540D01*
X101574630Y-77407730D01*
X101963663Y-77408069D01*
X102323212Y-77259507D01*
X102598540Y-76984659D01*
X102747730Y-76625370D01*
X102748069Y-76236337D01*
X102599507Y-75876788D01*
X102324659Y-75601460D01*
X102097440Y-75507110D01*
X102097440Y-74370000D01*
X107240000Y-74370000D01*
X107240000Y-81783875D01*
G36*
X71706622Y-84280654D02*
X71706571Y-84338783D01*
X71855133Y-84698332D01*
X72129981Y-84973660D01*
X72489270Y-85122850D01*
X72859900Y-85123173D01*
X72859900Y-86614000D01*
X72935305Y-86993086D01*
X73150040Y-87314460D01*
X75309040Y-89473460D01*
X75630414Y-89688195D01*
X76009500Y-89763600D01*
X79158215Y-89763600D01*
X79133870Y-89822230D01*
X79133531Y-90211263D01*
X79282093Y-90570812D01*
X79556941Y-90846140D01*
X79756000Y-90928797D01*
X79756000Y-94132400D01*
X79809229Y-94400000D01*
X79817871Y-94443445D01*
X79994064Y-94707136D01*
X83355728Y-98068800D01*
X73622559Y-98068800D01*
X73489507Y-97746788D01*
X73214659Y-97471460D01*
X72855370Y-97322270D01*
X72466337Y-97321931D01*
X72106788Y-97470493D01*
X71831460Y-97745341D01*
X71682270Y-98104630D01*
X71681931Y-98493663D01*
X71830493Y-98853212D01*
X72105341Y-99128540D01*
X72464630Y-99277730D01*
X72632087Y-99277876D01*
X72637106Y-99282895D01*
X72867836Y-99437063D01*
X73140000Y-99491200D01*
X77242560Y-99491200D01*
X77242560Y-101180000D01*
X77286838Y-101415317D01*
X77425910Y-101631441D01*
X77638110Y-101776431D01*
X77705541Y-101790086D01*
X77660853Y-101819946D01*
X77338946Y-102301715D01*
X77225907Y-102870000D01*
X77338946Y-103438285D01*
X77660853Y-103920054D01*
X78142622Y-104241961D01*
X78710907Y-104355000D01*
X78769093Y-104355000D01*
X79337378Y-104241961D01*
X79518484Y-104120950D01*
X85555400Y-104120950D01*
X85555400Y-104611510D01*
X85652073Y-104844899D01*
X85830702Y-105023527D01*
X86064091Y-105120200D01*
X86654650Y-105120200D01*
X86813400Y-104961450D01*
X86813400Y-103962200D01*
X85714150Y-103962200D01*
X85555400Y-104120950D01*
X79518484Y-104120950D01*
X79819147Y-103920054D01*
X80141054Y-103438285D01*
X80254093Y-102870000D01*
X80141054Y-102301715D01*
X79819147Y-101819946D01*
X79777548Y-101792150D01*
X79825317Y-101783162D01*
X80041441Y-101644090D01*
X80186431Y-101431890D01*
X80237440Y-101180000D01*
X80237440Y-99491200D01*
X83765412Y-99491200D01*
X86824412Y-102550200D01*
X86813398Y-102550200D01*
X86813398Y-102708948D01*
X86654650Y-102550200D01*
X86064091Y-102550200D01*
X85830702Y-102646873D01*
X85652073Y-102825501D01*
X85555400Y-103058890D01*
X85555400Y-103549450D01*
X85714150Y-103708200D01*
X86813400Y-103708200D01*
X86813400Y-103688200D01*
X87067400Y-103688200D01*
X87067400Y-103708200D01*
X87087400Y-103708200D01*
X87087400Y-103962200D01*
X87067400Y-103962200D01*
X87067400Y-104961450D01*
X87226150Y-105120200D01*
X87272187Y-105120200D01*
X87271931Y-105413663D01*
X87420493Y-105773212D01*
X87695341Y-106048540D01*
X88054630Y-106197730D01*
X88443663Y-106198069D01*
X88803212Y-106049507D01*
X89078540Y-105774659D01*
X89227730Y-105415370D01*
X89227976Y-105132640D01*
X89932052Y-105132640D01*
X90017600Y-105218188D01*
X90017600Y-106029811D01*
X89926212Y-106121200D01*
X89560400Y-106121200D01*
X89333390Y-106166355D01*
X89288235Y-106175337D01*
X89057505Y-106329506D01*
X88336949Y-107050063D01*
X87961009Y-107049735D01*
X87396629Y-107282932D01*
X86994677Y-107684182D01*
X86595643Y-107284449D01*
X86031670Y-107050267D01*
X85421009Y-107049735D01*
X85261451Y-107115663D01*
X85115374Y-106969586D01*
X84884645Y-106815417D01*
X84789974Y-106796586D01*
X83611688Y-105618300D01*
X83380959Y-105464131D01*
X83108794Y-105409994D01*
X73505002Y-105409994D01*
X70479945Y-102384937D01*
X70480089Y-102219137D01*
X70331527Y-101859588D01*
X70056679Y-101584260D01*
X69697390Y-101435070D01*
X69308357Y-101434731D01*
X68948808Y-101583293D01*
X68673480Y-101858141D01*
X68524290Y-102217430D01*
X68523951Y-102606463D01*
X68672513Y-102966012D01*
X68947361Y-103241340D01*
X69306650Y-103390530D01*
X69474108Y-103390676D01*
X71798228Y-105714796D01*
X67995909Y-105714796D01*
X67995969Y-105645597D01*
X67847407Y-105286048D01*
X67572559Y-105010720D01*
X67213270Y-104861530D01*
X66824237Y-104861191D01*
X66464688Y-105009753D01*
X66371619Y-105102660D01*
X66357500Y-105102660D01*
X66075615Y-105158730D01*
X65836645Y-105318405D01*
X65699330Y-105455720D01*
X63601914Y-105455720D01*
X63347602Y-105201408D01*
X63347602Y-104213758D01*
X63429503Y-104213829D01*
X63789052Y-104065267D01*
X64064380Y-103790419D01*
X64213570Y-103431130D01*
X64213871Y-103085868D01*
X64221704Y-103046486D01*
X64326441Y-102979090D01*
X64471431Y-102766890D01*
X64494778Y-102651600D01*
X64848700Y-102651600D01*
X65130585Y-102595530D01*
X65369555Y-102435855D01*
X66560855Y-101244555D01*
X66565793Y-101237165D01*
X66609041Y-101172440D01*
X66690000Y-101172440D01*
X66925317Y-101128162D01*
X67141441Y-100989090D01*
X67286431Y-100776890D01*
X67329866Y-100562400D01*
X69538848Y-100562400D01*
X70061982Y-101085534D01*
X70061931Y-101143663D01*
X70210493Y-101503212D01*
X70485341Y-101778540D01*
X70844630Y-101927730D01*
X71233663Y-101928069D01*
X71593212Y-101779507D01*
X71868540Y-101504659D01*
X72017730Y-101145370D01*
X72018069Y-100756337D01*
X71869507Y-100396788D01*
X71594659Y-100121460D01*
X71235370Y-99972270D01*
X71175770Y-99972218D01*
X70421776Y-99218224D01*
X70166325Y-99047537D01*
X69865000Y-98987600D01*
X67330403Y-98987600D01*
X67293162Y-98789683D01*
X67154090Y-98573559D01*
X66941890Y-98428569D01*
X66928803Y-98425919D01*
X67141441Y-98289090D01*
X67286431Y-98076890D01*
X67337440Y-97825000D01*
X67337440Y-96325000D01*
X67293162Y-96089683D01*
X67154090Y-95873559D01*
X66941890Y-95728569D01*
X66751200Y-95689953D01*
X66751200Y-95667706D01*
X66919340Y-95499859D01*
X67068530Y-95140570D01*
X67068869Y-94751537D01*
X66920307Y-94391988D01*
X66645459Y-94116660D01*
X66286170Y-93967470D01*
X65897137Y-93967131D01*
X65537588Y-94115693D01*
X65262260Y-94390541D01*
X65113070Y-94749830D01*
X65112731Y-95138863D01*
X65261293Y-95498412D01*
X65328800Y-95566037D01*
X65328800Y-95689076D01*
X65154683Y-95721838D01*
X64938559Y-95860910D01*
X64793569Y-96073110D01*
X64742560Y-96325000D01*
X64742560Y-97330730D01*
X63305730Y-98767560D01*
X63125000Y-98767560D01*
X62889683Y-98811838D01*
X62673559Y-98950910D01*
X62528569Y-99163110D01*
X62477560Y-99415000D01*
X62477560Y-99815612D01*
X62026800Y-99364852D01*
X62026800Y-98541788D01*
X63901294Y-96667294D01*
X64055463Y-96436565D01*
X64109600Y-96164400D01*
X64109600Y-95108994D01*
X64226940Y-94991859D01*
X64376130Y-94632570D01*
X64376469Y-94243537D01*
X64227907Y-93883988D01*
X63953059Y-93608660D01*
X63593770Y-93459470D01*
X63204737Y-93459131D01*
X62845188Y-93607693D01*
X62661766Y-93790796D01*
X62530659Y-93659460D01*
X62171370Y-93510270D01*
X61782337Y-93509931D01*
X61422788Y-93658493D01*
X61147460Y-93933341D01*
X60998270Y-94292630D01*
X60997931Y-94681663D01*
X61146493Y-95041212D01*
X61421341Y-95316540D01*
X61468000Y-95335915D01*
X61468000Y-96174612D01*
X60919412Y-96723200D01*
X57292189Y-96723200D01*
X56134000Y-95565012D01*
X56134000Y-90779600D01*
X56079863Y-90507436D01*
X56000359Y-90388450D01*
X55925694Y-90276705D01*
X55672292Y-90023303D01*
X65750271Y-90023303D01*
X65898833Y-90382852D01*
X66173681Y-90658180D01*
X66532970Y-90807370D01*
X66922003Y-90807709D01*
X67281552Y-90659147D01*
X67556880Y-90384299D01*
X67706070Y-90025010D01*
X67706216Y-89857552D01*
X67790008Y-89773760D01*
X68309526Y-89773760D01*
X68426661Y-89891100D01*
X68785950Y-90040290D01*
X69174983Y-90040629D01*
X69534532Y-89892067D01*
X69809860Y-89617219D01*
X69959050Y-89257930D01*
X69959389Y-88868897D01*
X69810827Y-88509348D01*
X69535979Y-88234020D01*
X69176690Y-88084830D01*
X68787657Y-88084491D01*
X68428108Y-88233053D01*
X68309594Y-88351360D01*
X67495420Y-88351360D01*
X67223255Y-88405497D01*
X66992526Y-88559666D01*
X66700477Y-88851715D01*
X66534677Y-88851571D01*
X66175128Y-89000133D01*
X65899800Y-89274981D01*
X65750610Y-89634270D01*
X65750271Y-90023303D01*
X55672292Y-90023303D01*
X54168473Y-88519485D01*
X54219093Y-88265000D01*
X54106054Y-87696715D01*
X54098814Y-87685880D01*
X64640460Y-87685880D01*
X64941785Y-87625943D01*
X65197236Y-87455256D01*
X68410852Y-84241640D01*
X71667608Y-84241640D01*
X71706622Y-84280654D01*
X71706622Y-84280654D01*
G37*
X71706622Y-84280654D02*
X71706571Y-84338783D01*
X71855133Y-84698332D01*
X72129981Y-84973660D01*
X72489270Y-85122850D01*
X72859900Y-85123173D01*
X72859900Y-86614000D01*
X72935305Y-86993086D01*
X73150040Y-87314460D01*
X75309040Y-89473460D01*
X75630414Y-89688195D01*
X76009500Y-89763600D01*
X79158215Y-89763600D01*
X79133870Y-89822230D01*
X79133531Y-90211263D01*
X79282093Y-90570812D01*
X79556941Y-90846140D01*
X79756000Y-90928797D01*
X79756000Y-94132400D01*
X79809229Y-94400000D01*
X79817871Y-94443445D01*
X79994064Y-94707136D01*
X83355728Y-98068800D01*
X73622559Y-98068800D01*
X73489507Y-97746788D01*
X73214659Y-97471460D01*
X72855370Y-97322270D01*
X72466337Y-97321931D01*
X72106788Y-97470493D01*
X71831460Y-97745341D01*
X71682270Y-98104630D01*
X71681931Y-98493663D01*
X71830493Y-98853212D01*
X72105341Y-99128540D01*
X72464630Y-99277730D01*
X72632087Y-99277876D01*
X72637106Y-99282895D01*
X72867836Y-99437063D01*
X73140000Y-99491200D01*
X77242560Y-99491200D01*
X77242560Y-101180000D01*
X77286838Y-101415317D01*
X77425910Y-101631441D01*
X77638110Y-101776431D01*
X77705541Y-101790086D01*
X77660853Y-101819946D01*
X77338946Y-102301715D01*
X77225907Y-102870000D01*
X77338946Y-103438285D01*
X77660853Y-103920054D01*
X78142622Y-104241961D01*
X78710907Y-104355000D01*
X78769093Y-104355000D01*
X79337378Y-104241961D01*
X79518484Y-104120950D01*
X85555400Y-104120950D01*
X85555400Y-104611510D01*
X85652073Y-104844899D01*
X85830702Y-105023527D01*
X86064091Y-105120200D01*
X86654650Y-105120200D01*
X86813400Y-104961450D01*
X86813400Y-103962200D01*
X85714150Y-103962200D01*
X85555400Y-104120950D01*
X79518484Y-104120950D01*
X79819147Y-103920054D01*
X80141054Y-103438285D01*
X80254093Y-102870000D01*
X80141054Y-102301715D01*
X79819147Y-101819946D01*
X79777548Y-101792150D01*
X79825317Y-101783162D01*
X80041441Y-101644090D01*
X80186431Y-101431890D01*
X80237440Y-101180000D01*
X80237440Y-99491200D01*
X83765412Y-99491200D01*
X86824412Y-102550200D01*
X86813398Y-102550200D01*
X86813398Y-102708948D01*
X86654650Y-102550200D01*
X86064091Y-102550200D01*
X85830702Y-102646873D01*
X85652073Y-102825501D01*
X85555400Y-103058890D01*
X85555400Y-103549450D01*
X85714150Y-103708200D01*
X86813400Y-103708200D01*
X86813400Y-103688200D01*
X87067400Y-103688200D01*
X87067400Y-103708200D01*
X87087400Y-103708200D01*
X87087400Y-103962200D01*
X87067400Y-103962200D01*
X87067400Y-104961450D01*
X87226150Y-105120200D01*
X87272187Y-105120200D01*
X87271931Y-105413663D01*
X87420493Y-105773212D01*
X87695341Y-106048540D01*
X88054630Y-106197730D01*
X88443663Y-106198069D01*
X88803212Y-106049507D01*
X89078540Y-105774659D01*
X89227730Y-105415370D01*
X89227976Y-105132640D01*
X89932052Y-105132640D01*
X90017600Y-105218188D01*
X90017600Y-106029811D01*
X89926212Y-106121200D01*
X89560400Y-106121200D01*
X89333390Y-106166355D01*
X89288235Y-106175337D01*
X89057505Y-106329506D01*
X88336949Y-107050063D01*
X87961009Y-107049735D01*
X87396629Y-107282932D01*
X86994677Y-107684182D01*
X86595643Y-107284449D01*
X86031670Y-107050267D01*
X85421009Y-107049735D01*
X85261451Y-107115663D01*
X85115374Y-106969586D01*
X84884645Y-106815417D01*
X84789974Y-106796586D01*
X83611688Y-105618300D01*
X83380959Y-105464131D01*
X83108794Y-105409994D01*
X73505002Y-105409994D01*
X70479945Y-102384937D01*
X70480089Y-102219137D01*
X70331527Y-101859588D01*
X70056679Y-101584260D01*
X69697390Y-101435070D01*
X69308357Y-101434731D01*
X68948808Y-101583293D01*
X68673480Y-101858141D01*
X68524290Y-102217430D01*
X68523951Y-102606463D01*
X68672513Y-102966012D01*
X68947361Y-103241340D01*
X69306650Y-103390530D01*
X69474108Y-103390676D01*
X71798228Y-105714796D01*
X67995909Y-105714796D01*
X67995969Y-105645597D01*
X67847407Y-105286048D01*
X67572559Y-105010720D01*
X67213270Y-104861530D01*
X66824237Y-104861191D01*
X66464688Y-105009753D01*
X66371619Y-105102660D01*
X66357500Y-105102660D01*
X66075615Y-105158730D01*
X65836645Y-105318405D01*
X65699330Y-105455720D01*
X63601914Y-105455720D01*
X63347602Y-105201408D01*
X63347602Y-104213758D01*
X63429503Y-104213829D01*
X63789052Y-104065267D01*
X64064380Y-103790419D01*
X64213570Y-103431130D01*
X64213871Y-103085868D01*
X64221704Y-103046486D01*
X64326441Y-102979090D01*
X64471431Y-102766890D01*
X64494778Y-102651600D01*
X64848700Y-102651600D01*
X65130585Y-102595530D01*
X65369555Y-102435855D01*
X66560855Y-101244555D01*
X66565793Y-101237165D01*
X66609041Y-101172440D01*
X66690000Y-101172440D01*
X66925317Y-101128162D01*
X67141441Y-100989090D01*
X67286431Y-100776890D01*
X67329866Y-100562400D01*
X69538848Y-100562400D01*
X70061982Y-101085534D01*
X70061931Y-101143663D01*
X70210493Y-101503212D01*
X70485341Y-101778540D01*
X70844630Y-101927730D01*
X71233663Y-101928069D01*
X71593212Y-101779507D01*
X71868540Y-101504659D01*
X72017730Y-101145370D01*
X72018069Y-100756337D01*
X71869507Y-100396788D01*
X71594659Y-100121460D01*
X71235370Y-99972270D01*
X71175770Y-99972218D01*
X70421776Y-99218224D01*
X70166325Y-99047537D01*
X69865000Y-98987600D01*
X67330403Y-98987600D01*
X67293162Y-98789683D01*
X67154090Y-98573559D01*
X66941890Y-98428569D01*
X66928803Y-98425919D01*
X67141441Y-98289090D01*
X67286431Y-98076890D01*
X67337440Y-97825000D01*
X67337440Y-96325000D01*
X67293162Y-96089683D01*
X67154090Y-95873559D01*
X66941890Y-95728569D01*
X66751200Y-95689953D01*
X66751200Y-95667706D01*
X66919340Y-95499859D01*
X67068530Y-95140570D01*
X67068869Y-94751537D01*
X66920307Y-94391988D01*
X66645459Y-94116660D01*
X66286170Y-93967470D01*
X65897137Y-93967131D01*
X65537588Y-94115693D01*
X65262260Y-94390541D01*
X65113070Y-94749830D01*
X65112731Y-95138863D01*
X65261293Y-95498412D01*
X65328800Y-95566037D01*
X65328800Y-95689076D01*
X65154683Y-95721838D01*
X64938559Y-95860910D01*
X64793569Y-96073110D01*
X64742560Y-96325000D01*
X64742560Y-97330730D01*
X63305730Y-98767560D01*
X63125000Y-98767560D01*
X62889683Y-98811838D01*
X62673559Y-98950910D01*
X62528569Y-99163110D01*
X62477560Y-99415000D01*
X62477560Y-99815612D01*
X62026800Y-99364852D01*
X62026800Y-98541788D01*
X63901294Y-96667294D01*
X64055463Y-96436565D01*
X64109600Y-96164400D01*
X64109600Y-95108994D01*
X64226940Y-94991859D01*
X64376130Y-94632570D01*
X64376469Y-94243537D01*
X64227907Y-93883988D01*
X63953059Y-93608660D01*
X63593770Y-93459470D01*
X63204737Y-93459131D01*
X62845188Y-93607693D01*
X62661766Y-93790796D01*
X62530659Y-93659460D01*
X62171370Y-93510270D01*
X61782337Y-93509931D01*
X61422788Y-93658493D01*
X61147460Y-93933341D01*
X60998270Y-94292630D01*
X60997931Y-94681663D01*
X61146493Y-95041212D01*
X61421341Y-95316540D01*
X61468000Y-95335915D01*
X61468000Y-96174612D01*
X60919412Y-96723200D01*
X57292189Y-96723200D01*
X56134000Y-95565012D01*
X56134000Y-90779600D01*
X56079863Y-90507436D01*
X56000359Y-90388450D01*
X55925694Y-90276705D01*
X55672292Y-90023303D01*
X65750271Y-90023303D01*
X65898833Y-90382852D01*
X66173681Y-90658180D01*
X66532970Y-90807370D01*
X66922003Y-90807709D01*
X67281552Y-90659147D01*
X67556880Y-90384299D01*
X67706070Y-90025010D01*
X67706216Y-89857552D01*
X67790008Y-89773760D01*
X68309526Y-89773760D01*
X68426661Y-89891100D01*
X68785950Y-90040290D01*
X69174983Y-90040629D01*
X69534532Y-89892067D01*
X69809860Y-89617219D01*
X69959050Y-89257930D01*
X69959389Y-88868897D01*
X69810827Y-88509348D01*
X69535979Y-88234020D01*
X69176690Y-88084830D01*
X68787657Y-88084491D01*
X68428108Y-88233053D01*
X68309594Y-88351360D01*
X67495420Y-88351360D01*
X67223255Y-88405497D01*
X66992526Y-88559666D01*
X66700477Y-88851715D01*
X66534677Y-88851571D01*
X66175128Y-89000133D01*
X65899800Y-89274981D01*
X65750610Y-89634270D01*
X65750271Y-90023303D01*
X55672292Y-90023303D01*
X54168473Y-88519485D01*
X54219093Y-88265000D01*
X54106054Y-87696715D01*
X54098814Y-87685880D01*
X64640460Y-87685880D01*
X64941785Y-87625943D01*
X65197236Y-87455256D01*
X68410852Y-84241640D01*
X71667608Y-84241640D01*
X71706622Y-84280654D01*
G36*
X50292000Y-93218000D02*
X50312000Y-93218000D01*
X50312000Y-93472000D01*
X50292000Y-93472000D01*
X50292000Y-95758000D01*
X50312000Y-95758000D01*
X50312000Y-96012000D01*
X50292000Y-96012000D01*
X50292000Y-96032000D01*
X50038000Y-96032000D01*
X50038000Y-96012000D01*
X50018000Y-96012000D01*
X50018000Y-95758000D01*
X50038000Y-95758000D01*
X50038000Y-93472000D01*
X50018000Y-93472000D01*
X50018000Y-93218000D01*
X50038000Y-93218000D01*
X50038000Y-93198000D01*
X50292000Y-93198000D01*
X50292000Y-93218000D01*
X50292000Y-93218000D01*
G37*
X50292000Y-93218000D02*
X50312000Y-93218000D01*
X50312000Y-93472000D01*
X50292000Y-93472000D01*
X50292000Y-95758000D01*
X50312000Y-95758000D01*
X50312000Y-96012000D01*
X50292000Y-96012000D01*
X50292000Y-96032000D01*
X50038000Y-96032000D01*
X50038000Y-96012000D01*
X50018000Y-96012000D01*
X50018000Y-95758000D01*
X50038000Y-95758000D01*
X50038000Y-93472000D01*
X50018000Y-93472000D01*
X50018000Y-93218000D01*
X50038000Y-93218000D01*
X50038000Y-93198000D01*
X50292000Y-93198000D01*
X50292000Y-93218000D01*
G36*
X50463569Y-74398110D02*
X50412560Y-74650000D01*
X50412560Y-75850000D01*
X50456838Y-76085317D01*
X50523329Y-76188646D01*
X50521673Y-76190302D01*
X50425000Y-76423691D01*
X50425000Y-76864250D01*
X50583750Y-77023000D01*
X51308000Y-77023000D01*
X51308000Y-77003000D01*
X51562000Y-77003000D01*
X51562000Y-77023000D01*
X52286250Y-77023000D01*
X52445000Y-76864250D01*
X52445000Y-76423691D01*
X52348327Y-76190302D01*
X52346957Y-76188932D01*
X52406431Y-76101890D01*
X52419491Y-76037400D01*
X52633848Y-76037400D01*
X52938224Y-76341776D01*
X53193675Y-76512463D01*
X53247591Y-76523188D01*
X53248789Y-76526086D01*
X53616976Y-76894916D01*
X53672631Y-76918026D01*
X54360000Y-77605395D01*
X54374143Y-77591253D01*
X54553748Y-77770858D01*
X54539605Y-77785000D01*
X55277147Y-78522542D01*
X55510328Y-78463781D01*
X55682522Y-77971900D01*
X55653375Y-77451566D01*
X55510328Y-77106219D01*
X55277149Y-77047459D01*
X55392502Y-76932106D01*
X55385300Y-76924904D01*
X55519234Y-77014396D01*
X55840000Y-77078200D01*
X56348841Y-77078200D01*
X56270907Y-77470000D01*
X56383946Y-78038285D01*
X56705853Y-78520054D01*
X57187622Y-78841961D01*
X57755907Y-78955000D01*
X57814093Y-78955000D01*
X58382378Y-78841961D01*
X58864147Y-78520054D01*
X59100673Y-78166067D01*
X59437206Y-78502600D01*
X59290005Y-78502600D01*
X59290000Y-78502599D01*
X58988675Y-78562537D01*
X58733224Y-78733224D01*
X58304466Y-79161982D01*
X58246337Y-79161931D01*
X57886788Y-79310493D01*
X57611460Y-79585341D01*
X57462270Y-79944630D01*
X57461931Y-80333663D01*
X57610493Y-80693212D01*
X57885341Y-80968540D01*
X58244630Y-81117730D01*
X58633663Y-81118069D01*
X58993212Y-80969507D01*
X59268540Y-80694659D01*
X59417730Y-80335370D01*
X59417782Y-80275770D01*
X59616152Y-80077400D01*
X70523848Y-80077400D01*
X72132848Y-81686400D01*
X67881500Y-81686400D01*
X67502413Y-81761805D01*
X67181040Y-81976540D01*
X64042180Y-85115400D01*
X54575820Y-85115400D01*
X54484960Y-85024540D01*
X54163586Y-84809805D01*
X53829908Y-84743432D01*
X53817661Y-84725103D01*
X54066940Y-84476259D01*
X54216130Y-84116970D01*
X54216469Y-83727937D01*
X54067907Y-83368388D01*
X53793059Y-83093060D01*
X53433770Y-82943870D01*
X53410122Y-82943849D01*
X52597440Y-82131168D01*
X52597440Y-81870000D01*
X52553162Y-81634683D01*
X52414090Y-81418559D01*
X52201890Y-81273569D01*
X52188803Y-81270919D01*
X52401441Y-81134090D01*
X52546431Y-80921890D01*
X52569292Y-80809000D01*
X53162081Y-80809000D01*
X53347830Y-80886130D01*
X53736863Y-80886469D01*
X54096412Y-80737907D01*
X54371740Y-80463059D01*
X54520930Y-80103770D01*
X54521269Y-79714737D01*
X54372707Y-79355188D01*
X54099888Y-79081892D01*
X54173100Y-79107522D01*
X54693434Y-79078375D01*
X55038781Y-78935328D01*
X55097542Y-78702147D01*
X54360000Y-77964605D01*
X53622458Y-78702147D01*
X53680032Y-78930619D01*
X53349537Y-78930331D01*
X53105898Y-79031000D01*
X52571285Y-79031000D01*
X52553162Y-78934683D01*
X52414090Y-78718559D01*
X52201890Y-78573569D01*
X51950000Y-78522560D01*
X50650000Y-78522560D01*
X50414683Y-78566838D01*
X50198559Y-78705910D01*
X50053569Y-78918110D01*
X50002560Y-79170000D01*
X50002560Y-80670000D01*
X50046838Y-80905317D01*
X50185910Y-81121441D01*
X50398110Y-81266431D01*
X50411197Y-81269081D01*
X50198559Y-81405910D01*
X50053569Y-81618110D01*
X50002560Y-81870000D01*
X50002560Y-83370000D01*
X50046838Y-83605317D01*
X50185910Y-83821441D01*
X50398110Y-83966431D01*
X50650000Y-84017440D01*
X51950000Y-84017440D01*
X52147589Y-83980261D01*
X52260350Y-84093023D01*
X52260331Y-84115263D01*
X52339518Y-84306912D01*
X52107622Y-84353039D01*
X51625853Y-84674946D01*
X51625029Y-84676179D01*
X51618162Y-84639683D01*
X51479090Y-84423559D01*
X51266890Y-84278569D01*
X51015000Y-84227560D01*
X49605000Y-84227560D01*
X49605000Y-77435750D01*
X50425000Y-77435750D01*
X50425000Y-77876309D01*
X50521673Y-78109698D01*
X50700301Y-78288327D01*
X50933690Y-78385000D01*
X51149250Y-78385000D01*
X51308000Y-78226250D01*
X51308000Y-77277000D01*
X51562000Y-77277000D01*
X51562000Y-78226250D01*
X51720750Y-78385000D01*
X51936310Y-78385000D01*
X52169699Y-78288327D01*
X52348327Y-78109698D01*
X52445000Y-77876309D01*
X52445000Y-77598100D01*
X53037478Y-77598100D01*
X53066625Y-78118434D01*
X53209672Y-78463781D01*
X53442853Y-78522542D01*
X54180395Y-77785000D01*
X53442853Y-77047458D01*
X53209672Y-77106219D01*
X53037478Y-77598100D01*
X52445000Y-77598100D01*
X52445000Y-77435750D01*
X52286250Y-77277000D01*
X51562000Y-77277000D01*
X51308000Y-77277000D01*
X50583750Y-77277000D01*
X50425000Y-77435750D01*
X49605000Y-77435750D01*
X49605000Y-74370000D01*
X50482776Y-74370000D01*
X50463569Y-74398110D01*
X50463569Y-74398110D01*
G37*
X50463569Y-74398110D02*
X50412560Y-74650000D01*
X50412560Y-75850000D01*
X50456838Y-76085317D01*
X50523329Y-76188646D01*
X50521673Y-76190302D01*
X50425000Y-76423691D01*
X50425000Y-76864250D01*
X50583750Y-77023000D01*
X51308000Y-77023000D01*
X51308000Y-77003000D01*
X51562000Y-77003000D01*
X51562000Y-77023000D01*
X52286250Y-77023000D01*
X52445000Y-76864250D01*
X52445000Y-76423691D01*
X52348327Y-76190302D01*
X52346957Y-76188932D01*
X52406431Y-76101890D01*
X52419491Y-76037400D01*
X52633848Y-76037400D01*
X52938224Y-76341776D01*
X53193675Y-76512463D01*
X53247591Y-76523188D01*
X53248789Y-76526086D01*
X53616976Y-76894916D01*
X53672631Y-76918026D01*
X54360000Y-77605395D01*
X54374143Y-77591253D01*
X54553748Y-77770858D01*
X54539605Y-77785000D01*
X55277147Y-78522542D01*
X55510328Y-78463781D01*
X55682522Y-77971900D01*
X55653375Y-77451566D01*
X55510328Y-77106219D01*
X55277149Y-77047459D01*
X55392502Y-76932106D01*
X55385300Y-76924904D01*
X55519234Y-77014396D01*
X55840000Y-77078200D01*
X56348841Y-77078200D01*
X56270907Y-77470000D01*
X56383946Y-78038285D01*
X56705853Y-78520054D01*
X57187622Y-78841961D01*
X57755907Y-78955000D01*
X57814093Y-78955000D01*
X58382378Y-78841961D01*
X58864147Y-78520054D01*
X59100673Y-78166067D01*
X59437206Y-78502600D01*
X59290005Y-78502600D01*
X59290000Y-78502599D01*
X58988675Y-78562537D01*
X58733224Y-78733224D01*
X58304466Y-79161982D01*
X58246337Y-79161931D01*
X57886788Y-79310493D01*
X57611460Y-79585341D01*
X57462270Y-79944630D01*
X57461931Y-80333663D01*
X57610493Y-80693212D01*
X57885341Y-80968540D01*
X58244630Y-81117730D01*
X58633663Y-81118069D01*
X58993212Y-80969507D01*
X59268540Y-80694659D01*
X59417730Y-80335370D01*
X59417782Y-80275770D01*
X59616152Y-80077400D01*
X70523848Y-80077400D01*
X72132848Y-81686400D01*
X67881500Y-81686400D01*
X67502413Y-81761805D01*
X67181040Y-81976540D01*
X64042180Y-85115400D01*
X54575820Y-85115400D01*
X54484960Y-85024540D01*
X54163586Y-84809805D01*
X53829908Y-84743432D01*
X53817661Y-84725103D01*
X54066940Y-84476259D01*
X54216130Y-84116970D01*
X54216469Y-83727937D01*
X54067907Y-83368388D01*
X53793059Y-83093060D01*
X53433770Y-82943870D01*
X53410122Y-82943849D01*
X52597440Y-82131168D01*
X52597440Y-81870000D01*
X52553162Y-81634683D01*
X52414090Y-81418559D01*
X52201890Y-81273569D01*
X52188803Y-81270919D01*
X52401441Y-81134090D01*
X52546431Y-80921890D01*
X52569292Y-80809000D01*
X53162081Y-80809000D01*
X53347830Y-80886130D01*
X53736863Y-80886469D01*
X54096412Y-80737907D01*
X54371740Y-80463059D01*
X54520930Y-80103770D01*
X54521269Y-79714737D01*
X54372707Y-79355188D01*
X54099888Y-79081892D01*
X54173100Y-79107522D01*
X54693434Y-79078375D01*
X55038781Y-78935328D01*
X55097542Y-78702147D01*
X54360000Y-77964605D01*
X53622458Y-78702147D01*
X53680032Y-78930619D01*
X53349537Y-78930331D01*
X53105898Y-79031000D01*
X52571285Y-79031000D01*
X52553162Y-78934683D01*
X52414090Y-78718559D01*
X52201890Y-78573569D01*
X51950000Y-78522560D01*
X50650000Y-78522560D01*
X50414683Y-78566838D01*
X50198559Y-78705910D01*
X50053569Y-78918110D01*
X50002560Y-79170000D01*
X50002560Y-80670000D01*
X50046838Y-80905317D01*
X50185910Y-81121441D01*
X50398110Y-81266431D01*
X50411197Y-81269081D01*
X50198559Y-81405910D01*
X50053569Y-81618110D01*
X50002560Y-81870000D01*
X50002560Y-83370000D01*
X50046838Y-83605317D01*
X50185910Y-83821441D01*
X50398110Y-83966431D01*
X50650000Y-84017440D01*
X51950000Y-84017440D01*
X52147589Y-83980261D01*
X52260350Y-84093023D01*
X52260331Y-84115263D01*
X52339518Y-84306912D01*
X52107622Y-84353039D01*
X51625853Y-84674946D01*
X51625029Y-84676179D01*
X51618162Y-84639683D01*
X51479090Y-84423559D01*
X51266890Y-84278569D01*
X51015000Y-84227560D01*
X49605000Y-84227560D01*
X49605000Y-77435750D01*
X50425000Y-77435750D01*
X50425000Y-77876309D01*
X50521673Y-78109698D01*
X50700301Y-78288327D01*
X50933690Y-78385000D01*
X51149250Y-78385000D01*
X51308000Y-78226250D01*
X51308000Y-77277000D01*
X51562000Y-77277000D01*
X51562000Y-78226250D01*
X51720750Y-78385000D01*
X51936310Y-78385000D01*
X52169699Y-78288327D01*
X52348327Y-78109698D01*
X52445000Y-77876309D01*
X52445000Y-77598100D01*
X53037478Y-77598100D01*
X53066625Y-78118434D01*
X53209672Y-78463781D01*
X53442853Y-78522542D01*
X54180395Y-77785000D01*
X53442853Y-77047458D01*
X53209672Y-77106219D01*
X53037478Y-77598100D01*
X52445000Y-77598100D01*
X52445000Y-77435750D01*
X52286250Y-77277000D01*
X51562000Y-77277000D01*
X51308000Y-77277000D01*
X50583750Y-77277000D01*
X50425000Y-77435750D01*
X49605000Y-77435750D01*
X49605000Y-74370000D01*
X50482776Y-74370000D01*
X50463569Y-74398110D01*
M02*
