G04 #@! TF.FileFunction,Legend,Bot*
%FSLAX46Y46*%
G04 Gerber Fmt 4.6, Leading zero omitted, Abs format (unit mm)*
G04 Created by KiCad (PCBNEW 4.0.6) date Sunday, June 18, 2017 'PMt' 11:18:17 PM*
%MOMM*%
%LPD*%
G01*
G04 APERTURE LIST*
%ADD10C,0.100000*%
%ADD11C,0.137500*%
%ADD12C,0.200000*%
%ADD13C,0.120000*%
%ADD14C,0.010000*%
%ADD15C,0.150000*%
G04 APERTURE END LIST*
D10*
D11*
X92441663Y-148838810D02*
X92441663Y-148288810D01*
X92174997Y-148288810D01*
X92108330Y-148315000D01*
X92074997Y-148341190D01*
X92041663Y-148393571D01*
X92041663Y-148472143D01*
X92074997Y-148524524D01*
X92108330Y-148550714D01*
X92174997Y-148576905D01*
X92441663Y-148576905D01*
X91774997Y-148681667D02*
X91441663Y-148681667D01*
X91841663Y-148838810D02*
X91608330Y-148288810D01*
X91374997Y-148838810D01*
X91141663Y-148838810D02*
X91141663Y-148288810D01*
X90874997Y-148288810D01*
X90808330Y-148315000D01*
X90774997Y-148341190D01*
X90741663Y-148393571D01*
X90741663Y-148472143D01*
X90774997Y-148524524D01*
X90808330Y-148550714D01*
X90874997Y-148576905D01*
X91141663Y-148576905D01*
X90441663Y-148550714D02*
X90208330Y-148550714D01*
X90108330Y-148838810D02*
X90441663Y-148838810D01*
X90441663Y-148288810D01*
X90108330Y-148288810D01*
X89408330Y-148838810D02*
X89641664Y-148576905D01*
X89808330Y-148838810D02*
X89808330Y-148288810D01*
X89541664Y-148288810D01*
X89474997Y-148315000D01*
X89441664Y-148341190D01*
X89408330Y-148393571D01*
X89408330Y-148472143D01*
X89441664Y-148524524D01*
X89474997Y-148550714D01*
X89541664Y-148576905D01*
X89808330Y-148576905D01*
X88874997Y-148550714D02*
X88774997Y-148576905D01*
X88741664Y-148603095D01*
X88708330Y-148655476D01*
X88708330Y-148734048D01*
X88741664Y-148786429D01*
X88774997Y-148812619D01*
X88841664Y-148838810D01*
X89108330Y-148838810D01*
X89108330Y-148288810D01*
X88874997Y-148288810D01*
X88808330Y-148315000D01*
X88774997Y-148341190D01*
X88741664Y-148393571D01*
X88741664Y-148445952D01*
X88774997Y-148498333D01*
X88808330Y-148524524D01*
X88874997Y-148550714D01*
X89108330Y-148550714D01*
X88441664Y-148681667D02*
X88108330Y-148681667D01*
X88508330Y-148838810D02*
X88274997Y-148288810D01*
X88041664Y-148838810D01*
X87408330Y-148786429D02*
X87441664Y-148812619D01*
X87541664Y-148838810D01*
X87608330Y-148838810D01*
X87708330Y-148812619D01*
X87774997Y-148760238D01*
X87808330Y-148707857D01*
X87841664Y-148603095D01*
X87841664Y-148524524D01*
X87808330Y-148419762D01*
X87774997Y-148367381D01*
X87708330Y-148315000D01*
X87608330Y-148288810D01*
X87541664Y-148288810D01*
X87441664Y-148315000D01*
X87408330Y-148341190D01*
X87108330Y-148838810D02*
X87108330Y-148288810D01*
X86708330Y-148838810D02*
X87008330Y-148524524D01*
X86708330Y-148288810D02*
X87108330Y-148603095D01*
X85941664Y-148472143D02*
X85774997Y-148838810D01*
X85608331Y-148472143D01*
X85341664Y-148786429D02*
X85308331Y-148812619D01*
X85341664Y-148838810D01*
X85374998Y-148812619D01*
X85341664Y-148786429D01*
X85341664Y-148838810D01*
X85041665Y-148341190D02*
X85008331Y-148315000D01*
X84941665Y-148288810D01*
X84774998Y-148288810D01*
X84708331Y-148315000D01*
X84674998Y-148341190D01*
X84641665Y-148393571D01*
X84641665Y-148445952D01*
X84674998Y-148524524D01*
X85074998Y-148838810D01*
X84641665Y-148838810D01*
X83541665Y-148812619D02*
X83608331Y-148838810D01*
X83741665Y-148838810D01*
X83808331Y-148812619D01*
X83841665Y-148760238D01*
X83841665Y-148550714D01*
X83808331Y-148498333D01*
X83741665Y-148472143D01*
X83608331Y-148472143D01*
X83541665Y-148498333D01*
X83508331Y-148550714D01*
X83508331Y-148603095D01*
X83841665Y-148655476D01*
X83208331Y-148838810D02*
X83208331Y-148288810D01*
X82941665Y-148288810D01*
X82874998Y-148315000D01*
X82841665Y-148341190D01*
X82808331Y-148393571D01*
X82808331Y-148472143D01*
X82841665Y-148524524D01*
X82874998Y-148550714D01*
X82941665Y-148576905D01*
X83208331Y-148576905D01*
X82508331Y-148838810D02*
X82508331Y-148288810D01*
X82341665Y-148288810D01*
X82241665Y-148315000D01*
X82174998Y-148367381D01*
X82141665Y-148419762D01*
X82108331Y-148524524D01*
X82108331Y-148603095D01*
X82141665Y-148707857D01*
X82174998Y-148760238D01*
X82241665Y-148812619D01*
X82341665Y-148838810D01*
X82508331Y-148838810D01*
X81041665Y-148550714D02*
X80941665Y-148576905D01*
X80908332Y-148603095D01*
X80874998Y-148655476D01*
X80874998Y-148734048D01*
X80908332Y-148786429D01*
X80941665Y-148812619D01*
X81008332Y-148838810D01*
X81274998Y-148838810D01*
X81274998Y-148288810D01*
X81041665Y-148288810D01*
X80974998Y-148315000D01*
X80941665Y-148341190D01*
X80908332Y-148393571D01*
X80908332Y-148445952D01*
X80941665Y-148498333D01*
X80974998Y-148524524D01*
X81041665Y-148550714D01*
X81274998Y-148550714D01*
X80574998Y-148838810D02*
X80574998Y-148472143D01*
X80574998Y-148576905D02*
X80541665Y-148524524D01*
X80508332Y-148498333D01*
X80441665Y-148472143D01*
X80374998Y-148472143D01*
X79874999Y-148812619D02*
X79941665Y-148838810D01*
X80074999Y-148838810D01*
X80141665Y-148812619D01*
X80174999Y-148760238D01*
X80174999Y-148550714D01*
X80141665Y-148498333D01*
X80074999Y-148472143D01*
X79941665Y-148472143D01*
X79874999Y-148498333D01*
X79841665Y-148550714D01*
X79841665Y-148603095D01*
X80174999Y-148655476D01*
X79241665Y-148838810D02*
X79241665Y-148550714D01*
X79274999Y-148498333D01*
X79341665Y-148472143D01*
X79474999Y-148472143D01*
X79541665Y-148498333D01*
X79241665Y-148812619D02*
X79308332Y-148838810D01*
X79474999Y-148838810D01*
X79541665Y-148812619D01*
X79574999Y-148760238D01*
X79574999Y-148707857D01*
X79541665Y-148655476D01*
X79474999Y-148629286D01*
X79308332Y-148629286D01*
X79241665Y-148603095D01*
X78908332Y-148838810D02*
X78908332Y-148288810D01*
X78841666Y-148629286D02*
X78641666Y-148838810D01*
X78641666Y-148472143D02*
X78908332Y-148681667D01*
X78241665Y-148838810D02*
X78308332Y-148812619D01*
X78341665Y-148786429D01*
X78374999Y-148734048D01*
X78374999Y-148576905D01*
X78341665Y-148524524D01*
X78308332Y-148498333D01*
X78241665Y-148472143D01*
X78141665Y-148472143D01*
X78074999Y-148498333D01*
X78041665Y-148524524D01*
X78008332Y-148576905D01*
X78008332Y-148734048D01*
X78041665Y-148786429D01*
X78074999Y-148812619D01*
X78141665Y-148838810D01*
X78241665Y-148838810D01*
X77408332Y-148472143D02*
X77408332Y-148838810D01*
X77708332Y-148472143D02*
X77708332Y-148760238D01*
X77674999Y-148812619D01*
X77608332Y-148838810D01*
X77508332Y-148838810D01*
X77441666Y-148812619D01*
X77408332Y-148786429D01*
X77174999Y-148472143D02*
X76908333Y-148472143D01*
X77074999Y-148288810D02*
X77074999Y-148760238D01*
X77041666Y-148812619D01*
X76974999Y-148838810D01*
X76908333Y-148838810D01*
X76641666Y-148812619D02*
X76641666Y-148838810D01*
X76674999Y-148891190D01*
X76708333Y-148917381D01*
X75508333Y-148472143D02*
X75508333Y-148838810D01*
X75808333Y-148472143D02*
X75808333Y-148760238D01*
X75775000Y-148812619D01*
X75708333Y-148838810D01*
X75608333Y-148838810D01*
X75541667Y-148812619D01*
X75508333Y-148786429D01*
X74775000Y-148786429D02*
X74808334Y-148812619D01*
X74908334Y-148838810D01*
X74975000Y-148838810D01*
X75075000Y-148812619D01*
X75141667Y-148760238D01*
X75175000Y-148707857D01*
X75208334Y-148603095D01*
X75208334Y-148524524D01*
X75175000Y-148419762D01*
X75141667Y-148367381D01*
X75075000Y-148315000D01*
X74975000Y-148288810D01*
X74908334Y-148288810D01*
X74808334Y-148315000D01*
X74775000Y-148341190D01*
X74441667Y-148812619D02*
X74441667Y-148838810D01*
X74475000Y-148891190D01*
X74508334Y-148917381D01*
X73308334Y-148838810D02*
X73308334Y-148550714D01*
X73341668Y-148498333D01*
X73408334Y-148472143D01*
X73541668Y-148472143D01*
X73608334Y-148498333D01*
X73308334Y-148812619D02*
X73375001Y-148838810D01*
X73541668Y-148838810D01*
X73608334Y-148812619D01*
X73641668Y-148760238D01*
X73641668Y-148707857D01*
X73608334Y-148655476D01*
X73541668Y-148629286D01*
X73375001Y-148629286D01*
X73308334Y-148603095D01*
X72975001Y-148472143D02*
X72975001Y-148838810D01*
X72975001Y-148524524D02*
X72941668Y-148498333D01*
X72875001Y-148472143D01*
X72775001Y-148472143D01*
X72708335Y-148498333D01*
X72675001Y-148550714D01*
X72675001Y-148838810D01*
X72041668Y-148838810D02*
X72041668Y-148288810D01*
X72041668Y-148812619D02*
X72108335Y-148838810D01*
X72241668Y-148838810D01*
X72308335Y-148812619D01*
X72341668Y-148786429D01*
X72375002Y-148734048D01*
X72375002Y-148576905D01*
X72341668Y-148524524D01*
X72308335Y-148498333D01*
X72241668Y-148472143D01*
X72108335Y-148472143D01*
X72041668Y-148498333D01*
X70941669Y-148550714D02*
X70841669Y-148576905D01*
X70808336Y-148603095D01*
X70775002Y-148655476D01*
X70775002Y-148734048D01*
X70808336Y-148786429D01*
X70841669Y-148812619D01*
X70908336Y-148838810D01*
X71175002Y-148838810D01*
X71175002Y-148288810D01*
X70941669Y-148288810D01*
X70875002Y-148315000D01*
X70841669Y-148341190D01*
X70808336Y-148393571D01*
X70808336Y-148445952D01*
X70841669Y-148498333D01*
X70875002Y-148524524D01*
X70941669Y-148550714D01*
X71175002Y-148550714D01*
X70508336Y-148341190D02*
X70475002Y-148315000D01*
X70408336Y-148288810D01*
X70241669Y-148288810D01*
X70175002Y-148315000D01*
X70141669Y-148341190D01*
X70108336Y-148393571D01*
X70108336Y-148445952D01*
X70141669Y-148524524D01*
X70541669Y-148838810D01*
X70108336Y-148838810D01*
X69575002Y-148550714D02*
X69475002Y-148576905D01*
X69441669Y-148603095D01*
X69408335Y-148655476D01*
X69408335Y-148734048D01*
X69441669Y-148786429D01*
X69475002Y-148812619D01*
X69541669Y-148838810D01*
X69808335Y-148838810D01*
X69808335Y-148288810D01*
X69575002Y-148288810D01*
X69508335Y-148315000D01*
X69475002Y-148341190D01*
X69441669Y-148393571D01*
X69441669Y-148445952D01*
X69475002Y-148498333D01*
X69508335Y-148524524D01*
X69575002Y-148550714D01*
X69808335Y-148550714D01*
X68175002Y-148786429D02*
X68208336Y-148812619D01*
X68308336Y-148838810D01*
X68375002Y-148838810D01*
X68475002Y-148812619D01*
X68541669Y-148760238D01*
X68575002Y-148707857D01*
X68608336Y-148603095D01*
X68608336Y-148524524D01*
X68575002Y-148419762D01*
X68541669Y-148367381D01*
X68475002Y-148315000D01*
X68375002Y-148288810D01*
X68308336Y-148288810D01*
X68208336Y-148315000D01*
X68175002Y-148341190D01*
X67775002Y-148838810D02*
X67841669Y-148812619D01*
X67875002Y-148786429D01*
X67908336Y-148734048D01*
X67908336Y-148576905D01*
X67875002Y-148524524D01*
X67841669Y-148498333D01*
X67775002Y-148472143D01*
X67675002Y-148472143D01*
X67608336Y-148498333D01*
X67575002Y-148524524D01*
X67541669Y-148576905D01*
X67541669Y-148734048D01*
X67575002Y-148786429D01*
X67608336Y-148812619D01*
X67675002Y-148838810D01*
X67775002Y-148838810D01*
X67241669Y-148472143D02*
X67241669Y-148838810D01*
X67241669Y-148524524D02*
X67208336Y-148498333D01*
X67141669Y-148472143D01*
X67041669Y-148472143D01*
X66975003Y-148498333D01*
X66941669Y-148550714D01*
X66941669Y-148838810D01*
X66608336Y-148472143D02*
X66608336Y-148838810D01*
X66608336Y-148524524D02*
X66575003Y-148498333D01*
X66508336Y-148472143D01*
X66408336Y-148472143D01*
X66341670Y-148498333D01*
X66308336Y-148550714D01*
X66308336Y-148838810D01*
D12*
X90742857Y-110624286D02*
X91009524Y-110624286D01*
X91009524Y-111106190D02*
X91009524Y-110186190D01*
X90628571Y-110186190D01*
X90209524Y-111106190D02*
X90285715Y-111062381D01*
X90323810Y-111018571D01*
X90361905Y-110930952D01*
X90361905Y-110668095D01*
X90323810Y-110580476D01*
X90285715Y-110536667D01*
X90209524Y-110492857D01*
X90095238Y-110492857D01*
X90019048Y-110536667D01*
X89980953Y-110580476D01*
X89942857Y-110668095D01*
X89942857Y-110930952D01*
X89980953Y-111018571D01*
X90019048Y-111062381D01*
X90095238Y-111106190D01*
X90209524Y-111106190D01*
X89600000Y-111106190D02*
X89600000Y-110492857D01*
X89600000Y-110668095D02*
X89561905Y-110580476D01*
X89523809Y-110536667D01*
X89447619Y-110492857D01*
X89371428Y-110492857D01*
X88495238Y-111106190D02*
X88495238Y-110186190D01*
X88190476Y-110186190D01*
X88114285Y-110230000D01*
X88076190Y-110273810D01*
X88038095Y-110361429D01*
X88038095Y-110492857D01*
X88076190Y-110580476D01*
X88114285Y-110624286D01*
X88190476Y-110668095D01*
X88495238Y-110668095D01*
X87352381Y-111106190D02*
X87352381Y-110624286D01*
X87390476Y-110536667D01*
X87466666Y-110492857D01*
X87619047Y-110492857D01*
X87695238Y-110536667D01*
X87352381Y-111062381D02*
X87428571Y-111106190D01*
X87619047Y-111106190D01*
X87695238Y-111062381D01*
X87733333Y-110974762D01*
X87733333Y-110887143D01*
X87695238Y-110799524D01*
X87619047Y-110755714D01*
X87428571Y-110755714D01*
X87352381Y-110711905D01*
X86971428Y-110492857D02*
X86971428Y-111412857D01*
X86971428Y-110536667D02*
X86895237Y-110492857D01*
X86742856Y-110492857D01*
X86666666Y-110536667D01*
X86628571Y-110580476D01*
X86590475Y-110668095D01*
X86590475Y-110930952D01*
X86628571Y-111018571D01*
X86666666Y-111062381D01*
X86742856Y-111106190D01*
X86895237Y-111106190D01*
X86971428Y-111062381D01*
X85904761Y-111106190D02*
X85904761Y-110624286D01*
X85942856Y-110536667D01*
X86019046Y-110492857D01*
X86171427Y-110492857D01*
X86247618Y-110536667D01*
X85904761Y-111062381D02*
X85980951Y-111106190D01*
X86171427Y-111106190D01*
X86247618Y-111062381D01*
X86285713Y-110974762D01*
X86285713Y-110887143D01*
X86247618Y-110799524D01*
X86171427Y-110755714D01*
X85980951Y-110755714D01*
X85904761Y-110711905D01*
X90590476Y-112686190D02*
X91047619Y-112686190D01*
X90819048Y-112686190D02*
X90819048Y-111766190D01*
X90895238Y-111897619D01*
X90971429Y-111985238D01*
X91047619Y-112029048D01*
X90209524Y-112686190D02*
X90057143Y-112686190D01*
X89980952Y-112642381D01*
X89942857Y-112598571D01*
X89866666Y-112467143D01*
X89828571Y-112291905D01*
X89828571Y-111941429D01*
X89866666Y-111853810D01*
X89904762Y-111810000D01*
X89980952Y-111766190D01*
X90133333Y-111766190D01*
X90209524Y-111810000D01*
X90247619Y-111853810D01*
X90285714Y-111941429D01*
X90285714Y-112160476D01*
X90247619Y-112248095D01*
X90209524Y-112291905D01*
X90133333Y-112335714D01*
X89980952Y-112335714D01*
X89904762Y-112291905D01*
X89866666Y-112248095D01*
X89828571Y-112160476D01*
X89561904Y-111766190D02*
X89066666Y-111766190D01*
X89333333Y-112116667D01*
X89219047Y-112116667D01*
X89142857Y-112160476D01*
X89104761Y-112204286D01*
X89066666Y-112291905D01*
X89066666Y-112510952D01*
X89104761Y-112598571D01*
X89142857Y-112642381D01*
X89219047Y-112686190D01*
X89447619Y-112686190D01*
X89523809Y-112642381D01*
X89561904Y-112598571D01*
X88761904Y-111853810D02*
X88723809Y-111810000D01*
X88647618Y-111766190D01*
X88457142Y-111766190D01*
X88380952Y-111810000D01*
X88342856Y-111853810D01*
X88304761Y-111941429D01*
X88304761Y-112029048D01*
X88342856Y-112160476D01*
X88799999Y-112686190D01*
X88304761Y-112686190D01*
X87961904Y-112335714D02*
X87352380Y-112335714D01*
X87009523Y-111853810D02*
X86971428Y-111810000D01*
X86895237Y-111766190D01*
X86704761Y-111766190D01*
X86628571Y-111810000D01*
X86590475Y-111853810D01*
X86552380Y-111941429D01*
X86552380Y-112029048D01*
X86590475Y-112160476D01*
X87047618Y-112686190D01*
X86552380Y-112686190D01*
X86057142Y-111766190D02*
X85980951Y-111766190D01*
X85904761Y-111810000D01*
X85866666Y-111853810D01*
X85828570Y-111941429D01*
X85790475Y-112116667D01*
X85790475Y-112335714D01*
X85828570Y-112510952D01*
X85866666Y-112598571D01*
X85904761Y-112642381D01*
X85980951Y-112686190D01*
X86057142Y-112686190D01*
X86133332Y-112642381D01*
X86171428Y-112598571D01*
X86209523Y-112510952D01*
X86247618Y-112335714D01*
X86247618Y-112116667D01*
X86209523Y-111941429D01*
X86171428Y-111853810D01*
X86133332Y-111810000D01*
X86057142Y-111766190D01*
X85028570Y-112686190D02*
X85485713Y-112686190D01*
X85257142Y-112686190D02*
X85257142Y-111766190D01*
X85333332Y-111897619D01*
X85409523Y-111985238D01*
X85485713Y-112029048D01*
X84761903Y-111766190D02*
X84228570Y-111766190D01*
X84571427Y-112686190D01*
X91047619Y-114003333D02*
X90666667Y-114003333D01*
X91123810Y-114266190D02*
X90857143Y-113346190D01*
X90590476Y-114266190D01*
X89828572Y-113346190D02*
X89371429Y-113346190D01*
X89600000Y-114266190D02*
X89600000Y-113346190D01*
X89104762Y-114266190D02*
X89104762Y-113652857D01*
X89104762Y-113828095D02*
X89066667Y-113740476D01*
X89028571Y-113696667D01*
X88952381Y-113652857D01*
X88876190Y-113652857D01*
X88266667Y-113652857D02*
X88266667Y-114266190D01*
X88609524Y-113652857D02*
X88609524Y-114134762D01*
X88571429Y-114222381D01*
X88495238Y-114266190D01*
X88380952Y-114266190D01*
X88304762Y-114222381D01*
X88266667Y-114178571D01*
X87580952Y-114222381D02*
X87657142Y-114266190D01*
X87809523Y-114266190D01*
X87885714Y-114222381D01*
X87923809Y-114134762D01*
X87923809Y-113784286D01*
X87885714Y-113696667D01*
X87809523Y-113652857D01*
X87657142Y-113652857D01*
X87580952Y-113696667D01*
X87542857Y-113784286D01*
X87542857Y-113871905D01*
X87923809Y-113959524D01*
X86438095Y-113346190D02*
X86285714Y-113346190D01*
X86209523Y-113390000D01*
X86133333Y-113477619D01*
X86095238Y-113652857D01*
X86095238Y-113959524D01*
X86133333Y-114134762D01*
X86209523Y-114222381D01*
X86285714Y-114266190D01*
X86438095Y-114266190D01*
X86514285Y-114222381D01*
X86590476Y-114134762D01*
X86628571Y-113959524D01*
X86628571Y-113652857D01*
X86590476Y-113477619D01*
X86514285Y-113390000D01*
X86438095Y-113346190D01*
X85752381Y-114266190D02*
X85752381Y-113652857D01*
X85752381Y-113828095D02*
X85714286Y-113740476D01*
X85676190Y-113696667D01*
X85600000Y-113652857D01*
X85523809Y-113652857D01*
X85257143Y-114266190D02*
X85257143Y-113652857D01*
X85257143Y-113346190D02*
X85295238Y-113390000D01*
X85257143Y-113433810D01*
X85219048Y-113390000D01*
X85257143Y-113346190D01*
X85257143Y-113433810D01*
X84533334Y-113652857D02*
X84533334Y-114397619D01*
X84571429Y-114485238D01*
X84609524Y-114529048D01*
X84685715Y-114572857D01*
X84800000Y-114572857D01*
X84876191Y-114529048D01*
X84533334Y-114222381D02*
X84609524Y-114266190D01*
X84761905Y-114266190D01*
X84838096Y-114222381D01*
X84876191Y-114178571D01*
X84914286Y-114090952D01*
X84914286Y-113828095D01*
X84876191Y-113740476D01*
X84838096Y-113696667D01*
X84761905Y-113652857D01*
X84609524Y-113652857D01*
X84533334Y-113696667D01*
X84152381Y-114266190D02*
X84152381Y-113652857D01*
X84152381Y-113346190D02*
X84190476Y-113390000D01*
X84152381Y-113433810D01*
X84114286Y-113390000D01*
X84152381Y-113346190D01*
X84152381Y-113433810D01*
X83771429Y-113652857D02*
X83771429Y-114266190D01*
X83771429Y-113740476D02*
X83733334Y-113696667D01*
X83657143Y-113652857D01*
X83542857Y-113652857D01*
X83466667Y-113696667D01*
X83428572Y-113784286D01*
X83428572Y-114266190D01*
X82704762Y-114266190D02*
X82704762Y-113784286D01*
X82742857Y-113696667D01*
X82819047Y-113652857D01*
X82971428Y-113652857D01*
X83047619Y-113696667D01*
X82704762Y-114222381D02*
X82780952Y-114266190D01*
X82971428Y-114266190D01*
X83047619Y-114222381D01*
X83085714Y-114134762D01*
X83085714Y-114047143D01*
X83047619Y-113959524D01*
X82971428Y-113915714D01*
X82780952Y-113915714D01*
X82704762Y-113871905D01*
X82209523Y-114266190D02*
X82285714Y-114222381D01*
X82323809Y-114134762D01*
X82323809Y-113346190D01*
D13*
X64100000Y-101315000D02*
X64100000Y-100615000D01*
X62900000Y-100615000D02*
X62900000Y-101315000D01*
X51908000Y-123286000D02*
X51908000Y-122586000D01*
X50708000Y-122586000D02*
X50708000Y-123286000D01*
X59020000Y-121254000D02*
X59020000Y-120554000D01*
X57820000Y-120554000D02*
X57820000Y-121254000D01*
X50835000Y-75850000D02*
X50835000Y-76550000D01*
X52035000Y-76550000D02*
X52035000Y-75850000D01*
X87690400Y-104715200D02*
X88890400Y-104715200D01*
X88890400Y-102955200D02*
X87690400Y-102955200D01*
X50420000Y-80670000D02*
X50420000Y-81870000D01*
X52180000Y-81870000D02*
X52180000Y-80670000D01*
X65160000Y-97825000D02*
X65160000Y-99025000D01*
X66920000Y-99025000D02*
X66920000Y-97825000D01*
X93550000Y-145730000D02*
X94750000Y-145730000D01*
X94750000Y-143970000D02*
X93550000Y-143970000D01*
X99950000Y-74020000D02*
X98750000Y-74020000D01*
X98750000Y-75780000D02*
X99950000Y-75780000D01*
D14*
G36*
X95250568Y-110176667D02*
X94978290Y-110177936D01*
X94711923Y-110179976D01*
X94456237Y-110182786D01*
X94216005Y-110186361D01*
X93995997Y-110190701D01*
X93800985Y-110195801D01*
X93635741Y-110201658D01*
X93615410Y-110202532D01*
X93428293Y-110211172D01*
X93277854Y-110219156D01*
X93158976Y-110226953D01*
X93066542Y-110235034D01*
X92995436Y-110243870D01*
X92940539Y-110253932D01*
X92896735Y-110265691D01*
X92884541Y-110269778D01*
X92758747Y-110326288D01*
X92618231Y-110410974D01*
X92472523Y-110517954D01*
X92441597Y-110543166D01*
X92389333Y-110593304D01*
X92330501Y-110660284D01*
X92270477Y-110736490D01*
X92214637Y-110814306D01*
X92168358Y-110886115D01*
X92137015Y-110944301D01*
X92125985Y-110981247D01*
X92127846Y-110987655D01*
X92139561Y-111009509D01*
X92154181Y-111050072D01*
X92173683Y-111115739D01*
X92200046Y-111212904D01*
X92214138Y-111266548D01*
X92228800Y-111309736D01*
X92252293Y-111348946D01*
X92291176Y-111391552D01*
X92352006Y-111444932D01*
X92424667Y-111503339D01*
X92611954Y-111651074D01*
X92611954Y-111750616D01*
X92610887Y-111787095D01*
X92607797Y-111861884D01*
X92602854Y-111971542D01*
X92596224Y-112112627D01*
X92588074Y-112281695D01*
X92578574Y-112475305D01*
X92567890Y-112690014D01*
X92556191Y-112922380D01*
X92543644Y-113168961D01*
X92530416Y-113426313D01*
X92528332Y-113466629D01*
X92515051Y-113724115D01*
X92502420Y-113970458D01*
X92490606Y-114202324D01*
X92479775Y-114416380D01*
X92470093Y-114609290D01*
X92461727Y-114777723D01*
X92454843Y-114918343D01*
X92449607Y-115027818D01*
X92446187Y-115102813D01*
X92444747Y-115139996D01*
X92444711Y-115142436D01*
X92444711Y-115201773D01*
X92092887Y-115201773D01*
X92081101Y-115050209D01*
X92078586Y-115004718D01*
X92075042Y-114921107D01*
X92070590Y-114803051D01*
X92065352Y-114654224D01*
X92059449Y-114478301D01*
X92053001Y-114278957D01*
X92046130Y-114059867D01*
X92038957Y-113824705D01*
X92031602Y-113577146D01*
X92024770Y-113341217D01*
X92016316Y-113047602D01*
X92008821Y-112792910D01*
X92002134Y-112574269D01*
X91996109Y-112388805D01*
X91990597Y-112233645D01*
X91985450Y-112105918D01*
X91980520Y-112002748D01*
X91975658Y-111921265D01*
X91970717Y-111858594D01*
X91965547Y-111811864D01*
X91960002Y-111778200D01*
X91953932Y-111754731D01*
X91947190Y-111738583D01*
X91941638Y-111729596D01*
X91918049Y-111680070D01*
X91903612Y-111606316D01*
X91896884Y-111510794D01*
X91890719Y-111346183D01*
X91809807Y-111327108D01*
X91735603Y-111318911D01*
X91668433Y-111337039D01*
X91658244Y-111341726D01*
X91587591Y-111375417D01*
X91587591Y-111543734D01*
X91583038Y-111654350D01*
X91569786Y-111730957D01*
X91558164Y-111758352D01*
X91552877Y-111771285D01*
X91548554Y-111793720D01*
X91545217Y-111828300D01*
X91542888Y-111877670D01*
X91541590Y-111944476D01*
X91541345Y-112031363D01*
X91542174Y-112140975D01*
X91544101Y-112275958D01*
X91547147Y-112438955D01*
X91551335Y-112632613D01*
X91556686Y-112859576D01*
X91563224Y-113122489D01*
X91570971Y-113423996D01*
X91572744Y-113492117D01*
X91579450Y-113753913D01*
X91585605Y-114003516D01*
X91591148Y-114237788D01*
X91596015Y-114453591D01*
X91600143Y-114647787D01*
X91603468Y-114817239D01*
X91605927Y-114958809D01*
X91607458Y-115069359D01*
X91607998Y-115145751D01*
X91607482Y-115184849D01*
X91606913Y-115189419D01*
X91584305Y-115192675D01*
X91525217Y-115197056D01*
X91434959Y-115202284D01*
X91318837Y-115208081D01*
X91182161Y-115214168D01*
X91030238Y-115220266D01*
X90991304Y-115221730D01*
X90652636Y-115235294D01*
X90312671Y-115250823D01*
X89974655Y-115268068D01*
X89641837Y-115286780D01*
X89317463Y-115306711D01*
X89004779Y-115327611D01*
X88707034Y-115349233D01*
X88427473Y-115371327D01*
X88169344Y-115393645D01*
X87935893Y-115415938D01*
X87730369Y-115437957D01*
X87556017Y-115459453D01*
X87416085Y-115480179D01*
X87313819Y-115499885D01*
X87293107Y-115504993D01*
X87129109Y-115562690D01*
X86987010Y-115644791D01*
X86865532Y-115753453D01*
X86763397Y-115890834D01*
X86679325Y-116059093D01*
X86612038Y-116260387D01*
X86560258Y-116496874D01*
X86522706Y-116770713D01*
X86518488Y-116812397D01*
X86505188Y-116949194D01*
X86354826Y-116976507D01*
X86033460Y-117054528D01*
X85712198Y-117170249D01*
X85397775Y-117320088D01*
X85096927Y-117500464D01*
X84816392Y-117707795D01*
X84582602Y-117918699D01*
X84375563Y-118138168D01*
X84200788Y-118354056D01*
X84051109Y-118576675D01*
X83919355Y-118816338D01*
X83838908Y-118988468D01*
X83704693Y-119344027D01*
X83610776Y-119706931D01*
X83556902Y-120074351D01*
X83542815Y-120443458D01*
X83568261Y-120811422D01*
X83632983Y-121175416D01*
X83736727Y-121532609D01*
X83879236Y-121880172D01*
X84060255Y-122215277D01*
X84141803Y-122342828D01*
X84360245Y-122632915D01*
X84608450Y-122896920D01*
X84882868Y-123133136D01*
X85179951Y-123339853D01*
X85496147Y-123515360D01*
X85827907Y-123657950D01*
X86171681Y-123765912D01*
X86523920Y-123837537D01*
X86881073Y-123871116D01*
X87239592Y-123864939D01*
X87293439Y-123860463D01*
X87488779Y-123839407D01*
X87658434Y-123813292D01*
X87818493Y-123778791D01*
X87985047Y-123732579D01*
X88119379Y-123689736D01*
X88397416Y-123583091D01*
X88674982Y-123449802D01*
X88933469Y-123298978D01*
X88979538Y-123268655D01*
X89062923Y-123213520D01*
X89122964Y-123177953D01*
X89170664Y-123157676D01*
X89217023Y-123148413D01*
X89273045Y-123145889D01*
X89295606Y-123145806D01*
X89500049Y-123132370D01*
X89726439Y-123093909D01*
X89965490Y-123033190D01*
X90207915Y-122952982D01*
X90444426Y-122856054D01*
X90665736Y-122745175D01*
X90695134Y-122728606D01*
X90967426Y-122550241D01*
X91224653Y-122337249D01*
X91461071Y-122095762D01*
X91670940Y-121831912D01*
X91848515Y-121551830D01*
X91913765Y-121427421D01*
X91992892Y-121266485D01*
X93384275Y-121260178D01*
X94775657Y-121253872D01*
X94940322Y-121185093D01*
X95015380Y-121154672D01*
X95074025Y-121132659D01*
X95107041Y-121122440D01*
X95110974Y-121122377D01*
X95120869Y-121143235D01*
X95142131Y-121193695D01*
X95170869Y-121264433D01*
X95183333Y-121295682D01*
X95356454Y-121676550D01*
X95563467Y-122035051D01*
X95801966Y-122369570D01*
X96069542Y-122678487D01*
X96363789Y-122960185D01*
X96682299Y-123213047D01*
X97022664Y-123435454D01*
X97382478Y-123625788D01*
X97759333Y-123782433D01*
X98150822Y-123903769D01*
X98554538Y-123988179D01*
X98968072Y-124034046D01*
X99270307Y-124042297D01*
X99400236Y-124039064D01*
X99541117Y-124031939D01*
X99674077Y-124022048D01*
X99761583Y-124012962D01*
X100186414Y-123939656D01*
X100596761Y-123827347D01*
X100991090Y-123676785D01*
X101367870Y-123488717D01*
X101725569Y-123263891D01*
X102062656Y-123003057D01*
X102324436Y-122761004D01*
X102548968Y-122522528D01*
X102743106Y-122284336D01*
X102914929Y-122035017D01*
X103072515Y-121763163D01*
X103177015Y-121556805D01*
X103340721Y-121169562D01*
X103465763Y-120769798D01*
X103552159Y-120360851D01*
X103599930Y-119946060D01*
X103606559Y-119644160D01*
X101837259Y-119644160D01*
X101831450Y-119865750D01*
X101810930Y-120063351D01*
X101773194Y-120252960D01*
X101715737Y-120450577D01*
X101706735Y-120477551D01*
X101647866Y-120630132D01*
X101572227Y-120794220D01*
X101487346Y-120955119D01*
X101400749Y-121098137D01*
X101355354Y-121163531D01*
X101151917Y-121404352D01*
X100918924Y-121618306D01*
X100660979Y-121802524D01*
X100382687Y-121954140D01*
X100088655Y-122070287D01*
X99783487Y-122148098D01*
X99770006Y-122150572D01*
X99622511Y-122169525D01*
X99449773Y-122179534D01*
X99267396Y-122180578D01*
X99090985Y-122172633D01*
X98936146Y-122155679D01*
X98912520Y-122151799D01*
X98600158Y-122076834D01*
X98303619Y-121964909D01*
X98025786Y-121818429D01*
X97769543Y-121639801D01*
X97537772Y-121431429D01*
X97333359Y-121195720D01*
X97159187Y-120935078D01*
X97018139Y-120651910D01*
X96971555Y-120532637D01*
X96948645Y-120454167D01*
X88841570Y-120454167D01*
X88822324Y-120715224D01*
X88767964Y-120972147D01*
X88678354Y-121220930D01*
X88553361Y-121457567D01*
X88392851Y-121678054D01*
X88318829Y-121760664D01*
X88109567Y-121952081D01*
X87877836Y-122110988D01*
X87628302Y-122234867D01*
X87365635Y-122321201D01*
X87225486Y-122350407D01*
X87106474Y-122363500D01*
X86963256Y-122368899D01*
X86812637Y-122366795D01*
X86671424Y-122357379D01*
X86566920Y-122342936D01*
X86288237Y-122269130D01*
X86028943Y-122159333D01*
X85791558Y-122015811D01*
X85578603Y-121840827D01*
X85392597Y-121636647D01*
X85236060Y-121405537D01*
X85111513Y-121149761D01*
X85051857Y-120981070D01*
X85030053Y-120906500D01*
X85014520Y-120841393D01*
X85004172Y-120775886D01*
X84997922Y-120700115D01*
X84994683Y-120604216D01*
X84993369Y-120478326D01*
X84993243Y-120449016D01*
X84993467Y-120312530D01*
X84995881Y-120208273D01*
X85001348Y-120126682D01*
X85010734Y-120058196D01*
X85024902Y-119993254D01*
X85039147Y-119941256D01*
X85139672Y-119663376D01*
X85272304Y-119412239D01*
X85436809Y-119188121D01*
X85632954Y-118991300D01*
X85860502Y-118822053D01*
X86095636Y-118691771D01*
X86247287Y-118624677D01*
X86386598Y-118576487D01*
X86525988Y-118544579D01*
X86677875Y-118526331D01*
X86854680Y-118519122D01*
X86915246Y-118518719D01*
X87043101Y-118519377D01*
X87140146Y-118522360D01*
X87217367Y-118528909D01*
X87285750Y-118540264D01*
X87356281Y-118557666D01*
X87416974Y-118575364D01*
X87660255Y-118661211D01*
X87873096Y-118764197D01*
X88065175Y-118889698D01*
X88227154Y-119025283D01*
X88415777Y-119227039D01*
X88570091Y-119448692D01*
X88689962Y-119686237D01*
X88775255Y-119935667D01*
X88825836Y-120192979D01*
X88841570Y-120454167D01*
X96948645Y-120454167D01*
X96881169Y-120223056D01*
X96830625Y-119909201D01*
X96819132Y-119594693D01*
X96845897Y-119283149D01*
X96910128Y-118978188D01*
X97011032Y-118683429D01*
X97147816Y-118402491D01*
X97319689Y-118138994D01*
X97525857Y-117896554D01*
X97555386Y-117866523D01*
X97796819Y-117653762D01*
X98058862Y-117475977D01*
X98338072Y-117333977D01*
X98631004Y-117228573D01*
X98934213Y-117160575D01*
X99244255Y-117130793D01*
X99557684Y-117140039D01*
X99871055Y-117189121D01*
X100129631Y-117261025D01*
X100425730Y-117381867D01*
X100701104Y-117537433D01*
X100953022Y-117724993D01*
X101178749Y-117941817D01*
X101375554Y-118185174D01*
X101540702Y-118452335D01*
X101671461Y-118740569D01*
X101704878Y-118834652D01*
X101762636Y-119023922D01*
X101801862Y-119194404D01*
X101825364Y-119363267D01*
X101835949Y-119547679D01*
X101837259Y-119644160D01*
X103606559Y-119644160D01*
X103609094Y-119528764D01*
X103579676Y-119112303D01*
X103511692Y-118700015D01*
X103405162Y-118295240D01*
X103260108Y-117901317D01*
X103153652Y-117669664D01*
X103104272Y-117570106D01*
X103061577Y-117484000D01*
X103028971Y-117418213D01*
X103009858Y-117379614D01*
X103006438Y-117372683D01*
X103021271Y-117358368D01*
X103066596Y-117328862D01*
X103135773Y-117288196D01*
X103222163Y-117240400D01*
X103241242Y-117230169D01*
X103330906Y-117181789D01*
X103405494Y-117140493D01*
X103458150Y-117110155D01*
X103482019Y-117094650D01*
X103482735Y-117093676D01*
X103468621Y-117077291D01*
X103429225Y-117035999D01*
X103368969Y-116974318D01*
X103292275Y-116896764D01*
X103203562Y-116807857D01*
X103182372Y-116786725D01*
X103002157Y-116601425D01*
X102855381Y-116437737D01*
X102740739Y-116294019D01*
X102656923Y-116168627D01*
X102602627Y-116059918D01*
X102602189Y-116058795D01*
X92392447Y-116058795D01*
X92385569Y-116215634D01*
X92378691Y-116372472D01*
X91758409Y-116375473D01*
X91626340Y-116376169D01*
X91460375Y-116377137D01*
X91264349Y-116378351D01*
X91042093Y-116379781D01*
X90797440Y-116381400D01*
X90534223Y-116383180D01*
X90256274Y-116385094D01*
X89967427Y-116387114D01*
X89671514Y-116389211D01*
X89372368Y-116391358D01*
X89073822Y-116393528D01*
X88779708Y-116395692D01*
X88493858Y-116397822D01*
X88220107Y-116399891D01*
X87962286Y-116401871D01*
X87724228Y-116403735D01*
X87509765Y-116405453D01*
X87322732Y-116406999D01*
X87166960Y-116408345D01*
X87046282Y-116409463D01*
X86980951Y-116410137D01*
X86845976Y-116411201D01*
X86747669Y-116410706D01*
X86680905Y-116408289D01*
X86640559Y-116403584D01*
X86621506Y-116396227D01*
X86618619Y-116385855D01*
X86619108Y-116384410D01*
X86630585Y-116344360D01*
X86643338Y-116286364D01*
X86644620Y-116279652D01*
X86657843Y-116227762D01*
X86672194Y-116196995D01*
X86674411Y-116195038D01*
X86696660Y-116193431D01*
X86757721Y-116190942D01*
X86854610Y-116187645D01*
X86984339Y-116183614D01*
X87143922Y-116178923D01*
X87330373Y-116173646D01*
X87540705Y-116167857D01*
X87771932Y-116161632D01*
X88021067Y-116155043D01*
X88285123Y-116148165D01*
X88561116Y-116141072D01*
X88846057Y-116133838D01*
X89136960Y-116126537D01*
X89430840Y-116119244D01*
X89724710Y-116112032D01*
X90015582Y-116104977D01*
X90300472Y-116098151D01*
X90576391Y-116091629D01*
X90840355Y-116085485D01*
X91089376Y-116079793D01*
X91320469Y-116074628D01*
X91530646Y-116070064D01*
X91716921Y-116066174D01*
X91876308Y-116063033D01*
X92005820Y-116060715D01*
X92102471Y-116059295D01*
X92160365Y-116058843D01*
X92392447Y-116058795D01*
X102602189Y-116058795D01*
X102600734Y-116055073D01*
X102579747Y-115987120D01*
X102563758Y-115901728D01*
X102551579Y-115790692D01*
X102542312Y-115651238D01*
X102534563Y-115525435D01*
X102525769Y-115432192D01*
X102514415Y-115362261D01*
X102498991Y-115306392D01*
X102477983Y-115255337D01*
X102477371Y-115254036D01*
X102394137Y-115121330D01*
X102278276Y-115007950D01*
X102128556Y-114913241D01*
X101943748Y-114836549D01*
X101722621Y-114777218D01*
X101513596Y-114741098D01*
X101441454Y-114734149D01*
X101336258Y-114728061D01*
X101206761Y-114723137D01*
X101061714Y-114719678D01*
X100909871Y-114717990D01*
X100843545Y-114717885D01*
X100684541Y-114718723D01*
X100562331Y-114719186D01*
X100471944Y-114717038D01*
X100408405Y-114710039D01*
X100366741Y-114695951D01*
X100341979Y-114672534D01*
X100336158Y-114656666D01*
X100284217Y-114656666D01*
X100284217Y-114720950D01*
X99644791Y-114720950D01*
X99486721Y-113001485D01*
X99462534Y-112737802D01*
X99439570Y-112486328D01*
X99418103Y-112250143D01*
X99398410Y-112032324D01*
X99380765Y-111835951D01*
X99365442Y-111664103D01*
X99352718Y-111519860D01*
X99342867Y-111406299D01*
X99336165Y-111326500D01*
X99335164Y-111313378D01*
X99176233Y-111313378D01*
X99176233Y-114721255D01*
X96478945Y-114710497D01*
X96473968Y-113011937D01*
X96468991Y-111313378D01*
X96333106Y-111313378D01*
X96333106Y-115013625D01*
X92758291Y-115013625D01*
X92758291Y-111313378D01*
X96333106Y-111313378D01*
X96468991Y-111313378D01*
X99176233Y-111313378D01*
X99335164Y-111313378D01*
X99332885Y-111283543D01*
X99332644Y-111276729D01*
X99349551Y-111287311D01*
X99394452Y-111319903D01*
X99462390Y-111370785D01*
X99548407Y-111436232D01*
X99647544Y-111512524D01*
X99673196Y-111532388D01*
X99786867Y-111620812D01*
X99871781Y-111688193D01*
X99932344Y-111738953D01*
X99972959Y-111777517D01*
X99998031Y-111808306D01*
X100011964Y-111835744D01*
X100019162Y-111864255D01*
X100021931Y-111882617D01*
X100027021Y-111926278D01*
X100035395Y-112005801D01*
X100046644Y-112116865D01*
X100060358Y-112255149D01*
X100076131Y-112416331D01*
X100093553Y-112596091D01*
X100112215Y-112790107D01*
X100131709Y-112994057D01*
X100151627Y-113203621D01*
X100171560Y-113414477D01*
X100191099Y-113622305D01*
X100209835Y-113822781D01*
X100227361Y-114011586D01*
X100243267Y-114184399D01*
X100257146Y-114336897D01*
X100268587Y-114464759D01*
X100277184Y-114563665D01*
X100282526Y-114629293D01*
X100284217Y-114656666D01*
X100336158Y-114656666D01*
X100329144Y-114637551D01*
X100323263Y-114588762D01*
X100319363Y-114523928D01*
X100316253Y-114480538D01*
X100312570Y-114426061D01*
X100307414Y-114335149D01*
X100301002Y-114212656D01*
X100293551Y-114063436D01*
X100285277Y-113892342D01*
X100276399Y-113704226D01*
X100267131Y-113503942D01*
X100257693Y-113296343D01*
X100248299Y-113086283D01*
X100239167Y-112878614D01*
X100230514Y-112678190D01*
X100222556Y-112489865D01*
X100215511Y-112318490D01*
X100209595Y-112168920D01*
X100205025Y-112046007D01*
X100202019Y-111954606D01*
X100200792Y-111899568D01*
X100200774Y-111895875D01*
X100200595Y-111757137D01*
X100294670Y-111743030D01*
X100388744Y-111728923D01*
X100388744Y-111565574D01*
X100387062Y-111477252D01*
X100382631Y-111396889D01*
X100376372Y-111340597D01*
X100375678Y-111336896D01*
X100363267Y-111294810D01*
X100339494Y-111276182D01*
X100290383Y-111271619D01*
X100278468Y-111271567D01*
X100213586Y-111262623D01*
X100136473Y-111233332D01*
X100042341Y-111182955D01*
X99890358Y-111094343D01*
X99876821Y-110874601D01*
X99869570Y-110763033D01*
X99862757Y-110686900D01*
X99854507Y-110639891D01*
X99842948Y-110615697D01*
X99826204Y-110608005D01*
X99802402Y-110610505D01*
X99798627Y-110611263D01*
X99760910Y-110615660D01*
X99690586Y-110620964D01*
X99596835Y-110626581D01*
X99488832Y-110631920D01*
X99458456Y-110633236D01*
X99165781Y-110645515D01*
X99118337Y-110556113D01*
X99080355Y-110495592D01*
X99033351Y-110444222D01*
X98973571Y-110401005D01*
X98897264Y-110364946D01*
X98800675Y-110335047D01*
X98680052Y-110310313D01*
X98531643Y-110289746D01*
X98351693Y-110272350D01*
X98136451Y-110257129D01*
X97953270Y-110246733D01*
X97792417Y-110237951D01*
X97615062Y-110227723D01*
X97437028Y-110216996D01*
X97274135Y-110206715D01*
X97179772Y-110200442D01*
X97069010Y-110194638D01*
X96921217Y-110189632D01*
X96741163Y-110185419D01*
X96533620Y-110181998D01*
X96303359Y-110179366D01*
X96055153Y-110177520D01*
X95793771Y-110176456D01*
X95523986Y-110176173D01*
X95250568Y-110176667D01*
X95250568Y-110176667D01*
G37*
X95250568Y-110176667D02*
X94978290Y-110177936D01*
X94711923Y-110179976D01*
X94456237Y-110182786D01*
X94216005Y-110186361D01*
X93995997Y-110190701D01*
X93800985Y-110195801D01*
X93635741Y-110201658D01*
X93615410Y-110202532D01*
X93428293Y-110211172D01*
X93277854Y-110219156D01*
X93158976Y-110226953D01*
X93066542Y-110235034D01*
X92995436Y-110243870D01*
X92940539Y-110253932D01*
X92896735Y-110265691D01*
X92884541Y-110269778D01*
X92758747Y-110326288D01*
X92618231Y-110410974D01*
X92472523Y-110517954D01*
X92441597Y-110543166D01*
X92389333Y-110593304D01*
X92330501Y-110660284D01*
X92270477Y-110736490D01*
X92214637Y-110814306D01*
X92168358Y-110886115D01*
X92137015Y-110944301D01*
X92125985Y-110981247D01*
X92127846Y-110987655D01*
X92139561Y-111009509D01*
X92154181Y-111050072D01*
X92173683Y-111115739D01*
X92200046Y-111212904D01*
X92214138Y-111266548D01*
X92228800Y-111309736D01*
X92252293Y-111348946D01*
X92291176Y-111391552D01*
X92352006Y-111444932D01*
X92424667Y-111503339D01*
X92611954Y-111651074D01*
X92611954Y-111750616D01*
X92610887Y-111787095D01*
X92607797Y-111861884D01*
X92602854Y-111971542D01*
X92596224Y-112112627D01*
X92588074Y-112281695D01*
X92578574Y-112475305D01*
X92567890Y-112690014D01*
X92556191Y-112922380D01*
X92543644Y-113168961D01*
X92530416Y-113426313D01*
X92528332Y-113466629D01*
X92515051Y-113724115D01*
X92502420Y-113970458D01*
X92490606Y-114202324D01*
X92479775Y-114416380D01*
X92470093Y-114609290D01*
X92461727Y-114777723D01*
X92454843Y-114918343D01*
X92449607Y-115027818D01*
X92446187Y-115102813D01*
X92444747Y-115139996D01*
X92444711Y-115142436D01*
X92444711Y-115201773D01*
X92092887Y-115201773D01*
X92081101Y-115050209D01*
X92078586Y-115004718D01*
X92075042Y-114921107D01*
X92070590Y-114803051D01*
X92065352Y-114654224D01*
X92059449Y-114478301D01*
X92053001Y-114278957D01*
X92046130Y-114059867D01*
X92038957Y-113824705D01*
X92031602Y-113577146D01*
X92024770Y-113341217D01*
X92016316Y-113047602D01*
X92008821Y-112792910D01*
X92002134Y-112574269D01*
X91996109Y-112388805D01*
X91990597Y-112233645D01*
X91985450Y-112105918D01*
X91980520Y-112002748D01*
X91975658Y-111921265D01*
X91970717Y-111858594D01*
X91965547Y-111811864D01*
X91960002Y-111778200D01*
X91953932Y-111754731D01*
X91947190Y-111738583D01*
X91941638Y-111729596D01*
X91918049Y-111680070D01*
X91903612Y-111606316D01*
X91896884Y-111510794D01*
X91890719Y-111346183D01*
X91809807Y-111327108D01*
X91735603Y-111318911D01*
X91668433Y-111337039D01*
X91658244Y-111341726D01*
X91587591Y-111375417D01*
X91587591Y-111543734D01*
X91583038Y-111654350D01*
X91569786Y-111730957D01*
X91558164Y-111758352D01*
X91552877Y-111771285D01*
X91548554Y-111793720D01*
X91545217Y-111828300D01*
X91542888Y-111877670D01*
X91541590Y-111944476D01*
X91541345Y-112031363D01*
X91542174Y-112140975D01*
X91544101Y-112275958D01*
X91547147Y-112438955D01*
X91551335Y-112632613D01*
X91556686Y-112859576D01*
X91563224Y-113122489D01*
X91570971Y-113423996D01*
X91572744Y-113492117D01*
X91579450Y-113753913D01*
X91585605Y-114003516D01*
X91591148Y-114237788D01*
X91596015Y-114453591D01*
X91600143Y-114647787D01*
X91603468Y-114817239D01*
X91605927Y-114958809D01*
X91607458Y-115069359D01*
X91607998Y-115145751D01*
X91607482Y-115184849D01*
X91606913Y-115189419D01*
X91584305Y-115192675D01*
X91525217Y-115197056D01*
X91434959Y-115202284D01*
X91318837Y-115208081D01*
X91182161Y-115214168D01*
X91030238Y-115220266D01*
X90991304Y-115221730D01*
X90652636Y-115235294D01*
X90312671Y-115250823D01*
X89974655Y-115268068D01*
X89641837Y-115286780D01*
X89317463Y-115306711D01*
X89004779Y-115327611D01*
X88707034Y-115349233D01*
X88427473Y-115371327D01*
X88169344Y-115393645D01*
X87935893Y-115415938D01*
X87730369Y-115437957D01*
X87556017Y-115459453D01*
X87416085Y-115480179D01*
X87313819Y-115499885D01*
X87293107Y-115504993D01*
X87129109Y-115562690D01*
X86987010Y-115644791D01*
X86865532Y-115753453D01*
X86763397Y-115890834D01*
X86679325Y-116059093D01*
X86612038Y-116260387D01*
X86560258Y-116496874D01*
X86522706Y-116770713D01*
X86518488Y-116812397D01*
X86505188Y-116949194D01*
X86354826Y-116976507D01*
X86033460Y-117054528D01*
X85712198Y-117170249D01*
X85397775Y-117320088D01*
X85096927Y-117500464D01*
X84816392Y-117707795D01*
X84582602Y-117918699D01*
X84375563Y-118138168D01*
X84200788Y-118354056D01*
X84051109Y-118576675D01*
X83919355Y-118816338D01*
X83838908Y-118988468D01*
X83704693Y-119344027D01*
X83610776Y-119706931D01*
X83556902Y-120074351D01*
X83542815Y-120443458D01*
X83568261Y-120811422D01*
X83632983Y-121175416D01*
X83736727Y-121532609D01*
X83879236Y-121880172D01*
X84060255Y-122215277D01*
X84141803Y-122342828D01*
X84360245Y-122632915D01*
X84608450Y-122896920D01*
X84882868Y-123133136D01*
X85179951Y-123339853D01*
X85496147Y-123515360D01*
X85827907Y-123657950D01*
X86171681Y-123765912D01*
X86523920Y-123837537D01*
X86881073Y-123871116D01*
X87239592Y-123864939D01*
X87293439Y-123860463D01*
X87488779Y-123839407D01*
X87658434Y-123813292D01*
X87818493Y-123778791D01*
X87985047Y-123732579D01*
X88119379Y-123689736D01*
X88397416Y-123583091D01*
X88674982Y-123449802D01*
X88933469Y-123298978D01*
X88979538Y-123268655D01*
X89062923Y-123213520D01*
X89122964Y-123177953D01*
X89170664Y-123157676D01*
X89217023Y-123148413D01*
X89273045Y-123145889D01*
X89295606Y-123145806D01*
X89500049Y-123132370D01*
X89726439Y-123093909D01*
X89965490Y-123033190D01*
X90207915Y-122952982D01*
X90444426Y-122856054D01*
X90665736Y-122745175D01*
X90695134Y-122728606D01*
X90967426Y-122550241D01*
X91224653Y-122337249D01*
X91461071Y-122095762D01*
X91670940Y-121831912D01*
X91848515Y-121551830D01*
X91913765Y-121427421D01*
X91992892Y-121266485D01*
X93384275Y-121260178D01*
X94775657Y-121253872D01*
X94940322Y-121185093D01*
X95015380Y-121154672D01*
X95074025Y-121132659D01*
X95107041Y-121122440D01*
X95110974Y-121122377D01*
X95120869Y-121143235D01*
X95142131Y-121193695D01*
X95170869Y-121264433D01*
X95183333Y-121295682D01*
X95356454Y-121676550D01*
X95563467Y-122035051D01*
X95801966Y-122369570D01*
X96069542Y-122678487D01*
X96363789Y-122960185D01*
X96682299Y-123213047D01*
X97022664Y-123435454D01*
X97382478Y-123625788D01*
X97759333Y-123782433D01*
X98150822Y-123903769D01*
X98554538Y-123988179D01*
X98968072Y-124034046D01*
X99270307Y-124042297D01*
X99400236Y-124039064D01*
X99541117Y-124031939D01*
X99674077Y-124022048D01*
X99761583Y-124012962D01*
X100186414Y-123939656D01*
X100596761Y-123827347D01*
X100991090Y-123676785D01*
X101367870Y-123488717D01*
X101725569Y-123263891D01*
X102062656Y-123003057D01*
X102324436Y-122761004D01*
X102548968Y-122522528D01*
X102743106Y-122284336D01*
X102914929Y-122035017D01*
X103072515Y-121763163D01*
X103177015Y-121556805D01*
X103340721Y-121169562D01*
X103465763Y-120769798D01*
X103552159Y-120360851D01*
X103599930Y-119946060D01*
X103606559Y-119644160D01*
X101837259Y-119644160D01*
X101831450Y-119865750D01*
X101810930Y-120063351D01*
X101773194Y-120252960D01*
X101715737Y-120450577D01*
X101706735Y-120477551D01*
X101647866Y-120630132D01*
X101572227Y-120794220D01*
X101487346Y-120955119D01*
X101400749Y-121098137D01*
X101355354Y-121163531D01*
X101151917Y-121404352D01*
X100918924Y-121618306D01*
X100660979Y-121802524D01*
X100382687Y-121954140D01*
X100088655Y-122070287D01*
X99783487Y-122148098D01*
X99770006Y-122150572D01*
X99622511Y-122169525D01*
X99449773Y-122179534D01*
X99267396Y-122180578D01*
X99090985Y-122172633D01*
X98936146Y-122155679D01*
X98912520Y-122151799D01*
X98600158Y-122076834D01*
X98303619Y-121964909D01*
X98025786Y-121818429D01*
X97769543Y-121639801D01*
X97537772Y-121431429D01*
X97333359Y-121195720D01*
X97159187Y-120935078D01*
X97018139Y-120651910D01*
X96971555Y-120532637D01*
X96948645Y-120454167D01*
X88841570Y-120454167D01*
X88822324Y-120715224D01*
X88767964Y-120972147D01*
X88678354Y-121220930D01*
X88553361Y-121457567D01*
X88392851Y-121678054D01*
X88318829Y-121760664D01*
X88109567Y-121952081D01*
X87877836Y-122110988D01*
X87628302Y-122234867D01*
X87365635Y-122321201D01*
X87225486Y-122350407D01*
X87106474Y-122363500D01*
X86963256Y-122368899D01*
X86812637Y-122366795D01*
X86671424Y-122357379D01*
X86566920Y-122342936D01*
X86288237Y-122269130D01*
X86028943Y-122159333D01*
X85791558Y-122015811D01*
X85578603Y-121840827D01*
X85392597Y-121636647D01*
X85236060Y-121405537D01*
X85111513Y-121149761D01*
X85051857Y-120981070D01*
X85030053Y-120906500D01*
X85014520Y-120841393D01*
X85004172Y-120775886D01*
X84997922Y-120700115D01*
X84994683Y-120604216D01*
X84993369Y-120478326D01*
X84993243Y-120449016D01*
X84993467Y-120312530D01*
X84995881Y-120208273D01*
X85001348Y-120126682D01*
X85010734Y-120058196D01*
X85024902Y-119993254D01*
X85039147Y-119941256D01*
X85139672Y-119663376D01*
X85272304Y-119412239D01*
X85436809Y-119188121D01*
X85632954Y-118991300D01*
X85860502Y-118822053D01*
X86095636Y-118691771D01*
X86247287Y-118624677D01*
X86386598Y-118576487D01*
X86525988Y-118544579D01*
X86677875Y-118526331D01*
X86854680Y-118519122D01*
X86915246Y-118518719D01*
X87043101Y-118519377D01*
X87140146Y-118522360D01*
X87217367Y-118528909D01*
X87285750Y-118540264D01*
X87356281Y-118557666D01*
X87416974Y-118575364D01*
X87660255Y-118661211D01*
X87873096Y-118764197D01*
X88065175Y-118889698D01*
X88227154Y-119025283D01*
X88415777Y-119227039D01*
X88570091Y-119448692D01*
X88689962Y-119686237D01*
X88775255Y-119935667D01*
X88825836Y-120192979D01*
X88841570Y-120454167D01*
X96948645Y-120454167D01*
X96881169Y-120223056D01*
X96830625Y-119909201D01*
X96819132Y-119594693D01*
X96845897Y-119283149D01*
X96910128Y-118978188D01*
X97011032Y-118683429D01*
X97147816Y-118402491D01*
X97319689Y-118138994D01*
X97525857Y-117896554D01*
X97555386Y-117866523D01*
X97796819Y-117653762D01*
X98058862Y-117475977D01*
X98338072Y-117333977D01*
X98631004Y-117228573D01*
X98934213Y-117160575D01*
X99244255Y-117130793D01*
X99557684Y-117140039D01*
X99871055Y-117189121D01*
X100129631Y-117261025D01*
X100425730Y-117381867D01*
X100701104Y-117537433D01*
X100953022Y-117724993D01*
X101178749Y-117941817D01*
X101375554Y-118185174D01*
X101540702Y-118452335D01*
X101671461Y-118740569D01*
X101704878Y-118834652D01*
X101762636Y-119023922D01*
X101801862Y-119194404D01*
X101825364Y-119363267D01*
X101835949Y-119547679D01*
X101837259Y-119644160D01*
X103606559Y-119644160D01*
X103609094Y-119528764D01*
X103579676Y-119112303D01*
X103511692Y-118700015D01*
X103405162Y-118295240D01*
X103260108Y-117901317D01*
X103153652Y-117669664D01*
X103104272Y-117570106D01*
X103061577Y-117484000D01*
X103028971Y-117418213D01*
X103009858Y-117379614D01*
X103006438Y-117372683D01*
X103021271Y-117358368D01*
X103066596Y-117328862D01*
X103135773Y-117288196D01*
X103222163Y-117240400D01*
X103241242Y-117230169D01*
X103330906Y-117181789D01*
X103405494Y-117140493D01*
X103458150Y-117110155D01*
X103482019Y-117094650D01*
X103482735Y-117093676D01*
X103468621Y-117077291D01*
X103429225Y-117035999D01*
X103368969Y-116974318D01*
X103292275Y-116896764D01*
X103203562Y-116807857D01*
X103182372Y-116786725D01*
X103002157Y-116601425D01*
X102855381Y-116437737D01*
X102740739Y-116294019D01*
X102656923Y-116168627D01*
X102602627Y-116059918D01*
X102602189Y-116058795D01*
X92392447Y-116058795D01*
X92385569Y-116215634D01*
X92378691Y-116372472D01*
X91758409Y-116375473D01*
X91626340Y-116376169D01*
X91460375Y-116377137D01*
X91264349Y-116378351D01*
X91042093Y-116379781D01*
X90797440Y-116381400D01*
X90534223Y-116383180D01*
X90256274Y-116385094D01*
X89967427Y-116387114D01*
X89671514Y-116389211D01*
X89372368Y-116391358D01*
X89073822Y-116393528D01*
X88779708Y-116395692D01*
X88493858Y-116397822D01*
X88220107Y-116399891D01*
X87962286Y-116401871D01*
X87724228Y-116403735D01*
X87509765Y-116405453D01*
X87322732Y-116406999D01*
X87166960Y-116408345D01*
X87046282Y-116409463D01*
X86980951Y-116410137D01*
X86845976Y-116411201D01*
X86747669Y-116410706D01*
X86680905Y-116408289D01*
X86640559Y-116403584D01*
X86621506Y-116396227D01*
X86618619Y-116385855D01*
X86619108Y-116384410D01*
X86630585Y-116344360D01*
X86643338Y-116286364D01*
X86644620Y-116279652D01*
X86657843Y-116227762D01*
X86672194Y-116196995D01*
X86674411Y-116195038D01*
X86696660Y-116193431D01*
X86757721Y-116190942D01*
X86854610Y-116187645D01*
X86984339Y-116183614D01*
X87143922Y-116178923D01*
X87330373Y-116173646D01*
X87540705Y-116167857D01*
X87771932Y-116161632D01*
X88021067Y-116155043D01*
X88285123Y-116148165D01*
X88561116Y-116141072D01*
X88846057Y-116133838D01*
X89136960Y-116126537D01*
X89430840Y-116119244D01*
X89724710Y-116112032D01*
X90015582Y-116104977D01*
X90300472Y-116098151D01*
X90576391Y-116091629D01*
X90840355Y-116085485D01*
X91089376Y-116079793D01*
X91320469Y-116074628D01*
X91530646Y-116070064D01*
X91716921Y-116066174D01*
X91876308Y-116063033D01*
X92005820Y-116060715D01*
X92102471Y-116059295D01*
X92160365Y-116058843D01*
X92392447Y-116058795D01*
X102602189Y-116058795D01*
X102600734Y-116055073D01*
X102579747Y-115987120D01*
X102563758Y-115901728D01*
X102551579Y-115790692D01*
X102542312Y-115651238D01*
X102534563Y-115525435D01*
X102525769Y-115432192D01*
X102514415Y-115362261D01*
X102498991Y-115306392D01*
X102477983Y-115255337D01*
X102477371Y-115254036D01*
X102394137Y-115121330D01*
X102278276Y-115007950D01*
X102128556Y-114913241D01*
X101943748Y-114836549D01*
X101722621Y-114777218D01*
X101513596Y-114741098D01*
X101441454Y-114734149D01*
X101336258Y-114728061D01*
X101206761Y-114723137D01*
X101061714Y-114719678D01*
X100909871Y-114717990D01*
X100843545Y-114717885D01*
X100684541Y-114718723D01*
X100562331Y-114719186D01*
X100471944Y-114717038D01*
X100408405Y-114710039D01*
X100366741Y-114695951D01*
X100341979Y-114672534D01*
X100336158Y-114656666D01*
X100284217Y-114656666D01*
X100284217Y-114720950D01*
X99644791Y-114720950D01*
X99486721Y-113001485D01*
X99462534Y-112737802D01*
X99439570Y-112486328D01*
X99418103Y-112250143D01*
X99398410Y-112032324D01*
X99380765Y-111835951D01*
X99365442Y-111664103D01*
X99352718Y-111519860D01*
X99342867Y-111406299D01*
X99336165Y-111326500D01*
X99335164Y-111313378D01*
X99176233Y-111313378D01*
X99176233Y-114721255D01*
X96478945Y-114710497D01*
X96473968Y-113011937D01*
X96468991Y-111313378D01*
X96333106Y-111313378D01*
X96333106Y-115013625D01*
X92758291Y-115013625D01*
X92758291Y-111313378D01*
X96333106Y-111313378D01*
X96468991Y-111313378D01*
X99176233Y-111313378D01*
X99335164Y-111313378D01*
X99332885Y-111283543D01*
X99332644Y-111276729D01*
X99349551Y-111287311D01*
X99394452Y-111319903D01*
X99462390Y-111370785D01*
X99548407Y-111436232D01*
X99647544Y-111512524D01*
X99673196Y-111532388D01*
X99786867Y-111620812D01*
X99871781Y-111688193D01*
X99932344Y-111738953D01*
X99972959Y-111777517D01*
X99998031Y-111808306D01*
X100011964Y-111835744D01*
X100019162Y-111864255D01*
X100021931Y-111882617D01*
X100027021Y-111926278D01*
X100035395Y-112005801D01*
X100046644Y-112116865D01*
X100060358Y-112255149D01*
X100076131Y-112416331D01*
X100093553Y-112596091D01*
X100112215Y-112790107D01*
X100131709Y-112994057D01*
X100151627Y-113203621D01*
X100171560Y-113414477D01*
X100191099Y-113622305D01*
X100209835Y-113822781D01*
X100227361Y-114011586D01*
X100243267Y-114184399D01*
X100257146Y-114336897D01*
X100268587Y-114464759D01*
X100277184Y-114563665D01*
X100282526Y-114629293D01*
X100284217Y-114656666D01*
X100336158Y-114656666D01*
X100329144Y-114637551D01*
X100323263Y-114588762D01*
X100319363Y-114523928D01*
X100316253Y-114480538D01*
X100312570Y-114426061D01*
X100307414Y-114335149D01*
X100301002Y-114212656D01*
X100293551Y-114063436D01*
X100285277Y-113892342D01*
X100276399Y-113704226D01*
X100267131Y-113503942D01*
X100257693Y-113296343D01*
X100248299Y-113086283D01*
X100239167Y-112878614D01*
X100230514Y-112678190D01*
X100222556Y-112489865D01*
X100215511Y-112318490D01*
X100209595Y-112168920D01*
X100205025Y-112046007D01*
X100202019Y-111954606D01*
X100200792Y-111899568D01*
X100200774Y-111895875D01*
X100200595Y-111757137D01*
X100294670Y-111743030D01*
X100388744Y-111728923D01*
X100388744Y-111565574D01*
X100387062Y-111477252D01*
X100382631Y-111396889D01*
X100376372Y-111340597D01*
X100375678Y-111336896D01*
X100363267Y-111294810D01*
X100339494Y-111276182D01*
X100290383Y-111271619D01*
X100278468Y-111271567D01*
X100213586Y-111262623D01*
X100136473Y-111233332D01*
X100042341Y-111182955D01*
X99890358Y-111094343D01*
X99876821Y-110874601D01*
X99869570Y-110763033D01*
X99862757Y-110686900D01*
X99854507Y-110639891D01*
X99842948Y-110615697D01*
X99826204Y-110608005D01*
X99802402Y-110610505D01*
X99798627Y-110611263D01*
X99760910Y-110615660D01*
X99690586Y-110620964D01*
X99596835Y-110626581D01*
X99488832Y-110631920D01*
X99458456Y-110633236D01*
X99165781Y-110645515D01*
X99118337Y-110556113D01*
X99080355Y-110495592D01*
X99033351Y-110444222D01*
X98973571Y-110401005D01*
X98897264Y-110364946D01*
X98800675Y-110335047D01*
X98680052Y-110310313D01*
X98531643Y-110289746D01*
X98351693Y-110272350D01*
X98136451Y-110257129D01*
X97953270Y-110246733D01*
X97792417Y-110237951D01*
X97615062Y-110227723D01*
X97437028Y-110216996D01*
X97274135Y-110206715D01*
X97179772Y-110200442D01*
X97069010Y-110194638D01*
X96921217Y-110189632D01*
X96741163Y-110185419D01*
X96533620Y-110181998D01*
X96303359Y-110179366D01*
X96055153Y-110177520D01*
X95793771Y-110176456D01*
X95523986Y-110176173D01*
X95250568Y-110176667D01*
G36*
X87860736Y-121671119D02*
X87771400Y-121679412D01*
X87656223Y-121690983D01*
X87520352Y-121705246D01*
X87368932Y-121721617D01*
X87207108Y-121739509D01*
X87040026Y-121758337D01*
X86872831Y-121777516D01*
X86710668Y-121796459D01*
X86558683Y-121814582D01*
X86422021Y-121831298D01*
X86305828Y-121846023D01*
X86215249Y-121858170D01*
X86155429Y-121867154D01*
X86131514Y-121872390D01*
X86131295Y-121872693D01*
X86148854Y-121886847D01*
X86195245Y-121912672D01*
X86261037Y-121944986D01*
X86272406Y-121950261D01*
X86498403Y-122032040D01*
X86737139Y-122077135D01*
X86978598Y-122083916D01*
X87055099Y-122077696D01*
X87289078Y-122033590D01*
X87512565Y-121952096D01*
X87572516Y-121923273D01*
X87642215Y-121885094D01*
X87718701Y-121838505D01*
X87794325Y-121788827D01*
X87861440Y-121741379D01*
X87912397Y-121701483D01*
X87939548Y-121674459D01*
X87941309Y-121666711D01*
X87919088Y-121666690D01*
X87860736Y-121671119D01*
X87860736Y-121671119D01*
G37*
X87860736Y-121671119D02*
X87771400Y-121679412D01*
X87656223Y-121690983D01*
X87520352Y-121705246D01*
X87368932Y-121721617D01*
X87207108Y-121739509D01*
X87040026Y-121758337D01*
X86872831Y-121777516D01*
X86710668Y-121796459D01*
X86558683Y-121814582D01*
X86422021Y-121831298D01*
X86305828Y-121846023D01*
X86215249Y-121858170D01*
X86155429Y-121867154D01*
X86131514Y-121872390D01*
X86131295Y-121872693D01*
X86148854Y-121886847D01*
X86195245Y-121912672D01*
X86261037Y-121944986D01*
X86272406Y-121950261D01*
X86498403Y-122032040D01*
X86737139Y-122077135D01*
X86978598Y-122083916D01*
X87055099Y-122077696D01*
X87289078Y-122033590D01*
X87512565Y-121952096D01*
X87572516Y-121923273D01*
X87642215Y-121885094D01*
X87718701Y-121838505D01*
X87794325Y-121788827D01*
X87861440Y-121741379D01*
X87912397Y-121701483D01*
X87939548Y-121674459D01*
X87941309Y-121666711D01*
X87919088Y-121666690D01*
X87860736Y-121671119D01*
G36*
X85454512Y-119842321D02*
X85438066Y-119869802D01*
X85419779Y-119918255D01*
X85401288Y-119977551D01*
X85349381Y-120219134D01*
X85332569Y-120468982D01*
X85350857Y-120716605D01*
X85400922Y-120940814D01*
X85436098Y-121039121D01*
X85484059Y-121151159D01*
X85538584Y-121264169D01*
X85593455Y-121365389D01*
X85642449Y-121442058D01*
X85650326Y-121452472D01*
X85678323Y-121485564D01*
X85689302Y-121486740D01*
X85690855Y-121462925D01*
X85688396Y-121433162D01*
X85681614Y-121366777D01*
X85671052Y-121268678D01*
X85657250Y-121143769D01*
X85640753Y-120996956D01*
X85622101Y-120833145D01*
X85601837Y-120657241D01*
X85601275Y-120652392D01*
X85575115Y-120429618D01*
X85552546Y-120246145D01*
X85532889Y-120099682D01*
X85515464Y-119987937D01*
X85499593Y-119908620D01*
X85484596Y-119859439D01*
X85469796Y-119838103D01*
X85454512Y-119842321D01*
X85454512Y-119842321D01*
G37*
X85454512Y-119842321D02*
X85438066Y-119869802D01*
X85419779Y-119918255D01*
X85401288Y-119977551D01*
X85349381Y-120219134D01*
X85332569Y-120468982D01*
X85350857Y-120716605D01*
X85400922Y-120940814D01*
X85436098Y-121039121D01*
X85484059Y-121151159D01*
X85538584Y-121264169D01*
X85593455Y-121365389D01*
X85642449Y-121442058D01*
X85650326Y-121452472D01*
X85678323Y-121485564D01*
X85689302Y-121486740D01*
X85690855Y-121462925D01*
X85688396Y-121433162D01*
X85681614Y-121366777D01*
X85671052Y-121268678D01*
X85657250Y-121143769D01*
X85640753Y-120996956D01*
X85622101Y-120833145D01*
X85601837Y-120657241D01*
X85601275Y-120652392D01*
X85575115Y-120429618D01*
X85552546Y-120246145D01*
X85532889Y-120099682D01*
X85515464Y-119987937D01*
X85499593Y-119908620D01*
X85484596Y-119859439D01*
X85469796Y-119838103D01*
X85454512Y-119842321D01*
G36*
X88110974Y-119486965D02*
X88114540Y-119547726D01*
X88122443Y-119641038D01*
X88134238Y-119762434D01*
X88149484Y-119907448D01*
X88167739Y-120071613D01*
X88188560Y-120250462D01*
X88197512Y-120325138D01*
X88299643Y-121170250D01*
X88335667Y-121088309D01*
X88406730Y-120878854D01*
X88446708Y-120650655D01*
X88455646Y-120412878D01*
X88433591Y-120174687D01*
X88380588Y-119945249D01*
X88329229Y-119804364D01*
X88286098Y-119710822D01*
X88239794Y-119623200D01*
X88194649Y-119548307D01*
X88154994Y-119492953D01*
X88125164Y-119463949D01*
X88112184Y-119463221D01*
X88110974Y-119486965D01*
X88110974Y-119486965D01*
G37*
X88110974Y-119486965D02*
X88114540Y-119547726D01*
X88122443Y-119641038D01*
X88134238Y-119762434D01*
X88149484Y-119907448D01*
X88167739Y-120071613D01*
X88188560Y-120250462D01*
X88197512Y-120325138D01*
X88299643Y-121170250D01*
X88335667Y-121088309D01*
X88406730Y-120878854D01*
X88446708Y-120650655D01*
X88455646Y-120412878D01*
X88433591Y-120174687D01*
X88380588Y-119945249D01*
X88329229Y-119804364D01*
X88286098Y-119710822D01*
X88239794Y-119623200D01*
X88194649Y-119548307D01*
X88154994Y-119492953D01*
X88125164Y-119463949D01*
X88112184Y-119463221D01*
X88110974Y-119486965D01*
G36*
X86547395Y-118867170D02*
X86315578Y-118944136D01*
X86113968Y-119047027D01*
X86023594Y-119105159D01*
X85966928Y-119149426D01*
X85944776Y-119178581D01*
X85957945Y-119191377D01*
X86007237Y-119186566D01*
X86026768Y-119182106D01*
X86059149Y-119176987D01*
X86127031Y-119168288D01*
X86224322Y-119156669D01*
X86344928Y-119142789D01*
X86482755Y-119127307D01*
X86631711Y-119110883D01*
X86785701Y-119094176D01*
X86938633Y-119077845D01*
X87084412Y-119062550D01*
X87216946Y-119048950D01*
X87330141Y-119037704D01*
X87417904Y-119029472D01*
X87474142Y-119024913D01*
X87484916Y-119024321D01*
X87546256Y-119019360D01*
X87586091Y-119011275D01*
X87594670Y-119005238D01*
X87576220Y-118988956D01*
X87527143Y-118964404D01*
X87456848Y-118935366D01*
X87374745Y-118905621D01*
X87290243Y-118878953D01*
X87258729Y-118870219D01*
X87024009Y-118829433D01*
X86785218Y-118828676D01*
X86547395Y-118867170D01*
X86547395Y-118867170D01*
G37*
X86547395Y-118867170D02*
X86315578Y-118944136D01*
X86113968Y-119047027D01*
X86023594Y-119105159D01*
X85966928Y-119149426D01*
X85944776Y-119178581D01*
X85957945Y-119191377D01*
X86007237Y-119186566D01*
X86026768Y-119182106D01*
X86059149Y-119176987D01*
X86127031Y-119168288D01*
X86224322Y-119156669D01*
X86344928Y-119142789D01*
X86482755Y-119127307D01*
X86631711Y-119110883D01*
X86785701Y-119094176D01*
X86938633Y-119077845D01*
X87084412Y-119062550D01*
X87216946Y-119048950D01*
X87330141Y-119037704D01*
X87417904Y-119029472D01*
X87474142Y-119024913D01*
X87484916Y-119024321D01*
X87546256Y-119019360D01*
X87586091Y-119011275D01*
X87594670Y-119005238D01*
X87576220Y-118988956D01*
X87527143Y-118964404D01*
X87456848Y-118935366D01*
X87374745Y-118905621D01*
X87290243Y-118878953D01*
X87258729Y-118870219D01*
X87024009Y-118829433D01*
X86785218Y-118828676D01*
X86547395Y-118867170D01*
G36*
X100552495Y-120975798D02*
X100481867Y-120980012D01*
X100391171Y-120987158D01*
X100276872Y-120997487D01*
X100135430Y-121011250D01*
X99963309Y-121028700D01*
X99756970Y-121050089D01*
X99512877Y-121075667D01*
X99491891Y-121077873D01*
X99240193Y-121104472D01*
X99026639Y-121127416D01*
X98847768Y-121147173D01*
X98700117Y-121164209D01*
X98580225Y-121178990D01*
X98484628Y-121191985D01*
X98409864Y-121203659D01*
X98352472Y-121214480D01*
X98308988Y-121224914D01*
X98275952Y-121235428D01*
X98253249Y-121244894D01*
X98196754Y-121274057D01*
X98159951Y-121298239D01*
X98151871Y-121308195D01*
X98169335Y-121328372D01*
X98216036Y-121361516D01*
X98283443Y-121402662D01*
X98363022Y-121446847D01*
X98446239Y-121489108D01*
X98521569Y-121523235D01*
X98801056Y-121617706D01*
X99090052Y-121671490D01*
X99388226Y-121684535D01*
X99521172Y-121677444D01*
X99771982Y-121638454D01*
X100025743Y-121564676D01*
X100270738Y-121460474D01*
X100495251Y-121330215D01*
X100543460Y-121296521D01*
X100623176Y-121235811D01*
X100698488Y-121173299D01*
X100762340Y-121115426D01*
X100807673Y-121068634D01*
X100827432Y-121039364D01*
X100827756Y-121037039D01*
X100809660Y-121022339D01*
X100763453Y-121002014D01*
X100728456Y-120989888D01*
X100705096Y-120983221D01*
X100679357Y-120978226D01*
X100647703Y-120975157D01*
X100606595Y-120974263D01*
X100552495Y-120975798D01*
X100552495Y-120975798D01*
G37*
X100552495Y-120975798D02*
X100481867Y-120980012D01*
X100391171Y-120987158D01*
X100276872Y-120997487D01*
X100135430Y-121011250D01*
X99963309Y-121028700D01*
X99756970Y-121050089D01*
X99512877Y-121075667D01*
X99491891Y-121077873D01*
X99240193Y-121104472D01*
X99026639Y-121127416D01*
X98847768Y-121147173D01*
X98700117Y-121164209D01*
X98580225Y-121178990D01*
X98484628Y-121191985D01*
X98409864Y-121203659D01*
X98352472Y-121214480D01*
X98308988Y-121224914D01*
X98275952Y-121235428D01*
X98253249Y-121244894D01*
X98196754Y-121274057D01*
X98159951Y-121298239D01*
X98151871Y-121308195D01*
X98169335Y-121328372D01*
X98216036Y-121361516D01*
X98283443Y-121402662D01*
X98363022Y-121446847D01*
X98446239Y-121489108D01*
X98521569Y-121523235D01*
X98801056Y-121617706D01*
X99090052Y-121671490D01*
X99388226Y-121684535D01*
X99521172Y-121677444D01*
X99771982Y-121638454D01*
X100025743Y-121564676D01*
X100270738Y-121460474D01*
X100495251Y-121330215D01*
X100543460Y-121296521D01*
X100623176Y-121235811D01*
X100698488Y-121173299D01*
X100762340Y-121115426D01*
X100807673Y-121068634D01*
X100827432Y-121039364D01*
X100827756Y-121037039D01*
X100809660Y-121022339D01*
X100763453Y-121002014D01*
X100728456Y-120989888D01*
X100705096Y-120983221D01*
X100679357Y-120978226D01*
X100647703Y-120975157D01*
X100606595Y-120974263D01*
X100552495Y-120975798D01*
G36*
X97423848Y-118795499D02*
X97401990Y-118846528D01*
X97375807Y-118921118D01*
X97347980Y-119010711D01*
X97321184Y-119106752D01*
X97298100Y-119200683D01*
X97283258Y-119273251D01*
X97255154Y-119547603D01*
X97266387Y-119826192D01*
X97315668Y-120103379D01*
X97401706Y-120373528D01*
X97523211Y-120631001D01*
X97634904Y-120809633D01*
X97676595Y-120868839D01*
X97707355Y-120911681D01*
X97720959Y-120929494D01*
X97721114Y-120929580D01*
X97732629Y-120913729D01*
X97758942Y-120874222D01*
X97771317Y-120855227D01*
X97819322Y-120781134D01*
X97703495Y-119847922D01*
X97587667Y-118914711D01*
X97520730Y-118845649D01*
X97477748Y-118804405D01*
X97446212Y-118779712D01*
X97438705Y-118776588D01*
X97423848Y-118795499D01*
X97423848Y-118795499D01*
G37*
X97423848Y-118795499D02*
X97401990Y-118846528D01*
X97375807Y-118921118D01*
X97347980Y-119010711D01*
X97321184Y-119106752D01*
X97298100Y-119200683D01*
X97283258Y-119273251D01*
X97255154Y-119547603D01*
X97266387Y-119826192D01*
X97315668Y-120103379D01*
X97401706Y-120373528D01*
X97523211Y-120631001D01*
X97634904Y-120809633D01*
X97676595Y-120868839D01*
X97707355Y-120911681D01*
X97720959Y-120929494D01*
X97721114Y-120929580D01*
X97732629Y-120913729D01*
X97758942Y-120874222D01*
X97771317Y-120855227D01*
X97819322Y-120781134D01*
X97703495Y-119847922D01*
X97587667Y-118914711D01*
X97520730Y-118845649D01*
X97477748Y-118804405D01*
X97446212Y-118779712D01*
X97438705Y-118776588D01*
X97423848Y-118795499D01*
G36*
X100897984Y-118291605D02*
X100868714Y-118334626D01*
X100845395Y-118374181D01*
X100789865Y-118473460D01*
X101037211Y-120387248D01*
X101104953Y-120448877D01*
X101156380Y-120492610D01*
X101187557Y-120509219D01*
X101206653Y-120502243D01*
X101211809Y-120495189D01*
X101233429Y-120449448D01*
X101261907Y-120374589D01*
X101293485Y-120281937D01*
X101324406Y-120182815D01*
X101350913Y-120088546D01*
X101363069Y-120039313D01*
X101386054Y-119897706D01*
X101398249Y-119730483D01*
X101399663Y-119552420D01*
X101390306Y-119378294D01*
X101370187Y-119222881D01*
X101362521Y-119184242D01*
X101307875Y-118990966D01*
X101228256Y-118787410D01*
X101130780Y-118590098D01*
X101046385Y-118450334D01*
X100996034Y-118376668D01*
X100953553Y-118318235D01*
X100924496Y-118282467D01*
X100915276Y-118274880D01*
X100897984Y-118291605D01*
X100897984Y-118291605D01*
G37*
X100897984Y-118291605D02*
X100868714Y-118334626D01*
X100845395Y-118374181D01*
X100789865Y-118473460D01*
X101037211Y-120387248D01*
X101104953Y-120448877D01*
X101156380Y-120492610D01*
X101187557Y-120509219D01*
X101206653Y-120502243D01*
X101211809Y-120495189D01*
X101233429Y-120449448D01*
X101261907Y-120374589D01*
X101293485Y-120281937D01*
X101324406Y-120182815D01*
X101350913Y-120088546D01*
X101363069Y-120039313D01*
X101386054Y-119897706D01*
X101398249Y-119730483D01*
X101399663Y-119552420D01*
X101390306Y-119378294D01*
X101370187Y-119222881D01*
X101362521Y-119184242D01*
X101307875Y-118990966D01*
X101228256Y-118787410D01*
X101130780Y-118590098D01*
X101046385Y-118450334D01*
X100996034Y-118376668D01*
X100953553Y-118318235D01*
X100924496Y-118282467D01*
X100915276Y-118274880D01*
X100897984Y-118291605D01*
G36*
X99147002Y-117558200D02*
X98989942Y-117570607D01*
X98849523Y-117594383D01*
X98713427Y-117631896D01*
X98569332Y-117685513D01*
X98500144Y-117714850D01*
X98426778Y-117750094D01*
X98341763Y-117795939D01*
X98252705Y-117847632D01*
X98167207Y-117900422D01*
X98092875Y-117949558D01*
X98037313Y-117990288D01*
X98008127Y-118017859D01*
X98005534Y-118023899D01*
X98022510Y-118050587D01*
X98063419Y-118082848D01*
X98113231Y-118111085D01*
X98156919Y-118125701D01*
X98165551Y-118126078D01*
X98201039Y-118122761D01*
X98268038Y-118115615D01*
X98356540Y-118105735D01*
X98444546Y-118095612D01*
X98545426Y-118084242D01*
X98676867Y-118070014D01*
X98831854Y-118053636D01*
X99003370Y-118035819D01*
X99184397Y-118017270D01*
X99367921Y-117998698D01*
X99546923Y-117980812D01*
X99714388Y-117964322D01*
X99863299Y-117949934D01*
X99986639Y-117938360D01*
X100077392Y-117930307D01*
X100096069Y-117928774D01*
X100206475Y-117915448D01*
X100296213Y-117895712D01*
X100358755Y-117871578D01*
X100387571Y-117845057D01*
X100388744Y-117838607D01*
X100370984Y-117823467D01*
X100323746Y-117796507D01*
X100256089Y-117762117D01*
X100177074Y-117724690D01*
X100095761Y-117688618D01*
X100021212Y-117658291D01*
X100001995Y-117651142D01*
X99889482Y-117613725D01*
X99783978Y-117587022D01*
X99674351Y-117569429D01*
X99549474Y-117559345D01*
X99398217Y-117555165D01*
X99333023Y-117554794D01*
X99147002Y-117558200D01*
X99147002Y-117558200D01*
G37*
X99147002Y-117558200D02*
X98989942Y-117570607D01*
X98849523Y-117594383D01*
X98713427Y-117631896D01*
X98569332Y-117685513D01*
X98500144Y-117714850D01*
X98426778Y-117750094D01*
X98341763Y-117795939D01*
X98252705Y-117847632D01*
X98167207Y-117900422D01*
X98092875Y-117949558D01*
X98037313Y-117990288D01*
X98008127Y-118017859D01*
X98005534Y-118023899D01*
X98022510Y-118050587D01*
X98063419Y-118082848D01*
X98113231Y-118111085D01*
X98156919Y-118125701D01*
X98165551Y-118126078D01*
X98201039Y-118122761D01*
X98268038Y-118115615D01*
X98356540Y-118105735D01*
X98444546Y-118095612D01*
X98545426Y-118084242D01*
X98676867Y-118070014D01*
X98831854Y-118053636D01*
X99003370Y-118035819D01*
X99184397Y-118017270D01*
X99367921Y-117998698D01*
X99546923Y-117980812D01*
X99714388Y-117964322D01*
X99863299Y-117949934D01*
X99986639Y-117938360D01*
X100077392Y-117930307D01*
X100096069Y-117928774D01*
X100206475Y-117915448D01*
X100296213Y-117895712D01*
X100358755Y-117871578D01*
X100387571Y-117845057D01*
X100388744Y-117838607D01*
X100370984Y-117823467D01*
X100323746Y-117796507D01*
X100256089Y-117762117D01*
X100177074Y-117724690D01*
X100095761Y-117688618D01*
X100021212Y-117658291D01*
X100001995Y-117651142D01*
X99889482Y-117613725D01*
X99783978Y-117587022D01*
X99674351Y-117569429D01*
X99549474Y-117559345D01*
X99398217Y-117555165D01*
X99333023Y-117554794D01*
X99147002Y-117558200D01*
D15*
X65107143Y-100798334D02*
X65154762Y-100750715D01*
X65202381Y-100607858D01*
X65202381Y-100512620D01*
X65154762Y-100369762D01*
X65059524Y-100274524D01*
X64964286Y-100226905D01*
X64773810Y-100179286D01*
X64630952Y-100179286D01*
X64440476Y-100226905D01*
X64345238Y-100274524D01*
X64250000Y-100369762D01*
X64202381Y-100512620D01*
X64202381Y-100607858D01*
X64250000Y-100750715D01*
X64297619Y-100798334D01*
X64202381Y-101131667D02*
X64202381Y-101750715D01*
X64583333Y-101417381D01*
X64583333Y-101560239D01*
X64630952Y-101655477D01*
X64678571Y-101703096D01*
X64773810Y-101750715D01*
X65011905Y-101750715D01*
X65107143Y-101703096D01*
X65154762Y-101655477D01*
X65202381Y-101560239D01*
X65202381Y-101274524D01*
X65154762Y-101179286D01*
X65107143Y-101131667D01*
X52915143Y-122769334D02*
X52962762Y-122721715D01*
X53010381Y-122578858D01*
X53010381Y-122483620D01*
X52962762Y-122340762D01*
X52867524Y-122245524D01*
X52772286Y-122197905D01*
X52581810Y-122150286D01*
X52438952Y-122150286D01*
X52248476Y-122197905D01*
X52153238Y-122245524D01*
X52058000Y-122340762D01*
X52010381Y-122483620D01*
X52010381Y-122578858D01*
X52058000Y-122721715D01*
X52105619Y-122769334D01*
X52343714Y-123626477D02*
X53010381Y-123626477D01*
X51962762Y-123388381D02*
X52677048Y-123150286D01*
X52677048Y-123769334D01*
X57382743Y-120444134D02*
X57430362Y-120396515D01*
X57477981Y-120253658D01*
X57477981Y-120158420D01*
X57430362Y-120015562D01*
X57335124Y-119920324D01*
X57239886Y-119872705D01*
X57049410Y-119825086D01*
X56906552Y-119825086D01*
X56716076Y-119872705D01*
X56620838Y-119920324D01*
X56525600Y-120015562D01*
X56477981Y-120158420D01*
X56477981Y-120253658D01*
X56525600Y-120396515D01*
X56573219Y-120444134D01*
X56906552Y-121015562D02*
X56858933Y-120920324D01*
X56811314Y-120872705D01*
X56716076Y-120825086D01*
X56668457Y-120825086D01*
X56573219Y-120872705D01*
X56525600Y-120920324D01*
X56477981Y-121015562D01*
X56477981Y-121206039D01*
X56525600Y-121301277D01*
X56573219Y-121348896D01*
X56668457Y-121396515D01*
X56716076Y-121396515D01*
X56811314Y-121348896D01*
X56858933Y-121301277D01*
X56906552Y-121206039D01*
X56906552Y-121015562D01*
X56954171Y-120920324D01*
X57001790Y-120872705D01*
X57097029Y-120825086D01*
X57287505Y-120825086D01*
X57382743Y-120872705D01*
X57430362Y-120920324D01*
X57477981Y-121015562D01*
X57477981Y-121206039D01*
X57430362Y-121301277D01*
X57382743Y-121348896D01*
X57287505Y-121396515D01*
X57097029Y-121396515D01*
X57001790Y-121348896D01*
X56954171Y-121301277D01*
X56906552Y-121206039D01*
X50542143Y-75557143D02*
X50589762Y-75509524D01*
X50637381Y-75366667D01*
X50637381Y-75271429D01*
X50589762Y-75128571D01*
X50494524Y-75033333D01*
X50399286Y-74985714D01*
X50208810Y-74938095D01*
X50065952Y-74938095D01*
X49875476Y-74985714D01*
X49780238Y-75033333D01*
X49685000Y-75128571D01*
X49637381Y-75271429D01*
X49637381Y-75366667D01*
X49685000Y-75509524D01*
X49732619Y-75557143D01*
X50637381Y-76509524D02*
X50637381Y-75938095D01*
X50637381Y-76223809D02*
X49637381Y-76223809D01*
X49780238Y-76128571D01*
X49875476Y-76033333D01*
X49923095Y-75938095D01*
X49732619Y-76890476D02*
X49685000Y-76938095D01*
X49637381Y-77033333D01*
X49637381Y-77271429D01*
X49685000Y-77366667D01*
X49732619Y-77414286D01*
X49827857Y-77461905D01*
X49923095Y-77461905D01*
X50065952Y-77414286D01*
X50637381Y-76842857D01*
X50637381Y-77461905D01*
X88457066Y-102587581D02*
X88790400Y-102111390D01*
X89028495Y-102587581D02*
X89028495Y-101587581D01*
X88647542Y-101587581D01*
X88552304Y-101635200D01*
X88504685Y-101682819D01*
X88457066Y-101778057D01*
X88457066Y-101920914D01*
X88504685Y-102016152D01*
X88552304Y-102063771D01*
X88647542Y-102111390D01*
X89028495Y-102111390D01*
X87504685Y-102587581D02*
X88076114Y-102587581D01*
X87790400Y-102587581D02*
X87790400Y-101587581D01*
X87885638Y-101730438D01*
X87980876Y-101825676D01*
X88076114Y-101873295D01*
X53452381Y-81103334D02*
X52976190Y-80770000D01*
X53452381Y-80531905D02*
X52452381Y-80531905D01*
X52452381Y-80912858D01*
X52500000Y-81008096D01*
X52547619Y-81055715D01*
X52642857Y-81103334D01*
X52785714Y-81103334D01*
X52880952Y-81055715D01*
X52928571Y-81008096D01*
X52976190Y-80912858D01*
X52976190Y-80531905D01*
X52452381Y-81436667D02*
X52452381Y-82055715D01*
X52833333Y-81722381D01*
X52833333Y-81865239D01*
X52880952Y-81960477D01*
X52928571Y-82008096D01*
X53023810Y-82055715D01*
X53261905Y-82055715D01*
X53357143Y-82008096D01*
X53404762Y-81960477D01*
X53452381Y-81865239D01*
X53452381Y-81579524D01*
X53404762Y-81484286D01*
X53357143Y-81436667D01*
X68192381Y-98258334D02*
X67716190Y-97925000D01*
X68192381Y-97686905D02*
X67192381Y-97686905D01*
X67192381Y-98067858D01*
X67240000Y-98163096D01*
X67287619Y-98210715D01*
X67382857Y-98258334D01*
X67525714Y-98258334D01*
X67620952Y-98210715D01*
X67668571Y-98163096D01*
X67716190Y-98067858D01*
X67716190Y-97686905D01*
X67192381Y-98591667D02*
X67192381Y-99258334D01*
X68192381Y-98829762D01*
X89701666Y-145867381D02*
X90035000Y-145391190D01*
X90273095Y-145867381D02*
X90273095Y-144867381D01*
X89892142Y-144867381D01*
X89796904Y-144915000D01*
X89749285Y-144962619D01*
X89701666Y-145057857D01*
X89701666Y-145200714D01*
X89749285Y-145295952D01*
X89796904Y-145343571D01*
X89892142Y-145391190D01*
X90273095Y-145391190D01*
X89225476Y-145867381D02*
X89035000Y-145867381D01*
X88939761Y-145819762D01*
X88892142Y-145772143D01*
X88796904Y-145629286D01*
X88749285Y-145438810D01*
X88749285Y-145057857D01*
X88796904Y-144962619D01*
X88844523Y-144915000D01*
X88939761Y-144867381D01*
X89130238Y-144867381D01*
X89225476Y-144915000D01*
X89273095Y-144962619D01*
X89320714Y-145057857D01*
X89320714Y-145295952D01*
X89273095Y-145391190D01*
X89225476Y-145438810D01*
X89130238Y-145486429D01*
X88939761Y-145486429D01*
X88844523Y-145438810D01*
X88796904Y-145391190D01*
X88749285Y-145295952D01*
X99872857Y-77402381D02*
X100206191Y-76926190D01*
X100444286Y-77402381D02*
X100444286Y-76402381D01*
X100063333Y-76402381D01*
X99968095Y-76450000D01*
X99920476Y-76497619D01*
X99872857Y-76592857D01*
X99872857Y-76735714D01*
X99920476Y-76830952D01*
X99968095Y-76878571D01*
X100063333Y-76926190D01*
X100444286Y-76926190D01*
X98920476Y-77402381D02*
X99491905Y-77402381D01*
X99206191Y-77402381D02*
X99206191Y-76402381D01*
X99301429Y-76545238D01*
X99396667Y-76640476D01*
X99491905Y-76688095D01*
X97968095Y-77402381D02*
X98539524Y-77402381D01*
X98253810Y-77402381D02*
X98253810Y-76402381D01*
X98349048Y-76545238D01*
X98444286Y-76640476D01*
X98539524Y-76688095D01*
M02*
