G04 #@! TF.FileFunction,Soldermask,Top*
%FSLAX46Y46*%
G04 Gerber Fmt 4.6, Leading zero omitted, Abs format (unit mm)*
G04 Created by KiCad (PCBNEW 4.0.6) date Sunday, June 18, 2017 'PMt' 11:18:17 PM*
%MOMM*%
%LPD*%
G01*
G04 APERTURE LIST*
%ADD10C,0.100000*%
G04 APERTURE END LIST*
D10*
G36*
X51614209Y-145614936D02*
X51941979Y-145682217D01*
X52250436Y-145811880D01*
X52527836Y-145998989D01*
X52763609Y-146236415D01*
X52948776Y-146515113D01*
X53076282Y-146824466D01*
X53076282Y-146824468D01*
X53141274Y-147152698D01*
X53135937Y-147534878D01*
X53135897Y-147535054D01*
X53135897Y-147535055D01*
X53061806Y-147861167D01*
X52925710Y-148166844D01*
X52732837Y-148440259D01*
X52732835Y-148440261D01*
X52490525Y-148671010D01*
X52283612Y-148802321D01*
X52208009Y-148850300D01*
X51896052Y-148971300D01*
X51566529Y-149029404D01*
X51232001Y-149022396D01*
X50905208Y-148950546D01*
X50905207Y-148950546D01*
X50905204Y-148950545D01*
X50675751Y-148850299D01*
X50598583Y-148816585D01*
X50323826Y-148625624D01*
X50091391Y-148384930D01*
X49910134Y-148103675D01*
X49786960Y-147792572D01*
X49726557Y-147463464D01*
X49731229Y-147128890D01*
X49800796Y-146801599D01*
X49932611Y-146494055D01*
X50121651Y-146217969D01*
X50127771Y-146211976D01*
X50360715Y-145983859D01*
X50623525Y-145811881D01*
X50640701Y-145800641D01*
X50950936Y-145675299D01*
X50950935Y-145675299D01*
X50950938Y-145675298D01*
X51115276Y-145643949D01*
X51279616Y-145612599D01*
X51614209Y-145614936D01*
X51614209Y-145614936D01*
G37*
G36*
X78686184Y-144537456D02*
X78849541Y-144588024D01*
X78999965Y-144669357D01*
X79131726Y-144778360D01*
X79239806Y-144910878D01*
X79320087Y-145061866D01*
X79369513Y-145225572D01*
X79386200Y-145395760D01*
X79386200Y-145404362D01*
X79386138Y-145413163D01*
X79386115Y-145416474D01*
X79367053Y-145586412D01*
X79315346Y-145749412D01*
X79232964Y-145899264D01*
X79123045Y-146030261D01*
X78989775Y-146137413D01*
X78838230Y-146216638D01*
X78674184Y-146264920D01*
X78674160Y-146264922D01*
X78674157Y-146264923D01*
X78503887Y-146280419D01*
X78503883Y-146280419D01*
X78333816Y-146262544D01*
X78170459Y-146211976D01*
X78020035Y-146130643D01*
X77888274Y-146021640D01*
X77780194Y-145889122D01*
X77699913Y-145738134D01*
X77650487Y-145574428D01*
X77633800Y-145404240D01*
X77633800Y-145395638D01*
X77633878Y-145384565D01*
X77633885Y-145383526D01*
X77652947Y-145213588D01*
X77704654Y-145050588D01*
X77787036Y-144900736D01*
X77896955Y-144769739D01*
X78030225Y-144662587D01*
X78181770Y-144583362D01*
X78345816Y-144535080D01*
X78345840Y-144535078D01*
X78345843Y-144535077D01*
X78516115Y-144519581D01*
X78516117Y-144519581D01*
X78686184Y-144537456D01*
X78686184Y-144537456D01*
G37*
G36*
X81226184Y-144537456D02*
X81389541Y-144588024D01*
X81539965Y-144669357D01*
X81671726Y-144778360D01*
X81779806Y-144910878D01*
X81860087Y-145061866D01*
X81909513Y-145225572D01*
X81926200Y-145395760D01*
X81926200Y-145404362D01*
X81926138Y-145413163D01*
X81926115Y-145416474D01*
X81907053Y-145586412D01*
X81855346Y-145749412D01*
X81772964Y-145899264D01*
X81663045Y-146030261D01*
X81529775Y-146137413D01*
X81378230Y-146216638D01*
X81214184Y-146264920D01*
X81214160Y-146264922D01*
X81214157Y-146264923D01*
X81043887Y-146280419D01*
X81043883Y-146280419D01*
X80873816Y-146262544D01*
X80710459Y-146211976D01*
X80560035Y-146130643D01*
X80428274Y-146021640D01*
X80320194Y-145889122D01*
X80239913Y-145738134D01*
X80190487Y-145574428D01*
X80173800Y-145404240D01*
X80173800Y-145395638D01*
X80173878Y-145384565D01*
X80173885Y-145383526D01*
X80192947Y-145213588D01*
X80244654Y-145050588D01*
X80327036Y-144900736D01*
X80436955Y-144769739D01*
X80570225Y-144662587D01*
X80721770Y-144583362D01*
X80885816Y-144535080D01*
X80885840Y-144535078D01*
X80885843Y-144535077D01*
X81056115Y-144519581D01*
X81056117Y-144519581D01*
X81226184Y-144537456D01*
X81226184Y-144537456D01*
G37*
G36*
X83766184Y-144537456D02*
X83929541Y-144588024D01*
X84079965Y-144669357D01*
X84211726Y-144778360D01*
X84319806Y-144910878D01*
X84400087Y-145061866D01*
X84449513Y-145225572D01*
X84466200Y-145395760D01*
X84466200Y-145404362D01*
X84466138Y-145413163D01*
X84466115Y-145416474D01*
X84447053Y-145586412D01*
X84395346Y-145749412D01*
X84312964Y-145899264D01*
X84203045Y-146030261D01*
X84069775Y-146137413D01*
X83918230Y-146216638D01*
X83754184Y-146264920D01*
X83754160Y-146264922D01*
X83754157Y-146264923D01*
X83583887Y-146280419D01*
X83583883Y-146280419D01*
X83413816Y-146262544D01*
X83250459Y-146211976D01*
X83100035Y-146130643D01*
X82968274Y-146021640D01*
X82860194Y-145889122D01*
X82779913Y-145738134D01*
X82730487Y-145574428D01*
X82713800Y-145404240D01*
X82713800Y-145395638D01*
X82713878Y-145384565D01*
X82713885Y-145383526D01*
X82732947Y-145213588D01*
X82784654Y-145050588D01*
X82867036Y-144900736D01*
X82976955Y-144769739D01*
X83110225Y-144662587D01*
X83261770Y-144583362D01*
X83425816Y-144535080D01*
X83425840Y-144535078D01*
X83425843Y-144535077D01*
X83596115Y-144519581D01*
X83596117Y-144519581D01*
X83766184Y-144537456D01*
X83766184Y-144537456D01*
G37*
G36*
X76846200Y-146276200D02*
X75093800Y-146276200D01*
X75093800Y-144523800D01*
X76846200Y-144523800D01*
X76846200Y-146276200D01*
X76846200Y-146276200D01*
G37*
G36*
X99648289Y-143074549D02*
X99864638Y-143118959D01*
X100068236Y-143204543D01*
X100251343Y-143328051D01*
X100406967Y-143484765D01*
X100529189Y-143668724D01*
X100613350Y-143872915D01*
X100656214Y-144089392D01*
X100656214Y-144089398D01*
X100656248Y-144089570D01*
X100652726Y-144341833D01*
X100652686Y-144342009D01*
X100652686Y-144342010D01*
X100603796Y-144557205D01*
X100513963Y-144758972D01*
X100386655Y-144939442D01*
X100226714Y-145091752D01*
X100040235Y-145210095D01*
X99834323Y-145289963D01*
X99616817Y-145328316D01*
X99396007Y-145323690D01*
X99180305Y-145276265D01*
X98977910Y-145187841D01*
X98796554Y-145061795D01*
X98643132Y-144902922D01*
X98523491Y-144717276D01*
X98442189Y-144511929D01*
X98402319Y-144294696D01*
X98405403Y-144073854D01*
X98451321Y-143857822D01*
X98538327Y-143654824D01*
X98663106Y-143472589D01*
X98820904Y-143318063D01*
X99005714Y-143197126D01*
X99210486Y-143114393D01*
X99427438Y-143073006D01*
X99648289Y-143074549D01*
X99648289Y-143074549D01*
G37*
G36*
X106178393Y-142240845D02*
X106422367Y-142290925D01*
X106651962Y-142387438D01*
X106858448Y-142526715D01*
X107033943Y-142703440D01*
X107171772Y-142910887D01*
X107266679Y-143141152D01*
X107315021Y-143385291D01*
X107315021Y-143385303D01*
X107315054Y-143385470D01*
X107311082Y-143669943D01*
X107311043Y-143670114D01*
X107311043Y-143670120D01*
X107255905Y-143912815D01*
X107154602Y-144140344D01*
X107011038Y-144343859D01*
X106830675Y-144515616D01*
X106620385Y-144649070D01*
X106388181Y-144739136D01*
X106142903Y-144782386D01*
X105893898Y-144777169D01*
X105650653Y-144723689D01*
X105422417Y-144623975D01*
X105217903Y-144481834D01*
X105044891Y-144302675D01*
X104909974Y-144093325D01*
X104818290Y-143861757D01*
X104773330Y-143616787D01*
X104776807Y-143367747D01*
X104828589Y-143124131D01*
X104926705Y-142895213D01*
X105067415Y-142689709D01*
X105245362Y-142515452D01*
X105453769Y-142379073D01*
X105684689Y-142285776D01*
X105929341Y-142239105D01*
X106178393Y-142240845D01*
X106178393Y-142240845D01*
G37*
G36*
X103546200Y-144651200D02*
X102193800Y-144651200D01*
X102193800Y-143298800D01*
X103546200Y-143298800D01*
X103546200Y-144651200D01*
X103546200Y-144651200D01*
G37*
G36*
X64456200Y-143756200D02*
X64003800Y-143756200D01*
X64003800Y-142003800D01*
X64456200Y-142003800D01*
X64456200Y-143756200D01*
X64456200Y-143756200D01*
G37*
G36*
X63856200Y-143756200D02*
X63403800Y-143756200D01*
X63403800Y-142003800D01*
X63856200Y-142003800D01*
X63856200Y-143756200D01*
X63856200Y-143756200D01*
G37*
G36*
X63256200Y-143756200D02*
X62803800Y-143756200D01*
X62803800Y-142003800D01*
X63256200Y-142003800D01*
X63256200Y-143756200D01*
X63256200Y-143756200D01*
G37*
G36*
X62656200Y-143756200D02*
X62203800Y-143756200D01*
X62203800Y-142003800D01*
X62656200Y-142003800D01*
X62656200Y-143756200D01*
X62656200Y-143756200D01*
G37*
G36*
X62056200Y-143756200D02*
X61603800Y-143756200D01*
X61603800Y-142003800D01*
X62056200Y-142003800D01*
X62056200Y-143756200D01*
X62056200Y-143756200D01*
G37*
G36*
X61456200Y-143756200D02*
X61003800Y-143756200D01*
X61003800Y-142003800D01*
X61456200Y-142003800D01*
X61456200Y-143756200D01*
X61456200Y-143756200D01*
G37*
G36*
X60856200Y-143756200D02*
X60403800Y-143756200D01*
X60403800Y-142003800D01*
X60856200Y-142003800D01*
X60856200Y-143756200D01*
X60856200Y-143756200D01*
G37*
G36*
X60256200Y-143756200D02*
X59803800Y-143756200D01*
X59803800Y-142003800D01*
X60256200Y-142003800D01*
X60256200Y-143756200D01*
X60256200Y-143756200D01*
G37*
G36*
X59656200Y-143756200D02*
X59203800Y-143756200D01*
X59203800Y-142003800D01*
X59656200Y-142003800D01*
X59656200Y-143756200D01*
X59656200Y-143756200D01*
G37*
G36*
X59056200Y-143756200D02*
X58603800Y-143756200D01*
X58603800Y-142003800D01*
X59056200Y-142003800D01*
X59056200Y-143756200D01*
X59056200Y-143756200D01*
G37*
G36*
X65056200Y-143756200D02*
X64603800Y-143756200D01*
X64603800Y-142003800D01*
X65056200Y-142003800D01*
X65056200Y-143756200D01*
X65056200Y-143756200D01*
G37*
G36*
X65656200Y-143756200D02*
X65203800Y-143756200D01*
X65203800Y-142003800D01*
X65656200Y-142003800D01*
X65656200Y-143756200D01*
X65656200Y-143756200D01*
G37*
G36*
X66256200Y-143756200D02*
X65803800Y-143756200D01*
X65803800Y-142003800D01*
X66256200Y-142003800D01*
X66256200Y-143756200D01*
X66256200Y-143756200D01*
G37*
G36*
X66856200Y-143756200D02*
X66403800Y-143756200D01*
X66403800Y-142003800D01*
X66856200Y-142003800D01*
X66856200Y-143756200D01*
X66856200Y-143756200D01*
G37*
G36*
X67456200Y-143756200D02*
X67003800Y-143756200D01*
X67003800Y-142003800D01*
X67456200Y-142003800D01*
X67456200Y-143756200D01*
X67456200Y-143756200D01*
G37*
G36*
X68056200Y-143756200D02*
X67603800Y-143756200D01*
X67603800Y-142003800D01*
X68056200Y-142003800D01*
X68056200Y-143756200D01*
X68056200Y-143756200D01*
G37*
G36*
X68656200Y-143756200D02*
X68203800Y-143756200D01*
X68203800Y-142003800D01*
X68656200Y-142003800D01*
X68656200Y-143756200D01*
X68656200Y-143756200D01*
G37*
G36*
X69256200Y-143756200D02*
X68803800Y-143756200D01*
X68803800Y-142003800D01*
X69256200Y-142003800D01*
X69256200Y-143756200D01*
X69256200Y-143756200D01*
G37*
G36*
X69856200Y-143756200D02*
X69403800Y-143756200D01*
X69403800Y-142003800D01*
X69856200Y-142003800D01*
X69856200Y-143756200D01*
X69856200Y-143756200D01*
G37*
G36*
X70456200Y-143756200D02*
X70003800Y-143756200D01*
X70003800Y-142003800D01*
X70456200Y-142003800D01*
X70456200Y-143756200D01*
X70456200Y-143756200D01*
G37*
G36*
X71206200Y-143556200D02*
X70653800Y-143556200D01*
X70653800Y-141803800D01*
X71206200Y-141803800D01*
X71206200Y-143556200D01*
X71206200Y-143556200D01*
G37*
G36*
X58406200Y-143556200D02*
X57853800Y-143556200D01*
X57853800Y-141803800D01*
X58406200Y-141803800D01*
X58406200Y-143556200D01*
X58406200Y-143556200D01*
G37*
G36*
X89648289Y-140574549D02*
X89864638Y-140618959D01*
X90068236Y-140704543D01*
X90251343Y-140828051D01*
X90406967Y-140984765D01*
X90529189Y-141168724D01*
X90613350Y-141372915D01*
X90656214Y-141589392D01*
X90656214Y-141589398D01*
X90656248Y-141589570D01*
X90652726Y-141841833D01*
X90652686Y-141842009D01*
X90652686Y-141842010D01*
X90603796Y-142057205D01*
X90513963Y-142258972D01*
X90386655Y-142439442D01*
X90226714Y-142591752D01*
X90040235Y-142710095D01*
X89834323Y-142789963D01*
X89616817Y-142828316D01*
X89396007Y-142823690D01*
X89180305Y-142776265D01*
X88977910Y-142687841D01*
X88796554Y-142561795D01*
X88643132Y-142402922D01*
X88523491Y-142217276D01*
X88442189Y-142011929D01*
X88402319Y-141794696D01*
X88405403Y-141573854D01*
X88451321Y-141357822D01*
X88538327Y-141154824D01*
X88663106Y-140972589D01*
X88820904Y-140818063D01*
X89005714Y-140697126D01*
X89210486Y-140614393D01*
X89427438Y-140573006D01*
X89648289Y-140574549D01*
X89648289Y-140574549D01*
G37*
G36*
X103546200Y-142451200D02*
X102193800Y-142451200D01*
X102193800Y-141098800D01*
X103546200Y-141098800D01*
X103546200Y-142451200D01*
X103546200Y-142451200D01*
G37*
G36*
X99648289Y-138074549D02*
X99864638Y-138118959D01*
X100068236Y-138204543D01*
X100251343Y-138328051D01*
X100406967Y-138484765D01*
X100529189Y-138668724D01*
X100613350Y-138872915D01*
X100656214Y-139089392D01*
X100656214Y-139089398D01*
X100656248Y-139089570D01*
X100652726Y-139341833D01*
X100652686Y-139342009D01*
X100652686Y-139342010D01*
X100603796Y-139557205D01*
X100513963Y-139758972D01*
X100386655Y-139939442D01*
X100226714Y-140091752D01*
X100040235Y-140210095D01*
X99834323Y-140289963D01*
X99616817Y-140328316D01*
X99396007Y-140323690D01*
X99180305Y-140276265D01*
X98977910Y-140187841D01*
X98796554Y-140061795D01*
X98643132Y-139902922D01*
X98523491Y-139717276D01*
X98442189Y-139511929D01*
X98402319Y-139294696D01*
X98405403Y-139073854D01*
X98451321Y-138857822D01*
X98538327Y-138654824D01*
X98663106Y-138472589D01*
X98820904Y-138318063D01*
X99005714Y-138197126D01*
X99210486Y-138114393D01*
X99427438Y-138073006D01*
X99648289Y-138074549D01*
X99648289Y-138074549D01*
G37*
G36*
X63556200Y-140006200D02*
X63103800Y-140006200D01*
X63103800Y-138253800D01*
X63556200Y-138253800D01*
X63556200Y-140006200D01*
X63556200Y-140006200D01*
G37*
G36*
X62956200Y-140006200D02*
X62503800Y-140006200D01*
X62503800Y-138253800D01*
X62956200Y-138253800D01*
X62956200Y-140006200D01*
X62956200Y-140006200D01*
G37*
G36*
X62356200Y-140006200D02*
X61903800Y-140006200D01*
X61903800Y-138253800D01*
X62356200Y-138253800D01*
X62356200Y-140006200D01*
X62356200Y-140006200D01*
G37*
G36*
X61756200Y-140006200D02*
X61303800Y-140006200D01*
X61303800Y-138253800D01*
X61756200Y-138253800D01*
X61756200Y-140006200D01*
X61756200Y-140006200D01*
G37*
G36*
X61156200Y-140006200D02*
X60703800Y-140006200D01*
X60703800Y-138253800D01*
X61156200Y-138253800D01*
X61156200Y-140006200D01*
X61156200Y-140006200D01*
G37*
G36*
X60556200Y-140006200D02*
X60103800Y-140006200D01*
X60103800Y-138253800D01*
X60556200Y-138253800D01*
X60556200Y-140006200D01*
X60556200Y-140006200D01*
G37*
G36*
X59956200Y-140006200D02*
X59503800Y-140006200D01*
X59503800Y-138253800D01*
X59956200Y-138253800D01*
X59956200Y-140006200D01*
X59956200Y-140006200D01*
G37*
G36*
X64156200Y-140006200D02*
X63703800Y-140006200D01*
X63703800Y-138253800D01*
X64156200Y-138253800D01*
X64156200Y-140006200D01*
X64156200Y-140006200D01*
G37*
G36*
X64756200Y-140006200D02*
X64303800Y-140006200D01*
X64303800Y-138253800D01*
X64756200Y-138253800D01*
X64756200Y-140006200D01*
X64756200Y-140006200D01*
G37*
G36*
X59356200Y-140006200D02*
X58903800Y-140006200D01*
X58903800Y-138253800D01*
X59356200Y-138253800D01*
X59356200Y-140006200D01*
X59356200Y-140006200D01*
G37*
G36*
X65356200Y-140006200D02*
X64903800Y-140006200D01*
X64903800Y-138253800D01*
X65356200Y-138253800D01*
X65356200Y-140006200D01*
X65356200Y-140006200D01*
G37*
G36*
X65956200Y-140006200D02*
X65503800Y-140006200D01*
X65503800Y-138253800D01*
X65956200Y-138253800D01*
X65956200Y-140006200D01*
X65956200Y-140006200D01*
G37*
G36*
X66556200Y-140006200D02*
X66103800Y-140006200D01*
X66103800Y-138253800D01*
X66556200Y-138253800D01*
X66556200Y-140006200D01*
X66556200Y-140006200D01*
G37*
G36*
X67156200Y-140006200D02*
X66703800Y-140006200D01*
X66703800Y-138253800D01*
X67156200Y-138253800D01*
X67156200Y-140006200D01*
X67156200Y-140006200D01*
G37*
G36*
X67756200Y-140006200D02*
X67303800Y-140006200D01*
X67303800Y-138253800D01*
X67756200Y-138253800D01*
X67756200Y-140006200D01*
X67756200Y-140006200D01*
G37*
G36*
X68356200Y-140006200D02*
X67903800Y-140006200D01*
X67903800Y-138253800D01*
X68356200Y-138253800D01*
X68356200Y-140006200D01*
X68356200Y-140006200D01*
G37*
G36*
X68956200Y-140006200D02*
X68503800Y-140006200D01*
X68503800Y-138253800D01*
X68956200Y-138253800D01*
X68956200Y-140006200D01*
X68956200Y-140006200D01*
G37*
G36*
X69556200Y-140006200D02*
X69103800Y-140006200D01*
X69103800Y-138253800D01*
X69556200Y-138253800D01*
X69556200Y-140006200D01*
X69556200Y-140006200D01*
G37*
G36*
X70156200Y-140006200D02*
X69703800Y-140006200D01*
X69703800Y-138253800D01*
X70156200Y-138253800D01*
X70156200Y-140006200D01*
X70156200Y-140006200D01*
G37*
G36*
X106316200Y-139791200D02*
X104663800Y-139791200D01*
X104663800Y-138338800D01*
X106316200Y-138338800D01*
X106316200Y-139791200D01*
X106316200Y-139791200D01*
G37*
G36*
X103616200Y-139791200D02*
X101963800Y-139791200D01*
X101963800Y-138338800D01*
X103616200Y-138338800D01*
X103616200Y-139791200D01*
X103616200Y-139791200D01*
G37*
G36*
X76146184Y-136917456D02*
X76309541Y-136968024D01*
X76459965Y-137049357D01*
X76591726Y-137158360D01*
X76699806Y-137290878D01*
X76780087Y-137441866D01*
X76829513Y-137605572D01*
X76846200Y-137775760D01*
X76846200Y-137784362D01*
X76846138Y-137793163D01*
X76846115Y-137796474D01*
X76827053Y-137966412D01*
X76775346Y-138129412D01*
X76692964Y-138279264D01*
X76583045Y-138410261D01*
X76449775Y-138517413D01*
X76298230Y-138596638D01*
X76134184Y-138644920D01*
X76134160Y-138644922D01*
X76134157Y-138644923D01*
X75963887Y-138660419D01*
X75963883Y-138660419D01*
X75793816Y-138642544D01*
X75630459Y-138591976D01*
X75480035Y-138510643D01*
X75348274Y-138401640D01*
X75240194Y-138269122D01*
X75159913Y-138118134D01*
X75110487Y-137954428D01*
X75093800Y-137784240D01*
X75093800Y-137775638D01*
X75093878Y-137764565D01*
X75093885Y-137763526D01*
X75112947Y-137593588D01*
X75164654Y-137430588D01*
X75247036Y-137280736D01*
X75356955Y-137149739D01*
X75490225Y-137042587D01*
X75641770Y-136963362D01*
X75805816Y-136915080D01*
X75805840Y-136915078D01*
X75805843Y-136915077D01*
X75976115Y-136899581D01*
X75976117Y-136899581D01*
X76146184Y-136917456D01*
X76146184Y-136917456D01*
G37*
G36*
X78686184Y-136917456D02*
X78849541Y-136968024D01*
X78999965Y-137049357D01*
X79131726Y-137158360D01*
X79239806Y-137290878D01*
X79320087Y-137441866D01*
X79369513Y-137605572D01*
X79386200Y-137775760D01*
X79386200Y-137784362D01*
X79386138Y-137793163D01*
X79386115Y-137796474D01*
X79367053Y-137966412D01*
X79315346Y-138129412D01*
X79232964Y-138279264D01*
X79123045Y-138410261D01*
X78989775Y-138517413D01*
X78838230Y-138596638D01*
X78674184Y-138644920D01*
X78674160Y-138644922D01*
X78674157Y-138644923D01*
X78503887Y-138660419D01*
X78503883Y-138660419D01*
X78333816Y-138642544D01*
X78170459Y-138591976D01*
X78020035Y-138510643D01*
X77888274Y-138401640D01*
X77780194Y-138269122D01*
X77699913Y-138118134D01*
X77650487Y-137954428D01*
X77633800Y-137784240D01*
X77633800Y-137775638D01*
X77633878Y-137764565D01*
X77633885Y-137763526D01*
X77652947Y-137593588D01*
X77704654Y-137430588D01*
X77787036Y-137280736D01*
X77896955Y-137149739D01*
X78030225Y-137042587D01*
X78181770Y-136963362D01*
X78345816Y-136915080D01*
X78345840Y-136915078D01*
X78345843Y-136915077D01*
X78516115Y-136899581D01*
X78516117Y-136899581D01*
X78686184Y-136917456D01*
X78686184Y-136917456D01*
G37*
G36*
X81226184Y-136917456D02*
X81389541Y-136968024D01*
X81539965Y-137049357D01*
X81671726Y-137158360D01*
X81779806Y-137290878D01*
X81860087Y-137441866D01*
X81909513Y-137605572D01*
X81926200Y-137775760D01*
X81926200Y-137784362D01*
X81926138Y-137793163D01*
X81926115Y-137796474D01*
X81907053Y-137966412D01*
X81855346Y-138129412D01*
X81772964Y-138279264D01*
X81663045Y-138410261D01*
X81529775Y-138517413D01*
X81378230Y-138596638D01*
X81214184Y-138644920D01*
X81214160Y-138644922D01*
X81214157Y-138644923D01*
X81043887Y-138660419D01*
X81043883Y-138660419D01*
X80873816Y-138642544D01*
X80710459Y-138591976D01*
X80560035Y-138510643D01*
X80428274Y-138401640D01*
X80320194Y-138269122D01*
X80239913Y-138118134D01*
X80190487Y-137954428D01*
X80173800Y-137784240D01*
X80173800Y-137775638D01*
X80173878Y-137764565D01*
X80173885Y-137763526D01*
X80192947Y-137593588D01*
X80244654Y-137430588D01*
X80327036Y-137280736D01*
X80436955Y-137149739D01*
X80570225Y-137042587D01*
X80721770Y-136963362D01*
X80885816Y-136915080D01*
X80885840Y-136915078D01*
X80885843Y-136915077D01*
X81056115Y-136899581D01*
X81056117Y-136899581D01*
X81226184Y-136917456D01*
X81226184Y-136917456D01*
G37*
G36*
X83766184Y-136917456D02*
X83929541Y-136968024D01*
X84079965Y-137049357D01*
X84211726Y-137158360D01*
X84319806Y-137290878D01*
X84400087Y-137441866D01*
X84449513Y-137605572D01*
X84466200Y-137775760D01*
X84466200Y-137784362D01*
X84466138Y-137793163D01*
X84466115Y-137796474D01*
X84447053Y-137966412D01*
X84395346Y-138129412D01*
X84312964Y-138279264D01*
X84203045Y-138410261D01*
X84069775Y-138517413D01*
X83918230Y-138596638D01*
X83754184Y-138644920D01*
X83754160Y-138644922D01*
X83754157Y-138644923D01*
X83583887Y-138660419D01*
X83583883Y-138660419D01*
X83413816Y-138642544D01*
X83250459Y-138591976D01*
X83100035Y-138510643D01*
X82968274Y-138401640D01*
X82860194Y-138269122D01*
X82779913Y-138118134D01*
X82730487Y-137954428D01*
X82713800Y-137784240D01*
X82713800Y-137775638D01*
X82713878Y-137764565D01*
X82713885Y-137763526D01*
X82732947Y-137593588D01*
X82784654Y-137430588D01*
X82867036Y-137280736D01*
X82976955Y-137149739D01*
X83110225Y-137042587D01*
X83261770Y-136963362D01*
X83425816Y-136915080D01*
X83425840Y-136915078D01*
X83425843Y-136915077D01*
X83596115Y-136899581D01*
X83596117Y-136899581D01*
X83766184Y-136917456D01*
X83766184Y-136917456D01*
G37*
G36*
X56606200Y-137431200D02*
X55153800Y-137431200D01*
X55153800Y-135778800D01*
X56606200Y-135778800D01*
X56606200Y-137431200D01*
X56606200Y-137431200D01*
G37*
G36*
X51526200Y-136796200D02*
X50073800Y-136796200D01*
X50073800Y-135143800D01*
X51526200Y-135143800D01*
X51526200Y-136796200D01*
X51526200Y-136796200D01*
G37*
G36*
X53791200Y-136754200D02*
X52888800Y-136754200D01*
X52888800Y-135401800D01*
X53791200Y-135401800D01*
X53791200Y-136754200D01*
X53791200Y-136754200D01*
G37*
G36*
X83287534Y-133009449D02*
X83475067Y-133047944D01*
X83651547Y-133122129D01*
X83810267Y-133229187D01*
X83945163Y-133365029D01*
X84051106Y-133524485D01*
X84124057Y-133701480D01*
X84161208Y-133889100D01*
X84161208Y-133889112D01*
X84161241Y-133889279D01*
X84158188Y-134107942D01*
X84158149Y-134108113D01*
X84158149Y-134108119D01*
X84115775Y-134294629D01*
X84037908Y-134469522D01*
X83927557Y-134625955D01*
X83788918Y-134757978D01*
X83627276Y-134860559D01*
X83448790Y-134929789D01*
X83260254Y-134963034D01*
X83068854Y-134959024D01*
X82881882Y-134917916D01*
X82706444Y-134841269D01*
X82549242Y-134732011D01*
X82416255Y-134594299D01*
X82312549Y-134433379D01*
X82242076Y-134255383D01*
X82207517Y-134067083D01*
X82210189Y-133875656D01*
X82249992Y-133688397D01*
X82325410Y-133512437D01*
X82433567Y-133354477D01*
X82570352Y-133220527D01*
X82730544Y-133115700D01*
X82908044Y-133043985D01*
X83096097Y-133008112D01*
X83287534Y-133009449D01*
X83287534Y-133009449D01*
G37*
G36*
X85827534Y-133009449D02*
X86015067Y-133047944D01*
X86191547Y-133122129D01*
X86350267Y-133229187D01*
X86485163Y-133365029D01*
X86591106Y-133524485D01*
X86664057Y-133701480D01*
X86701208Y-133889100D01*
X86701208Y-133889112D01*
X86701241Y-133889279D01*
X86698188Y-134107942D01*
X86698149Y-134108113D01*
X86698149Y-134108119D01*
X86655775Y-134294629D01*
X86577908Y-134469522D01*
X86467557Y-134625955D01*
X86328918Y-134757978D01*
X86167276Y-134860559D01*
X85988790Y-134929789D01*
X85800254Y-134963034D01*
X85608854Y-134959024D01*
X85421882Y-134917916D01*
X85246444Y-134841269D01*
X85089242Y-134732011D01*
X84956255Y-134594299D01*
X84852549Y-134433379D01*
X84782076Y-134255383D01*
X84747517Y-134067083D01*
X84750189Y-133875656D01*
X84789992Y-133688397D01*
X84865410Y-133512437D01*
X84973567Y-133354477D01*
X85110352Y-133220527D01*
X85270544Y-133115700D01*
X85448044Y-133043985D01*
X85636097Y-133008112D01*
X85827534Y-133009449D01*
X85827534Y-133009449D01*
G37*
G36*
X88367534Y-133009449D02*
X88555067Y-133047944D01*
X88731547Y-133122129D01*
X88890267Y-133229187D01*
X89025163Y-133365029D01*
X89131106Y-133524485D01*
X89204057Y-133701480D01*
X89241208Y-133889100D01*
X89241208Y-133889112D01*
X89241241Y-133889279D01*
X89238188Y-134107942D01*
X89238149Y-134108113D01*
X89238149Y-134108119D01*
X89195775Y-134294629D01*
X89117908Y-134469522D01*
X89007557Y-134625955D01*
X88868918Y-134757978D01*
X88707276Y-134860559D01*
X88528790Y-134929789D01*
X88340254Y-134963034D01*
X88148854Y-134959024D01*
X87961882Y-134917916D01*
X87786444Y-134841269D01*
X87629242Y-134732011D01*
X87496255Y-134594299D01*
X87392549Y-134433379D01*
X87322076Y-134255383D01*
X87287517Y-134067083D01*
X87290189Y-133875656D01*
X87329992Y-133688397D01*
X87405410Y-133512437D01*
X87513567Y-133354477D01*
X87650352Y-133220527D01*
X87810544Y-133115700D01*
X87988044Y-133043985D01*
X88176097Y-133008112D01*
X88367534Y-133009449D01*
X88367534Y-133009449D01*
G37*
G36*
X90907534Y-133009449D02*
X91095067Y-133047944D01*
X91271547Y-133122129D01*
X91430267Y-133229187D01*
X91565163Y-133365029D01*
X91671106Y-133524485D01*
X91744057Y-133701480D01*
X91781208Y-133889100D01*
X91781208Y-133889112D01*
X91781241Y-133889279D01*
X91778188Y-134107942D01*
X91778149Y-134108113D01*
X91778149Y-134108119D01*
X91735775Y-134294629D01*
X91657908Y-134469522D01*
X91547557Y-134625955D01*
X91408918Y-134757978D01*
X91247276Y-134860559D01*
X91068790Y-134929789D01*
X90880254Y-134963034D01*
X90688854Y-134959024D01*
X90501882Y-134917916D01*
X90326444Y-134841269D01*
X90169242Y-134732011D01*
X90036255Y-134594299D01*
X89932549Y-134433379D01*
X89862076Y-134255383D01*
X89827517Y-134067083D01*
X89830189Y-133875656D01*
X89869992Y-133688397D01*
X89945410Y-133512437D01*
X90053567Y-133354477D01*
X90190352Y-133220527D01*
X90350544Y-133115700D01*
X90528044Y-133043985D01*
X90716097Y-133008112D01*
X90907534Y-133009449D01*
X90907534Y-133009449D01*
G37*
G36*
X93447534Y-133009449D02*
X93635067Y-133047944D01*
X93811547Y-133122129D01*
X93970267Y-133229187D01*
X94105163Y-133365029D01*
X94211106Y-133524485D01*
X94284057Y-133701480D01*
X94321208Y-133889100D01*
X94321208Y-133889112D01*
X94321241Y-133889279D01*
X94318188Y-134107942D01*
X94318149Y-134108113D01*
X94318149Y-134108119D01*
X94275775Y-134294629D01*
X94197908Y-134469522D01*
X94087557Y-134625955D01*
X93948918Y-134757978D01*
X93787276Y-134860559D01*
X93608790Y-134929789D01*
X93420254Y-134963034D01*
X93228854Y-134959024D01*
X93041882Y-134917916D01*
X92866444Y-134841269D01*
X92709242Y-134732011D01*
X92576255Y-134594299D01*
X92472549Y-134433379D01*
X92402076Y-134255383D01*
X92367517Y-134067083D01*
X92370189Y-133875656D01*
X92409992Y-133688397D01*
X92485410Y-133512437D01*
X92593567Y-133354477D01*
X92730352Y-133220527D01*
X92890544Y-133115700D01*
X93068044Y-133043985D01*
X93256097Y-133008112D01*
X93447534Y-133009449D01*
X93447534Y-133009449D01*
G37*
G36*
X106147534Y-133009449D02*
X106335067Y-133047944D01*
X106511547Y-133122129D01*
X106670267Y-133229187D01*
X106805163Y-133365029D01*
X106911106Y-133524485D01*
X106984057Y-133701480D01*
X107021208Y-133889100D01*
X107021208Y-133889112D01*
X107021241Y-133889279D01*
X107018188Y-134107942D01*
X107018149Y-134108113D01*
X107018149Y-134108119D01*
X106975775Y-134294629D01*
X106897908Y-134469522D01*
X106787557Y-134625955D01*
X106648918Y-134757978D01*
X106487276Y-134860559D01*
X106308790Y-134929789D01*
X106120254Y-134963034D01*
X105928854Y-134959024D01*
X105741882Y-134917916D01*
X105566444Y-134841269D01*
X105409242Y-134732011D01*
X105276255Y-134594299D01*
X105172549Y-134433379D01*
X105102076Y-134255383D01*
X105067517Y-134067083D01*
X105070189Y-133875656D01*
X105109992Y-133688397D01*
X105185410Y-133512437D01*
X105293567Y-133354477D01*
X105430352Y-133220527D01*
X105590544Y-133115700D01*
X105768044Y-133043985D01*
X105956097Y-133008112D01*
X106147534Y-133009449D01*
X106147534Y-133009449D01*
G37*
G36*
X103607534Y-133009449D02*
X103795067Y-133047944D01*
X103971547Y-133122129D01*
X104130267Y-133229187D01*
X104265163Y-133365029D01*
X104371106Y-133524485D01*
X104444057Y-133701480D01*
X104481208Y-133889100D01*
X104481208Y-133889112D01*
X104481241Y-133889279D01*
X104478188Y-134107942D01*
X104478149Y-134108113D01*
X104478149Y-134108119D01*
X104435775Y-134294629D01*
X104357908Y-134469522D01*
X104247557Y-134625955D01*
X104108918Y-134757978D01*
X103947276Y-134860559D01*
X103768790Y-134929789D01*
X103580254Y-134963034D01*
X103388854Y-134959024D01*
X103201882Y-134917916D01*
X103026444Y-134841269D01*
X102869242Y-134732011D01*
X102736255Y-134594299D01*
X102632549Y-134433379D01*
X102562076Y-134255383D01*
X102527517Y-134067083D01*
X102530189Y-133875656D01*
X102569992Y-133688397D01*
X102645410Y-133512437D01*
X102753567Y-133354477D01*
X102890352Y-133220527D01*
X103050544Y-133115700D01*
X103228044Y-133043985D01*
X103416097Y-133008112D01*
X103607534Y-133009449D01*
X103607534Y-133009449D01*
G37*
G36*
X101067534Y-133009449D02*
X101255067Y-133047944D01*
X101431547Y-133122129D01*
X101590267Y-133229187D01*
X101725163Y-133365029D01*
X101831106Y-133524485D01*
X101904057Y-133701480D01*
X101941208Y-133889100D01*
X101941208Y-133889112D01*
X101941241Y-133889279D01*
X101938188Y-134107942D01*
X101938149Y-134108113D01*
X101938149Y-134108119D01*
X101895775Y-134294629D01*
X101817908Y-134469522D01*
X101707557Y-134625955D01*
X101568918Y-134757978D01*
X101407276Y-134860559D01*
X101228790Y-134929789D01*
X101040254Y-134963034D01*
X100848854Y-134959024D01*
X100661882Y-134917916D01*
X100486444Y-134841269D01*
X100329242Y-134732011D01*
X100196255Y-134594299D01*
X100092549Y-134433379D01*
X100022076Y-134255383D01*
X99987517Y-134067083D01*
X99990189Y-133875656D01*
X100029992Y-133688397D01*
X100105410Y-133512437D01*
X100213567Y-133354477D01*
X100350352Y-133220527D01*
X100510544Y-133115700D01*
X100688044Y-133043985D01*
X100876097Y-133008112D01*
X101067534Y-133009449D01*
X101067534Y-133009449D01*
G37*
G36*
X98527534Y-133009449D02*
X98715067Y-133047944D01*
X98891547Y-133122129D01*
X99050267Y-133229187D01*
X99185163Y-133365029D01*
X99291106Y-133524485D01*
X99364057Y-133701480D01*
X99401208Y-133889100D01*
X99401208Y-133889112D01*
X99401241Y-133889279D01*
X99398188Y-134107942D01*
X99398149Y-134108113D01*
X99398149Y-134108119D01*
X99355775Y-134294629D01*
X99277908Y-134469522D01*
X99167557Y-134625955D01*
X99028918Y-134757978D01*
X98867276Y-134860559D01*
X98688790Y-134929789D01*
X98500254Y-134963034D01*
X98308854Y-134959024D01*
X98121882Y-134917916D01*
X97946444Y-134841269D01*
X97789242Y-134732011D01*
X97656255Y-134594299D01*
X97552549Y-134433379D01*
X97482076Y-134255383D01*
X97447517Y-134067083D01*
X97450189Y-133875656D01*
X97489992Y-133688397D01*
X97565410Y-133512437D01*
X97673567Y-133354477D01*
X97810352Y-133220527D01*
X97970544Y-133115700D01*
X98148044Y-133043985D01*
X98336097Y-133008112D01*
X98527534Y-133009449D01*
X98527534Y-133009449D01*
G37*
G36*
X60427534Y-133009449D02*
X60615067Y-133047944D01*
X60791547Y-133122129D01*
X60950267Y-133229187D01*
X61085163Y-133365029D01*
X61191106Y-133524485D01*
X61264057Y-133701480D01*
X61301208Y-133889100D01*
X61301208Y-133889112D01*
X61301241Y-133889279D01*
X61298188Y-134107942D01*
X61298149Y-134108113D01*
X61298149Y-134108119D01*
X61255775Y-134294629D01*
X61177908Y-134469522D01*
X61067557Y-134625955D01*
X60928918Y-134757978D01*
X60767276Y-134860559D01*
X60588790Y-134929789D01*
X60400254Y-134963034D01*
X60208854Y-134959024D01*
X60021882Y-134917916D01*
X59846444Y-134841269D01*
X59689242Y-134732011D01*
X59556255Y-134594299D01*
X59452549Y-134433379D01*
X59382076Y-134255383D01*
X59347517Y-134067083D01*
X59350189Y-133875656D01*
X59389992Y-133688397D01*
X59465410Y-133512437D01*
X59573567Y-133354477D01*
X59710352Y-133220527D01*
X59870544Y-133115700D01*
X60048044Y-133043985D01*
X60236097Y-133008112D01*
X60427534Y-133009449D01*
X60427534Y-133009449D01*
G37*
G36*
X62967534Y-133009449D02*
X63155067Y-133047944D01*
X63331547Y-133122129D01*
X63490267Y-133229187D01*
X63625163Y-133365029D01*
X63731106Y-133524485D01*
X63804057Y-133701480D01*
X63841208Y-133889100D01*
X63841208Y-133889112D01*
X63841241Y-133889279D01*
X63838188Y-134107942D01*
X63838149Y-134108113D01*
X63838149Y-134108119D01*
X63795775Y-134294629D01*
X63717908Y-134469522D01*
X63607557Y-134625955D01*
X63468918Y-134757978D01*
X63307276Y-134860559D01*
X63128790Y-134929789D01*
X62940254Y-134963034D01*
X62748854Y-134959024D01*
X62561882Y-134917916D01*
X62386444Y-134841269D01*
X62229242Y-134732011D01*
X62096255Y-134594299D01*
X61992549Y-134433379D01*
X61922076Y-134255383D01*
X61887517Y-134067083D01*
X61890189Y-133875656D01*
X61929992Y-133688397D01*
X62005410Y-133512437D01*
X62113567Y-133354477D01*
X62250352Y-133220527D01*
X62410544Y-133115700D01*
X62588044Y-133043985D01*
X62776097Y-133008112D01*
X62967534Y-133009449D01*
X62967534Y-133009449D01*
G37*
G36*
X65507534Y-133009449D02*
X65695067Y-133047944D01*
X65871547Y-133122129D01*
X66030267Y-133229187D01*
X66165163Y-133365029D01*
X66271106Y-133524485D01*
X66344057Y-133701480D01*
X66381208Y-133889100D01*
X66381208Y-133889112D01*
X66381241Y-133889279D01*
X66378188Y-134107942D01*
X66378149Y-134108113D01*
X66378149Y-134108119D01*
X66335775Y-134294629D01*
X66257908Y-134469522D01*
X66147557Y-134625955D01*
X66008918Y-134757978D01*
X65847276Y-134860559D01*
X65668790Y-134929789D01*
X65480254Y-134963034D01*
X65288854Y-134959024D01*
X65101882Y-134917916D01*
X64926444Y-134841269D01*
X64769242Y-134732011D01*
X64636255Y-134594299D01*
X64532549Y-134433379D01*
X64462076Y-134255383D01*
X64427517Y-134067083D01*
X64430189Y-133875656D01*
X64469992Y-133688397D01*
X64545410Y-133512437D01*
X64653567Y-133354477D01*
X64790352Y-133220527D01*
X64950544Y-133115700D01*
X65128044Y-133043985D01*
X65316097Y-133008112D01*
X65507534Y-133009449D01*
X65507534Y-133009449D01*
G37*
G36*
X68047534Y-133009449D02*
X68235067Y-133047944D01*
X68411547Y-133122129D01*
X68570267Y-133229187D01*
X68705163Y-133365029D01*
X68811106Y-133524485D01*
X68884057Y-133701480D01*
X68921208Y-133889100D01*
X68921208Y-133889112D01*
X68921241Y-133889279D01*
X68918188Y-134107942D01*
X68918149Y-134108113D01*
X68918149Y-134108119D01*
X68875775Y-134294629D01*
X68797908Y-134469522D01*
X68687557Y-134625955D01*
X68548918Y-134757978D01*
X68387276Y-134860559D01*
X68208790Y-134929789D01*
X68020254Y-134963034D01*
X67828854Y-134959024D01*
X67641882Y-134917916D01*
X67466444Y-134841269D01*
X67309242Y-134732011D01*
X67176255Y-134594299D01*
X67072549Y-134433379D01*
X67002076Y-134255383D01*
X66967517Y-134067083D01*
X66970189Y-133875656D01*
X67009992Y-133688397D01*
X67085410Y-133512437D01*
X67193567Y-133354477D01*
X67330352Y-133220527D01*
X67490544Y-133115700D01*
X67668044Y-133043985D01*
X67856097Y-133008112D01*
X68047534Y-133009449D01*
X68047534Y-133009449D01*
G37*
G36*
X70587534Y-133009449D02*
X70775067Y-133047944D01*
X70951547Y-133122129D01*
X71110267Y-133229187D01*
X71245163Y-133365029D01*
X71351106Y-133524485D01*
X71424057Y-133701480D01*
X71461208Y-133889100D01*
X71461208Y-133889112D01*
X71461241Y-133889279D01*
X71458188Y-134107942D01*
X71458149Y-134108113D01*
X71458149Y-134108119D01*
X71415775Y-134294629D01*
X71337908Y-134469522D01*
X71227557Y-134625955D01*
X71088918Y-134757978D01*
X70927276Y-134860559D01*
X70748790Y-134929789D01*
X70560254Y-134963034D01*
X70368854Y-134959024D01*
X70181882Y-134917916D01*
X70006444Y-134841269D01*
X69849242Y-134732011D01*
X69716255Y-134594299D01*
X69612549Y-134433379D01*
X69542076Y-134255383D01*
X69507517Y-134067083D01*
X69510189Y-133875656D01*
X69549992Y-133688397D01*
X69625410Y-133512437D01*
X69733567Y-133354477D01*
X69870352Y-133220527D01*
X70030544Y-133115700D01*
X70208044Y-133043985D01*
X70396097Y-133008112D01*
X70587534Y-133009449D01*
X70587534Y-133009449D01*
G37*
G36*
X73127534Y-133009449D02*
X73315067Y-133047944D01*
X73491547Y-133122129D01*
X73650267Y-133229187D01*
X73785163Y-133365029D01*
X73891106Y-133524485D01*
X73964057Y-133701480D01*
X74001208Y-133889100D01*
X74001208Y-133889112D01*
X74001241Y-133889279D01*
X73998188Y-134107942D01*
X73998149Y-134108113D01*
X73998149Y-134108119D01*
X73955775Y-134294629D01*
X73877908Y-134469522D01*
X73767557Y-134625955D01*
X73628918Y-134757978D01*
X73467276Y-134860559D01*
X73288790Y-134929789D01*
X73100254Y-134963034D01*
X72908854Y-134959024D01*
X72721882Y-134917916D01*
X72546444Y-134841269D01*
X72389242Y-134732011D01*
X72256255Y-134594299D01*
X72152549Y-134433379D01*
X72082076Y-134255383D01*
X72047517Y-134067083D01*
X72050189Y-133875656D01*
X72089992Y-133688397D01*
X72165410Y-133512437D01*
X72273567Y-133354477D01*
X72410352Y-133220527D01*
X72570544Y-133115700D01*
X72748044Y-133043985D01*
X72936097Y-133008112D01*
X73127534Y-133009449D01*
X73127534Y-133009449D01*
G37*
G36*
X75667534Y-133009449D02*
X75855067Y-133047944D01*
X76031547Y-133122129D01*
X76190267Y-133229187D01*
X76325163Y-133365029D01*
X76431106Y-133524485D01*
X76504057Y-133701480D01*
X76541208Y-133889100D01*
X76541208Y-133889112D01*
X76541241Y-133889279D01*
X76538188Y-134107942D01*
X76538149Y-134108113D01*
X76538149Y-134108119D01*
X76495775Y-134294629D01*
X76417908Y-134469522D01*
X76307557Y-134625955D01*
X76168918Y-134757978D01*
X76007276Y-134860559D01*
X75828790Y-134929789D01*
X75640254Y-134963034D01*
X75448854Y-134959024D01*
X75261882Y-134917916D01*
X75086444Y-134841269D01*
X74929242Y-134732011D01*
X74796255Y-134594299D01*
X74692549Y-134433379D01*
X74622076Y-134255383D01*
X74587517Y-134067083D01*
X74590189Y-133875656D01*
X74629992Y-133688397D01*
X74705410Y-133512437D01*
X74813567Y-133354477D01*
X74950352Y-133220527D01*
X75110544Y-133115700D01*
X75288044Y-133043985D01*
X75476097Y-133008112D01*
X75667534Y-133009449D01*
X75667534Y-133009449D01*
G37*
G36*
X95987534Y-133009449D02*
X96175067Y-133047944D01*
X96351547Y-133122129D01*
X96510267Y-133229187D01*
X96645163Y-133365029D01*
X96751106Y-133524485D01*
X96824057Y-133701480D01*
X96861208Y-133889100D01*
X96861208Y-133889112D01*
X96861241Y-133889279D01*
X96858188Y-134107942D01*
X96858149Y-134108113D01*
X96858149Y-134108119D01*
X96815775Y-134294629D01*
X96737908Y-134469522D01*
X96627557Y-134625955D01*
X96488918Y-134757978D01*
X96327276Y-134860559D01*
X96148790Y-134929789D01*
X95960254Y-134963034D01*
X95768854Y-134959024D01*
X95581882Y-134917916D01*
X95406444Y-134841269D01*
X95249242Y-134732011D01*
X95116255Y-134594299D01*
X95012549Y-134433379D01*
X94942076Y-134255383D01*
X94907517Y-134067083D01*
X94910189Y-133875656D01*
X94949992Y-133688397D01*
X95025410Y-133512437D01*
X95133567Y-133354477D01*
X95270352Y-133220527D01*
X95430544Y-133115700D01*
X95608044Y-133043985D01*
X95796097Y-133008112D01*
X95987534Y-133009449D01*
X95987534Y-133009449D01*
G37*
G36*
X78207534Y-133009449D02*
X78395067Y-133047944D01*
X78571547Y-133122129D01*
X78730267Y-133229187D01*
X78865163Y-133365029D01*
X78971106Y-133524485D01*
X79044057Y-133701480D01*
X79081208Y-133889100D01*
X79081208Y-133889112D01*
X79081241Y-133889279D01*
X79078188Y-134107942D01*
X79078149Y-134108113D01*
X79078149Y-134108119D01*
X79035775Y-134294629D01*
X78957908Y-134469522D01*
X78847557Y-134625955D01*
X78708918Y-134757978D01*
X78547276Y-134860559D01*
X78368790Y-134929789D01*
X78180254Y-134963034D01*
X77988854Y-134959024D01*
X77801882Y-134917916D01*
X77626444Y-134841269D01*
X77469242Y-134732011D01*
X77336255Y-134594299D01*
X77232549Y-134433379D01*
X77162076Y-134255383D01*
X77127517Y-134067083D01*
X77130189Y-133875656D01*
X77169992Y-133688397D01*
X77245410Y-133512437D01*
X77353567Y-133354477D01*
X77490352Y-133220527D01*
X77650544Y-133115700D01*
X77828044Y-133043985D01*
X78016097Y-133008112D01*
X78207534Y-133009449D01*
X78207534Y-133009449D01*
G37*
G36*
X80747534Y-133009449D02*
X80935067Y-133047944D01*
X81111547Y-133122129D01*
X81270267Y-133229187D01*
X81405163Y-133365029D01*
X81511106Y-133524485D01*
X81584057Y-133701480D01*
X81621208Y-133889100D01*
X81621208Y-133889112D01*
X81621241Y-133889279D01*
X81618188Y-134107942D01*
X81618149Y-134108113D01*
X81618149Y-134108119D01*
X81575775Y-134294629D01*
X81497908Y-134469522D01*
X81387557Y-134625955D01*
X81248918Y-134757978D01*
X81087276Y-134860559D01*
X80908790Y-134929789D01*
X80720254Y-134963034D01*
X80528854Y-134959024D01*
X80341882Y-134917916D01*
X80166444Y-134841269D01*
X80009242Y-134732011D01*
X79876255Y-134594299D01*
X79772549Y-134433379D01*
X79702076Y-134255383D01*
X79667517Y-134067083D01*
X79670189Y-133875656D01*
X79709992Y-133688397D01*
X79785410Y-133512437D01*
X79893567Y-133354477D01*
X80030352Y-133220527D01*
X80190544Y-133115700D01*
X80368044Y-133043985D01*
X80556097Y-133008112D01*
X80747534Y-133009449D01*
X80747534Y-133009449D01*
G37*
G36*
X53791200Y-134854200D02*
X52888800Y-134854200D01*
X52888800Y-133501800D01*
X53791200Y-133501800D01*
X53791200Y-134854200D01*
X53791200Y-134854200D01*
G37*
G36*
X56606200Y-134731200D02*
X55153800Y-134731200D01*
X55153800Y-133078800D01*
X56606200Y-133078800D01*
X56606200Y-134731200D01*
X56606200Y-134731200D01*
G37*
G36*
X51526200Y-134096200D02*
X50073800Y-134096200D01*
X50073800Y-132443800D01*
X51526200Y-132443800D01*
X51526200Y-134096200D01*
X51526200Y-134096200D01*
G37*
G36*
X54234600Y-131972400D02*
X52882200Y-131972400D01*
X52882200Y-131070000D01*
X54234600Y-131070000D01*
X54234600Y-131972400D01*
X54234600Y-131972400D01*
G37*
G36*
X56134600Y-131972400D02*
X54782200Y-131972400D01*
X54782200Y-131070000D01*
X56134600Y-131070000D01*
X56134600Y-131972400D01*
X56134600Y-131972400D01*
G37*
G36*
X56296200Y-129836200D02*
X54943800Y-129836200D01*
X54943800Y-127483800D01*
X56296200Y-127483800D01*
X56296200Y-129836200D01*
X56296200Y-129836200D01*
G37*
G36*
X54016200Y-129836200D02*
X52663800Y-129836200D01*
X52663800Y-127483800D01*
X54016200Y-127483800D01*
X54016200Y-129836200D01*
X54016200Y-129836200D01*
G37*
G36*
X51736200Y-129836200D02*
X50383800Y-129836200D01*
X50383800Y-127483800D01*
X51736200Y-127483800D01*
X51736200Y-129836200D01*
X51736200Y-129836200D01*
G37*
G36*
X61261200Y-129836200D02*
X59908800Y-129836200D01*
X59908800Y-127483800D01*
X61261200Y-127483800D01*
X61261200Y-129836200D01*
X61261200Y-129836200D01*
G37*
G36*
X63541200Y-129836200D02*
X62188800Y-129836200D01*
X62188800Y-127483800D01*
X63541200Y-127483800D01*
X63541200Y-129836200D01*
X63541200Y-129836200D01*
G37*
G36*
X65821200Y-129836200D02*
X64468800Y-129836200D01*
X64468800Y-127483800D01*
X65821200Y-127483800D01*
X65821200Y-129836200D01*
X65821200Y-129836200D01*
G37*
G36*
X56316200Y-125636200D02*
X50363800Y-125636200D01*
X50363800Y-119083800D01*
X56316200Y-119083800D01*
X56316200Y-125636200D01*
X56316200Y-125636200D01*
G37*
G36*
X65841200Y-125636200D02*
X59888800Y-125636200D01*
X59888800Y-119083800D01*
X65841200Y-119083800D01*
X65841200Y-125636200D01*
X65841200Y-125636200D01*
G37*
G36*
X52718214Y-112738861D02*
X52722413Y-112738890D01*
X52902049Y-112759040D01*
X53074350Y-112813697D01*
X53232753Y-112900780D01*
X53371226Y-113016972D01*
X53484492Y-113157847D01*
X53568239Y-113318039D01*
X53619275Y-113491447D01*
X53619276Y-113491463D01*
X53619280Y-113491475D01*
X53635660Y-113671462D01*
X53616767Y-113851215D01*
X53616766Y-113851218D01*
X53616764Y-113851238D01*
X53563311Y-114023917D01*
X53477336Y-114182924D01*
X53362113Y-114322204D01*
X53222032Y-114436452D01*
X53062428Y-114521315D01*
X52889381Y-114573561D01*
X52709481Y-114591200D01*
X52700431Y-114591200D01*
X52691786Y-114591139D01*
X52687587Y-114591110D01*
X52507951Y-114570960D01*
X52335650Y-114516303D01*
X52177247Y-114429220D01*
X52038774Y-114313028D01*
X51925508Y-114172153D01*
X51841761Y-114011961D01*
X51790725Y-113838553D01*
X51790724Y-113838537D01*
X51790720Y-113838525D01*
X51774340Y-113658538D01*
X51793233Y-113478785D01*
X51793234Y-113478782D01*
X51793236Y-113478762D01*
X51846689Y-113306083D01*
X51932664Y-113147076D01*
X52047887Y-113007796D01*
X52187968Y-112893548D01*
X52347572Y-112808685D01*
X52520619Y-112756439D01*
X52700519Y-112738800D01*
X52709569Y-112738800D01*
X52718214Y-112738861D01*
X52718214Y-112738861D01*
G37*
G36*
X50178214Y-112738861D02*
X50182413Y-112738890D01*
X50362049Y-112759040D01*
X50534350Y-112813697D01*
X50692753Y-112900780D01*
X50831226Y-113016972D01*
X50944492Y-113157847D01*
X51028239Y-113318039D01*
X51079275Y-113491447D01*
X51079276Y-113491463D01*
X51079280Y-113491475D01*
X51095660Y-113671462D01*
X51076767Y-113851215D01*
X51076766Y-113851218D01*
X51076764Y-113851238D01*
X51023311Y-114023917D01*
X50937336Y-114182924D01*
X50822113Y-114322204D01*
X50682032Y-114436452D01*
X50522428Y-114521315D01*
X50349381Y-114573561D01*
X50169481Y-114591200D01*
X50160431Y-114591200D01*
X50151786Y-114591139D01*
X50147587Y-114591110D01*
X49967951Y-114570960D01*
X49795650Y-114516303D01*
X49637247Y-114429220D01*
X49498774Y-114313028D01*
X49385508Y-114172153D01*
X49301761Y-114011961D01*
X49250725Y-113838553D01*
X49250724Y-113838537D01*
X49250720Y-113838525D01*
X49234340Y-113658538D01*
X49253233Y-113478785D01*
X49253234Y-113478782D01*
X49253236Y-113478762D01*
X49306689Y-113306083D01*
X49392664Y-113147076D01*
X49507887Y-113007796D01*
X49647968Y-112893548D01*
X49807572Y-112808685D01*
X49980619Y-112756439D01*
X50160519Y-112738800D01*
X50169569Y-112738800D01*
X50178214Y-112738861D01*
X50178214Y-112738861D01*
G37*
G36*
X52718214Y-110198861D02*
X52722413Y-110198890D01*
X52902049Y-110219040D01*
X53074350Y-110273697D01*
X53232753Y-110360780D01*
X53371226Y-110476972D01*
X53484492Y-110617847D01*
X53568239Y-110778039D01*
X53619275Y-110951447D01*
X53619276Y-110951463D01*
X53619280Y-110951475D01*
X53635660Y-111131462D01*
X53616767Y-111311215D01*
X53616766Y-111311218D01*
X53616764Y-111311238D01*
X53563311Y-111483917D01*
X53477336Y-111642924D01*
X53362113Y-111782204D01*
X53222032Y-111896452D01*
X53062428Y-111981315D01*
X52889381Y-112033561D01*
X52709481Y-112051200D01*
X52700431Y-112051200D01*
X52691786Y-112051139D01*
X52687587Y-112051110D01*
X52507951Y-112030960D01*
X52335650Y-111976303D01*
X52177247Y-111889220D01*
X52038774Y-111773028D01*
X51925508Y-111632153D01*
X51841761Y-111471961D01*
X51790725Y-111298553D01*
X51790724Y-111298537D01*
X51790720Y-111298525D01*
X51774340Y-111118538D01*
X51793233Y-110938785D01*
X51793234Y-110938782D01*
X51793236Y-110938762D01*
X51846689Y-110766083D01*
X51932664Y-110607076D01*
X52047887Y-110467796D01*
X52187968Y-110353548D01*
X52347572Y-110268685D01*
X52520619Y-110216439D01*
X52700519Y-110198800D01*
X52709569Y-110198800D01*
X52718214Y-110198861D01*
X52718214Y-110198861D01*
G37*
G36*
X50178214Y-110198861D02*
X50182413Y-110198890D01*
X50362049Y-110219040D01*
X50534350Y-110273697D01*
X50692753Y-110360780D01*
X50831226Y-110476972D01*
X50944492Y-110617847D01*
X51028239Y-110778039D01*
X51079275Y-110951447D01*
X51079276Y-110951463D01*
X51079280Y-110951475D01*
X51095660Y-111131462D01*
X51076767Y-111311215D01*
X51076766Y-111311218D01*
X51076764Y-111311238D01*
X51023311Y-111483917D01*
X50937336Y-111642924D01*
X50822113Y-111782204D01*
X50682032Y-111896452D01*
X50522428Y-111981315D01*
X50349381Y-112033561D01*
X50169481Y-112051200D01*
X50160431Y-112051200D01*
X50151786Y-112051139D01*
X50147587Y-112051110D01*
X49967951Y-112030960D01*
X49795650Y-111976303D01*
X49637247Y-111889220D01*
X49498774Y-111773028D01*
X49385508Y-111632153D01*
X49301761Y-111471961D01*
X49250725Y-111298553D01*
X49250724Y-111298537D01*
X49250720Y-111298525D01*
X49234340Y-111118538D01*
X49253233Y-110938785D01*
X49253234Y-110938782D01*
X49253236Y-110938762D01*
X49306689Y-110766083D01*
X49392664Y-110607076D01*
X49507887Y-110467796D01*
X49647968Y-110353548D01*
X49807572Y-110268685D01*
X49980619Y-110216439D01*
X50160519Y-110198800D01*
X50169569Y-110198800D01*
X50178214Y-110198861D01*
X50178214Y-110198861D01*
G37*
G36*
X60427534Y-107609449D02*
X60615067Y-107647944D01*
X60791547Y-107722129D01*
X60950267Y-107829187D01*
X61085163Y-107965029D01*
X61191106Y-108124485D01*
X61264057Y-108301480D01*
X61301208Y-108489100D01*
X61301208Y-108489112D01*
X61301241Y-108489279D01*
X61298188Y-108707942D01*
X61298149Y-108708113D01*
X61298149Y-108708119D01*
X61255775Y-108894629D01*
X61177908Y-109069522D01*
X61067557Y-109225955D01*
X60928918Y-109357978D01*
X60767276Y-109460559D01*
X60588790Y-109529789D01*
X60400254Y-109563034D01*
X60208854Y-109559024D01*
X60021882Y-109517916D01*
X59846444Y-109441269D01*
X59689242Y-109332011D01*
X59556255Y-109194299D01*
X59452549Y-109033379D01*
X59382076Y-108855383D01*
X59347517Y-108667083D01*
X59350189Y-108475656D01*
X59389992Y-108288397D01*
X59465410Y-108112437D01*
X59573567Y-107954477D01*
X59710352Y-107820527D01*
X59870544Y-107715700D01*
X60048044Y-107643985D01*
X60236097Y-107608112D01*
X60427534Y-107609449D01*
X60427534Y-107609449D01*
G37*
G36*
X85827534Y-107609449D02*
X86015067Y-107647944D01*
X86191547Y-107722129D01*
X86350267Y-107829187D01*
X86485163Y-107965029D01*
X86591106Y-108124485D01*
X86664057Y-108301480D01*
X86701208Y-108489100D01*
X86701208Y-108489112D01*
X86701241Y-108489279D01*
X86698188Y-108707942D01*
X86698149Y-108708113D01*
X86698149Y-108708119D01*
X86655775Y-108894629D01*
X86577908Y-109069522D01*
X86467557Y-109225955D01*
X86328918Y-109357978D01*
X86167276Y-109460559D01*
X85988790Y-109529789D01*
X85800254Y-109563034D01*
X85608854Y-109559024D01*
X85421882Y-109517916D01*
X85246444Y-109441269D01*
X85089242Y-109332011D01*
X84956255Y-109194299D01*
X84852549Y-109033379D01*
X84782076Y-108855383D01*
X84747517Y-108667083D01*
X84750189Y-108475656D01*
X84789992Y-108288397D01*
X84865410Y-108112437D01*
X84973567Y-107954477D01*
X85110352Y-107820527D01*
X85270544Y-107715700D01*
X85448044Y-107643985D01*
X85636097Y-107608112D01*
X85827534Y-107609449D01*
X85827534Y-107609449D01*
G37*
G36*
X88367534Y-107609449D02*
X88555067Y-107647944D01*
X88731547Y-107722129D01*
X88890267Y-107829187D01*
X89025163Y-107965029D01*
X89131106Y-108124485D01*
X89204057Y-108301480D01*
X89241208Y-108489100D01*
X89241208Y-108489112D01*
X89241241Y-108489279D01*
X89238188Y-108707942D01*
X89238149Y-108708113D01*
X89238149Y-108708119D01*
X89195775Y-108894629D01*
X89117908Y-109069522D01*
X89007557Y-109225955D01*
X88868918Y-109357978D01*
X88707276Y-109460559D01*
X88528790Y-109529789D01*
X88340254Y-109563034D01*
X88148854Y-109559024D01*
X87961882Y-109517916D01*
X87786444Y-109441269D01*
X87629242Y-109332011D01*
X87496255Y-109194299D01*
X87392549Y-109033379D01*
X87322076Y-108855383D01*
X87287517Y-108667083D01*
X87290189Y-108475656D01*
X87329992Y-108288397D01*
X87405410Y-108112437D01*
X87513567Y-107954477D01*
X87650352Y-107820527D01*
X87810544Y-107715700D01*
X87988044Y-107643985D01*
X88176097Y-107608112D01*
X88367534Y-107609449D01*
X88367534Y-107609449D01*
G37*
G36*
X90907534Y-107609449D02*
X91095067Y-107647944D01*
X91271547Y-107722129D01*
X91430267Y-107829187D01*
X91565163Y-107965029D01*
X91671106Y-108124485D01*
X91744057Y-108301480D01*
X91781208Y-108489100D01*
X91781208Y-108489112D01*
X91781241Y-108489279D01*
X91778188Y-108707942D01*
X91778149Y-108708113D01*
X91778149Y-108708119D01*
X91735775Y-108894629D01*
X91657908Y-109069522D01*
X91547557Y-109225955D01*
X91408918Y-109357978D01*
X91247276Y-109460559D01*
X91068790Y-109529789D01*
X90880254Y-109563034D01*
X90688854Y-109559024D01*
X90501882Y-109517916D01*
X90326444Y-109441269D01*
X90169242Y-109332011D01*
X90036255Y-109194299D01*
X89932549Y-109033379D01*
X89862076Y-108855383D01*
X89827517Y-108667083D01*
X89830189Y-108475656D01*
X89869992Y-108288397D01*
X89945410Y-108112437D01*
X90053567Y-107954477D01*
X90190352Y-107820527D01*
X90350544Y-107715700D01*
X90528044Y-107643985D01*
X90716097Y-107608112D01*
X90907534Y-107609449D01*
X90907534Y-107609449D01*
G37*
G36*
X93447534Y-107609449D02*
X93635067Y-107647944D01*
X93811547Y-107722129D01*
X93970267Y-107829187D01*
X94105163Y-107965029D01*
X94211106Y-108124485D01*
X94284057Y-108301480D01*
X94321208Y-108489100D01*
X94321208Y-108489112D01*
X94321241Y-108489279D01*
X94318188Y-108707942D01*
X94318149Y-108708113D01*
X94318149Y-108708119D01*
X94275775Y-108894629D01*
X94197908Y-109069522D01*
X94087557Y-109225955D01*
X93948918Y-109357978D01*
X93787276Y-109460559D01*
X93608790Y-109529789D01*
X93420254Y-109563034D01*
X93228854Y-109559024D01*
X93041882Y-109517916D01*
X92866444Y-109441269D01*
X92709242Y-109332011D01*
X92576255Y-109194299D01*
X92472549Y-109033379D01*
X92402076Y-108855383D01*
X92367517Y-108667083D01*
X92370189Y-108475656D01*
X92409992Y-108288397D01*
X92485410Y-108112437D01*
X92593567Y-107954477D01*
X92730352Y-107820527D01*
X92890544Y-107715700D01*
X93068044Y-107643985D01*
X93256097Y-107608112D01*
X93447534Y-107609449D01*
X93447534Y-107609449D01*
G37*
G36*
X95987534Y-107609449D02*
X96175067Y-107647944D01*
X96351547Y-107722129D01*
X96510267Y-107829187D01*
X96645163Y-107965029D01*
X96751106Y-108124485D01*
X96824057Y-108301480D01*
X96861208Y-108489100D01*
X96861208Y-108489112D01*
X96861241Y-108489279D01*
X96858188Y-108707942D01*
X96858149Y-108708113D01*
X96858149Y-108708119D01*
X96815775Y-108894629D01*
X96737908Y-109069522D01*
X96627557Y-109225955D01*
X96488918Y-109357978D01*
X96327276Y-109460559D01*
X96148790Y-109529789D01*
X95960254Y-109563034D01*
X95768854Y-109559024D01*
X95581882Y-109517916D01*
X95406444Y-109441269D01*
X95249242Y-109332011D01*
X95116255Y-109194299D01*
X95012549Y-109033379D01*
X94942076Y-108855383D01*
X94907517Y-108667083D01*
X94910189Y-108475656D01*
X94949992Y-108288397D01*
X95025410Y-108112437D01*
X95133567Y-107954477D01*
X95270352Y-107820527D01*
X95430544Y-107715700D01*
X95608044Y-107643985D01*
X95796097Y-107608112D01*
X95987534Y-107609449D01*
X95987534Y-107609449D01*
G37*
G36*
X98527534Y-107609449D02*
X98715067Y-107647944D01*
X98891547Y-107722129D01*
X99050267Y-107829187D01*
X99185163Y-107965029D01*
X99291106Y-108124485D01*
X99364057Y-108301480D01*
X99401208Y-108489100D01*
X99401208Y-108489112D01*
X99401241Y-108489279D01*
X99398188Y-108707942D01*
X99398149Y-108708113D01*
X99398149Y-108708119D01*
X99355775Y-108894629D01*
X99277908Y-109069522D01*
X99167557Y-109225955D01*
X99028918Y-109357978D01*
X98867276Y-109460559D01*
X98688790Y-109529789D01*
X98500254Y-109563034D01*
X98308854Y-109559024D01*
X98121882Y-109517916D01*
X97946444Y-109441269D01*
X97789242Y-109332011D01*
X97656255Y-109194299D01*
X97552549Y-109033379D01*
X97482076Y-108855383D01*
X97447517Y-108667083D01*
X97450189Y-108475656D01*
X97489992Y-108288397D01*
X97565410Y-108112437D01*
X97673567Y-107954477D01*
X97810352Y-107820527D01*
X97970544Y-107715700D01*
X98148044Y-107643985D01*
X98336097Y-107608112D01*
X98527534Y-107609449D01*
X98527534Y-107609449D01*
G37*
G36*
X101067534Y-107609449D02*
X101255067Y-107647944D01*
X101431547Y-107722129D01*
X101590267Y-107829187D01*
X101725163Y-107965029D01*
X101831106Y-108124485D01*
X101904057Y-108301480D01*
X101941208Y-108489100D01*
X101941208Y-108489112D01*
X101941241Y-108489279D01*
X101938188Y-108707942D01*
X101938149Y-108708113D01*
X101938149Y-108708119D01*
X101895775Y-108894629D01*
X101817908Y-109069522D01*
X101707557Y-109225955D01*
X101568918Y-109357978D01*
X101407276Y-109460559D01*
X101228790Y-109529789D01*
X101040254Y-109563034D01*
X100848854Y-109559024D01*
X100661882Y-109517916D01*
X100486444Y-109441269D01*
X100329242Y-109332011D01*
X100196255Y-109194299D01*
X100092549Y-109033379D01*
X100022076Y-108855383D01*
X99987517Y-108667083D01*
X99990189Y-108475656D01*
X100029992Y-108288397D01*
X100105410Y-108112437D01*
X100213567Y-107954477D01*
X100350352Y-107820527D01*
X100510544Y-107715700D01*
X100688044Y-107643985D01*
X100876097Y-107608112D01*
X101067534Y-107609449D01*
X101067534Y-107609449D01*
G37*
G36*
X103607534Y-107609449D02*
X103795067Y-107647944D01*
X103971547Y-107722129D01*
X104130267Y-107829187D01*
X104265163Y-107965029D01*
X104371106Y-108124485D01*
X104444057Y-108301480D01*
X104481208Y-108489100D01*
X104481208Y-108489112D01*
X104481241Y-108489279D01*
X104478188Y-108707942D01*
X104478149Y-108708113D01*
X104478149Y-108708119D01*
X104435775Y-108894629D01*
X104357908Y-109069522D01*
X104247557Y-109225955D01*
X104108918Y-109357978D01*
X103947276Y-109460559D01*
X103768790Y-109529789D01*
X103580254Y-109563034D01*
X103388854Y-109559024D01*
X103201882Y-109517916D01*
X103026444Y-109441269D01*
X102869242Y-109332011D01*
X102736255Y-109194299D01*
X102632549Y-109033379D01*
X102562076Y-108855383D01*
X102527517Y-108667083D01*
X102530189Y-108475656D01*
X102569992Y-108288397D01*
X102645410Y-108112437D01*
X102753567Y-107954477D01*
X102890352Y-107820527D01*
X103050544Y-107715700D01*
X103228044Y-107643985D01*
X103416097Y-107608112D01*
X103607534Y-107609449D01*
X103607534Y-107609449D01*
G37*
G36*
X62967534Y-107609449D02*
X63155067Y-107647944D01*
X63331547Y-107722129D01*
X63490267Y-107829187D01*
X63625163Y-107965029D01*
X63731106Y-108124485D01*
X63804057Y-108301480D01*
X63841208Y-108489100D01*
X63841208Y-108489112D01*
X63841241Y-108489279D01*
X63838188Y-108707942D01*
X63838149Y-108708113D01*
X63838149Y-108708119D01*
X63795775Y-108894629D01*
X63717908Y-109069522D01*
X63607557Y-109225955D01*
X63468918Y-109357978D01*
X63307276Y-109460559D01*
X63128790Y-109529789D01*
X62940254Y-109563034D01*
X62748854Y-109559024D01*
X62561882Y-109517916D01*
X62386444Y-109441269D01*
X62229242Y-109332011D01*
X62096255Y-109194299D01*
X61992549Y-109033379D01*
X61922076Y-108855383D01*
X61887517Y-108667083D01*
X61890189Y-108475656D01*
X61929992Y-108288397D01*
X62005410Y-108112437D01*
X62113567Y-107954477D01*
X62250352Y-107820527D01*
X62410544Y-107715700D01*
X62588044Y-107643985D01*
X62776097Y-107608112D01*
X62967534Y-107609449D01*
X62967534Y-107609449D01*
G37*
G36*
X65507534Y-107609449D02*
X65695067Y-107647944D01*
X65871547Y-107722129D01*
X66030267Y-107829187D01*
X66165163Y-107965029D01*
X66271106Y-108124485D01*
X66344057Y-108301480D01*
X66381208Y-108489100D01*
X66381208Y-108489112D01*
X66381241Y-108489279D01*
X66378188Y-108707942D01*
X66378149Y-108708113D01*
X66378149Y-108708119D01*
X66335775Y-108894629D01*
X66257908Y-109069522D01*
X66147557Y-109225955D01*
X66008918Y-109357978D01*
X65847276Y-109460559D01*
X65668790Y-109529789D01*
X65480254Y-109563034D01*
X65288854Y-109559024D01*
X65101882Y-109517916D01*
X64926444Y-109441269D01*
X64769242Y-109332011D01*
X64636255Y-109194299D01*
X64532549Y-109033379D01*
X64462076Y-108855383D01*
X64427517Y-108667083D01*
X64430189Y-108475656D01*
X64469992Y-108288397D01*
X64545410Y-108112437D01*
X64653567Y-107954477D01*
X64790352Y-107820527D01*
X64950544Y-107715700D01*
X65128044Y-107643985D01*
X65316097Y-107608112D01*
X65507534Y-107609449D01*
X65507534Y-107609449D01*
G37*
G36*
X68047534Y-107609449D02*
X68235067Y-107647944D01*
X68411547Y-107722129D01*
X68570267Y-107829187D01*
X68705163Y-107965029D01*
X68811106Y-108124485D01*
X68884057Y-108301480D01*
X68921208Y-108489100D01*
X68921208Y-108489112D01*
X68921241Y-108489279D01*
X68918188Y-108707942D01*
X68918149Y-108708113D01*
X68918149Y-108708119D01*
X68875775Y-108894629D01*
X68797908Y-109069522D01*
X68687557Y-109225955D01*
X68548918Y-109357978D01*
X68387276Y-109460559D01*
X68208790Y-109529789D01*
X68020254Y-109563034D01*
X67828854Y-109559024D01*
X67641882Y-109517916D01*
X67466444Y-109441269D01*
X67309242Y-109332011D01*
X67176255Y-109194299D01*
X67072549Y-109033379D01*
X67002076Y-108855383D01*
X66967517Y-108667083D01*
X66970189Y-108475656D01*
X67009992Y-108288397D01*
X67085410Y-108112437D01*
X67193567Y-107954477D01*
X67330352Y-107820527D01*
X67490544Y-107715700D01*
X67668044Y-107643985D01*
X67856097Y-107608112D01*
X68047534Y-107609449D01*
X68047534Y-107609449D01*
G37*
G36*
X70587534Y-107609449D02*
X70775067Y-107647944D01*
X70951547Y-107722129D01*
X71110267Y-107829187D01*
X71245163Y-107965029D01*
X71351106Y-108124485D01*
X71424057Y-108301480D01*
X71461208Y-108489100D01*
X71461208Y-108489112D01*
X71461241Y-108489279D01*
X71458188Y-108707942D01*
X71458149Y-108708113D01*
X71458149Y-108708119D01*
X71415775Y-108894629D01*
X71337908Y-109069522D01*
X71227557Y-109225955D01*
X71088918Y-109357978D01*
X70927276Y-109460559D01*
X70748790Y-109529789D01*
X70560254Y-109563034D01*
X70368854Y-109559024D01*
X70181882Y-109517916D01*
X70006444Y-109441269D01*
X69849242Y-109332011D01*
X69716255Y-109194299D01*
X69612549Y-109033379D01*
X69542076Y-108855383D01*
X69507517Y-108667083D01*
X69510189Y-108475656D01*
X69549992Y-108288397D01*
X69625410Y-108112437D01*
X69733567Y-107954477D01*
X69870352Y-107820527D01*
X70030544Y-107715700D01*
X70208044Y-107643985D01*
X70396097Y-107608112D01*
X70587534Y-107609449D01*
X70587534Y-107609449D01*
G37*
G36*
X73127534Y-107609449D02*
X73315067Y-107647944D01*
X73491547Y-107722129D01*
X73650267Y-107829187D01*
X73785163Y-107965029D01*
X73891106Y-108124485D01*
X73964057Y-108301480D01*
X74001208Y-108489100D01*
X74001208Y-108489112D01*
X74001241Y-108489279D01*
X73998188Y-108707942D01*
X73998149Y-108708113D01*
X73998149Y-108708119D01*
X73955775Y-108894629D01*
X73877908Y-109069522D01*
X73767557Y-109225955D01*
X73628918Y-109357978D01*
X73467276Y-109460559D01*
X73288790Y-109529789D01*
X73100254Y-109563034D01*
X72908854Y-109559024D01*
X72721882Y-109517916D01*
X72546444Y-109441269D01*
X72389242Y-109332011D01*
X72256255Y-109194299D01*
X72152549Y-109033379D01*
X72082076Y-108855383D01*
X72047517Y-108667083D01*
X72050189Y-108475656D01*
X72089992Y-108288397D01*
X72165410Y-108112437D01*
X72273567Y-107954477D01*
X72410352Y-107820527D01*
X72570544Y-107715700D01*
X72748044Y-107643985D01*
X72936097Y-107608112D01*
X73127534Y-107609449D01*
X73127534Y-107609449D01*
G37*
G36*
X75667534Y-107609449D02*
X75855067Y-107647944D01*
X76031547Y-107722129D01*
X76190267Y-107829187D01*
X76325163Y-107965029D01*
X76431106Y-108124485D01*
X76504057Y-108301480D01*
X76541208Y-108489100D01*
X76541208Y-108489112D01*
X76541241Y-108489279D01*
X76538188Y-108707942D01*
X76538149Y-108708113D01*
X76538149Y-108708119D01*
X76495775Y-108894629D01*
X76417908Y-109069522D01*
X76307557Y-109225955D01*
X76168918Y-109357978D01*
X76007276Y-109460559D01*
X75828790Y-109529789D01*
X75640254Y-109563034D01*
X75448854Y-109559024D01*
X75261882Y-109517916D01*
X75086444Y-109441269D01*
X74929242Y-109332011D01*
X74796255Y-109194299D01*
X74692549Y-109033379D01*
X74622076Y-108855383D01*
X74587517Y-108667083D01*
X74590189Y-108475656D01*
X74629992Y-108288397D01*
X74705410Y-108112437D01*
X74813567Y-107954477D01*
X74950352Y-107820527D01*
X75110544Y-107715700D01*
X75288044Y-107643985D01*
X75476097Y-107608112D01*
X75667534Y-107609449D01*
X75667534Y-107609449D01*
G37*
G36*
X78207534Y-107609449D02*
X78395067Y-107647944D01*
X78571547Y-107722129D01*
X78730267Y-107829187D01*
X78865163Y-107965029D01*
X78971106Y-108124485D01*
X79044057Y-108301480D01*
X79081208Y-108489100D01*
X79081208Y-108489112D01*
X79081241Y-108489279D01*
X79078188Y-108707942D01*
X79078149Y-108708113D01*
X79078149Y-108708119D01*
X79035775Y-108894629D01*
X78957908Y-109069522D01*
X78847557Y-109225955D01*
X78708918Y-109357978D01*
X78547276Y-109460559D01*
X78368790Y-109529789D01*
X78180254Y-109563034D01*
X77988854Y-109559024D01*
X77801882Y-109517916D01*
X77626444Y-109441269D01*
X77469242Y-109332011D01*
X77336255Y-109194299D01*
X77232549Y-109033379D01*
X77162076Y-108855383D01*
X77127517Y-108667083D01*
X77130189Y-108475656D01*
X77169992Y-108288397D01*
X77245410Y-108112437D01*
X77353567Y-107954477D01*
X77490352Y-107820527D01*
X77650544Y-107715700D01*
X77828044Y-107643985D01*
X78016097Y-107608112D01*
X78207534Y-107609449D01*
X78207534Y-107609449D01*
G37*
G36*
X80747534Y-107609449D02*
X80935067Y-107647944D01*
X81111547Y-107722129D01*
X81270267Y-107829187D01*
X81405163Y-107965029D01*
X81511106Y-108124485D01*
X81584057Y-108301480D01*
X81621208Y-108489100D01*
X81621208Y-108489112D01*
X81621241Y-108489279D01*
X81618188Y-108707942D01*
X81618149Y-108708113D01*
X81618149Y-108708119D01*
X81575775Y-108894629D01*
X81497908Y-109069522D01*
X81387557Y-109225955D01*
X81248918Y-109357978D01*
X81087276Y-109460559D01*
X80908790Y-109529789D01*
X80720254Y-109563034D01*
X80528854Y-109559024D01*
X80341882Y-109517916D01*
X80166444Y-109441269D01*
X80009242Y-109332011D01*
X79876255Y-109194299D01*
X79772549Y-109033379D01*
X79702076Y-108855383D01*
X79667517Y-108667083D01*
X79670189Y-108475656D01*
X79709992Y-108288397D01*
X79785410Y-108112437D01*
X79893567Y-107954477D01*
X80030352Y-107820527D01*
X80190544Y-107715700D01*
X80368044Y-107643985D01*
X80556097Y-107608112D01*
X80747534Y-107609449D01*
X80747534Y-107609449D01*
G37*
G36*
X83287534Y-107609449D02*
X83475067Y-107647944D01*
X83651547Y-107722129D01*
X83810267Y-107829187D01*
X83945163Y-107965029D01*
X84051106Y-108124485D01*
X84124057Y-108301480D01*
X84161208Y-108489100D01*
X84161208Y-108489112D01*
X84161241Y-108489279D01*
X84158188Y-108707942D01*
X84158149Y-108708113D01*
X84158149Y-108708119D01*
X84115775Y-108894629D01*
X84037908Y-109069522D01*
X83927557Y-109225955D01*
X83788918Y-109357978D01*
X83627276Y-109460559D01*
X83448790Y-109529789D01*
X83260254Y-109563034D01*
X83068854Y-109559024D01*
X82881882Y-109517916D01*
X82706444Y-109441269D01*
X82549242Y-109332011D01*
X82416255Y-109194299D01*
X82312549Y-109033379D01*
X82242076Y-108855383D01*
X82207517Y-108667083D01*
X82210189Y-108475656D01*
X82249992Y-108288397D01*
X82325410Y-108112437D01*
X82433567Y-107954477D01*
X82570352Y-107820527D01*
X82730544Y-107715700D01*
X82908044Y-107643985D01*
X83096097Y-107608112D01*
X83287534Y-107609449D01*
X83287534Y-107609449D01*
G37*
G36*
X107021200Y-109561200D02*
X105068800Y-109561200D01*
X105068800Y-107608800D01*
X107021200Y-107608800D01*
X107021200Y-109561200D01*
X107021200Y-109561200D01*
G37*
G36*
X50178214Y-107658861D02*
X50182413Y-107658890D01*
X50362049Y-107679040D01*
X50534350Y-107733697D01*
X50692753Y-107820780D01*
X50831226Y-107936972D01*
X50944492Y-108077847D01*
X51028239Y-108238039D01*
X51079275Y-108411447D01*
X51079276Y-108411463D01*
X51079280Y-108411475D01*
X51095660Y-108591462D01*
X51076767Y-108771215D01*
X51076766Y-108771218D01*
X51076764Y-108771238D01*
X51023311Y-108943917D01*
X50937336Y-109102924D01*
X50822113Y-109242204D01*
X50682032Y-109356452D01*
X50522428Y-109441315D01*
X50349381Y-109493561D01*
X50169481Y-109511200D01*
X50160431Y-109511200D01*
X50151786Y-109511139D01*
X50147587Y-109511110D01*
X49967951Y-109490960D01*
X49795650Y-109436303D01*
X49637247Y-109349220D01*
X49498774Y-109233028D01*
X49385508Y-109092153D01*
X49301761Y-108931961D01*
X49250725Y-108758553D01*
X49250724Y-108758537D01*
X49250720Y-108758525D01*
X49234340Y-108578538D01*
X49253233Y-108398785D01*
X49253234Y-108398782D01*
X49253236Y-108398762D01*
X49306689Y-108226083D01*
X49392664Y-108067076D01*
X49507887Y-107927796D01*
X49647968Y-107813548D01*
X49807572Y-107728685D01*
X49980619Y-107676439D01*
X50160519Y-107658800D01*
X50169569Y-107658800D01*
X50178214Y-107658861D01*
X50178214Y-107658861D01*
G37*
G36*
X52718214Y-107658861D02*
X52722413Y-107658890D01*
X52902049Y-107679040D01*
X53074350Y-107733697D01*
X53232753Y-107820780D01*
X53371226Y-107936972D01*
X53484492Y-108077847D01*
X53568239Y-108238039D01*
X53619275Y-108411447D01*
X53619276Y-108411463D01*
X53619280Y-108411475D01*
X53635660Y-108591462D01*
X53616767Y-108771215D01*
X53616766Y-108771218D01*
X53616764Y-108771238D01*
X53563311Y-108943917D01*
X53477336Y-109102924D01*
X53362113Y-109242204D01*
X53222032Y-109356452D01*
X53062428Y-109441315D01*
X52889381Y-109493561D01*
X52709481Y-109511200D01*
X52700431Y-109511200D01*
X52691786Y-109511139D01*
X52687587Y-109511110D01*
X52507951Y-109490960D01*
X52335650Y-109436303D01*
X52177247Y-109349220D01*
X52038774Y-109233028D01*
X51925508Y-109092153D01*
X51841761Y-108931961D01*
X51790725Y-108758553D01*
X51790724Y-108758537D01*
X51790720Y-108758525D01*
X51774340Y-108578538D01*
X51793233Y-108398785D01*
X51793234Y-108398782D01*
X51793236Y-108398762D01*
X51846689Y-108226083D01*
X51932664Y-108067076D01*
X52047887Y-107927796D01*
X52187968Y-107813548D01*
X52347572Y-107728685D01*
X52520619Y-107676439D01*
X52700519Y-107658800D01*
X52709569Y-107658800D01*
X52718214Y-107658861D01*
X52718214Y-107658861D01*
G37*
G36*
X50178214Y-105118861D02*
X50182413Y-105118890D01*
X50362049Y-105139040D01*
X50534350Y-105193697D01*
X50692753Y-105280780D01*
X50831226Y-105396972D01*
X50944492Y-105537847D01*
X51028239Y-105698039D01*
X51079275Y-105871447D01*
X51079276Y-105871463D01*
X51079280Y-105871475D01*
X51095660Y-106051462D01*
X51076767Y-106231215D01*
X51076766Y-106231218D01*
X51076764Y-106231238D01*
X51023311Y-106403917D01*
X50937336Y-106562924D01*
X50822113Y-106702204D01*
X50682032Y-106816452D01*
X50522428Y-106901315D01*
X50349381Y-106953561D01*
X50169481Y-106971200D01*
X50160431Y-106971200D01*
X50151786Y-106971139D01*
X50147587Y-106971110D01*
X49967951Y-106950960D01*
X49795650Y-106896303D01*
X49637247Y-106809220D01*
X49498774Y-106693028D01*
X49385508Y-106552153D01*
X49301761Y-106391961D01*
X49250725Y-106218553D01*
X49250724Y-106218537D01*
X49250720Y-106218525D01*
X49234340Y-106038538D01*
X49253233Y-105858785D01*
X49253234Y-105858782D01*
X49253236Y-105858762D01*
X49306689Y-105686083D01*
X49392664Y-105527076D01*
X49507887Y-105387796D01*
X49647968Y-105273548D01*
X49807572Y-105188685D01*
X49980619Y-105136439D01*
X50160519Y-105118800D01*
X50169569Y-105118800D01*
X50178214Y-105118861D01*
X50178214Y-105118861D01*
G37*
G36*
X52718214Y-105118861D02*
X52722413Y-105118890D01*
X52902049Y-105139040D01*
X53074350Y-105193697D01*
X53232753Y-105280780D01*
X53371226Y-105396972D01*
X53484492Y-105537847D01*
X53568239Y-105698039D01*
X53619275Y-105871447D01*
X53619276Y-105871463D01*
X53619280Y-105871475D01*
X53635660Y-106051462D01*
X53616767Y-106231215D01*
X53616766Y-106231218D01*
X53616764Y-106231238D01*
X53563311Y-106403917D01*
X53477336Y-106562924D01*
X53362113Y-106702204D01*
X53222032Y-106816452D01*
X53062428Y-106901315D01*
X52889381Y-106953561D01*
X52709481Y-106971200D01*
X52700431Y-106971200D01*
X52691786Y-106971139D01*
X52687587Y-106971110D01*
X52507951Y-106950960D01*
X52335650Y-106896303D01*
X52177247Y-106809220D01*
X52038774Y-106693028D01*
X51925508Y-106552153D01*
X51841761Y-106391961D01*
X51790725Y-106218553D01*
X51790724Y-106218537D01*
X51790720Y-106218525D01*
X51774340Y-106038538D01*
X51793233Y-105858785D01*
X51793234Y-105858782D01*
X51793236Y-105858762D01*
X51846689Y-105686083D01*
X51932664Y-105527076D01*
X52047887Y-105387796D01*
X52187968Y-105273548D01*
X52347572Y-105188685D01*
X52520619Y-105136439D01*
X52700519Y-105118800D01*
X52709569Y-105118800D01*
X52718214Y-105118861D01*
X52718214Y-105118861D01*
G37*
G36*
X67646200Y-105206200D02*
X66393800Y-105206200D01*
X66393800Y-103953800D01*
X67646200Y-103953800D01*
X67646200Y-105206200D01*
X67646200Y-105206200D01*
G37*
G36*
X64846200Y-105206200D02*
X63593800Y-105206200D01*
X63593800Y-103953800D01*
X64846200Y-103953800D01*
X64846200Y-105206200D01*
X64846200Y-105206200D01*
G37*
G36*
X76006200Y-105111200D02*
X74653800Y-105111200D01*
X74653800Y-104208800D01*
X76006200Y-104208800D01*
X76006200Y-105111200D01*
X76006200Y-105111200D01*
G37*
G36*
X74106200Y-105111200D02*
X72753800Y-105111200D01*
X72753800Y-104208800D01*
X74106200Y-104208800D01*
X74106200Y-105111200D01*
X74106200Y-105111200D01*
G37*
G36*
X52718214Y-102578861D02*
X52722413Y-102578890D01*
X52902049Y-102599040D01*
X53074350Y-102653697D01*
X53232753Y-102740780D01*
X53371226Y-102856972D01*
X53484492Y-102997847D01*
X53568239Y-103158039D01*
X53619275Y-103331447D01*
X53619276Y-103331463D01*
X53619280Y-103331475D01*
X53635660Y-103511462D01*
X53616767Y-103691215D01*
X53616766Y-103691218D01*
X53616764Y-103691238D01*
X53563311Y-103863917D01*
X53477336Y-104022924D01*
X53362113Y-104162204D01*
X53222032Y-104276452D01*
X53062428Y-104361315D01*
X52889381Y-104413561D01*
X52709481Y-104431200D01*
X52700431Y-104431200D01*
X52691786Y-104431139D01*
X52687587Y-104431110D01*
X52507951Y-104410960D01*
X52335650Y-104356303D01*
X52177247Y-104269220D01*
X52038774Y-104153028D01*
X51925508Y-104012153D01*
X51841761Y-103851961D01*
X51790725Y-103678553D01*
X51790724Y-103678537D01*
X51790720Y-103678525D01*
X51774340Y-103498538D01*
X51793233Y-103318785D01*
X51793234Y-103318782D01*
X51793236Y-103318762D01*
X51846689Y-103146083D01*
X51932664Y-102987076D01*
X52047887Y-102847796D01*
X52187968Y-102733548D01*
X52347572Y-102648685D01*
X52520619Y-102596439D01*
X52700519Y-102578800D01*
X52709569Y-102578800D01*
X52718214Y-102578861D01*
X52718214Y-102578861D01*
G37*
G36*
X50178214Y-102578861D02*
X50182413Y-102578890D01*
X50362049Y-102599040D01*
X50534350Y-102653697D01*
X50692753Y-102740780D01*
X50831226Y-102856972D01*
X50944492Y-102997847D01*
X51028239Y-103158039D01*
X51079275Y-103331447D01*
X51079276Y-103331463D01*
X51079280Y-103331475D01*
X51095660Y-103511462D01*
X51076767Y-103691215D01*
X51076766Y-103691218D01*
X51076764Y-103691238D01*
X51023311Y-103863917D01*
X50937336Y-104022924D01*
X50822113Y-104162204D01*
X50682032Y-104276452D01*
X50522428Y-104361315D01*
X50349381Y-104413561D01*
X50169481Y-104431200D01*
X50160431Y-104431200D01*
X50151786Y-104431139D01*
X50147587Y-104431110D01*
X49967951Y-104410960D01*
X49795650Y-104356303D01*
X49637247Y-104269220D01*
X49498774Y-104153028D01*
X49385508Y-104012153D01*
X49301761Y-103851961D01*
X49250725Y-103678553D01*
X49250724Y-103678537D01*
X49250720Y-103678525D01*
X49234340Y-103498538D01*
X49253233Y-103318785D01*
X49253234Y-103318782D01*
X49253236Y-103318762D01*
X49306689Y-103146083D01*
X49392664Y-102987076D01*
X49507887Y-102847796D01*
X49647968Y-102733548D01*
X49807572Y-102648685D01*
X49980619Y-102596439D01*
X50160519Y-102578800D01*
X50169569Y-102578800D01*
X50178214Y-102578861D01*
X50178214Y-102578861D01*
G37*
G36*
X95826200Y-104126200D02*
X94173800Y-104126200D01*
X94173800Y-102673800D01*
X95826200Y-102673800D01*
X95826200Y-104126200D01*
X95826200Y-104126200D01*
G37*
G36*
X93126200Y-104126200D02*
X91473800Y-104126200D01*
X91473800Y-102673800D01*
X93126200Y-102673800D01*
X93126200Y-104126200D01*
X93126200Y-104126200D01*
G37*
G36*
X78753214Y-101943861D02*
X78757413Y-101943890D01*
X78937049Y-101964040D01*
X79109350Y-102018697D01*
X79267753Y-102105780D01*
X79406226Y-102221972D01*
X79519492Y-102362847D01*
X79603239Y-102523039D01*
X79654275Y-102696447D01*
X79654276Y-102696463D01*
X79654280Y-102696475D01*
X79670660Y-102876462D01*
X79651767Y-103056215D01*
X79651766Y-103056218D01*
X79651764Y-103056238D01*
X79598311Y-103228917D01*
X79512336Y-103387924D01*
X79397113Y-103527204D01*
X79257032Y-103641452D01*
X79097428Y-103726315D01*
X78924381Y-103778561D01*
X78744481Y-103796200D01*
X78735431Y-103796200D01*
X78726786Y-103796139D01*
X78722587Y-103796110D01*
X78542951Y-103775960D01*
X78370650Y-103721303D01*
X78212247Y-103634220D01*
X78073774Y-103518028D01*
X77960508Y-103377153D01*
X77876761Y-103216961D01*
X77825725Y-103043553D01*
X77825724Y-103043537D01*
X77825720Y-103043525D01*
X77809340Y-102863538D01*
X77828233Y-102683785D01*
X77828234Y-102683782D01*
X77828236Y-102683762D01*
X77881689Y-102511083D01*
X77967664Y-102352076D01*
X78082887Y-102212796D01*
X78222968Y-102098548D01*
X78382572Y-102013685D01*
X78555619Y-101961439D01*
X78735519Y-101943800D01*
X78744569Y-101943800D01*
X78753214Y-101943861D01*
X78753214Y-101943861D01*
G37*
G36*
X107606200Y-103161200D02*
X105753800Y-103161200D01*
X105753800Y-101308800D01*
X107606200Y-101308800D01*
X107606200Y-103161200D01*
X107606200Y-103161200D01*
G37*
G36*
X104153214Y-101308861D02*
X104157413Y-101308890D01*
X104337049Y-101329040D01*
X104509350Y-101383697D01*
X104667753Y-101470780D01*
X104806226Y-101586972D01*
X104919492Y-101727847D01*
X105003239Y-101888039D01*
X105054275Y-102061447D01*
X105054276Y-102061463D01*
X105054280Y-102061475D01*
X105070660Y-102241462D01*
X105051767Y-102421215D01*
X105051766Y-102421218D01*
X105051764Y-102421238D01*
X104998311Y-102593917D01*
X104912336Y-102752924D01*
X104797113Y-102892204D01*
X104657032Y-103006452D01*
X104497428Y-103091315D01*
X104324381Y-103143561D01*
X104144481Y-103161200D01*
X104135431Y-103161200D01*
X104126786Y-103161139D01*
X104122587Y-103161110D01*
X103942951Y-103140960D01*
X103770650Y-103086303D01*
X103612247Y-102999220D01*
X103473774Y-102883028D01*
X103360508Y-102742153D01*
X103276761Y-102581961D01*
X103225725Y-102408553D01*
X103225724Y-102408537D01*
X103225720Y-102408525D01*
X103209340Y-102228538D01*
X103228233Y-102048785D01*
X103228234Y-102048782D01*
X103228236Y-102048762D01*
X103281689Y-101876083D01*
X103367664Y-101717076D01*
X103482887Y-101577796D01*
X103622968Y-101463548D01*
X103782572Y-101378685D01*
X103955619Y-101326439D01*
X104135519Y-101308800D01*
X104144569Y-101308800D01*
X104153214Y-101308861D01*
X104153214Y-101308861D01*
G37*
G36*
X50178214Y-100038861D02*
X50182413Y-100038890D01*
X50362049Y-100059040D01*
X50534350Y-100113697D01*
X50692753Y-100200780D01*
X50831226Y-100316972D01*
X50944492Y-100457847D01*
X51028239Y-100618039D01*
X51079275Y-100791447D01*
X51079276Y-100791463D01*
X51079280Y-100791475D01*
X51095660Y-100971462D01*
X51076767Y-101151215D01*
X51076766Y-101151218D01*
X51076764Y-101151238D01*
X51023311Y-101323917D01*
X50937336Y-101482924D01*
X50822113Y-101622204D01*
X50682032Y-101736452D01*
X50522428Y-101821315D01*
X50349381Y-101873561D01*
X50169481Y-101891200D01*
X50160431Y-101891200D01*
X50151786Y-101891139D01*
X50147587Y-101891110D01*
X49967951Y-101870960D01*
X49795650Y-101816303D01*
X49637247Y-101729220D01*
X49498774Y-101613028D01*
X49385508Y-101472153D01*
X49301761Y-101311961D01*
X49250725Y-101138553D01*
X49250724Y-101138537D01*
X49250720Y-101138525D01*
X49234340Y-100958538D01*
X49253233Y-100778785D01*
X49253234Y-100778782D01*
X49253236Y-100778762D01*
X49306689Y-100606083D01*
X49392664Y-100447076D01*
X49507887Y-100307796D01*
X49647968Y-100193548D01*
X49807572Y-100108685D01*
X49980619Y-100056439D01*
X50160519Y-100038800D01*
X50169569Y-100038800D01*
X50178214Y-100038861D01*
X50178214Y-100038861D01*
G37*
G36*
X52718214Y-100038861D02*
X52722413Y-100038890D01*
X52902049Y-100059040D01*
X53074350Y-100113697D01*
X53232753Y-100200780D01*
X53371226Y-100316972D01*
X53484492Y-100457847D01*
X53568239Y-100618039D01*
X53619275Y-100791447D01*
X53619276Y-100791463D01*
X53619280Y-100791475D01*
X53635660Y-100971462D01*
X53616767Y-101151215D01*
X53616766Y-101151218D01*
X53616764Y-101151238D01*
X53563311Y-101323917D01*
X53477336Y-101482924D01*
X53362113Y-101622204D01*
X53222032Y-101736452D01*
X53062428Y-101821315D01*
X52889381Y-101873561D01*
X52709481Y-101891200D01*
X52700431Y-101891200D01*
X52691786Y-101891139D01*
X52687587Y-101891110D01*
X52507951Y-101870960D01*
X52335650Y-101816303D01*
X52177247Y-101729220D01*
X52038774Y-101613028D01*
X51925508Y-101472153D01*
X51841761Y-101311961D01*
X51790725Y-101138553D01*
X51790724Y-101138537D01*
X51790720Y-101138525D01*
X51774340Y-100958538D01*
X51793233Y-100778785D01*
X51793234Y-100778782D01*
X51793236Y-100778762D01*
X51846689Y-100606083D01*
X51932664Y-100447076D01*
X52047887Y-100307796D01*
X52187968Y-100193548D01*
X52347572Y-100108685D01*
X52520619Y-100056439D01*
X52700519Y-100038800D01*
X52709569Y-100038800D01*
X52718214Y-100038861D01*
X52718214Y-100038861D01*
G37*
G36*
X74156200Y-101311200D02*
X72803800Y-101311200D01*
X72803800Y-100408800D01*
X74156200Y-100408800D01*
X74156200Y-101311200D01*
X74156200Y-101311200D01*
G37*
G36*
X76056200Y-101311200D02*
X74703800Y-101311200D01*
X74703800Y-100408800D01*
X76056200Y-100408800D01*
X76056200Y-101311200D01*
X76056200Y-101311200D01*
G37*
G36*
X79666200Y-101256200D02*
X77813800Y-101256200D01*
X77813800Y-99403800D01*
X79666200Y-99403800D01*
X79666200Y-101256200D01*
X79666200Y-101256200D01*
G37*
G36*
X106693214Y-98768861D02*
X106697413Y-98768890D01*
X106877049Y-98789040D01*
X107049350Y-98843697D01*
X107207753Y-98930780D01*
X107346226Y-99046972D01*
X107459492Y-99187847D01*
X107543239Y-99348039D01*
X107594275Y-99521447D01*
X107594276Y-99521463D01*
X107594280Y-99521475D01*
X107610660Y-99701462D01*
X107591767Y-99881215D01*
X107591766Y-99881218D01*
X107591764Y-99881238D01*
X107538311Y-100053917D01*
X107452336Y-100212924D01*
X107337113Y-100352204D01*
X107197032Y-100466452D01*
X107037428Y-100551315D01*
X106864381Y-100603561D01*
X106684481Y-100621200D01*
X106675431Y-100621200D01*
X106666786Y-100621139D01*
X106662587Y-100621110D01*
X106482951Y-100600960D01*
X106310650Y-100546303D01*
X106152247Y-100459220D01*
X106013774Y-100343028D01*
X105900508Y-100202153D01*
X105816761Y-100041961D01*
X105765725Y-99868553D01*
X105765724Y-99868537D01*
X105765720Y-99868525D01*
X105749340Y-99688538D01*
X105768233Y-99508785D01*
X105768234Y-99508782D01*
X105768236Y-99508762D01*
X105821689Y-99336083D01*
X105907664Y-99177076D01*
X106022887Y-99037796D01*
X106162968Y-98923548D01*
X106322572Y-98838685D01*
X106495619Y-98786439D01*
X106675519Y-98768800D01*
X106684569Y-98768800D01*
X106693214Y-98768861D01*
X106693214Y-98768861D01*
G37*
G36*
X104153214Y-98768861D02*
X104157413Y-98768890D01*
X104337049Y-98789040D01*
X104509350Y-98843697D01*
X104667753Y-98930780D01*
X104806226Y-99046972D01*
X104919492Y-99187847D01*
X105003239Y-99348039D01*
X105054275Y-99521447D01*
X105054276Y-99521463D01*
X105054280Y-99521475D01*
X105070660Y-99701462D01*
X105051767Y-99881215D01*
X105051766Y-99881218D01*
X105051764Y-99881238D01*
X104998311Y-100053917D01*
X104912336Y-100212924D01*
X104797113Y-100352204D01*
X104657032Y-100466452D01*
X104497428Y-100551315D01*
X104324381Y-100603561D01*
X104144481Y-100621200D01*
X104135431Y-100621200D01*
X104126786Y-100621139D01*
X104122587Y-100621110D01*
X103942951Y-100600960D01*
X103770650Y-100546303D01*
X103612247Y-100459220D01*
X103473774Y-100343028D01*
X103360508Y-100202153D01*
X103276761Y-100041961D01*
X103225725Y-99868553D01*
X103225724Y-99868537D01*
X103225720Y-99868525D01*
X103209340Y-99688538D01*
X103228233Y-99508785D01*
X103228234Y-99508782D01*
X103228236Y-99508762D01*
X103281689Y-99336083D01*
X103367664Y-99177076D01*
X103482887Y-99037796D01*
X103622968Y-98923548D01*
X103782572Y-98838685D01*
X103955619Y-98786439D01*
X104135519Y-98768800D01*
X104144569Y-98768800D01*
X104153214Y-98768861D01*
X104153214Y-98768861D01*
G37*
G36*
X90281200Y-99786200D02*
X88628800Y-99786200D01*
X88628800Y-98333800D01*
X90281200Y-98333800D01*
X90281200Y-99786200D01*
X90281200Y-99786200D01*
G37*
G36*
X92981200Y-99786200D02*
X91328800Y-99786200D01*
X91328800Y-98333800D01*
X92981200Y-98333800D01*
X92981200Y-99786200D01*
X92981200Y-99786200D01*
G37*
G36*
X52718214Y-97498861D02*
X52722413Y-97498890D01*
X52902049Y-97519040D01*
X53074350Y-97573697D01*
X53232753Y-97660780D01*
X53371226Y-97776972D01*
X53484492Y-97917847D01*
X53568239Y-98078039D01*
X53619275Y-98251447D01*
X53619276Y-98251463D01*
X53619280Y-98251475D01*
X53635660Y-98431462D01*
X53616767Y-98611215D01*
X53616766Y-98611218D01*
X53616764Y-98611238D01*
X53563311Y-98783917D01*
X53477336Y-98942924D01*
X53362113Y-99082204D01*
X53222032Y-99196452D01*
X53062428Y-99281315D01*
X52889381Y-99333561D01*
X52709481Y-99351200D01*
X52700431Y-99351200D01*
X52691786Y-99351139D01*
X52687587Y-99351110D01*
X52507951Y-99330960D01*
X52335650Y-99276303D01*
X52177247Y-99189220D01*
X52038774Y-99073028D01*
X51925508Y-98932153D01*
X51841761Y-98771961D01*
X51790725Y-98598553D01*
X51790724Y-98598537D01*
X51790720Y-98598525D01*
X51774340Y-98418538D01*
X51793233Y-98238785D01*
X51793234Y-98238782D01*
X51793236Y-98238762D01*
X51846689Y-98066083D01*
X51932664Y-97907076D01*
X52047887Y-97767796D01*
X52187968Y-97653548D01*
X52347572Y-97568685D01*
X52520619Y-97516439D01*
X52700519Y-97498800D01*
X52709569Y-97498800D01*
X52718214Y-97498861D01*
X52718214Y-97498861D01*
G37*
G36*
X50178214Y-97498861D02*
X50182413Y-97498890D01*
X50362049Y-97519040D01*
X50534350Y-97573697D01*
X50692753Y-97660780D01*
X50831226Y-97776972D01*
X50944492Y-97917847D01*
X51028239Y-98078039D01*
X51079275Y-98251447D01*
X51079276Y-98251463D01*
X51079280Y-98251475D01*
X51095660Y-98431462D01*
X51076767Y-98611215D01*
X51076766Y-98611218D01*
X51076764Y-98611238D01*
X51023311Y-98783917D01*
X50937336Y-98942924D01*
X50822113Y-99082204D01*
X50682032Y-99196452D01*
X50522428Y-99281315D01*
X50349381Y-99333561D01*
X50169481Y-99351200D01*
X50160431Y-99351200D01*
X50151786Y-99351139D01*
X50147587Y-99351110D01*
X49967951Y-99330960D01*
X49795650Y-99276303D01*
X49637247Y-99189220D01*
X49498774Y-99073028D01*
X49385508Y-98932153D01*
X49301761Y-98771961D01*
X49250725Y-98598553D01*
X49250724Y-98598537D01*
X49250720Y-98598525D01*
X49234340Y-98418538D01*
X49253233Y-98238785D01*
X49253234Y-98238782D01*
X49253236Y-98238762D01*
X49306689Y-98066083D01*
X49392664Y-97907076D01*
X49507887Y-97767796D01*
X49647968Y-97653548D01*
X49807572Y-97568685D01*
X49980619Y-97516439D01*
X50160519Y-97498800D01*
X50169569Y-97498800D01*
X50178214Y-97498861D01*
X50178214Y-97498861D01*
G37*
G36*
X57526200Y-98676200D02*
X56073800Y-98676200D01*
X56073800Y-97023800D01*
X57526200Y-97023800D01*
X57526200Y-98676200D01*
X57526200Y-98676200D01*
G37*
G36*
X105066200Y-98081200D02*
X103213800Y-98081200D01*
X103213800Y-96228800D01*
X105066200Y-96228800D01*
X105066200Y-98081200D01*
X105066200Y-98081200D01*
G37*
G36*
X106693214Y-96228861D02*
X106697413Y-96228890D01*
X106877049Y-96249040D01*
X107049350Y-96303697D01*
X107207753Y-96390780D01*
X107346226Y-96506972D01*
X107459492Y-96647847D01*
X107543239Y-96808039D01*
X107594275Y-96981447D01*
X107594276Y-96981463D01*
X107594280Y-96981475D01*
X107610660Y-97161462D01*
X107591767Y-97341215D01*
X107591766Y-97341218D01*
X107591764Y-97341238D01*
X107538311Y-97513917D01*
X107452336Y-97672924D01*
X107337113Y-97812204D01*
X107197032Y-97926452D01*
X107037428Y-98011315D01*
X106864381Y-98063561D01*
X106684481Y-98081200D01*
X106675431Y-98081200D01*
X106666786Y-98081139D01*
X106662587Y-98081110D01*
X106482951Y-98060960D01*
X106310650Y-98006303D01*
X106152247Y-97919220D01*
X106013774Y-97803028D01*
X105900508Y-97662153D01*
X105816761Y-97501961D01*
X105765725Y-97328553D01*
X105765724Y-97328537D01*
X105765720Y-97328525D01*
X105749340Y-97148538D01*
X105768233Y-96968785D01*
X105768234Y-96968782D01*
X105768236Y-96968762D01*
X105821689Y-96796083D01*
X105907664Y-96637076D01*
X106022887Y-96497796D01*
X106162968Y-96383548D01*
X106322572Y-96298685D01*
X106495619Y-96246439D01*
X106675519Y-96228800D01*
X106684569Y-96228800D01*
X106693214Y-96228861D01*
X106693214Y-96228861D01*
G37*
G36*
X97266200Y-97881200D02*
X95613800Y-97881200D01*
X95613800Y-96428800D01*
X97266200Y-96428800D01*
X97266200Y-97881200D01*
X97266200Y-97881200D01*
G37*
G36*
X99966200Y-97881200D02*
X98313800Y-97881200D01*
X98313800Y-96428800D01*
X99966200Y-96428800D01*
X99966200Y-97881200D01*
X99966200Y-97881200D01*
G37*
G36*
X87063000Y-97703400D02*
X85410600Y-97703400D01*
X85410600Y-96251000D01*
X87063000Y-96251000D01*
X87063000Y-97703400D01*
X87063000Y-97703400D01*
G37*
G36*
X84363000Y-97703400D02*
X82710600Y-97703400D01*
X82710600Y-96251000D01*
X84363000Y-96251000D01*
X84363000Y-97703400D01*
X84363000Y-97703400D01*
G37*
G36*
X78161200Y-97056200D02*
X75508800Y-97056200D01*
X75508800Y-94903800D01*
X78161200Y-94903800D01*
X78161200Y-97056200D01*
X78161200Y-97056200D01*
G37*
G36*
X52718214Y-94958861D02*
X52722413Y-94958890D01*
X52902049Y-94979040D01*
X53074350Y-95033697D01*
X53232753Y-95120780D01*
X53371226Y-95236972D01*
X53484492Y-95377847D01*
X53568239Y-95538039D01*
X53619275Y-95711447D01*
X53619276Y-95711463D01*
X53619280Y-95711475D01*
X53635660Y-95891462D01*
X53616767Y-96071215D01*
X53616766Y-96071218D01*
X53616764Y-96071238D01*
X53563311Y-96243917D01*
X53477336Y-96402924D01*
X53362113Y-96542204D01*
X53222032Y-96656452D01*
X53062428Y-96741315D01*
X52889381Y-96793561D01*
X52709481Y-96811200D01*
X52700431Y-96811200D01*
X52691786Y-96811139D01*
X52687587Y-96811110D01*
X52507951Y-96790960D01*
X52335650Y-96736303D01*
X52177247Y-96649220D01*
X52038774Y-96533028D01*
X51925508Y-96392153D01*
X51841761Y-96231961D01*
X51790725Y-96058553D01*
X51790724Y-96058537D01*
X51790720Y-96058525D01*
X51774340Y-95878538D01*
X51793233Y-95698785D01*
X51793234Y-95698782D01*
X51793236Y-95698762D01*
X51846689Y-95526083D01*
X51932664Y-95367076D01*
X52047887Y-95227796D01*
X52187968Y-95113548D01*
X52347572Y-95028685D01*
X52520619Y-94976439D01*
X52700519Y-94958800D01*
X52709569Y-94958800D01*
X52718214Y-94958861D01*
X52718214Y-94958861D01*
G37*
G36*
X50178214Y-94958861D02*
X50182413Y-94958890D01*
X50362049Y-94979040D01*
X50534350Y-95033697D01*
X50692753Y-95120780D01*
X50831226Y-95236972D01*
X50944492Y-95377847D01*
X51028239Y-95538039D01*
X51079275Y-95711447D01*
X51079276Y-95711463D01*
X51079280Y-95711475D01*
X51095660Y-95891462D01*
X51076767Y-96071215D01*
X51076766Y-96071218D01*
X51076764Y-96071238D01*
X51023311Y-96243917D01*
X50937336Y-96402924D01*
X50822113Y-96542204D01*
X50682032Y-96656452D01*
X50522428Y-96741315D01*
X50349381Y-96793561D01*
X50169481Y-96811200D01*
X50160431Y-96811200D01*
X50151786Y-96811139D01*
X50147587Y-96811110D01*
X49967951Y-96790960D01*
X49795650Y-96736303D01*
X49637247Y-96649220D01*
X49498774Y-96533028D01*
X49385508Y-96392153D01*
X49301761Y-96231961D01*
X49250725Y-96058553D01*
X49250724Y-96058537D01*
X49250720Y-96058525D01*
X49234340Y-95878538D01*
X49253233Y-95698785D01*
X49253234Y-95698782D01*
X49253236Y-95698762D01*
X49306689Y-95526083D01*
X49392664Y-95367076D01*
X49507887Y-95227796D01*
X49647968Y-95113548D01*
X49807572Y-95028685D01*
X49980619Y-94976439D01*
X50160519Y-94958800D01*
X50169569Y-94958800D01*
X50178214Y-94958861D01*
X50178214Y-94958861D01*
G37*
G36*
X71876200Y-96511200D02*
X70623800Y-96511200D01*
X70623800Y-95258800D01*
X71876200Y-95258800D01*
X71876200Y-96511200D01*
X71876200Y-96511200D01*
G37*
G36*
X69076200Y-96511200D02*
X67823800Y-96511200D01*
X67823800Y-95258800D01*
X69076200Y-95258800D01*
X69076200Y-96511200D01*
X69076200Y-96511200D01*
G37*
G36*
X63221200Y-96336200D02*
X61868800Y-96336200D01*
X61868800Y-95433800D01*
X63221200Y-95433800D01*
X63221200Y-96336200D01*
X63221200Y-96336200D01*
G37*
G36*
X61321200Y-96336200D02*
X59968800Y-96336200D01*
X59968800Y-95433800D01*
X61321200Y-95433800D01*
X61321200Y-96336200D01*
X61321200Y-96336200D01*
G37*
G36*
X57526200Y-95976200D02*
X56073800Y-95976200D01*
X56073800Y-94323800D01*
X57526200Y-94323800D01*
X57526200Y-95976200D01*
X57526200Y-95976200D01*
G37*
G36*
X86546215Y-92433233D02*
X86546218Y-92433234D01*
X86546238Y-92433236D01*
X86718917Y-92486689D01*
X86877924Y-92572664D01*
X87017204Y-92687887D01*
X87131452Y-92827968D01*
X87216315Y-92987572D01*
X87268561Y-93160619D01*
X87286200Y-93340519D01*
X87286200Y-93349604D01*
X87286134Y-93358934D01*
X87286110Y-93362413D01*
X87265960Y-93542049D01*
X87211303Y-93714350D01*
X87124220Y-93872753D01*
X87008028Y-94011226D01*
X86867153Y-94124492D01*
X86706961Y-94208239D01*
X86533553Y-94259275D01*
X86533537Y-94259276D01*
X86533525Y-94259280D01*
X86353538Y-94275660D01*
X86173785Y-94256767D01*
X86173782Y-94256766D01*
X86173762Y-94256764D01*
X86001083Y-94203311D01*
X85842076Y-94117336D01*
X85702796Y-94002113D01*
X85588548Y-93862032D01*
X85503685Y-93702428D01*
X85451439Y-93529381D01*
X85433800Y-93349481D01*
X85433800Y-93340396D01*
X85433883Y-93328625D01*
X85433890Y-93327587D01*
X85454040Y-93147951D01*
X85508697Y-92975650D01*
X85595780Y-92817247D01*
X85711972Y-92678774D01*
X85852847Y-92565508D01*
X86013039Y-92481761D01*
X86186447Y-92430725D01*
X86186463Y-92430724D01*
X86186475Y-92430720D01*
X86366462Y-92414340D01*
X86546215Y-92433233D01*
X86546215Y-92433233D01*
G37*
G36*
X89086215Y-92433233D02*
X89086218Y-92433234D01*
X89086238Y-92433236D01*
X89258917Y-92486689D01*
X89417924Y-92572664D01*
X89557204Y-92687887D01*
X89671452Y-92827968D01*
X89756315Y-92987572D01*
X89808561Y-93160619D01*
X89826200Y-93340519D01*
X89826200Y-93349604D01*
X89826134Y-93358934D01*
X89826110Y-93362413D01*
X89805960Y-93542049D01*
X89751303Y-93714350D01*
X89664220Y-93872753D01*
X89548028Y-94011226D01*
X89407153Y-94124492D01*
X89246961Y-94208239D01*
X89073553Y-94259275D01*
X89073537Y-94259276D01*
X89073525Y-94259280D01*
X88893538Y-94275660D01*
X88713785Y-94256767D01*
X88713782Y-94256766D01*
X88713762Y-94256764D01*
X88541083Y-94203311D01*
X88382076Y-94117336D01*
X88242796Y-94002113D01*
X88128548Y-93862032D01*
X88043685Y-93702428D01*
X87991439Y-93529381D01*
X87973800Y-93349481D01*
X87973800Y-93340396D01*
X87973883Y-93328625D01*
X87973890Y-93327587D01*
X87994040Y-93147951D01*
X88048697Y-92975650D01*
X88135780Y-92817247D01*
X88251972Y-92678774D01*
X88392847Y-92565508D01*
X88553039Y-92481761D01*
X88726447Y-92430725D01*
X88726463Y-92430724D01*
X88726475Y-92430720D01*
X88906462Y-92414340D01*
X89086215Y-92433233D01*
X89086215Y-92433233D01*
G37*
G36*
X50178214Y-92418861D02*
X50182413Y-92418890D01*
X50362049Y-92439040D01*
X50534350Y-92493697D01*
X50692753Y-92580780D01*
X50831226Y-92696972D01*
X50944492Y-92837847D01*
X51028239Y-92998039D01*
X51079275Y-93171447D01*
X51079276Y-93171463D01*
X51079280Y-93171475D01*
X51095660Y-93351462D01*
X51076767Y-93531215D01*
X51076766Y-93531218D01*
X51076764Y-93531238D01*
X51023311Y-93703917D01*
X50937336Y-93862924D01*
X50822113Y-94002204D01*
X50682032Y-94116452D01*
X50522428Y-94201315D01*
X50349381Y-94253561D01*
X50169481Y-94271200D01*
X50160431Y-94271200D01*
X50151786Y-94271139D01*
X50147587Y-94271110D01*
X49967951Y-94250960D01*
X49795650Y-94196303D01*
X49637247Y-94109220D01*
X49498774Y-93993028D01*
X49385508Y-93852153D01*
X49301761Y-93691961D01*
X49250725Y-93518553D01*
X49250724Y-93518537D01*
X49250720Y-93518525D01*
X49234340Y-93338538D01*
X49253233Y-93158785D01*
X49253234Y-93158782D01*
X49253236Y-93158762D01*
X49306689Y-92986083D01*
X49392664Y-92827076D01*
X49507887Y-92687796D01*
X49647968Y-92573548D01*
X49807572Y-92488685D01*
X49980619Y-92436439D01*
X50160519Y-92418800D01*
X50169569Y-92418800D01*
X50178214Y-92418861D01*
X50178214Y-92418861D01*
G37*
G36*
X52718214Y-92418861D02*
X52722413Y-92418890D01*
X52902049Y-92439040D01*
X53074350Y-92493697D01*
X53232753Y-92580780D01*
X53371226Y-92696972D01*
X53484492Y-92837847D01*
X53568239Y-92998039D01*
X53619275Y-93171447D01*
X53619276Y-93171463D01*
X53619280Y-93171475D01*
X53635660Y-93351462D01*
X53616767Y-93531215D01*
X53616766Y-93531218D01*
X53616764Y-93531238D01*
X53563311Y-93703917D01*
X53477336Y-93862924D01*
X53362113Y-94002204D01*
X53222032Y-94116452D01*
X53062428Y-94201315D01*
X52889381Y-94253561D01*
X52709481Y-94271200D01*
X52700431Y-94271200D01*
X52691786Y-94271139D01*
X52687587Y-94271110D01*
X52507951Y-94250960D01*
X52335650Y-94196303D01*
X52177247Y-94109220D01*
X52038774Y-93993028D01*
X51925508Y-93852153D01*
X51841761Y-93691961D01*
X51790725Y-93518553D01*
X51790724Y-93518537D01*
X51790720Y-93518525D01*
X51774340Y-93338538D01*
X51793233Y-93158785D01*
X51793234Y-93158782D01*
X51793236Y-93158762D01*
X51846689Y-92986083D01*
X51932664Y-92827076D01*
X52047887Y-92687796D01*
X52187968Y-92573548D01*
X52347572Y-92488685D01*
X52520619Y-92436439D01*
X52700519Y-92418800D01*
X52709569Y-92418800D01*
X52718214Y-92418861D01*
X52718214Y-92418861D01*
G37*
G36*
X84746200Y-94271200D02*
X82893800Y-94271200D01*
X82893800Y-92418800D01*
X84746200Y-92418800D01*
X84746200Y-94271200D01*
X84746200Y-94271200D01*
G37*
G36*
X63456200Y-93781200D02*
X61003800Y-93781200D01*
X61003800Y-92228800D01*
X63456200Y-92228800D01*
X63456200Y-93781200D01*
X63456200Y-93781200D01*
G37*
G36*
X57545320Y-93421800D02*
X56642920Y-93421800D01*
X56642920Y-92069400D01*
X57545320Y-92069400D01*
X57545320Y-93421800D01*
X57545320Y-93421800D01*
G37*
G36*
X78161200Y-93056200D02*
X75508800Y-93056200D01*
X75508800Y-90903800D01*
X78161200Y-90903800D01*
X78161200Y-93056200D01*
X78161200Y-93056200D01*
G37*
G36*
X50178214Y-89878861D02*
X50182413Y-89878890D01*
X50362049Y-89899040D01*
X50534350Y-89953697D01*
X50692753Y-90040780D01*
X50831226Y-90156972D01*
X50944492Y-90297847D01*
X51028239Y-90458039D01*
X51079275Y-90631447D01*
X51079276Y-90631463D01*
X51079280Y-90631475D01*
X51095660Y-90811462D01*
X51076767Y-90991215D01*
X51076766Y-90991218D01*
X51076764Y-90991238D01*
X51023311Y-91163917D01*
X50937336Y-91322924D01*
X50822113Y-91462204D01*
X50682032Y-91576452D01*
X50522428Y-91661315D01*
X50349381Y-91713561D01*
X50169481Y-91731200D01*
X50160431Y-91731200D01*
X50151786Y-91731139D01*
X50147587Y-91731110D01*
X49967951Y-91710960D01*
X49795650Y-91656303D01*
X49637247Y-91569220D01*
X49498774Y-91453028D01*
X49385508Y-91312153D01*
X49301761Y-91151961D01*
X49250725Y-90978553D01*
X49250724Y-90978537D01*
X49250720Y-90978525D01*
X49234340Y-90798538D01*
X49253233Y-90618785D01*
X49253234Y-90618782D01*
X49253236Y-90618762D01*
X49306689Y-90446083D01*
X49392664Y-90287076D01*
X49507887Y-90147796D01*
X49647968Y-90033548D01*
X49807572Y-89948685D01*
X49980619Y-89896439D01*
X50160519Y-89878800D01*
X50169569Y-89878800D01*
X50178214Y-89878861D01*
X50178214Y-89878861D01*
G37*
G36*
X52718214Y-89878861D02*
X52722413Y-89878890D01*
X52902049Y-89899040D01*
X53074350Y-89953697D01*
X53232753Y-90040780D01*
X53371226Y-90156972D01*
X53484492Y-90297847D01*
X53568239Y-90458039D01*
X53619275Y-90631447D01*
X53619276Y-90631463D01*
X53619280Y-90631475D01*
X53635660Y-90811462D01*
X53616767Y-90991215D01*
X53616766Y-90991218D01*
X53616764Y-90991238D01*
X53563311Y-91163917D01*
X53477336Y-91322924D01*
X53362113Y-91462204D01*
X53222032Y-91576452D01*
X53062428Y-91661315D01*
X52889381Y-91713561D01*
X52709481Y-91731200D01*
X52700431Y-91731200D01*
X52691786Y-91731139D01*
X52687587Y-91731110D01*
X52507951Y-91710960D01*
X52335650Y-91656303D01*
X52177247Y-91569220D01*
X52038774Y-91453028D01*
X51925508Y-91312153D01*
X51841761Y-91151961D01*
X51790725Y-90978553D01*
X51790724Y-90978537D01*
X51790720Y-90978525D01*
X51774340Y-90798538D01*
X51793233Y-90618785D01*
X51793234Y-90618782D01*
X51793236Y-90618762D01*
X51846689Y-90446083D01*
X51932664Y-90287076D01*
X52047887Y-90147796D01*
X52187968Y-90033548D01*
X52347572Y-89948685D01*
X52520619Y-89896439D01*
X52700519Y-89878800D01*
X52709569Y-89878800D01*
X52718214Y-89878861D01*
X52718214Y-89878861D01*
G37*
G36*
X57545320Y-91521800D02*
X56642920Y-91521800D01*
X56642920Y-90169400D01*
X57545320Y-90169400D01*
X57545320Y-91521800D01*
X57545320Y-91521800D01*
G37*
G36*
X69076200Y-91431200D02*
X67823800Y-91431200D01*
X67823800Y-90178800D01*
X69076200Y-90178800D01*
X69076200Y-91431200D01*
X69076200Y-91431200D01*
G37*
G36*
X71876200Y-91431200D02*
X70623800Y-91431200D01*
X70623800Y-90178800D01*
X71876200Y-90178800D01*
X71876200Y-91431200D01*
X71876200Y-91431200D01*
G37*
G36*
X98533237Y-86145468D02*
X99014690Y-86244296D01*
X99467773Y-86434755D01*
X99875244Y-86709598D01*
X100221565Y-87058345D01*
X100493552Y-87467718D01*
X100680843Y-87922122D01*
X100776273Y-88404076D01*
X100776273Y-88404082D01*
X100776307Y-88404254D01*
X100768468Y-88965630D01*
X100768429Y-88965801D01*
X100768429Y-88965807D01*
X100659580Y-89444908D01*
X100459672Y-89893910D01*
X100176363Y-90295525D01*
X99820438Y-90634468D01*
X99405456Y-90897824D01*
X98947228Y-91075558D01*
X98463202Y-91160906D01*
X97971819Y-91150612D01*
X97491798Y-91045073D01*
X97041407Y-90848302D01*
X96637821Y-90567802D01*
X96296402Y-90214253D01*
X96030158Y-89801123D01*
X95849229Y-89344149D01*
X95760506Y-88860730D01*
X95767367Y-88369283D01*
X95869554Y-87888533D01*
X96063173Y-87436787D01*
X96340850Y-87031250D01*
X96692007Y-86687373D01*
X97103272Y-86418248D01*
X97558970Y-86234134D01*
X98041759Y-86142036D01*
X98533237Y-86145468D01*
X98533237Y-86145468D01*
G37*
G36*
X104469330Y-86325349D02*
X104916205Y-86417078D01*
X105336750Y-86593859D01*
X105714951Y-86848959D01*
X106036400Y-87172661D01*
X106288853Y-87552632D01*
X106462692Y-87974399D01*
X106551265Y-88421726D01*
X106551265Y-88421732D01*
X106551299Y-88421904D01*
X106544023Y-88942961D01*
X106543984Y-88943132D01*
X106543984Y-88943138D01*
X106442956Y-89387817D01*
X106257407Y-89804566D01*
X105994442Y-90177344D01*
X105664083Y-90491940D01*
X105278906Y-90736381D01*
X104853589Y-90901350D01*
X104404325Y-90980568D01*
X103948235Y-90971014D01*
X103502691Y-90873055D01*
X103084646Y-90690416D01*
X102710047Y-90430062D01*
X102393150Y-90101906D01*
X102146028Y-89718447D01*
X101978094Y-89294294D01*
X101895742Y-88845595D01*
X101902111Y-88389444D01*
X101996958Y-87943223D01*
X102176672Y-87523923D01*
X102434405Y-87147512D01*
X102760341Y-86828333D01*
X103142069Y-86578536D01*
X103565038Y-86407645D01*
X104013151Y-86322163D01*
X104469330Y-86325349D01*
X104469330Y-86325349D01*
G37*
G36*
X91076200Y-90526200D02*
X89823800Y-90526200D01*
X89823800Y-89273800D01*
X91076200Y-89273800D01*
X91076200Y-90526200D01*
X91076200Y-90526200D01*
G37*
G36*
X93876200Y-90526200D02*
X92623800Y-90526200D01*
X92623800Y-89273800D01*
X93876200Y-89273800D01*
X93876200Y-90526200D01*
X93876200Y-90526200D01*
G37*
G36*
X63456200Y-89381200D02*
X61003800Y-89381200D01*
X61003800Y-87828800D01*
X63456200Y-87828800D01*
X63456200Y-89381200D01*
X63456200Y-89381200D01*
G37*
G36*
X50178214Y-87338861D02*
X50182413Y-87338890D01*
X50362049Y-87359040D01*
X50534350Y-87413697D01*
X50692753Y-87500780D01*
X50831226Y-87616972D01*
X50944492Y-87757847D01*
X51028239Y-87918039D01*
X51079275Y-88091447D01*
X51079276Y-88091463D01*
X51079280Y-88091475D01*
X51095660Y-88271462D01*
X51076767Y-88451215D01*
X51076766Y-88451218D01*
X51076764Y-88451238D01*
X51023311Y-88623917D01*
X50937336Y-88782924D01*
X50822113Y-88922204D01*
X50682032Y-89036452D01*
X50522428Y-89121315D01*
X50349381Y-89173561D01*
X50169481Y-89191200D01*
X50160431Y-89191200D01*
X50151786Y-89191139D01*
X50147587Y-89191110D01*
X49967951Y-89170960D01*
X49795650Y-89116303D01*
X49637247Y-89029220D01*
X49498774Y-88913028D01*
X49385508Y-88772153D01*
X49301761Y-88611961D01*
X49250725Y-88438553D01*
X49250724Y-88438537D01*
X49250720Y-88438525D01*
X49234340Y-88258538D01*
X49253233Y-88078785D01*
X49253234Y-88078782D01*
X49253236Y-88078762D01*
X49306689Y-87906083D01*
X49392664Y-87747076D01*
X49507887Y-87607796D01*
X49647968Y-87493548D01*
X49807572Y-87408685D01*
X49980619Y-87356439D01*
X50160519Y-87338800D01*
X50169569Y-87338800D01*
X50178214Y-87338861D01*
X50178214Y-87338861D01*
G37*
G36*
X52718214Y-87338861D02*
X52722413Y-87338890D01*
X52902049Y-87359040D01*
X53074350Y-87413697D01*
X53232753Y-87500780D01*
X53371226Y-87616972D01*
X53484492Y-87757847D01*
X53568239Y-87918039D01*
X53619275Y-88091447D01*
X53619276Y-88091463D01*
X53619280Y-88091475D01*
X53635660Y-88271462D01*
X53616767Y-88451215D01*
X53616766Y-88451218D01*
X53616764Y-88451238D01*
X53563311Y-88623917D01*
X53477336Y-88782924D01*
X53362113Y-88922204D01*
X53222032Y-89036452D01*
X53062428Y-89121315D01*
X52889381Y-89173561D01*
X52709481Y-89191200D01*
X52700431Y-89191200D01*
X52691786Y-89191139D01*
X52687587Y-89191110D01*
X52507951Y-89170960D01*
X52335650Y-89116303D01*
X52177247Y-89029220D01*
X52038774Y-88913028D01*
X51925508Y-88772153D01*
X51841761Y-88611961D01*
X51790725Y-88438553D01*
X51790724Y-88438537D01*
X51790720Y-88438525D01*
X51774340Y-88258538D01*
X51793233Y-88078785D01*
X51793234Y-88078782D01*
X51793236Y-88078762D01*
X51846689Y-87906083D01*
X51932664Y-87747076D01*
X52047887Y-87607796D01*
X52187968Y-87493548D01*
X52347572Y-87408685D01*
X52520619Y-87356439D01*
X52700519Y-87338800D01*
X52709569Y-87338800D01*
X52718214Y-87338861D01*
X52718214Y-87338861D01*
G37*
G36*
X57476200Y-88976200D02*
X56023800Y-88976200D01*
X56023800Y-87323800D01*
X57476200Y-87323800D01*
X57476200Y-88976200D01*
X57476200Y-88976200D01*
G37*
G36*
X69961200Y-88356200D02*
X68308800Y-88356200D01*
X68308800Y-86903800D01*
X69961200Y-86903800D01*
X69961200Y-88356200D01*
X69961200Y-88356200D01*
G37*
G36*
X72661200Y-88356200D02*
X71008800Y-88356200D01*
X71008800Y-86903800D01*
X72661200Y-86903800D01*
X72661200Y-88356200D01*
X72661200Y-88356200D01*
G37*
G36*
X86176200Y-87986200D02*
X85273800Y-87986200D01*
X85273800Y-86633800D01*
X86176200Y-86633800D01*
X86176200Y-87986200D01*
X86176200Y-87986200D01*
G37*
G36*
X51091200Y-86651200D02*
X49238800Y-86651200D01*
X49238800Y-84798800D01*
X51091200Y-84798800D01*
X51091200Y-86651200D01*
X51091200Y-86651200D01*
G37*
G36*
X52718214Y-84798861D02*
X52722413Y-84798890D01*
X52902049Y-84819040D01*
X53074350Y-84873697D01*
X53232753Y-84960780D01*
X53371226Y-85076972D01*
X53484492Y-85217847D01*
X53568239Y-85378039D01*
X53619275Y-85551447D01*
X53619276Y-85551463D01*
X53619280Y-85551475D01*
X53635660Y-85731462D01*
X53616767Y-85911215D01*
X53616766Y-85911218D01*
X53616764Y-85911238D01*
X53563311Y-86083917D01*
X53477336Y-86242924D01*
X53362113Y-86382204D01*
X53222032Y-86496452D01*
X53062428Y-86581315D01*
X52889381Y-86633561D01*
X52709481Y-86651200D01*
X52700431Y-86651200D01*
X52691786Y-86651139D01*
X52687587Y-86651110D01*
X52507951Y-86630960D01*
X52335650Y-86576303D01*
X52177247Y-86489220D01*
X52038774Y-86373028D01*
X51925508Y-86232153D01*
X51841761Y-86071961D01*
X51790725Y-85898553D01*
X51790724Y-85898537D01*
X51790720Y-85898525D01*
X51774340Y-85718538D01*
X51793233Y-85538785D01*
X51793234Y-85538782D01*
X51793236Y-85538762D01*
X51846689Y-85366083D01*
X51932664Y-85207076D01*
X52047887Y-85067796D01*
X52187968Y-84953548D01*
X52347572Y-84868685D01*
X52520619Y-84816439D01*
X52700519Y-84798800D01*
X52709569Y-84798800D01*
X52718214Y-84798861D01*
X52718214Y-84798861D01*
G37*
G36*
X101426705Y-81800332D02*
X101868776Y-81891076D01*
X102284798Y-82065955D01*
X102284802Y-82065957D01*
X102284803Y-82065958D01*
X102658938Y-82318315D01*
X102658940Y-82318317D01*
X102976932Y-82638538D01*
X103024373Y-82709943D01*
X103207803Y-82986025D01*
X103226672Y-83014426D01*
X103398643Y-83431660D01*
X103477082Y-83827804D01*
X103486299Y-83874356D01*
X103479102Y-84389812D01*
X103425941Y-84623800D01*
X103379119Y-84829887D01*
X103195563Y-85242161D01*
X102935428Y-85610926D01*
X102822428Y-85718534D01*
X102608616Y-85922145D01*
X102372615Y-86071915D01*
X102227579Y-86163958D01*
X102067822Y-86225924D01*
X101806833Y-86327155D01*
X101537045Y-86374726D01*
X101362398Y-86405521D01*
X100911209Y-86396069D01*
X100470453Y-86299163D01*
X100056902Y-86118487D01*
X99686328Y-85860932D01*
X99372837Y-85536302D01*
X99128371Y-85156965D01*
X98962242Y-84737370D01*
X98880775Y-84293493D01*
X98887076Y-83842245D01*
X98980904Y-83400818D01*
X99158685Y-82986025D01*
X99158685Y-82986024D01*
X99384119Y-82656787D01*
X99413649Y-82613659D01*
X99736082Y-82297910D01*
X99776899Y-82271200D01*
X100113704Y-82050800D01*
X100168615Y-82028615D01*
X100532131Y-81881744D01*
X100975428Y-81797181D01*
X101426705Y-81800332D01*
X101426705Y-81800332D01*
G37*
G36*
X57476200Y-86276200D02*
X56023800Y-86276200D01*
X56023800Y-84623800D01*
X57476200Y-84623800D01*
X57476200Y-86276200D01*
X57476200Y-86276200D01*
G37*
G36*
X86176200Y-86086200D02*
X85273800Y-86086200D01*
X85273800Y-84733800D01*
X86176200Y-84733800D01*
X86176200Y-86086200D01*
X86176200Y-86086200D01*
G37*
G36*
X80686200Y-86021200D02*
X79333800Y-86021200D01*
X79333800Y-83668800D01*
X80686200Y-83668800D01*
X80686200Y-86021200D01*
X80686200Y-86021200D01*
G37*
G36*
X82966200Y-86021200D02*
X81613800Y-86021200D01*
X81613800Y-83668800D01*
X82966200Y-83668800D01*
X82966200Y-86021200D01*
X82966200Y-86021200D01*
G37*
G36*
X78406200Y-86021200D02*
X77053800Y-86021200D01*
X77053800Y-83668800D01*
X78406200Y-83668800D01*
X78406200Y-86021200D01*
X78406200Y-86021200D01*
G37*
G36*
X61461200Y-85586200D02*
X59108800Y-85586200D01*
X59108800Y-79433800D01*
X61461200Y-79433800D01*
X61461200Y-85586200D01*
X61461200Y-85586200D01*
G37*
G36*
X66761200Y-85586200D02*
X64408800Y-85586200D01*
X64408800Y-79433800D01*
X66761200Y-79433800D01*
X66761200Y-85586200D01*
X66761200Y-85586200D01*
G37*
G36*
X95476215Y-82388233D02*
X95476218Y-82388234D01*
X95476238Y-82388236D01*
X95648917Y-82441689D01*
X95807924Y-82527664D01*
X95947204Y-82642887D01*
X96061452Y-82782968D01*
X96146315Y-82942572D01*
X96198561Y-83115619D01*
X96216200Y-83295519D01*
X96216200Y-83304604D01*
X96216134Y-83313934D01*
X96216110Y-83317413D01*
X96195960Y-83497049D01*
X96141303Y-83669350D01*
X96054220Y-83827753D01*
X95938028Y-83966226D01*
X95797153Y-84079492D01*
X95636961Y-84163239D01*
X95463553Y-84214275D01*
X95463537Y-84214276D01*
X95463525Y-84214280D01*
X95283538Y-84230660D01*
X95103785Y-84211767D01*
X95103782Y-84211766D01*
X95103762Y-84211764D01*
X94931083Y-84158311D01*
X94772076Y-84072336D01*
X94632796Y-83957113D01*
X94518548Y-83817032D01*
X94433685Y-83657428D01*
X94381439Y-83484381D01*
X94363800Y-83304481D01*
X94363800Y-83295396D01*
X94363883Y-83283625D01*
X94363890Y-83282587D01*
X94384040Y-83102951D01*
X94438697Y-82930650D01*
X94525780Y-82772247D01*
X94641972Y-82633774D01*
X94782847Y-82520508D01*
X94943039Y-82436761D01*
X95116447Y-82385725D01*
X95116463Y-82385724D01*
X95116475Y-82385720D01*
X95296462Y-82369340D01*
X95476215Y-82388233D01*
X95476215Y-82388233D01*
G37*
G36*
X93676200Y-84226200D02*
X91823800Y-84226200D01*
X91823800Y-82373800D01*
X93676200Y-82373800D01*
X93676200Y-84226200D01*
X93676200Y-84226200D01*
G37*
G36*
X106178393Y-81280845D02*
X106422367Y-81330925D01*
X106651962Y-81427438D01*
X106858448Y-81566715D01*
X107033943Y-81743440D01*
X107171772Y-81950887D01*
X107266679Y-82181152D01*
X107315021Y-82425291D01*
X107315021Y-82425303D01*
X107315054Y-82425470D01*
X107311082Y-82709943D01*
X107311043Y-82710114D01*
X107311043Y-82710120D01*
X107255905Y-82952815D01*
X107154602Y-83180344D01*
X107011038Y-83383859D01*
X106830675Y-83555616D01*
X106620385Y-83689070D01*
X106388181Y-83779136D01*
X106142903Y-83822386D01*
X105893898Y-83817169D01*
X105650653Y-83763689D01*
X105422417Y-83663975D01*
X105217903Y-83521834D01*
X105044891Y-83342675D01*
X104909974Y-83133325D01*
X104818290Y-82901757D01*
X104773330Y-82656787D01*
X104776807Y-82407747D01*
X104828589Y-82164131D01*
X104926705Y-81935213D01*
X105067415Y-81729709D01*
X105245362Y-81555452D01*
X105453769Y-81419073D01*
X105684689Y-81325776D01*
X105929341Y-81279105D01*
X106178393Y-81280845D01*
X106178393Y-81280845D01*
G37*
G36*
X54136200Y-83341200D02*
X53083800Y-83341200D01*
X53083800Y-82388800D01*
X54136200Y-82388800D01*
X54136200Y-83341200D01*
X54136200Y-83341200D01*
G37*
G36*
X56136200Y-82391200D02*
X55083800Y-82391200D01*
X55083800Y-81438800D01*
X56136200Y-81438800D01*
X56136200Y-82391200D01*
X56136200Y-82391200D01*
G37*
G36*
X86176200Y-82271200D02*
X85273800Y-82271200D01*
X85273800Y-80918800D01*
X86176200Y-80918800D01*
X86176200Y-82271200D01*
X86176200Y-82271200D01*
G37*
G36*
X74791200Y-81861200D02*
X68638800Y-81861200D01*
X68638800Y-79508800D01*
X74791200Y-79508800D01*
X74791200Y-81861200D01*
X74791200Y-81861200D01*
G37*
G36*
X82986200Y-81821200D02*
X77033800Y-81821200D01*
X77033800Y-75268800D01*
X82986200Y-75268800D01*
X82986200Y-81821200D01*
X82986200Y-81821200D01*
G37*
G36*
X54136200Y-81441200D02*
X53083800Y-81441200D01*
X53083800Y-80488800D01*
X54136200Y-80488800D01*
X54136200Y-81441200D01*
X54136200Y-81441200D01*
G37*
G36*
X86176200Y-80371200D02*
X85273800Y-80371200D01*
X85273800Y-79018800D01*
X86176200Y-79018800D01*
X86176200Y-80371200D01*
X86176200Y-80371200D01*
G37*
G36*
X93551200Y-78656200D02*
X92748800Y-78656200D01*
X92748800Y-76943800D01*
X93551200Y-76943800D01*
X93551200Y-78656200D01*
X93551200Y-78656200D01*
G37*
G36*
X95451200Y-78656200D02*
X94648800Y-78656200D01*
X94648800Y-76943800D01*
X95451200Y-76943800D01*
X95451200Y-78656200D01*
X95451200Y-78656200D01*
G37*
G36*
X54438902Y-77034299D02*
X54583211Y-77063921D01*
X54719014Y-77121007D01*
X54841153Y-77203391D01*
X54944957Y-77307923D01*
X55026482Y-77430627D01*
X55082619Y-77566827D01*
X55111199Y-77711162D01*
X55111199Y-77711174D01*
X55111232Y-77711341D01*
X55108883Y-77879606D01*
X55108844Y-77879777D01*
X55108844Y-77879783D01*
X55076246Y-78023264D01*
X55016327Y-78157843D01*
X54931406Y-78278227D01*
X54824724Y-78379818D01*
X54700338Y-78458756D01*
X54562991Y-78512030D01*
X54417908Y-78537612D01*
X54270624Y-78534527D01*
X54126747Y-78502894D01*
X53991743Y-78443912D01*
X53870774Y-78359837D01*
X53768439Y-78253865D01*
X53688636Y-78130035D01*
X53634406Y-77993065D01*
X53607812Y-77848165D01*
X53609868Y-77700857D01*
X53640497Y-77556759D01*
X53698532Y-77421356D01*
X53781762Y-77299801D01*
X53887017Y-77196728D01*
X54010285Y-77116063D01*
X54139340Y-77063922D01*
X54146879Y-77060876D01*
X54146880Y-77060876D01*
X54146882Y-77060875D01*
X54291588Y-77033270D01*
X54438902Y-77034299D01*
X54438902Y-77034299D01*
G37*
G36*
X57798214Y-76543861D02*
X57802413Y-76543890D01*
X57982049Y-76564040D01*
X58154350Y-76618697D01*
X58312753Y-76705780D01*
X58451226Y-76821972D01*
X58564492Y-76962847D01*
X58648239Y-77123039D01*
X58699275Y-77296447D01*
X58699276Y-77296463D01*
X58699280Y-77296475D01*
X58715660Y-77476462D01*
X58696767Y-77656215D01*
X58696766Y-77656218D01*
X58696764Y-77656238D01*
X58643311Y-77828917D01*
X58557336Y-77987924D01*
X58442113Y-78127204D01*
X58302032Y-78241452D01*
X58142428Y-78326315D01*
X57969381Y-78378561D01*
X57789481Y-78396200D01*
X57780431Y-78396200D01*
X57771786Y-78396139D01*
X57767587Y-78396110D01*
X57587951Y-78375960D01*
X57415650Y-78321303D01*
X57257247Y-78234220D01*
X57118774Y-78118028D01*
X57005508Y-77977153D01*
X56921761Y-77816961D01*
X56870725Y-77643553D01*
X56870724Y-77643537D01*
X56870720Y-77643525D01*
X56854340Y-77463538D01*
X56873233Y-77283785D01*
X56873234Y-77283782D01*
X56873236Y-77283762D01*
X56926689Y-77111083D01*
X57012664Y-76952076D01*
X57127887Y-76812796D01*
X57267968Y-76698548D01*
X57427572Y-76613685D01*
X57600619Y-76561439D01*
X57780519Y-76543800D01*
X57789569Y-76543800D01*
X57798214Y-76543861D01*
X57798214Y-76543861D01*
G37*
G36*
X88106200Y-77726200D02*
X87153800Y-77726200D01*
X87153800Y-76673800D01*
X88106200Y-76673800D01*
X88106200Y-77726200D01*
X88106200Y-77726200D01*
G37*
G36*
X74791200Y-76561200D02*
X68638800Y-76561200D01*
X68638800Y-74208800D01*
X74791200Y-74208800D01*
X74791200Y-76561200D01*
X74791200Y-76561200D01*
G37*
G36*
X54438902Y-75034299D02*
X54583211Y-75063921D01*
X54719014Y-75121007D01*
X54841153Y-75203391D01*
X54944957Y-75307923D01*
X55026482Y-75430627D01*
X55082619Y-75566827D01*
X55111199Y-75711162D01*
X55111199Y-75711174D01*
X55111232Y-75711341D01*
X55108883Y-75879606D01*
X55108844Y-75879777D01*
X55108844Y-75879783D01*
X55076246Y-76023264D01*
X55016327Y-76157843D01*
X54931406Y-76278227D01*
X54824724Y-76379818D01*
X54700338Y-76458756D01*
X54562991Y-76512030D01*
X54417908Y-76537612D01*
X54270624Y-76534527D01*
X54126747Y-76502894D01*
X53991743Y-76443912D01*
X53870774Y-76359837D01*
X53768439Y-76253865D01*
X53688636Y-76130035D01*
X53634406Y-75993065D01*
X53607812Y-75848165D01*
X53609868Y-75700857D01*
X53640497Y-75556759D01*
X53698532Y-75421356D01*
X53781762Y-75299801D01*
X53887017Y-75196728D01*
X54010285Y-75116063D01*
X54139340Y-75063922D01*
X54146879Y-75060876D01*
X54146880Y-75060876D01*
X54146882Y-75060875D01*
X54291588Y-75033270D01*
X54438902Y-75034299D01*
X54438902Y-75034299D01*
G37*
G36*
X100836200Y-76241200D02*
X99483800Y-76241200D01*
X99483800Y-74888800D01*
X100836200Y-74888800D01*
X100836200Y-76241200D01*
X100836200Y-76241200D01*
G37*
G36*
X98636200Y-76241200D02*
X97283800Y-76241200D01*
X97283800Y-74888800D01*
X98636200Y-74888800D01*
X98636200Y-76241200D01*
X98636200Y-76241200D01*
G37*
G36*
X95451200Y-75956200D02*
X94648800Y-75956200D01*
X94648800Y-74243800D01*
X95451200Y-74243800D01*
X95451200Y-75956200D01*
X95451200Y-75956200D01*
G37*
G36*
X93551200Y-75956200D02*
X92748800Y-75956200D01*
X92748800Y-74243800D01*
X93551200Y-74243800D01*
X93551200Y-75956200D01*
X93551200Y-75956200D01*
G37*
G36*
X94501200Y-75956200D02*
X93698800Y-75956200D01*
X93698800Y-74243800D01*
X94501200Y-74243800D01*
X94501200Y-75956200D01*
X94501200Y-75956200D01*
G37*
G36*
X58711200Y-75856200D02*
X56858800Y-75856200D01*
X56858800Y-74003800D01*
X58711200Y-74003800D01*
X58711200Y-75856200D01*
X58711200Y-75856200D01*
G37*
G36*
X89056200Y-75726200D02*
X88103800Y-75726200D01*
X88103800Y-74673800D01*
X89056200Y-74673800D01*
X89056200Y-75726200D01*
X89056200Y-75726200D01*
G37*
G36*
X87156200Y-75726200D02*
X86203800Y-75726200D01*
X86203800Y-74673800D01*
X87156200Y-74673800D01*
X87156200Y-75726200D01*
X87156200Y-75726200D01*
G37*
G36*
X64496200Y-75381200D02*
X63143800Y-75381200D01*
X63143800Y-74478800D01*
X64496200Y-74478800D01*
X64496200Y-75381200D01*
X64496200Y-75381200D01*
G37*
G36*
X66396200Y-75381200D02*
X65043800Y-75381200D01*
X65043800Y-74478800D01*
X66396200Y-74478800D01*
X66396200Y-75381200D01*
X66396200Y-75381200D01*
G37*
M02*
