M48
;DRILL file {KiCad 4.0.6} date Sunday, June 18, 2017 'PMt' 11:18:19 PM
;FORMAT={2:4/ absolute / inch / suppress leading zeros}
FMAT,2
INCH,TZ
T1C0.013
T2C0.025
T3C0.031
T4C0.039
T5C0.040
T6C0.053
T7C0.120
T8C0.122
T9C0.140
T10C0.128
%
G90
G05
M72
T1
X20016Y-51656
X20200Y-46600
X20219Y-49649
X20960Y-33040
X21080Y-31460
X21440Y-50240
X21442Y-53806
X21500Y-33525
X21600Y-35200
X21940Y-49660
X22512Y-32909
X22599Y-46418
X22604Y-40424
X22606Y-56693
X22736Y-57872
X22824Y-55302
X22860Y-48600
X22900Y-53640
X22900Y-54200
X22928Y-38917
X23008Y-31551
X23260Y-46560
X23382Y-40478
X23535Y-55650
X23544Y-57893
X23791Y-35197
X23874Y-55681
X23888Y-57008
X24146Y-35677
X24380Y-38880
X24400Y-37200
X24661Y-55327
X24815Y-55634
X24896Y-40644
X24960Y-37180
X25122Y-55319
X25226Y-52064
X25452Y-39765
X25571Y-53945
X25622Y-55402
X25719Y-57147
X25810Y-55690
X26020Y-37380
X26037Y-56925
X26271Y-35366
X26385Y-41669
X26409Y-55362
X27080Y-37160
X27157Y-56791
X27158Y-35064
X27210Y-55551
X27285Y-49530
X27288Y-33876
X27363Y-40320
X27375Y-47400
X27500Y-57420
X27885Y-47970
X27918Y-55518
X27969Y-39744
X27995Y-33845
X28200Y-48600
X28260Y-49540
X28488Y-56438
X28606Y-38701
X28616Y-33128
X28660Y-49600
X28940Y-51420
X29020Y-54220
X29350Y-54075
X29502Y-45060
X29718Y-45354
X30400Y-49540
X30435Y-49986
X30560Y-49200
X30749Y-32648
X31343Y-54886
X31540Y-35440
X31700Y-49480
X32043Y-34520
X32060Y-49360
X32327Y-53870
X32382Y-52016
X32976Y-39420
X33038Y-50451
X34206Y-53847
X34460Y-32160
X34744Y-41425
X35213Y-41783
X35280Y-30480
X35532Y-44968
X36000Y-49540
X36042Y-49944
X36100Y-30050
X36220Y-43220
X36360Y-49460
X36405Y-46305
X36525Y-48525
X36585Y-47670
X37051Y-30972
X37160Y-50840
X37200Y-53600
X37500Y-52040
X37950Y-39776
X38020Y-30799
X38100Y-30325
X38700Y-46305
X38730Y-49485
X38820Y-47910
X40067Y-30091
T2
X21402Y-29837
X21402Y-30624
T3
X29909Y-54244
X29909Y-57244
X30909Y-54244
X30909Y-57244
X31909Y-54244
X31909Y-57244
X32909Y-54244
X32909Y-57244
T4
X19750Y-33750
X19750Y-34750
X19750Y-35750
X19750Y-36750
X19750Y-37750
X19750Y-38750
X19750Y-39750
X19750Y-40750
X19750Y-41750
X19750Y-42750
X19750Y-43750
X19750Y-44750
X20750Y-33750
X20750Y-34750
X20750Y-35750
X20750Y-36750
X20750Y-37750
X20750Y-38750
X20750Y-39750
X20750Y-40750
X20750Y-41750
X20750Y-42750
X20750Y-43750
X20750Y-44750
X22750Y-29500
X22750Y-30500
X31000Y-39500
X31000Y-40500
X33000Y-36750
X34000Y-36750
X35000Y-36750
X36516Y-32795
X37516Y-32795
X41000Y-38250
X41000Y-39250
X41000Y-40250
X42000Y-38250
X42000Y-39250
X42000Y-40250
T5
X23750Y-42750
X23750Y-52750
X24750Y-42750
X24750Y-52750
X25750Y-42750
X25750Y-52750
X26750Y-42750
X26750Y-52750
X27750Y-42750
X27750Y-52750
X28750Y-42750
X28750Y-52750
X29750Y-42750
X29750Y-52750
X30750Y-42750
X30750Y-52750
X31750Y-42750
X31750Y-52750
X32750Y-42750
X32750Y-52750
X33750Y-42750
X33750Y-52750
X34750Y-42750
X34750Y-52750
X35750Y-42750
X35750Y-52750
X36750Y-42750
X36750Y-52750
X37750Y-42750
X37750Y-52750
X38750Y-42750
X38750Y-52750
X39750Y-42750
X39750Y-52750
X40750Y-42750
X40750Y-52750
X41750Y-42750
X41750Y-52750
T6
X35248Y-55787
X39185Y-54803
X39185Y-56772
T7
X39837Y-33110
T8
X41033Y-34902
T9
X38689Y-34902
T10
X20250Y-58000
T0
M30
